<?xml version="1.0" encoding="utf-8" standalone="no"?>
<!DOCTYPE svg PUBLIC "-//W3C//DTD SVG 1.1//EN"
  "http://www.w3.org/Graphics/SVG/1.1/DTD/svg11.dtd">
<svg xmlns:xlink="http://www.w3.org/1999/xlink" width="720pt" height="432pt" viewBox="0 0 720 432" xmlns="http://www.w3.org/2000/svg" version="1.1">
 <metadata>
  <rdf:RDF xmlns:dc="http://purl.org/dc/elements/1.1/" xmlns:cc="http://creativecommons.org/ns#" xmlns:rdf="http://www.w3.org/1999/02/22-rdf-syntax-ns#">
   <cc:Work>
    <dc:type rdf:resource="http://purl.org/dc/dcmitype/StillImage"/>
    <dc:date>2025-12-10T00:53:05.172978</dc:date>
    <dc:format>image/svg+xml</dc:format>
    <dc:creator>
     <cc:Agent>
      <dc:title>Matplotlib v3.10.7, https://matplotlib.org/</dc:title>
     </cc:Agent>
    </dc:creator>
   </cc:Work>
  </rdf:RDF>
 </metadata>
 <defs>
  <style type="text/css">*{stroke-linejoin: round; stroke-linecap: butt}</style>
 </defs>
 <g id="figure_1">
  <g id="patch_1">
   <path d="M 0 432 
L 720 432 
L 720 0 
L 0 0 
z
" style="fill: #ffffff"/>
  </g>
  <g id="axes_1">
   <g id="patch_2">
    <path d="M 90 384.48 
L 648 384.48 
L 648 51.84 
L 90 51.84 
z
" style="fill: #ffffff"/>
   </g>
   <g id="patch_3">
    <path d="M 115.363636 384.48 
L 120.436364 384.48 
L 120.436364 384.386438 
L 115.363636 384.386438 
z
" clip-path="url(#p1ed3b74ac4)" style="fill: #87ceeb; opacity: 0.7; stroke: #000000; stroke-linejoin: miter"/>
   </g>
   <g id="patch_4">
    <path d="M 120.436364 384.48 
L 125.509091 384.48 
L 125.509091 384.386438 
L 120.436364 384.386438 
z
" clip-path="url(#p1ed3b74ac4)" style="fill: #87ceeb; opacity: 0.7; stroke: #000000; stroke-linejoin: miter"/>
   </g>
   <g id="patch_5">
    <path d="M 125.509091 384.48 
L 130.581818 384.48 
L 130.581818 384.48 
L 125.509091 384.48 
z
" clip-path="url(#p1ed3b74ac4)" style="fill: #87ceeb; opacity: 0.7; stroke: #000000; stroke-linejoin: miter"/>
   </g>
   <g id="patch_6">
    <path d="M 130.581818 384.48 
L 135.654545 384.48 
L 135.654545 384.48 
L 130.581818 384.48 
z
" clip-path="url(#p1ed3b74ac4)" style="fill: #87ceeb; opacity: 0.7; stroke: #000000; stroke-linejoin: miter"/>
   </g>
   <g id="patch_7">
    <path d="M 135.654545 384.48 
L 140.727273 384.48 
L 140.727273 384.386438 
L 135.654545 384.386438 
z
" clip-path="url(#p1ed3b74ac4)" style="fill: #87ceeb; opacity: 0.7; stroke: #000000; stroke-linejoin: miter"/>
   </g>
   <g id="patch_8">
    <path d="M 140.727273 384.48 
L 145.8 384.48 
L 145.8 384.386438 
L 140.727273 384.386438 
z
" clip-path="url(#p1ed3b74ac4)" style="fill: #87ceeb; opacity: 0.7; stroke: #000000; stroke-linejoin: miter"/>
   </g>
   <g id="patch_9">
    <path d="M 145.8 384.48 
L 150.872727 384.48 
L 150.872727 384.292877 
L 145.8 384.292877 
z
" clip-path="url(#p1ed3b74ac4)" style="fill: #87ceeb; opacity: 0.7; stroke: #000000; stroke-linejoin: miter"/>
   </g>
   <g id="patch_10">
    <path d="M 150.872727 384.48 
L 155.945455 384.48 
L 155.945455 384.012191 
L 150.872727 384.012191 
z
" clip-path="url(#p1ed3b74ac4)" style="fill: #87ceeb; opacity: 0.7; stroke: #000000; stroke-linejoin: miter"/>
   </g>
   <g id="patch_11">
    <path d="M 155.945455 384.48 
L 161.018182 384.48 
L 161.018182 384.292877 
L 155.945455 384.292877 
z
" clip-path="url(#p1ed3b74ac4)" style="fill: #87ceeb; opacity: 0.7; stroke: #000000; stroke-linejoin: miter"/>
   </g>
   <g id="patch_12">
    <path d="M 161.018182 384.48 
L 166.090909 384.48 
L 166.090909 383.544383 
L 161.018182 383.544383 
z
" clip-path="url(#p1ed3b74ac4)" style="fill: #87ceeb; opacity: 0.7; stroke: #000000; stroke-linejoin: miter"/>
   </g>
   <g id="patch_13">
    <path d="M 166.090909 384.48 
L 171.163636 384.48 
L 171.163636 383.731506 
L 166.090909 383.731506 
z
" clip-path="url(#p1ed3b74ac4)" style="fill: #87ceeb; opacity: 0.7; stroke: #000000; stroke-linejoin: miter"/>
   </g>
   <g id="patch_14">
    <path d="M 171.163636 384.48 
L 176.236364 384.48 
L 176.236364 382.515204 
L 171.163636 382.515204 
z
" clip-path="url(#p1ed3b74ac4)" style="fill: #87ceeb; opacity: 0.7; stroke: #000000; stroke-linejoin: miter"/>
   </g>
   <g id="patch_15">
    <path d="M 176.236364 384.48 
L 181.309091 384.48 
L 181.309091 383.263698 
L 176.236364 383.263698 
z
" clip-path="url(#p1ed3b74ac4)" style="fill: #87ceeb; opacity: 0.7; stroke: #000000; stroke-linejoin: miter"/>
   </g>
   <g id="patch_16">
    <path d="M 181.309091 384.48 
L 186.381818 384.48 
L 186.381818 383.076574 
L 181.309091 383.076574 
z
" clip-path="url(#p1ed3b74ac4)" style="fill: #87ceeb; opacity: 0.7; stroke: #000000; stroke-linejoin: miter"/>
   </g>
   <g id="patch_17">
    <path d="M 186.381818 384.48 
L 191.454545 384.48 
L 191.454545 381.673148 
L 186.381818 381.673148 
z
" clip-path="url(#p1ed3b74ac4)" style="fill: #87ceeb; opacity: 0.7; stroke: #000000; stroke-linejoin: miter"/>
   </g>
   <g id="patch_18">
    <path d="M 191.454545 384.48 
L 196.527273 384.48 
L 196.527273 382.140957 
L 191.454545 382.140957 
z
" clip-path="url(#p1ed3b74ac4)" style="fill: #87ceeb; opacity: 0.7; stroke: #000000; stroke-linejoin: miter"/>
   </g>
   <g id="patch_19">
    <path d="M 196.527273 384.48 
L 201.6 384.48 
L 201.6 379.521229 
L 196.527273 379.521229 
z
" clip-path="url(#p1ed3b74ac4)" style="fill: #87ceeb; opacity: 0.7; stroke: #000000; stroke-linejoin: miter"/>
   </g>
   <g id="patch_20">
    <path d="M 201.6 384.48 
L 206.672727 384.48 
L 206.672727 378.959858 
L 201.6 378.959858 
z
" clip-path="url(#p1ed3b74ac4)" style="fill: #87ceeb; opacity: 0.7; stroke: #000000; stroke-linejoin: miter"/>
   </g>
   <g id="patch_21">
    <path d="M 206.672727 384.48 
L 211.745455 384.48 
L 211.745455 374.656019 
L 206.672727 374.656019 
z
" clip-path="url(#p1ed3b74ac4)" style="fill: #87ceeb; opacity: 0.7; stroke: #000000; stroke-linejoin: miter"/>
   </g>
   <g id="patch_22">
    <path d="M 211.745455 384.48 
L 216.818182 384.48 
L 216.818182 372.784784 
L 211.745455 372.784784 
z
" clip-path="url(#p1ed3b74ac4)" style="fill: #87ceeb; opacity: 0.7; stroke: #000000; stroke-linejoin: miter"/>
   </g>
   <g id="patch_23">
    <path d="M 216.818182 384.48 
L 221.890909 384.48 
L 221.890909 372.129852 
L 216.818182 372.129852 
z
" clip-path="url(#p1ed3b74ac4)" style="fill: #87ceeb; opacity: 0.7; stroke: #000000; stroke-linejoin: miter"/>
   </g>
   <g id="patch_24">
    <path d="M 221.890909 384.48 
L 226.963636 384.48 
L 226.963636 369.416562 
L 221.890909 369.416562 
z
" clip-path="url(#p1ed3b74ac4)" style="fill: #87ceeb; opacity: 0.7; stroke: #000000; stroke-linejoin: miter"/>
   </g>
   <g id="patch_25">
    <path d="M 226.963636 384.48 
L 232.036364 384.48 
L 232.036364 369.042315 
L 226.963636 369.042315 
z
" clip-path="url(#p1ed3b74ac4)" style="fill: #87ceeb; opacity: 0.7; stroke: #000000; stroke-linejoin: miter"/>
   </g>
   <g id="patch_26">
    <path d="M 232.036364 384.48 
L 237.109091 384.48 
L 237.109091 363.33505 
L 232.036364 363.33505 
z
" clip-path="url(#p1ed3b74ac4)" style="fill: #87ceeb; opacity: 0.7; stroke: #000000; stroke-linejoin: miter"/>
   </g>
   <g id="patch_27">
    <path d="M 237.109091 384.48 
L 242.181818 384.48 
L 242.181818 360.341075 
L 237.109091 360.341075 
z
" clip-path="url(#p1ed3b74ac4)" style="fill: #87ceeb; opacity: 0.7; stroke: #000000; stroke-linejoin: miter"/>
   </g>
   <g id="patch_28">
    <path d="M 242.181818 384.48 
L 247.254545 384.48 
L 247.254545 352.014082 
L 242.181818 352.014082 
z
" clip-path="url(#p1ed3b74ac4)" style="fill: #87ceeb; opacity: 0.7; stroke: #000000; stroke-linejoin: miter"/>
   </g>
   <g id="patch_29">
    <path d="M 247.254545 384.48 
L 252.327273 384.48 
L 252.327273 346.681063 
L 247.254545 346.681063 
z
" clip-path="url(#p1ed3b74ac4)" style="fill: #87ceeb; opacity: 0.7; stroke: #000000; stroke-linejoin: miter"/>
   </g>
   <g id="patch_30">
    <path d="M 252.327273 384.48 
L 257.4 384.48 
L 257.4 340.318866 
L 252.327273 340.318866 
z
" clip-path="url(#p1ed3b74ac4)" style="fill: #87ceeb; opacity: 0.7; stroke: #000000; stroke-linejoin: miter"/>
   </g>
   <g id="patch_31">
    <path d="M 257.4 384.48 
L 262.472727 384.48 
L 262.472727 331.617626 
L 257.4 331.617626 
z
" clip-path="url(#p1ed3b74ac4)" style="fill: #87ceeb; opacity: 0.7; stroke: #000000; stroke-linejoin: miter"/>
   </g>
   <g id="patch_32">
    <path d="M 262.472727 384.48 
L 267.545455 384.48 
L 267.545455 326.191045 
L 262.472727 326.191045 
z
" clip-path="url(#p1ed3b74ac4)" style="fill: #87ceeb; opacity: 0.7; stroke: #000000; stroke-linejoin: miter"/>
   </g>
   <g id="patch_33">
    <path d="M 267.545455 384.48 
L 272.618182 384.48 
L 272.618182 315.712132 
L 267.545455 315.712132 
z
" clip-path="url(#p1ed3b74ac4)" style="fill: #87ceeb; opacity: 0.7; stroke: #000000; stroke-linejoin: miter"/>
   </g>
   <g id="patch_34">
    <path d="M 272.618182 384.48 
L 277.690909 384.48 
L 277.690909 301.116503 
L 272.618182 301.116503 
z
" clip-path="url(#p1ed3b74ac4)" style="fill: #87ceeb; opacity: 0.7; stroke: #000000; stroke-linejoin: miter"/>
   </g>
   <g id="patch_35">
    <path d="M 277.690909 384.48 
L 282.763636 384.48 
L 282.763636 289.421288 
L 277.690909 289.421288 
z
" clip-path="url(#p1ed3b74ac4)" style="fill: #87ceeb; opacity: 0.7; stroke: #000000; stroke-linejoin: miter"/>
   </g>
   <g id="patch_36">
    <path d="M 282.763636 384.48 
L 287.836364 384.48 
L 287.836364 277.726072 
L 282.763636 277.726072 
z
" clip-path="url(#p1ed3b74ac4)" style="fill: #87ceeb; opacity: 0.7; stroke: #000000; stroke-linejoin: miter"/>
   </g>
   <g id="patch_37">
    <path d="M 287.836364 384.48 
L 292.909091 384.48 
L 292.909091 256.581122 
L 287.836364 256.581122 
z
" clip-path="url(#p1ed3b74ac4)" style="fill: #87ceeb; opacity: 0.7; stroke: #000000; stroke-linejoin: miter"/>
   </g>
   <g id="patch_38">
    <path d="M 292.909091 384.48 
L 297.981818 384.48 
L 297.981818 244.324536 
L 292.909091 244.324536 
z
" clip-path="url(#p1ed3b74ac4)" style="fill: #87ceeb; opacity: 0.7; stroke: #000000; stroke-linejoin: miter"/>
   </g>
   <g id="patch_39">
    <path d="M 297.981818 384.48 
L 303.054545 384.48 
L 303.054545 230.851648 
L 297.981818 230.851648 
z
" clip-path="url(#p1ed3b74ac4)" style="fill: #87ceeb; opacity: 0.7; stroke: #000000; stroke-linejoin: miter"/>
   </g>
   <g id="patch_40">
    <path d="M 303.054545 384.48 
L 308.127273 384.48 
L 308.127273 222.992463 
L 303.054545 222.992463 
z
" clip-path="url(#p1ed3b74ac4)" style="fill: #87ceeb; opacity: 0.7; stroke: #000000; stroke-linejoin: miter"/>
   </g>
   <g id="patch_41">
    <path d="M 308.127273 384.48 
L 313.2 384.48 
L 313.2 212.139303 
L 308.127273 212.139303 
z
" clip-path="url(#p1ed3b74ac4)" style="fill: #87ceeb; opacity: 0.7; stroke: #000000; stroke-linejoin: miter"/>
   </g>
   <g id="patch_42">
    <path d="M 313.2 384.48 
L 318.272727 384.48 
L 318.272727 191.462162 
L 313.2 191.462162 
z
" clip-path="url(#p1ed3b74ac4)" style="fill: #87ceeb; opacity: 0.7; stroke: #000000; stroke-linejoin: miter"/>
   </g>
   <g id="patch_43">
    <path d="M 318.272727 384.48 
L 323.345455 384.48 
L 323.345455 170.691459 
L 318.272727 170.691459 
z
" clip-path="url(#p1ed3b74ac4)" style="fill: #87ceeb; opacity: 0.7; stroke: #000000; stroke-linejoin: miter"/>
   </g>
   <g id="patch_44">
    <path d="M 323.345455 384.48 
L 328.418182 384.48 
L 328.418182 158.060626 
L 323.345455 158.060626 
z
" clip-path="url(#p1ed3b74ac4)" style="fill: #87ceeb; opacity: 0.7; stroke: #000000; stroke-linejoin: miter"/>
   </g>
   <g id="patch_45">
    <path d="M 328.418182 384.48 
L 333.490909 384.48 
L 333.490909 147.862398 
L 328.418182 147.862398 
z
" clip-path="url(#p1ed3b74ac4)" style="fill: #87ceeb; opacity: 0.7; stroke: #000000; stroke-linejoin: miter"/>
   </g>
   <g id="patch_46">
    <path d="M 333.490909 384.48 
L 338.563636 384.48 
L 338.563636 141.219516 
L 333.490909 141.219516 
z
" clip-path="url(#p1ed3b74ac4)" style="fill: #87ceeb; opacity: 0.7; stroke: #000000; stroke-linejoin: miter"/>
   </g>
   <g id="patch_47">
    <path d="M 338.563636 384.48 
L 343.636364 384.48 
L 343.636364 114.367301 
L 338.563636 114.367301 
z
" clip-path="url(#p1ed3b74ac4)" style="fill: #87ceeb; opacity: 0.7; stroke: #000000; stroke-linejoin: miter"/>
   </g>
   <g id="patch_48">
    <path d="M 343.636364 384.48 
L 348.709091 384.48 
L 348.709091 109.502091 
L 343.636364 109.502091 
z
" clip-path="url(#p1ed3b74ac4)" style="fill: #87ceeb; opacity: 0.7; stroke: #000000; stroke-linejoin: miter"/>
   </g>
   <g id="patch_49">
    <path d="M 348.709091 384.48 
L 353.781818 384.48 
L 353.781818 89.199197 
L 348.709091 89.199197 
z
" clip-path="url(#p1ed3b74ac4)" style="fill: #87ceeb; opacity: 0.7; stroke: #000000; stroke-linejoin: miter"/>
   </g>
   <g id="patch_50">
    <path d="M 353.781818 384.48 
L 358.854545 384.48 
L 358.854545 77.223296 
L 353.781818 77.223296 
z
" clip-path="url(#p1ed3b74ac4)" style="fill: #87ceeb; opacity: 0.7; stroke: #000000; stroke-linejoin: miter"/>
   </g>
   <g id="patch_51">
    <path d="M 358.854545 384.48 
L 363.927273 384.48 
L 363.927273 71.422469 
L 358.854545 71.422469 
z
" clip-path="url(#p1ed3b74ac4)" style="fill: #87ceeb; opacity: 0.7; stroke: #000000; stroke-linejoin: miter"/>
   </g>
   <g id="patch_52">
    <path d="M 363.927273 384.48 
L 369 384.48 
L 369 89.573444 
L 363.927273 89.573444 
z
" clip-path="url(#p1ed3b74ac4)" style="fill: #87ceeb; opacity: 0.7; stroke: #000000; stroke-linejoin: miter"/>
   </g>
   <g id="patch_53">
    <path d="M 369 384.48 
L 374.072727 384.48 
L 374.072727 71.516031 
L 369 71.516031 
z
" clip-path="url(#p1ed3b74ac4)" style="fill: #87ceeb; opacity: 0.7; stroke: #000000; stroke-linejoin: miter"/>
   </g>
   <g id="patch_54">
    <path d="M 374.072727 384.48 
L 379.145455 384.48 
L 379.145455 67.68 
L 374.072727 67.68 
z
" clip-path="url(#p1ed3b74ac4)" style="fill: #87ceeb; opacity: 0.7; stroke: #000000; stroke-linejoin: miter"/>
   </g>
   <g id="patch_55">
    <path d="M 379.145455 384.48 
L 384.218182 384.48 
L 384.218182 84.240425 
L 379.145455 84.240425 
z
" clip-path="url(#p1ed3b74ac4)" style="fill: #87ceeb; opacity: 0.7; stroke: #000000; stroke-linejoin: miter"/>
   </g>
   <g id="patch_56">
    <path d="M 384.218182 384.48 
L 389.290909 384.48 
L 389.290909 74.042197 
L 384.218182 74.042197 
z
" clip-path="url(#p1ed3b74ac4)" style="fill: #87ceeb; opacity: 0.7; stroke: #000000; stroke-linejoin: miter"/>
   </g>
   <g id="patch_57">
    <path d="M 389.290909 384.48 
L 394.363636 384.48 
L 394.363636 80.123709 
L 389.290909 80.123709 
z
" clip-path="url(#p1ed3b74ac4)" style="fill: #87ceeb; opacity: 0.7; stroke: #000000; stroke-linejoin: miter"/>
   </g>
   <g id="patch_58">
    <path d="M 394.363636 384.48 
L 399.436364 384.48 
L 399.436364 112.776751 
L 394.363636 112.776751 
z
" clip-path="url(#p1ed3b74ac4)" style="fill: #87ceeb; opacity: 0.7; stroke: #000000; stroke-linejoin: miter"/>
   </g>
   <g id="patch_59">
    <path d="M 399.436364 384.48 
L 404.509091 384.48 
L 404.509091 106.788801 
L 399.436364 106.788801 
z
" clip-path="url(#p1ed3b74ac4)" style="fill: #87ceeb; opacity: 0.7; stroke: #000000; stroke-linejoin: miter"/>
   </g>
   <g id="patch_60">
    <path d="M 404.509091 384.48 
L 409.581818 384.48 
L 409.581818 114.928671 
L 404.509091 114.928671 
z
" clip-path="url(#p1ed3b74ac4)" style="fill: #87ceeb; opacity: 0.7; stroke: #000000; stroke-linejoin: miter"/>
   </g>
   <g id="patch_61">
    <path d="M 409.581818 384.48 
L 414.654545 384.48 
L 414.654545 123.162103 
L 409.581818 123.162103 
z
" clip-path="url(#p1ed3b74ac4)" style="fill: #87ceeb; opacity: 0.7; stroke: #000000; stroke-linejoin: miter"/>
   </g>
   <g id="patch_62">
    <path d="M 414.654545 384.48 
L 419.727273 384.48 
L 419.727273 135.792936 
L 414.654545 135.792936 
z
" clip-path="url(#p1ed3b74ac4)" style="fill: #87ceeb; opacity: 0.7; stroke: #000000; stroke-linejoin: miter"/>
   </g>
   <g id="patch_63">
    <path d="M 419.727273 384.48 
L 424.8 384.48 
L 424.8 143.371435 
L 419.727273 143.371435 
z
" clip-path="url(#p1ed3b74ac4)" style="fill: #87ceeb; opacity: 0.7; stroke: #000000; stroke-linejoin: miter"/>
   </g>
   <g id="patch_64">
    <path d="M 424.8 384.48 
L 429.872727 384.48 
L 429.872727 178.176397 
L 424.8 178.176397 
z
" clip-path="url(#p1ed3b74ac4)" style="fill: #87ceeb; opacity: 0.7; stroke: #000000; stroke-linejoin: miter"/>
   </g>
   <g id="patch_65">
    <path d="M 429.872727 384.48 
L 434.945455 384.48 
L 434.945455 194.456137 
L 429.872727 194.456137 
z
" clip-path="url(#p1ed3b74ac4)" style="fill: #87ceeb; opacity: 0.7; stroke: #000000; stroke-linejoin: miter"/>
   </g>
   <g id="patch_66">
    <path d="M 434.945455 384.48 
L 440.018182 384.48 
L 440.018182 200.069841 
L 434.945455 200.069841 
z
" clip-path="url(#p1ed3b74ac4)" style="fill: #87ceeb; opacity: 0.7; stroke: #000000; stroke-linejoin: miter"/>
   </g>
   <g id="patch_67">
    <path d="M 440.018182 384.48 
L 445.090909 384.48 
L 445.090909 221.308352 
L 440.018182 221.308352 
z
" clip-path="url(#p1ed3b74ac4)" style="fill: #87ceeb; opacity: 0.7; stroke: #000000; stroke-linejoin: miter"/>
   </g>
   <g id="patch_68">
    <path d="M 445.090909 384.48 
L 450.163636 384.48 
L 450.163636 223.92808 
L 445.090909 223.92808 
z
" clip-path="url(#p1ed3b74ac4)" style="fill: #87ceeb; opacity: 0.7; stroke: #000000; stroke-linejoin: miter"/>
   </g>
   <g id="patch_69">
    <path d="M 450.163636 384.48 
L 455.236364 384.48 
L 455.236364 252.932215 
L 450.163636 252.932215 
z
" clip-path="url(#p1ed3b74ac4)" style="fill: #87ceeb; opacity: 0.7; stroke: #000000; stroke-linejoin: miter"/>
   </g>
   <g id="patch_70">
    <path d="M 455.236364 384.48 
L 460.309091 384.48 
L 460.309091 265.188801 
L 455.236364 265.188801 
z
" clip-path="url(#p1ed3b74ac4)" style="fill: #87ceeb; opacity: 0.7; stroke: #000000; stroke-linejoin: miter"/>
   </g>
   <g id="patch_71">
    <path d="M 460.309091 384.48 
L 465.381818 384.48 
L 465.381818 278.755251 
L 460.309091 278.755251 
z
" clip-path="url(#p1ed3b74ac4)" style="fill: #87ceeb; opacity: 0.7; stroke: #000000; stroke-linejoin: miter"/>
   </g>
   <g id="patch_72">
    <path d="M 465.381818 384.48 
L 470.454545 384.48 
L 470.454545 286.707998 
L 465.381818 286.707998 
z
" clip-path="url(#p1ed3b74ac4)" style="fill: #87ceeb; opacity: 0.7; stroke: #000000; stroke-linejoin: miter"/>
   </g>
   <g id="patch_73">
    <path d="M 470.454545 384.48 
L 475.527273 384.48 
L 475.527273 304.671849 
L 470.454545 304.671849 
z
" clip-path="url(#p1ed3b74ac4)" style="fill: #87ceeb; opacity: 0.7; stroke: #000000; stroke-linejoin: miter"/>
   </g>
   <g id="patch_74">
    <path d="M 475.527273 384.48 
L 480.6 384.48 
L 480.6 316.273503 
L 475.527273 316.273503 
z
" clip-path="url(#p1ed3b74ac4)" style="fill: #87ceeb; opacity: 0.7; stroke: #000000; stroke-linejoin: miter"/>
   </g>
   <g id="patch_75">
    <path d="M 480.6 384.48 
L 485.672727 384.48 
L 485.672727 317.676929 
L 480.6 317.676929 
z
" clip-path="url(#p1ed3b74ac4)" style="fill: #87ceeb; opacity: 0.7; stroke: #000000; stroke-linejoin: miter"/>
   </g>
   <g id="patch_76">
    <path d="M 485.672727 384.48 
L 490.745455 384.48 
L 490.745455 324.694058 
L 485.672727 324.694058 
z
" clip-path="url(#p1ed3b74ac4)" style="fill: #87ceeb; opacity: 0.7; stroke: #000000; stroke-linejoin: miter"/>
   </g>
   <g id="patch_77">
    <path d="M 490.745455 384.48 
L 495.818182 384.48 
L 495.818182 340.973798 
L 490.745455 340.973798 
z
" clip-path="url(#p1ed3b74ac4)" style="fill: #87ceeb; opacity: 0.7; stroke: #000000; stroke-linejoin: miter"/>
   </g>
   <g id="patch_78">
    <path d="M 495.818182 384.48 
L 500.890909 384.48 
L 500.890909 339.944619 
L 495.818182 339.944619 
z
" clip-path="url(#p1ed3b74ac4)" style="fill: #87ceeb; opacity: 0.7; stroke: #000000; stroke-linejoin: miter"/>
   </g>
   <g id="patch_79">
    <path d="M 500.890909 384.48 
L 505.963636 384.48 
L 505.963636 352.107643 
L 500.890909 352.107643 
z
" clip-path="url(#p1ed3b74ac4)" style="fill: #87ceeb; opacity: 0.7; stroke: #000000; stroke-linejoin: miter"/>
   </g>
   <g id="patch_80">
    <path d="M 505.963636 384.48 
L 511.036364 384.48 
L 511.036364 360.528198 
L 505.963636 360.528198 
z
" clip-path="url(#p1ed3b74ac4)" style="fill: #87ceeb; opacity: 0.7; stroke: #000000; stroke-linejoin: miter"/>
   </g>
   <g id="patch_81">
    <path d="M 511.036364 384.48 
L 516.109091 384.48 
L 516.109091 361.557377 
L 511.036364 361.557377 
z
" clip-path="url(#p1ed3b74ac4)" style="fill: #87ceeb; opacity: 0.7; stroke: #000000; stroke-linejoin: miter"/>
   </g>
   <g id="patch_82">
    <path d="M 516.109091 384.48 
L 521.181818 384.48 
L 521.181818 361.744501 
L 516.109091 361.744501 
z
" clip-path="url(#p1ed3b74ac4)" style="fill: #87ceeb; opacity: 0.7; stroke: #000000; stroke-linejoin: miter"/>
   </g>
   <g id="patch_83">
    <path d="M 521.181818 384.48 
L 526.254545 384.48 
L 526.254545 367.171081 
L 521.181818 367.171081 
z
" clip-path="url(#p1ed3b74ac4)" style="fill: #87ceeb; opacity: 0.7; stroke: #000000; stroke-linejoin: miter"/>
   </g>
   <g id="patch_84">
    <path d="M 526.254545 384.48 
L 531.327273 384.48 
L 531.327273 369.977933 
L 526.254545 369.977933 
z
" clip-path="url(#p1ed3b74ac4)" style="fill: #87ceeb; opacity: 0.7; stroke: #000000; stroke-linejoin: miter"/>
   </g>
   <g id="patch_85">
    <path d="M 531.327273 384.48 
L 536.4 384.48 
L 536.4 375.123828 
L 531.327273 375.123828 
z
" clip-path="url(#p1ed3b74ac4)" style="fill: #87ceeb; opacity: 0.7; stroke: #000000; stroke-linejoin: miter"/>
   </g>
   <g id="patch_86">
    <path d="M 536.4 384.48 
L 541.472727 384.48 
L 541.472727 375.872321 
L 536.4 375.872321 
z
" clip-path="url(#p1ed3b74ac4)" style="fill: #87ceeb; opacity: 0.7; stroke: #000000; stroke-linejoin: miter"/>
   </g>
   <g id="patch_87">
    <path d="M 541.472727 384.48 
L 546.545455 384.48 
L 546.545455 379.146982 
L 541.472727 379.146982 
z
" clip-path="url(#p1ed3b74ac4)" style="fill: #87ceeb; opacity: 0.7; stroke: #000000; stroke-linejoin: miter"/>
   </g>
   <g id="patch_88">
    <path d="M 546.545455 384.48 
L 551.618182 384.48 
L 551.618182 377.088624 
L 546.545455 377.088624 
z
" clip-path="url(#p1ed3b74ac4)" style="fill: #87ceeb; opacity: 0.7; stroke: #000000; stroke-linejoin: miter"/>
   </g>
   <g id="patch_89">
    <path d="M 551.618182 384.48 
L 556.690909 384.48 
L 556.690909 380.643969 
L 551.618182 380.643969 
z
" clip-path="url(#p1ed3b74ac4)" style="fill: #87ceeb; opacity: 0.7; stroke: #000000; stroke-linejoin: miter"/>
   </g>
   <g id="patch_90">
    <path d="M 556.690909 384.48 
L 561.763636 384.48 
L 561.763636 379.521229 
L 556.690909 379.521229 
z
" clip-path="url(#p1ed3b74ac4)" style="fill: #87ceeb; opacity: 0.7; stroke: #000000; stroke-linejoin: miter"/>
   </g>
   <g id="patch_91">
    <path d="M 561.763636 384.48 
L 566.836364 384.48 
L 566.836364 381.76671 
L 561.763636 381.76671 
z
" clip-path="url(#p1ed3b74ac4)" style="fill: #87ceeb; opacity: 0.7; stroke: #000000; stroke-linejoin: miter"/>
   </g>
   <g id="patch_92">
    <path d="M 566.836364 384.48 
L 571.909091 384.48 
L 571.909091 383.170136 
L 566.836364 383.170136 
z
" clip-path="url(#p1ed3b74ac4)" style="fill: #87ceeb; opacity: 0.7; stroke: #000000; stroke-linejoin: miter"/>
   </g>
   <g id="patch_93">
    <path d="M 571.909091 384.48 
L 576.981818 384.48 
L 576.981818 383.637944 
L 571.909091 383.637944 
z
" clip-path="url(#p1ed3b74ac4)" style="fill: #87ceeb; opacity: 0.7; stroke: #000000; stroke-linejoin: miter"/>
   </g>
   <g id="patch_94">
    <path d="M 576.981818 384.48 
L 582.054545 384.48 
L 582.054545 382.983012 
L 576.981818 382.983012 
z
" clip-path="url(#p1ed3b74ac4)" style="fill: #87ceeb; opacity: 0.7; stroke: #000000; stroke-linejoin: miter"/>
   </g>
   <g id="patch_95">
    <path d="M 582.054545 384.48 
L 587.127273 384.48 
L 587.127273 383.076574 
L 582.054545 383.076574 
z
" clip-path="url(#p1ed3b74ac4)" style="fill: #87ceeb; opacity: 0.7; stroke: #000000; stroke-linejoin: miter"/>
   </g>
   <g id="patch_96">
    <path d="M 587.127273 384.48 
L 592.2 384.48 
L 592.2 383.825068 
L 587.127273 383.825068 
z
" clip-path="url(#p1ed3b74ac4)" style="fill: #87ceeb; opacity: 0.7; stroke: #000000; stroke-linejoin: miter"/>
   </g>
   <g id="patch_97">
    <path d="M 592.2 384.48 
L 597.272727 384.48 
L 597.272727 383.825068 
L 592.2 383.825068 
z
" clip-path="url(#p1ed3b74ac4)" style="fill: #87ceeb; opacity: 0.7; stroke: #000000; stroke-linejoin: miter"/>
   </g>
   <g id="patch_98">
    <path d="M 597.272727 384.48 
L 602.345455 384.48 
L 602.345455 384.199315 
L 597.272727 384.199315 
z
" clip-path="url(#p1ed3b74ac4)" style="fill: #87ceeb; opacity: 0.7; stroke: #000000; stroke-linejoin: miter"/>
   </g>
   <g id="patch_99">
    <path d="M 602.345455 384.48 
L 607.418182 384.48 
L 607.418182 384.292877 
L 602.345455 384.292877 
z
" clip-path="url(#p1ed3b74ac4)" style="fill: #87ceeb; opacity: 0.7; stroke: #000000; stroke-linejoin: miter"/>
   </g>
   <g id="patch_100">
    <path d="M 607.418182 384.48 
L 612.490909 384.48 
L 612.490909 384.48 
L 607.418182 384.48 
z
" clip-path="url(#p1ed3b74ac4)" style="fill: #87ceeb; opacity: 0.7; stroke: #000000; stroke-linejoin: miter"/>
   </g>
   <g id="patch_101">
    <path d="M 612.490909 384.48 
L 617.563636 384.48 
L 617.563636 384.199315 
L 612.490909 384.199315 
z
" clip-path="url(#p1ed3b74ac4)" style="fill: #87ceeb; opacity: 0.7; stroke: #000000; stroke-linejoin: miter"/>
   </g>
   <g id="patch_102">
    <path d="M 617.563636 384.48 
L 622.636364 384.48 
L 622.636364 384.199315 
L 617.563636 384.199315 
z
" clip-path="url(#p1ed3b74ac4)" style="fill: #87ceeb; opacity: 0.7; stroke: #000000; stroke-linejoin: miter"/>
   </g>
   <g id="matplotlib.axis_1">
    <g id="xtick_1">
     <g id="line2d_1">
      <defs>
       <path id="m060faf8ab9" d="M 0 0 
L 0 3.5 
" style="stroke: #000000; stroke-width: 0.8"/>
      </defs>
      <g>
       <use xlink:href="#m060faf8ab9" x="117.292084" y="384.48" style="stroke: #000000; stroke-width: 0.8"/>
      </g>
     </g>
     <g id="text_1">
      <!-- −3 -->
      <g transform="translate(109.920991 399.078438) scale(0.1 -0.1)">
       <defs>
        <path id="DejaVuSans-2212" d="M 678 2272 
L 4684 2272 
L 4684 1741 
L 678 1741 
L 678 2272 
z
" transform="scale(0.015625)"/>
        <path id="DejaVuSans-33" d="M 2597 2516 
Q 3050 2419 3304 2112 
Q 3559 1806 3559 1356 
Q 3559 666 3084 287 
Q 2609 -91 1734 -91 
Q 1441 -91 1130 -33 
Q 819 25 488 141 
L 488 750 
Q 750 597 1062 519 
Q 1375 441 1716 441 
Q 2309 441 2620 675 
Q 2931 909 2931 1356 
Q 2931 1769 2642 2001 
Q 2353 2234 1838 2234 
L 1294 2234 
L 1294 2753 
L 1863 2753 
Q 2328 2753 2575 2939 
Q 2822 3125 2822 3475 
Q 2822 3834 2567 4026 
Q 2313 4219 1838 4219 
Q 1578 4219 1281 4162 
Q 984 4106 628 3988 
L 628 4550 
Q 988 4650 1302 4700 
Q 1616 4750 1894 4750 
Q 2613 4750 3031 4423 
Q 3450 4097 3450 3541 
Q 3450 3153 3228 2886 
Q 3006 2619 2597 2516 
z
" transform="scale(0.015625)"/>
       </defs>
       <use xlink:href="#DejaVuSans-2212"/>
       <use xlink:href="#DejaVuSans-33" transform="translate(83.789062 0)"/>
      </g>
     </g>
    </g>
    <g id="xtick_2">
     <g id="line2d_2">
      <g>
       <use xlink:href="#m060faf8ab9" x="203.14561" y="384.48" style="stroke: #000000; stroke-width: 0.8"/>
      </g>
     </g>
     <g id="text_2">
      <!-- −2 -->
      <g transform="translate(195.774516 399.078438) scale(0.1 -0.1)">
       <defs>
        <path id="DejaVuSans-32" d="M 1228 531 
L 3431 531 
L 3431 0 
L 469 0 
L 469 531 
Q 828 903 1448 1529 
Q 2069 2156 2228 2338 
Q 2531 2678 2651 2914 
Q 2772 3150 2772 3378 
Q 2772 3750 2511 3984 
Q 2250 4219 1831 4219 
Q 1534 4219 1204 4116 
Q 875 4013 500 3803 
L 500 4441 
Q 881 4594 1212 4672 
Q 1544 4750 1819 4750 
Q 2544 4750 2975 4387 
Q 3406 4025 3406 3419 
Q 3406 3131 3298 2873 
Q 3191 2616 2906 2266 
Q 2828 2175 2409 1742 
Q 1991 1309 1228 531 
z
" transform="scale(0.015625)"/>
       </defs>
       <use xlink:href="#DejaVuSans-2212"/>
       <use xlink:href="#DejaVuSans-32" transform="translate(83.789062 0)"/>
      </g>
     </g>
    </g>
    <g id="xtick_3">
     <g id="line2d_3">
      <g>
       <use xlink:href="#m060faf8ab9" x="288.999135" y="384.48" style="stroke: #000000; stroke-width: 0.8"/>
      </g>
     </g>
     <g id="text_3">
      <!-- −1 -->
      <g transform="translate(281.628041 399.078438) scale(0.1 -0.1)">
       <defs>
        <path id="DejaVuSans-31" d="M 794 531 
L 1825 531 
L 1825 4091 
L 703 3866 
L 703 4441 
L 1819 4666 
L 2450 4666 
L 2450 531 
L 3481 531 
L 3481 0 
L 794 0 
L 794 531 
z
" transform="scale(0.015625)"/>
       </defs>
       <use xlink:href="#DejaVuSans-2212"/>
       <use xlink:href="#DejaVuSans-31" transform="translate(83.789062 0)"/>
      </g>
     </g>
    </g>
    <g id="xtick_4">
     <g id="line2d_4">
      <g>
       <use xlink:href="#m060faf8ab9" x="374.85266" y="384.48" style="stroke: #000000; stroke-width: 0.8"/>
      </g>
     </g>
     <g id="text_4">
      <!-- 0 -->
      <g transform="translate(371.67141 399.078438) scale(0.1 -0.1)">
       <defs>
        <path id="DejaVuSans-30" d="M 2034 4250 
Q 1547 4250 1301 3770 
Q 1056 3291 1056 2328 
Q 1056 1369 1301 889 
Q 1547 409 2034 409 
Q 2525 409 2770 889 
Q 3016 1369 3016 2328 
Q 3016 3291 2770 3770 
Q 2525 4250 2034 4250 
z
M 2034 4750 
Q 2819 4750 3233 4129 
Q 3647 3509 3647 2328 
Q 3647 1150 3233 529 
Q 2819 -91 2034 -91 
Q 1250 -91 836 529 
Q 422 1150 422 2328 
Q 422 3509 836 4129 
Q 1250 4750 2034 4750 
z
" transform="scale(0.015625)"/>
       </defs>
       <use xlink:href="#DejaVuSans-30"/>
      </g>
     </g>
    </g>
    <g id="xtick_5">
     <g id="line2d_5">
      <g>
       <use xlink:href="#m060faf8ab9" x="460.706186" y="384.48" style="stroke: #000000; stroke-width: 0.8"/>
      </g>
     </g>
     <g id="text_5">
      <!-- 1 -->
      <g transform="translate(457.524936 399.078438) scale(0.1 -0.1)">
       <use xlink:href="#DejaVuSans-31"/>
      </g>
     </g>
    </g>
    <g id="xtick_6">
     <g id="line2d_6">
      <g>
       <use xlink:href="#m060faf8ab9" x="546.559711" y="384.48" style="stroke: #000000; stroke-width: 0.8"/>
      </g>
     </g>
     <g id="text_6">
      <!-- 2 -->
      <g transform="translate(543.378461 399.078438) scale(0.1 -0.1)">
       <use xlink:href="#DejaVuSans-32"/>
      </g>
     </g>
    </g>
    <g id="xtick_7">
     <g id="line2d_7">
      <g>
       <use xlink:href="#m060faf8ab9" x="632.413237" y="384.48" style="stroke: #000000; stroke-width: 0.8"/>
      </g>
     </g>
     <g id="text_7">
      <!-- 3 -->
      <g transform="translate(629.231987 399.078438) scale(0.1 -0.1)">
       <use xlink:href="#DejaVuSans-33"/>
      </g>
     </g>
    </g>
    <g id="text_8">
     <!-- Position x -->
     <g transform="translate(344.9875 412.756563) scale(0.1 -0.1)">
      <defs>
       <path id="DejaVuSans-50" d="M 1259 4147 
L 1259 2394 
L 2053 2394 
Q 2494 2394 2734 2622 
Q 2975 2850 2975 3272 
Q 2975 3691 2734 3919 
Q 2494 4147 2053 4147 
L 1259 4147 
z
M 628 4666 
L 2053 4666 
Q 2838 4666 3239 4311 
Q 3641 3956 3641 3272 
Q 3641 2581 3239 2228 
Q 2838 1875 2053 1875 
L 1259 1875 
L 1259 0 
L 628 0 
L 628 4666 
z
" transform="scale(0.015625)"/>
       <path id="DejaVuSans-6f" d="M 1959 3097 
Q 1497 3097 1228 2736 
Q 959 2375 959 1747 
Q 959 1119 1226 758 
Q 1494 397 1959 397 
Q 2419 397 2687 759 
Q 2956 1122 2956 1747 
Q 2956 2369 2687 2733 
Q 2419 3097 1959 3097 
z
M 1959 3584 
Q 2709 3584 3137 3096 
Q 3566 2609 3566 1747 
Q 3566 888 3137 398 
Q 2709 -91 1959 -91 
Q 1206 -91 779 398 
Q 353 888 353 1747 
Q 353 2609 779 3096 
Q 1206 3584 1959 3584 
z
" transform="scale(0.015625)"/>
       <path id="DejaVuSans-73" d="M 2834 3397 
L 2834 2853 
Q 2591 2978 2328 3040 
Q 2066 3103 1784 3103 
Q 1356 3103 1142 2972 
Q 928 2841 928 2578 
Q 928 2378 1081 2264 
Q 1234 2150 1697 2047 
L 1894 2003 
Q 2506 1872 2764 1633 
Q 3022 1394 3022 966 
Q 3022 478 2636 193 
Q 2250 -91 1575 -91 
Q 1294 -91 989 -36 
Q 684 19 347 128 
L 347 722 
Q 666 556 975 473 
Q 1284 391 1588 391 
Q 1994 391 2212 530 
Q 2431 669 2431 922 
Q 2431 1156 2273 1281 
Q 2116 1406 1581 1522 
L 1381 1569 
Q 847 1681 609 1914 
Q 372 2147 372 2553 
Q 372 3047 722 3315 
Q 1072 3584 1716 3584 
Q 2034 3584 2315 3537 
Q 2597 3491 2834 3397 
z
" transform="scale(0.015625)"/>
       <path id="DejaVuSans-69" d="M 603 3500 
L 1178 3500 
L 1178 0 
L 603 0 
L 603 3500 
z
M 603 4863 
L 1178 4863 
L 1178 4134 
L 603 4134 
L 603 4863 
z
" transform="scale(0.015625)"/>
       <path id="DejaVuSans-74" d="M 1172 4494 
L 1172 3500 
L 2356 3500 
L 2356 3053 
L 1172 3053 
L 1172 1153 
Q 1172 725 1289 603 
Q 1406 481 1766 481 
L 2356 481 
L 2356 0 
L 1766 0 
Q 1100 0 847 248 
Q 594 497 594 1153 
L 594 3053 
L 172 3053 
L 172 3500 
L 594 3500 
L 594 4494 
L 1172 4494 
z
" transform="scale(0.015625)"/>
       <path id="DejaVuSans-6e" d="M 3513 2113 
L 3513 0 
L 2938 0 
L 2938 2094 
Q 2938 2591 2744 2837 
Q 2550 3084 2163 3084 
Q 1697 3084 1428 2787 
Q 1159 2491 1159 1978 
L 1159 0 
L 581 0 
L 581 3500 
L 1159 3500 
L 1159 2956 
Q 1366 3272 1645 3428 
Q 1925 3584 2291 3584 
Q 2894 3584 3203 3211 
Q 3513 2838 3513 2113 
z
" transform="scale(0.015625)"/>
       <path id="DejaVuSans-20" transform="scale(0.015625)"/>
       <path id="DejaVuSans-78" d="M 3513 3500 
L 2247 1797 
L 3578 0 
L 2900 0 
L 1881 1375 
L 863 0 
L 184 0 
L 1544 1831 
L 300 3500 
L 978 3500 
L 1906 2253 
L 2834 3500 
L 3513 3500 
z
" transform="scale(0.015625)"/>
      </defs>
      <use xlink:href="#DejaVuSans-50"/>
      <use xlink:href="#DejaVuSans-6f" transform="translate(56.677734 0)"/>
      <use xlink:href="#DejaVuSans-73" transform="translate(117.859375 0)"/>
      <use xlink:href="#DejaVuSans-69" transform="translate(169.958984 0)"/>
      <use xlink:href="#DejaVuSans-74" transform="translate(197.742188 0)"/>
      <use xlink:href="#DejaVuSans-69" transform="translate(236.951172 0)"/>
      <use xlink:href="#DejaVuSans-6f" transform="translate(264.734375 0)"/>
      <use xlink:href="#DejaVuSans-6e" transform="translate(325.916016 0)"/>
      <use xlink:href="#DejaVuSans-20" transform="translate(389.294922 0)"/>
      <use xlink:href="#DejaVuSans-78" transform="translate(421.082031 0)"/>
     </g>
    </g>
   </g>
   <g id="matplotlib.axis_2">
    <g id="ytick_1">
     <g id="line2d_8">
      <path d="M 90 384.48 
L 648 384.48 
" clip-path="url(#p1ed3b74ac4)" style="fill: none; stroke-dasharray: 2.96,1.28; stroke-dashoffset: 0; stroke: #b0b0b0; stroke-opacity: 0.5; stroke-width: 0.8"/>
     </g>
     <g id="line2d_9">
      <defs>
       <path id="mebc40603ba" d="M 0 0 
L -3.5 0 
" style="stroke: #000000; stroke-width: 0.8"/>
      </defs>
      <g>
       <use xlink:href="#mebc40603ba" x="90" y="384.48" style="stroke: #000000; stroke-width: 0.8"/>
      </g>
     </g>
     <g id="text_9">
      <!-- 0.0 -->
      <g transform="translate(67.096875 388.279219) scale(0.1 -0.1)">
       <defs>
        <path id="DejaVuSans-2e" d="M 684 794 
L 1344 794 
L 1344 0 
L 684 0 
L 684 794 
z
" transform="scale(0.015625)"/>
       </defs>
       <use xlink:href="#DejaVuSans-30"/>
       <use xlink:href="#DejaVuSans-2e" transform="translate(63.623047 0)"/>
       <use xlink:href="#DejaVuSans-30" transform="translate(95.410156 0)"/>
      </g>
     </g>
    </g>
    <g id="ytick_2">
     <g id="line2d_10">
      <path d="M 90 329.198273 
L 648 329.198273 
" clip-path="url(#p1ed3b74ac4)" style="fill: none; stroke-dasharray: 2.96,1.28; stroke-dashoffset: 0; stroke: #b0b0b0; stroke-opacity: 0.5; stroke-width: 0.8"/>
     </g>
     <g id="line2d_11">
      <g>
       <use xlink:href="#mebc40603ba" x="90" y="329.198273" style="stroke: #000000; stroke-width: 0.8"/>
      </g>
     </g>
     <g id="text_10">
      <!-- 0.1 -->
      <g transform="translate(67.096875 332.997492) scale(0.1 -0.1)">
       <use xlink:href="#DejaVuSans-30"/>
       <use xlink:href="#DejaVuSans-2e" transform="translate(63.623047 0)"/>
       <use xlink:href="#DejaVuSans-31" transform="translate(95.410156 0)"/>
      </g>
     </g>
    </g>
    <g id="ytick_3">
     <g id="line2d_12">
      <path d="M 90 273.916547 
L 648 273.916547 
" clip-path="url(#p1ed3b74ac4)" style="fill: none; stroke-dasharray: 2.96,1.28; stroke-dashoffset: 0; stroke: #b0b0b0; stroke-opacity: 0.5; stroke-width: 0.8"/>
     </g>
     <g id="line2d_13">
      <g>
       <use xlink:href="#mebc40603ba" x="90" y="273.916547" style="stroke: #000000; stroke-width: 0.8"/>
      </g>
     </g>
     <g id="text_11">
      <!-- 0.2 -->
      <g transform="translate(67.096875 277.715765) scale(0.1 -0.1)">
       <use xlink:href="#DejaVuSans-30"/>
       <use xlink:href="#DejaVuSans-2e" transform="translate(63.623047 0)"/>
       <use xlink:href="#DejaVuSans-32" transform="translate(95.410156 0)"/>
      </g>
     </g>
    </g>
    <g id="ytick_4">
     <g id="line2d_14">
      <path d="M 90 218.63482 
L 648 218.63482 
" clip-path="url(#p1ed3b74ac4)" style="fill: none; stroke-dasharray: 2.96,1.28; stroke-dashoffset: 0; stroke: #b0b0b0; stroke-opacity: 0.5; stroke-width: 0.8"/>
     </g>
     <g id="line2d_15">
      <g>
       <use xlink:href="#mebc40603ba" x="90" y="218.63482" style="stroke: #000000; stroke-width: 0.8"/>
      </g>
     </g>
     <g id="text_12">
      <!-- 0.3 -->
      <g transform="translate(67.096875 222.434039) scale(0.1 -0.1)">
       <use xlink:href="#DejaVuSans-30"/>
       <use xlink:href="#DejaVuSans-2e" transform="translate(63.623047 0)"/>
       <use xlink:href="#DejaVuSans-33" transform="translate(95.410156 0)"/>
      </g>
     </g>
    </g>
    <g id="ytick_5">
     <g id="line2d_16">
      <path d="M 90 163.353093 
L 648 163.353093 
" clip-path="url(#p1ed3b74ac4)" style="fill: none; stroke-dasharray: 2.96,1.28; stroke-dashoffset: 0; stroke: #b0b0b0; stroke-opacity: 0.5; stroke-width: 0.8"/>
     </g>
     <g id="line2d_17">
      <g>
       <use xlink:href="#mebc40603ba" x="90" y="163.353093" style="stroke: #000000; stroke-width: 0.8"/>
      </g>
     </g>
     <g id="text_13">
      <!-- 0.4 -->
      <g transform="translate(67.096875 167.152312) scale(0.1 -0.1)">
       <defs>
        <path id="DejaVuSans-34" d="M 2419 4116 
L 825 1625 
L 2419 1625 
L 2419 4116 
z
M 2253 4666 
L 3047 4666 
L 3047 1625 
L 3713 1625 
L 3713 1100 
L 3047 1100 
L 3047 0 
L 2419 0 
L 2419 1100 
L 313 1100 
L 313 1709 
L 2253 4666 
z
" transform="scale(0.015625)"/>
       </defs>
       <use xlink:href="#DejaVuSans-30"/>
       <use xlink:href="#DejaVuSans-2e" transform="translate(63.623047 0)"/>
       <use xlink:href="#DejaVuSans-34" transform="translate(95.410156 0)"/>
      </g>
     </g>
    </g>
    <g id="ytick_6">
     <g id="line2d_18">
      <path d="M 90 108.071366 
L 648 108.071366 
" clip-path="url(#p1ed3b74ac4)" style="fill: none; stroke-dasharray: 2.96,1.28; stroke-dashoffset: 0; stroke: #b0b0b0; stroke-opacity: 0.5; stroke-width: 0.8"/>
     </g>
     <g id="line2d_19">
      <g>
       <use xlink:href="#mebc40603ba" x="90" y="108.071366" style="stroke: #000000; stroke-width: 0.8"/>
      </g>
     </g>
     <g id="text_14">
      <!-- 0.5 -->
      <g transform="translate(67.096875 111.870585) scale(0.1 -0.1)">
       <defs>
        <path id="DejaVuSans-35" d="M 691 4666 
L 3169 4666 
L 3169 4134 
L 1269 4134 
L 1269 2991 
Q 1406 3038 1543 3061 
Q 1681 3084 1819 3084 
Q 2600 3084 3056 2656 
Q 3513 2228 3513 1497 
Q 3513 744 3044 326 
Q 2575 -91 1722 -91 
Q 1428 -91 1123 -41 
Q 819 9 494 109 
L 494 744 
Q 775 591 1075 516 
Q 1375 441 1709 441 
Q 2250 441 2565 725 
Q 2881 1009 2881 1497 
Q 2881 1984 2565 2268 
Q 2250 2553 1709 2553 
Q 1456 2553 1204 2497 
Q 953 2441 691 2322 
L 691 4666 
z
" transform="scale(0.015625)"/>
       </defs>
       <use xlink:href="#DejaVuSans-30"/>
       <use xlink:href="#DejaVuSans-2e" transform="translate(63.623047 0)"/>
       <use xlink:href="#DejaVuSans-35" transform="translate(95.410156 0)"/>
      </g>
     </g>
    </g>
    <g id="ytick_7">
     <g id="line2d_20">
      <path d="M 90 52.78964 
L 648 52.78964 
" clip-path="url(#p1ed3b74ac4)" style="fill: none; stroke-dasharray: 2.96,1.28; stroke-dashoffset: 0; stroke: #b0b0b0; stroke-opacity: 0.5; stroke-width: 0.8"/>
     </g>
     <g id="line2d_21">
      <g>
       <use xlink:href="#mebc40603ba" x="90" y="52.78964" style="stroke: #000000; stroke-width: 0.8"/>
      </g>
     </g>
     <g id="text_15">
      <!-- 0.6 -->
      <g transform="translate(67.096875 56.588858) scale(0.1 -0.1)">
       <defs>
        <path id="DejaVuSans-36" d="M 2113 2584 
Q 1688 2584 1439 2293 
Q 1191 2003 1191 1497 
Q 1191 994 1439 701 
Q 1688 409 2113 409 
Q 2538 409 2786 701 
Q 3034 994 3034 1497 
Q 3034 2003 2786 2293 
Q 2538 2584 2113 2584 
z
M 3366 4563 
L 3366 3988 
Q 3128 4100 2886 4159 
Q 2644 4219 2406 4219 
Q 1781 4219 1451 3797 
Q 1122 3375 1075 2522 
Q 1259 2794 1537 2939 
Q 1816 3084 2150 3084 
Q 2853 3084 3261 2657 
Q 3669 2231 3669 1497 
Q 3669 778 3244 343 
Q 2819 -91 2113 -91 
Q 1303 -91 875 529 
Q 447 1150 447 2328 
Q 447 3434 972 4092 
Q 1497 4750 2381 4750 
Q 2619 4750 2861 4703 
Q 3103 4656 3366 4563 
z
" transform="scale(0.015625)"/>
       </defs>
       <use xlink:href="#DejaVuSans-30"/>
       <use xlink:href="#DejaVuSans-2e" transform="translate(63.623047 0)"/>
       <use xlink:href="#DejaVuSans-36" transform="translate(95.410156 0)"/>
      </g>
     </g>
    </g>
    <g id="text_16">
     <!-- Probability Density -->
     <g transform="translate(61.017187 265.186562) rotate(-90) scale(0.1 -0.1)">
      <defs>
       <path id="DejaVuSans-72" d="M 2631 2963 
Q 2534 3019 2420 3045 
Q 2306 3072 2169 3072 
Q 1681 3072 1420 2755 
Q 1159 2438 1159 1844 
L 1159 0 
L 581 0 
L 581 3500 
L 1159 3500 
L 1159 2956 
Q 1341 3275 1631 3429 
Q 1922 3584 2338 3584 
Q 2397 3584 2469 3576 
Q 2541 3569 2628 3553 
L 2631 2963 
z
" transform="scale(0.015625)"/>
       <path id="DejaVuSans-62" d="M 3116 1747 
Q 3116 2381 2855 2742 
Q 2594 3103 2138 3103 
Q 1681 3103 1420 2742 
Q 1159 2381 1159 1747 
Q 1159 1113 1420 752 
Q 1681 391 2138 391 
Q 2594 391 2855 752 
Q 3116 1113 3116 1747 
z
M 1159 2969 
Q 1341 3281 1617 3432 
Q 1894 3584 2278 3584 
Q 2916 3584 3314 3078 
Q 3713 2572 3713 1747 
Q 3713 922 3314 415 
Q 2916 -91 2278 -91 
Q 1894 -91 1617 61 
Q 1341 213 1159 525 
L 1159 0 
L 581 0 
L 581 4863 
L 1159 4863 
L 1159 2969 
z
" transform="scale(0.015625)"/>
       <path id="DejaVuSans-61" d="M 2194 1759 
Q 1497 1759 1228 1600 
Q 959 1441 959 1056 
Q 959 750 1161 570 
Q 1363 391 1709 391 
Q 2188 391 2477 730 
Q 2766 1069 2766 1631 
L 2766 1759 
L 2194 1759 
z
M 3341 1997 
L 3341 0 
L 2766 0 
L 2766 531 
Q 2569 213 2275 61 
Q 1981 -91 1556 -91 
Q 1019 -91 701 211 
Q 384 513 384 1019 
Q 384 1609 779 1909 
Q 1175 2209 1959 2209 
L 2766 2209 
L 2766 2266 
Q 2766 2663 2505 2880 
Q 2244 3097 1772 3097 
Q 1472 3097 1187 3025 
Q 903 2953 641 2809 
L 641 3341 
Q 956 3463 1253 3523 
Q 1550 3584 1831 3584 
Q 2591 3584 2966 3190 
Q 3341 2797 3341 1997 
z
" transform="scale(0.015625)"/>
       <path id="DejaVuSans-6c" d="M 603 4863 
L 1178 4863 
L 1178 0 
L 603 0 
L 603 4863 
z
" transform="scale(0.015625)"/>
       <path id="DejaVuSans-79" d="M 2059 -325 
Q 1816 -950 1584 -1140 
Q 1353 -1331 966 -1331 
L 506 -1331 
L 506 -850 
L 844 -850 
Q 1081 -850 1212 -737 
Q 1344 -625 1503 -206 
L 1606 56 
L 191 3500 
L 800 3500 
L 1894 763 
L 2988 3500 
L 3597 3500 
L 2059 -325 
z
" transform="scale(0.015625)"/>
       <path id="DejaVuSans-44" d="M 1259 4147 
L 1259 519 
L 2022 519 
Q 2988 519 3436 956 
Q 3884 1394 3884 2338 
Q 3884 3275 3436 3711 
Q 2988 4147 2022 4147 
L 1259 4147 
z
M 628 4666 
L 1925 4666 
Q 3281 4666 3915 4102 
Q 4550 3538 4550 2338 
Q 4550 1131 3912 565 
Q 3275 0 1925 0 
L 628 0 
L 628 4666 
z
" transform="scale(0.015625)"/>
       <path id="DejaVuSans-65" d="M 3597 1894 
L 3597 1613 
L 953 1613 
Q 991 1019 1311 708 
Q 1631 397 2203 397 
Q 2534 397 2845 478 
Q 3156 559 3463 722 
L 3463 178 
Q 3153 47 2828 -22 
Q 2503 -91 2169 -91 
Q 1331 -91 842 396 
Q 353 884 353 1716 
Q 353 2575 817 3079 
Q 1281 3584 2069 3584 
Q 2775 3584 3186 3129 
Q 3597 2675 3597 1894 
z
M 3022 2063 
Q 3016 2534 2758 2815 
Q 2500 3097 2075 3097 
Q 1594 3097 1305 2825 
Q 1016 2553 972 2059 
L 3022 2063 
z
" transform="scale(0.015625)"/>
      </defs>
      <use xlink:href="#DejaVuSans-50"/>
      <use xlink:href="#DejaVuSans-72" transform="translate(58.552734 0)"/>
      <use xlink:href="#DejaVuSans-6f" transform="translate(97.416016 0)"/>
      <use xlink:href="#DejaVuSans-62" transform="translate(158.597656 0)"/>
      <use xlink:href="#DejaVuSans-61" transform="translate(222.074219 0)"/>
      <use xlink:href="#DejaVuSans-62" transform="translate(283.353516 0)"/>
      <use xlink:href="#DejaVuSans-69" transform="translate(346.830078 0)"/>
      <use xlink:href="#DejaVuSans-6c" transform="translate(374.613281 0)"/>
      <use xlink:href="#DejaVuSans-69" transform="translate(402.396484 0)"/>
      <use xlink:href="#DejaVuSans-74" transform="translate(430.179688 0)"/>
      <use xlink:href="#DejaVuSans-79" transform="translate(469.388672 0)"/>
      <use xlink:href="#DejaVuSans-20" transform="translate(528.568359 0)"/>
      <use xlink:href="#DejaVuSans-44" transform="translate(560.355469 0)"/>
      <use xlink:href="#DejaVuSans-65" transform="translate(637.357422 0)"/>
      <use xlink:href="#DejaVuSans-6e" transform="translate(698.880859 0)"/>
      <use xlink:href="#DejaVuSans-73" transform="translate(762.259766 0)"/>
      <use xlink:href="#DejaVuSans-69" transform="translate(814.359375 0)"/>
      <use xlink:href="#DejaVuSans-74" transform="translate(842.142578 0)"/>
      <use xlink:href="#DejaVuSans-79" transform="translate(881.351562 0)"/>
     </g>
    </g>
   </g>
   <g id="line2d_22">
    <path d="M 115.363636 384.446379 
L 142.809836 384.270354 
L 157.572948 383.964378 
L 168.176009 383.531158 
L 176.64831 382.968848 
L 183.750839 382.280989 
L 189.990917 381.456862 
L 195.520743 380.506986 
L 200.593978 379.412254 
L 205.261353 378.179495 
L 209.624335 376.798475 
L 213.733655 375.265664 
L 217.640046 373.57229 
L 221.394239 371.702263 
L 224.996236 369.660719 
L 228.496768 367.422238 
L 231.946567 364.949256 
L 235.294902 362.275293 
L 238.592505 359.359073 
L 241.890107 356.143588 
L 245.136977 352.667537 
L 248.383847 348.867094 
L 251.68145 344.659037 
L 254.979052 340.084939 
L 258.327387 335.052013 
L 261.675722 329.615678 
L 265.125522 323.582629 
L 268.626054 317.005475 
L 272.22805 309.755194 
L 275.931511 301.79167 
L 279.78717 292.960477 
L 283.795025 283.21347 
L 288.00581 272.380295 
L 292.520988 260.139584 
L 297.492758 245.998294 
L 303.174781 229.138106 
L 310.480239 206.713274 
L 326.207266 158.235422 
L 331.48343 142.831968 
L 335.846412 130.757181 
L 339.70207 120.721574 
L 343.202602 112.219753 
L 346.39874 105.030755 
L 349.341216 98.945186 
L 352.080763 93.774817 
L 354.668112 89.358112 
L 357.103265 85.636222 
L 359.38622 82.54588 
L 361.516979 80.021447 
L 363.546273 77.948883 
L 365.474102 76.286019 
L 367.351199 74.958315 
L 369.126831 73.970465 
L 370.851731 73.26287 
L 372.525898 72.815256 
L 374.149333 72.607187 
L 375.772768 72.622078 
L 377.396203 72.859895 
L 379.019638 73.32013 
L 380.693806 74.026651 
L 382.418706 74.999176 
L 384.194338 76.257149 
L 386.071434 77.866799 
L 387.999264 79.814549 
L 390.028557 82.180966 
L 392.210048 85.077727 
L 394.493004 88.48907 
L 396.928156 92.540423 
L 399.515506 97.291011 
L 402.255053 102.795066 
L 405.197529 109.21448 
L 408.393667 116.735285 
L 411.894199 125.561558 
L 415.749857 135.905253 
L 420.112839 148.264426 
L 425.33827 163.766081 
L 432.440799 185.594848 
L 447.711235 232.693351 
L 453.545455 249.85156 
L 458.618689 264.094316 
L 463.1846 276.267885 
L 467.446117 287.015372 
L 471.504705 296.660326 
L 475.411096 305.375642 
L 479.165289 313.213903 
L 482.818018 320.330068 
L 486.369282 326.767335 
L 489.869814 332.654004 
L 493.268881 337.943183 
L 496.667949 342.823364 
L 500.016283 347.244376 
L 503.364618 351.297284 
L 506.662221 354.945324 
L 510.010556 358.318467 
L 513.35889 361.376754 
L 516.757958 364.179186 
L 520.207757 366.733057 
L 523.708289 369.047316 
L 527.310286 371.160342 
L 531.013747 373.073584 
L 534.869405 374.812359 
L 538.87726 376.374132 
L 543.088045 377.775521 
L 547.552492 379.026409 
L 552.372064 380.142596 
L 557.597496 381.120231 
L 563.330251 381.962795 
L 569.773259 382.679594 
L 577.129449 383.26881 
L 585.855413 383.737445 
L 596.712135 384.087506 
L 611.32305 384.321779 
L 622.636364 384.404757 
L 622.636364 384.404757 
" clip-path="url(#p1ed3b74ac4)" style="fill: none; stroke-dasharray: 5.55,2.4; stroke-dashoffset: 0; stroke: #ff0000; stroke-width: 1.5"/>
   </g>
   <g id="patch_103">
    <path d="M 90 384.48 
L 90 51.84 
" style="fill: none; stroke: #000000; stroke-width: 0.8; stroke-linejoin: miter; stroke-linecap: square"/>
   </g>
   <g id="patch_104">
    <path d="M 648 384.48 
L 648 51.84 
" style="fill: none; stroke: #000000; stroke-width: 0.8; stroke-linejoin: miter; stroke-linecap: square"/>
   </g>
   <g id="patch_105">
    <path d="M 90 384.48 
L 648 384.48 
" style="fill: none; stroke: #000000; stroke-width: 0.8; stroke-linejoin: miter; stroke-linecap: square"/>
   </g>
   <g id="patch_106">
    <path d="M 90 51.84 
L 648 51.84 
" style="fill: none; stroke: #000000; stroke-width: 0.8; stroke-linejoin: miter; stroke-linecap: square"/>
   </g>
   <g id="text_17">
    <!-- Histogram of Metropolis Samples -->
    <g transform="translate(269.58375 45.84) scale(0.12 -0.12)">
     <defs>
      <path id="DejaVuSans-48" d="M 628 4666 
L 1259 4666 
L 1259 2753 
L 3553 2753 
L 3553 4666 
L 4184 4666 
L 4184 0 
L 3553 0 
L 3553 2222 
L 1259 2222 
L 1259 0 
L 628 0 
L 628 4666 
z
" transform="scale(0.015625)"/>
      <path id="DejaVuSans-67" d="M 2906 1791 
Q 2906 2416 2648 2759 
Q 2391 3103 1925 3103 
Q 1463 3103 1205 2759 
Q 947 2416 947 1791 
Q 947 1169 1205 825 
Q 1463 481 1925 481 
Q 2391 481 2648 825 
Q 2906 1169 2906 1791 
z
M 3481 434 
Q 3481 -459 3084 -895 
Q 2688 -1331 1869 -1331 
Q 1566 -1331 1297 -1286 
Q 1028 -1241 775 -1147 
L 775 -588 
Q 1028 -725 1275 -790 
Q 1522 -856 1778 -856 
Q 2344 -856 2625 -561 
Q 2906 -266 2906 331 
L 2906 616 
Q 2728 306 2450 153 
Q 2172 0 1784 0 
Q 1141 0 747 490 
Q 353 981 353 1791 
Q 353 2603 747 3093 
Q 1141 3584 1784 3584 
Q 2172 3584 2450 3431 
Q 2728 3278 2906 2969 
L 2906 3500 
L 3481 3500 
L 3481 434 
z
" transform="scale(0.015625)"/>
      <path id="DejaVuSans-6d" d="M 3328 2828 
Q 3544 3216 3844 3400 
Q 4144 3584 4550 3584 
Q 5097 3584 5394 3201 
Q 5691 2819 5691 2113 
L 5691 0 
L 5113 0 
L 5113 2094 
Q 5113 2597 4934 2840 
Q 4756 3084 4391 3084 
Q 3944 3084 3684 2787 
Q 3425 2491 3425 1978 
L 3425 0 
L 2847 0 
L 2847 2094 
Q 2847 2600 2669 2842 
Q 2491 3084 2119 3084 
Q 1678 3084 1418 2786 
Q 1159 2488 1159 1978 
L 1159 0 
L 581 0 
L 581 3500 
L 1159 3500 
L 1159 2956 
Q 1356 3278 1631 3431 
Q 1906 3584 2284 3584 
Q 2666 3584 2933 3390 
Q 3200 3197 3328 2828 
z
" transform="scale(0.015625)"/>
      <path id="DejaVuSans-66" d="M 2375 4863 
L 2375 4384 
L 1825 4384 
Q 1516 4384 1395 4259 
Q 1275 4134 1275 3809 
L 1275 3500 
L 2222 3500 
L 2222 3053 
L 1275 3053 
L 1275 0 
L 697 0 
L 697 3053 
L 147 3053 
L 147 3500 
L 697 3500 
L 697 3744 
Q 697 4328 969 4595 
Q 1241 4863 1831 4863 
L 2375 4863 
z
" transform="scale(0.015625)"/>
      <path id="DejaVuSans-4d" d="M 628 4666 
L 1569 4666 
L 2759 1491 
L 3956 4666 
L 4897 4666 
L 4897 0 
L 4281 0 
L 4281 4097 
L 3078 897 
L 2444 897 
L 1241 4097 
L 1241 0 
L 628 0 
L 628 4666 
z
" transform="scale(0.015625)"/>
      <path id="DejaVuSans-70" d="M 1159 525 
L 1159 -1331 
L 581 -1331 
L 581 3500 
L 1159 3500 
L 1159 2969 
Q 1341 3281 1617 3432 
Q 1894 3584 2278 3584 
Q 2916 3584 3314 3078 
Q 3713 2572 3713 1747 
Q 3713 922 3314 415 
Q 2916 -91 2278 -91 
Q 1894 -91 1617 61 
Q 1341 213 1159 525 
z
M 3116 1747 
Q 3116 2381 2855 2742 
Q 2594 3103 2138 3103 
Q 1681 3103 1420 2742 
Q 1159 2381 1159 1747 
Q 1159 1113 1420 752 
Q 1681 391 2138 391 
Q 2594 391 2855 752 
Q 3116 1113 3116 1747 
z
" transform="scale(0.015625)"/>
      <path id="DejaVuSans-53" d="M 3425 4513 
L 3425 3897 
Q 3066 4069 2747 4153 
Q 2428 4238 2131 4238 
Q 1616 4238 1336 4038 
Q 1056 3838 1056 3469 
Q 1056 3159 1242 3001 
Q 1428 2844 1947 2747 
L 2328 2669 
Q 3034 2534 3370 2195 
Q 3706 1856 3706 1288 
Q 3706 609 3251 259 
Q 2797 -91 1919 -91 
Q 1588 -91 1214 -16 
Q 841 59 441 206 
L 441 856 
Q 825 641 1194 531 
Q 1563 422 1919 422 
Q 2459 422 2753 634 
Q 3047 847 3047 1241 
Q 3047 1584 2836 1778 
Q 2625 1972 2144 2069 
L 1759 2144 
Q 1053 2284 737 2584 
Q 422 2884 422 3419 
Q 422 4038 858 4394 
Q 1294 4750 2059 4750 
Q 2388 4750 2728 4690 
Q 3069 4631 3425 4513 
z
" transform="scale(0.015625)"/>
     </defs>
     <use xlink:href="#DejaVuSans-48"/>
     <use xlink:href="#DejaVuSans-69" transform="translate(75.195312 0)"/>
     <use xlink:href="#DejaVuSans-73" transform="translate(102.978516 0)"/>
     <use xlink:href="#DejaVuSans-74" transform="translate(155.078125 0)"/>
     <use xlink:href="#DejaVuSans-6f" transform="translate(194.287109 0)"/>
     <use xlink:href="#DejaVuSans-67" transform="translate(255.46875 0)"/>
     <use xlink:href="#DejaVuSans-72" transform="translate(318.945312 0)"/>
     <use xlink:href="#DejaVuSans-61" transform="translate(360.058594 0)"/>
     <use xlink:href="#DejaVuSans-6d" transform="translate(421.337891 0)"/>
     <use xlink:href="#DejaVuSans-20" transform="translate(518.75 0)"/>
     <use xlink:href="#DejaVuSans-6f" transform="translate(550.537109 0)"/>
     <use xlink:href="#DejaVuSans-66" transform="translate(611.71875 0)"/>
     <use xlink:href="#DejaVuSans-20" transform="translate(646.923828 0)"/>
     <use xlink:href="#DejaVuSans-4d" transform="translate(678.710938 0)"/>
     <use xlink:href="#DejaVuSans-65" transform="translate(764.990234 0)"/>
     <use xlink:href="#DejaVuSans-74" transform="translate(826.513672 0)"/>
     <use xlink:href="#DejaVuSans-72" transform="translate(865.722656 0)"/>
     <use xlink:href="#DejaVuSans-6f" transform="translate(904.585938 0)"/>
     <use xlink:href="#DejaVuSans-70" transform="translate(965.767578 0)"/>
     <use xlink:href="#DejaVuSans-6f" transform="translate(1029.244141 0)"/>
     <use xlink:href="#DejaVuSans-6c" transform="translate(1090.425781 0)"/>
     <use xlink:href="#DejaVuSans-69" transform="translate(1118.208984 0)"/>
     <use xlink:href="#DejaVuSans-73" transform="translate(1145.992188 0)"/>
     <use xlink:href="#DejaVuSans-20" transform="translate(1198.091797 0)"/>
     <use xlink:href="#DejaVuSans-53" transform="translate(1229.878906 0)"/>
     <use xlink:href="#DejaVuSans-61" transform="translate(1293.355469 0)"/>
     <use xlink:href="#DejaVuSans-6d" transform="translate(1354.634766 0)"/>
     <use xlink:href="#DejaVuSans-70" transform="translate(1452.046875 0)"/>
     <use xlink:href="#DejaVuSans-6c" transform="translate(1515.523438 0)"/>
     <use xlink:href="#DejaVuSans-65" transform="translate(1543.306641 0)"/>
     <use xlink:href="#DejaVuSans-73" transform="translate(1604.830078 0)"/>
    </g>
   </g>
   <g id="legend_1">
    <g id="patch_107">
     <path d="M 462.6625 89.19625 
L 641 89.19625 
Q 643 89.19625 643 87.19625 
L 643 58.84 
Q 643 56.84 641 56.84 
L 462.6625 56.84 
Q 460.6625 56.84 460.6625 58.84 
L 460.6625 87.19625 
Q 460.6625 89.19625 462.6625 89.19625 
z
" style="fill: #ffffff; opacity: 0.8; stroke: #cccccc; stroke-linejoin: miter"/>
    </g>
    <g id="line2d_23">
     <path d="M 464.6625 64.938437 
L 474.6625 64.938437 
L 484.6625 64.938437 
" style="fill: none; stroke-dasharray: 5.55,2.4; stroke-dashoffset: 0; stroke: #ff0000; stroke-width: 1.5"/>
    </g>
    <g id="text_18">
     <!-- Analytical Probability Density -->
     <g transform="translate(492.6625 68.438437) scale(0.1 -0.1)">
      <defs>
       <path id="DejaVuSans-41" d="M 2188 4044 
L 1331 1722 
L 3047 1722 
L 2188 4044 
z
M 1831 4666 
L 2547 4666 
L 4325 0 
L 3669 0 
L 3244 1197 
L 1141 1197 
L 716 0 
L 50 0 
L 1831 4666 
z
" transform="scale(0.015625)"/>
       <path id="DejaVuSans-63" d="M 3122 3366 
L 3122 2828 
Q 2878 2963 2633 3030 
Q 2388 3097 2138 3097 
Q 1578 3097 1268 2742 
Q 959 2388 959 1747 
Q 959 1106 1268 751 
Q 1578 397 2138 397 
Q 2388 397 2633 464 
Q 2878 531 3122 666 
L 3122 134 
Q 2881 22 2623 -34 
Q 2366 -91 2075 -91 
Q 1284 -91 818 406 
Q 353 903 353 1747 
Q 353 2603 823 3093 
Q 1294 3584 2113 3584 
Q 2378 3584 2631 3529 
Q 2884 3475 3122 3366 
z
" transform="scale(0.015625)"/>
      </defs>
      <use xlink:href="#DejaVuSans-41"/>
      <use xlink:href="#DejaVuSans-6e" transform="translate(68.408203 0)"/>
      <use xlink:href="#DejaVuSans-61" transform="translate(131.787109 0)"/>
      <use xlink:href="#DejaVuSans-6c" transform="translate(193.066406 0)"/>
      <use xlink:href="#DejaVuSans-79" transform="translate(220.849609 0)"/>
      <use xlink:href="#DejaVuSans-74" transform="translate(280.029297 0)"/>
      <use xlink:href="#DejaVuSans-69" transform="translate(319.238281 0)"/>
      <use xlink:href="#DejaVuSans-63" transform="translate(347.021484 0)"/>
      <use xlink:href="#DejaVuSans-61" transform="translate(402.001953 0)"/>
      <use xlink:href="#DejaVuSans-6c" transform="translate(463.28125 0)"/>
      <use xlink:href="#DejaVuSans-20" transform="translate(491.064453 0)"/>
      <use xlink:href="#DejaVuSans-50" transform="translate(522.851562 0)"/>
      <use xlink:href="#DejaVuSans-72" transform="translate(581.404297 0)"/>
      <use xlink:href="#DejaVuSans-6f" transform="translate(620.267578 0)"/>
      <use xlink:href="#DejaVuSans-62" transform="translate(681.449219 0)"/>
      <use xlink:href="#DejaVuSans-61" transform="translate(744.925781 0)"/>
      <use xlink:href="#DejaVuSans-62" transform="translate(806.205078 0)"/>
      <use xlink:href="#DejaVuSans-69" transform="translate(869.681641 0)"/>
      <use xlink:href="#DejaVuSans-6c" transform="translate(897.464844 0)"/>
      <use xlink:href="#DejaVuSans-69" transform="translate(925.248047 0)"/>
      <use xlink:href="#DejaVuSans-74" transform="translate(953.03125 0)"/>
      <use xlink:href="#DejaVuSans-79" transform="translate(992.240234 0)"/>
      <use xlink:href="#DejaVuSans-20" transform="translate(1051.419922 0)"/>
      <use xlink:href="#DejaVuSans-44" transform="translate(1083.207031 0)"/>
      <use xlink:href="#DejaVuSans-65" transform="translate(1160.208984 0)"/>
      <use xlink:href="#DejaVuSans-6e" transform="translate(1221.732422 0)"/>
      <use xlink:href="#DejaVuSans-73" transform="translate(1285.111328 0)"/>
      <use xlink:href="#DejaVuSans-69" transform="translate(1337.210938 0)"/>
      <use xlink:href="#DejaVuSans-74" transform="translate(1364.994141 0)"/>
      <use xlink:href="#DejaVuSans-79" transform="translate(1404.203125 0)"/>
     </g>
    </g>
    <g id="patch_108">
     <path d="M 464.6625 83.116562 
L 484.6625 83.116562 
L 484.6625 76.116562 
L 464.6625 76.116562 
z
" style="fill: #87ceeb; opacity: 0.7; stroke: #000000; stroke-linejoin: miter"/>
    </g>
    <g id="text_19">
     <!-- Metropolis Samples -->
     <g transform="translate(492.6625 83.116562) scale(0.1 -0.1)">
      <use xlink:href="#DejaVuSans-4d"/>
      <use xlink:href="#DejaVuSans-65" transform="translate(86.279297 0)"/>
      <use xlink:href="#DejaVuSans-74" transform="translate(147.802734 0)"/>
      <use xlink:href="#DejaVuSans-72" transform="translate(187.011719 0)"/>
      <use xlink:href="#DejaVuSans-6f" transform="translate(225.875 0)"/>
      <use xlink:href="#DejaVuSans-70" transform="translate(287.056641 0)"/>
      <use xlink:href="#DejaVuSans-6f" transform="translate(350.533203 0)"/>
      <use xlink:href="#DejaVuSans-6c" transform="translate(411.714844 0)"/>
      <use xlink:href="#DejaVuSans-69" transform="translate(439.498047 0)"/>
      <use xlink:href="#DejaVuSans-73" transform="translate(467.28125 0)"/>
      <use xlink:href="#DejaVuSans-20" transform="translate(519.380859 0)"/>
      <use xlink:href="#DejaVuSans-53" transform="translate(551.167969 0)"/>
      <use xlink:href="#DejaVuSans-61" transform="translate(614.644531 0)"/>
      <use xlink:href="#DejaVuSans-6d" transform="translate(675.923828 0)"/>
      <use xlink:href="#DejaVuSans-70" transform="translate(773.335938 0)"/>
      <use xlink:href="#DejaVuSans-6c" transform="translate(836.8125 0)"/>
      <use xlink:href="#DejaVuSans-65" transform="translate(864.595703 0)"/>
      <use xlink:href="#DejaVuSans-73" transform="translate(926.119141 0)"/>
     </g>
    </g>
   </g>
  </g>
 </g>
 <defs>
  <clipPath id="p1ed3b74ac4">
   <rect x="90" y="51.84" width="558" height="332.64"/>
  </clipPath>
 </defs>
</svg>
