<?xml version="1.0" encoding="utf-8" standalone="no"?>
<!DOCTYPE svg PUBLIC "-//W3C//DTD SVG 1.1//EN"
  "http://www.w3.org/Graphics/SVG/1.1/DTD/svg11.dtd">
<svg xmlns:xlink="http://www.w3.org/1999/xlink" width="720pt" height="432pt" viewBox="0 0 720 432" xmlns="http://www.w3.org/2000/svg" version="1.1">
 <metadata>
  <rdf:RDF xmlns:dc="http://purl.org/dc/elements/1.1/" xmlns:cc="http://creativecommons.org/ns#" xmlns:rdf="http://www.w3.org/1999/02/22-rdf-syntax-ns#">
   <cc:Work>
    <dc:type rdf:resource="http://purl.org/dc/dcmitype/StillImage"/>
    <dc:date>2025-12-10T00:53:27.623606</dc:date>
    <dc:format>image/svg+xml</dc:format>
    <dc:creator>
     <cc:Agent>
      <dc:title>Matplotlib v3.10.7, https://matplotlib.org/</dc:title>
     </cc:Agent>
    </dc:creator>
   </cc:Work>
  </rdf:RDF>
 </metadata>
 <defs>
  <style type="text/css">*{stroke-linejoin: round; stroke-linecap: butt}</style>
 </defs>
 <g id="figure_1">
  <g id="patch_1">
   <path d="M 0 432 
L 720 432 
L 720 0 
L 0 0 
z
" style="fill: #ffffff"/>
  </g>
  <g id="axes_1">
   <g id="patch_2">
    <path d="M 90 384.48 
L 648 384.48 
L 648 51.84 
L 90 51.84 
z
" style="fill: #ffffff"/>
   </g>
   <g id="patch_3">
    <path d="M 115.363636 384.48 
L 120.436364 384.48 
L 120.436364 384.267596 
L 115.363636 384.267596 
z
" clip-path="url(#p438c98a517)" style="fill: #87ceeb; opacity: 0.7; stroke: #000000; stroke-linejoin: miter"/>
   </g>
   <g id="patch_4">
    <path d="M 120.436364 384.48 
L 125.509091 384.48 
L 125.509091 384.48 
L 120.436364 384.48 
z
" clip-path="url(#p438c98a517)" style="fill: #87ceeb; opacity: 0.7; stroke: #000000; stroke-linejoin: miter"/>
   </g>
   <g id="patch_5">
    <path d="M 125.509091 384.48 
L 130.581818 384.48 
L 130.581818 384.161395 
L 125.509091 384.161395 
z
" clip-path="url(#p438c98a517)" style="fill: #87ceeb; opacity: 0.7; stroke: #000000; stroke-linejoin: miter"/>
   </g>
   <g id="patch_6">
    <path d="M 130.581818 384.48 
L 135.654545 384.48 
L 135.654545 384.267596 
L 130.581818 384.267596 
z
" clip-path="url(#p438c98a517)" style="fill: #87ceeb; opacity: 0.7; stroke: #000000; stroke-linejoin: miter"/>
   </g>
   <g id="patch_7">
    <path d="M 135.654545 384.48 
L 140.727273 384.48 
L 140.727273 384.48 
L 135.654545 384.48 
z
" clip-path="url(#p438c98a517)" style="fill: #87ceeb; opacity: 0.7; stroke: #000000; stroke-linejoin: miter"/>
   </g>
   <g id="patch_8">
    <path d="M 140.727273 384.48 
L 145.8 384.48 
L 145.8 384.373798 
L 140.727273 384.373798 
z
" clip-path="url(#p438c98a517)" style="fill: #87ceeb; opacity: 0.7; stroke: #000000; stroke-linejoin: miter"/>
   </g>
   <g id="patch_9">
    <path d="M 145.8 384.48 
L 150.872727 384.48 
L 150.872727 383.205578 
L 145.8 383.205578 
z
" clip-path="url(#p438c98a517)" style="fill: #87ceeb; opacity: 0.7; stroke: #000000; stroke-linejoin: miter"/>
   </g>
   <g id="patch_10">
    <path d="M 150.872727 384.48 
L 155.945455 384.48 
L 155.945455 384.055193 
L 150.872727 384.055193 
z
" clip-path="url(#p438c98a517)" style="fill: #87ceeb; opacity: 0.7; stroke: #000000; stroke-linejoin: miter"/>
   </g>
   <g id="patch_11">
    <path d="M 155.945455 384.48 
L 161.018182 384.48 
L 161.018182 382.780771 
L 155.945455 382.780771 
z
" clip-path="url(#p438c98a517)" style="fill: #87ceeb; opacity: 0.7; stroke: #000000; stroke-linejoin: miter"/>
   </g>
   <g id="patch_12">
    <path d="M 161.018182 384.48 
L 166.090909 384.48 
L 166.090909 382.568367 
L 161.018182 382.568367 
z
" clip-path="url(#p438c98a517)" style="fill: #87ceeb; opacity: 0.7; stroke: #000000; stroke-linejoin: miter"/>
   </g>
   <g id="patch_13">
    <path d="M 166.090909 384.48 
L 171.163636 384.48 
L 171.163636 381.506349 
L 166.090909 381.506349 
z
" clip-path="url(#p438c98a517)" style="fill: #87ceeb; opacity: 0.7; stroke: #000000; stroke-linejoin: miter"/>
   </g>
   <g id="patch_14">
    <path d="M 171.163636 384.48 
L 176.236364 384.48 
L 176.236364 381.400148 
L 171.163636 381.400148 
z
" clip-path="url(#p438c98a517)" style="fill: #87ceeb; opacity: 0.7; stroke: #000000; stroke-linejoin: miter"/>
   </g>
   <g id="patch_15">
    <path d="M 176.236364 384.48 
L 181.309091 384.48 
L 181.309091 378.957506 
L 176.236364 378.957506 
z
" clip-path="url(#p438c98a517)" style="fill: #87ceeb; opacity: 0.7; stroke: #000000; stroke-linejoin: miter"/>
   </g>
   <g id="patch_16">
    <path d="M 181.309091 384.48 
L 186.381818 384.48 
L 186.381818 375.028039 
L 181.309091 375.028039 
z
" clip-path="url(#p438c98a517)" style="fill: #87ceeb; opacity: 0.7; stroke: #000000; stroke-linejoin: miter"/>
   </g>
   <g id="patch_17">
    <path d="M 186.381818 384.48 
L 191.454545 384.48 
L 191.454545 371.735783 
L 186.381818 371.735783 
z
" clip-path="url(#p438c98a517)" style="fill: #87ceeb; opacity: 0.7; stroke: #000000; stroke-linejoin: miter"/>
   </g>
   <g id="patch_18">
    <path d="M 191.454545 384.48 
L 196.527273 384.48 
L 196.527273 372.691599 
L 191.454545 372.691599 
z
" clip-path="url(#p438c98a517)" style="fill: #87ceeb; opacity: 0.7; stroke: #000000; stroke-linejoin: miter"/>
   </g>
   <g id="patch_19">
    <path d="M 196.527273 384.48 
L 201.6 384.48 
L 201.6 367.275307 
L 196.527273 367.275307 
z
" clip-path="url(#p438c98a517)" style="fill: #87ceeb; opacity: 0.7; stroke: #000000; stroke-linejoin: miter"/>
   </g>
   <g id="patch_20">
    <path d="M 201.6 384.48 
L 206.672727 384.48 
L 206.672727 360.903198 
L 201.6 360.903198 
z
" clip-path="url(#p438c98a517)" style="fill: #87ceeb; opacity: 0.7; stroke: #000000; stroke-linejoin: miter"/>
   </g>
   <g id="patch_21">
    <path d="M 206.672727 384.48 
L 211.745455 384.48 
L 211.745455 354.955897 
L 206.672727 354.955897 
z
" clip-path="url(#p438c98a517)" style="fill: #87ceeb; opacity: 0.7; stroke: #000000; stroke-linejoin: miter"/>
   </g>
   <g id="patch_22">
    <path d="M 211.745455 384.48 
L 216.818182 384.48 
L 216.818182 349.220999 
L 211.745455 349.220999 
z
" clip-path="url(#p438c98a517)" style="fill: #87ceeb; opacity: 0.7; stroke: #000000; stroke-linejoin: miter"/>
   </g>
   <g id="patch_23">
    <path d="M 216.818182 384.48 
L 221.890909 384.48 
L 221.890909 335.520965 
L 216.818182 335.520965 
z
" clip-path="url(#p438c98a517)" style="fill: #87ceeb; opacity: 0.7; stroke: #000000; stroke-linejoin: miter"/>
   </g>
   <g id="patch_24">
    <path d="M 221.890909 384.48 
L 226.963636 384.48 
L 226.963636 319.590694 
L 221.890909 319.590694 
z
" clip-path="url(#p438c98a517)" style="fill: #87ceeb; opacity: 0.7; stroke: #000000; stroke-linejoin: miter"/>
   </g>
   <g id="patch_25">
    <path d="M 226.963636 384.48 
L 232.036364 384.48 
L 232.036364 307.483688 
L 226.963636 307.483688 
z
" clip-path="url(#p438c98a517)" style="fill: #87ceeb; opacity: 0.7; stroke: #000000; stroke-linejoin: miter"/>
   </g>
   <g id="patch_26">
    <path d="M 232.036364 384.48 
L 237.109091 384.48 
L 237.109091 291.76582 
L 232.036364 291.76582 
z
" clip-path="url(#p438c98a517)" style="fill: #87ceeb; opacity: 0.7; stroke: #000000; stroke-linejoin: miter"/>
   </g>
   <g id="patch_27">
    <path d="M 237.109091 384.48 
L 242.181818 384.48 
L 242.181818 277.853383 
L 237.109091 277.853383 
z
" clip-path="url(#p438c98a517)" style="fill: #87ceeb; opacity: 0.7; stroke: #000000; stroke-linejoin: miter"/>
   </g>
   <g id="patch_28">
    <path d="M 242.181818 384.48 
L 247.254545 384.48 
L 247.254545 265.321569 
L 242.181818 265.321569 
z
" clip-path="url(#p438c98a517)" style="fill: #87ceeb; opacity: 0.7; stroke: #000000; stroke-linejoin: miter"/>
   </g>
   <g id="patch_29">
    <path d="M 247.254545 384.48 
L 252.327273 384.48 
L 252.327273 228.257137 
L 247.254545 228.257137 
z
" clip-path="url(#p438c98a517)" style="fill: #87ceeb; opacity: 0.7; stroke: #000000; stroke-linejoin: miter"/>
   </g>
   <g id="patch_30">
    <path d="M 252.327273 384.48 
L 257.4 384.48 
L 257.4 225.49589 
L 252.327273 225.49589 
z
" clip-path="url(#p438c98a517)" style="fill: #87ceeb; opacity: 0.7; stroke: #000000; stroke-linejoin: miter"/>
   </g>
   <g id="patch_31">
    <path d="M 257.4 384.48 
L 262.472727 384.48 
L 262.472727 198.414428 
L 257.4 198.414428 
z
" clip-path="url(#p438c98a517)" style="fill: #87ceeb; opacity: 0.7; stroke: #000000; stroke-linejoin: miter"/>
   </g>
   <g id="patch_32">
    <path d="M 262.472727 384.48 
L 267.545455 384.48 
L 267.545455 167.828307 
L 262.472727 167.828307 
z
" clip-path="url(#p438c98a517)" style="fill: #87ceeb; opacity: 0.7; stroke: #000000; stroke-linejoin: miter"/>
   </g>
   <g id="patch_33">
    <path d="M 267.545455 384.48 
L 272.618182 384.48 
L 272.618182 152.853852 
L 267.545455 152.853852 
z
" clip-path="url(#p438c98a517)" style="fill: #87ceeb; opacity: 0.7; stroke: #000000; stroke-linejoin: miter"/>
   </g>
   <g id="patch_34">
    <path d="M 272.618182 384.48 
L 277.690909 384.48 
L 277.690909 123.117345 
L 272.618182 123.117345 
z
" clip-path="url(#p438c98a517)" style="fill: #87ceeb; opacity: 0.7; stroke: #000000; stroke-linejoin: miter"/>
   </g>
   <g id="patch_35">
    <path d="M 277.690909 384.48 
L 282.763636 384.48 
L 282.763636 113.45298 
L 277.690909 113.45298 
z
" clip-path="url(#p438c98a517)" style="fill: #87ceeb; opacity: 0.7; stroke: #000000; stroke-linejoin: miter"/>
   </g>
   <g id="patch_36">
    <path d="M 282.763636 384.48 
L 287.836364 384.48 
L 287.836364 85.946711 
L 282.763636 85.946711 
z
" clip-path="url(#p438c98a517)" style="fill: #87ceeb; opacity: 0.7; stroke: #000000; stroke-linejoin: miter"/>
   </g>
   <g id="patch_37">
    <path d="M 287.836364 384.48 
L 292.909091 384.48 
L 292.909091 90.938196 
L 287.836364 90.938196 
z
" clip-path="url(#p438c98a517)" style="fill: #87ceeb; opacity: 0.7; stroke: #000000; stroke-linejoin: miter"/>
   </g>
   <g id="patch_38">
    <path d="M 292.909091 384.48 
L 297.981818 384.48 
L 297.981818 89.026564 
L 292.909091 89.026564 
z
" clip-path="url(#p438c98a517)" style="fill: #87ceeb; opacity: 0.7; stroke: #000000; stroke-linejoin: miter"/>
   </g>
   <g id="patch_39">
    <path d="M 297.981818 384.48 
L 303.054545 384.48 
L 303.054545 67.68 
L 297.981818 67.68 
z
" clip-path="url(#p438c98a517)" style="fill: #87ceeb; opacity: 0.7; stroke: #000000; stroke-linejoin: miter"/>
   </g>
   <g id="patch_40">
    <path d="M 303.054545 384.48 
L 308.127273 384.48 
L 308.127273 74.476916 
L 303.054545 74.476916 
z
" clip-path="url(#p438c98a517)" style="fill: #87ceeb; opacity: 0.7; stroke: #000000; stroke-linejoin: miter"/>
   </g>
   <g id="patch_41">
    <path d="M 308.127273 384.48 
L 313.2 384.48 
L 313.2 88.495555 
L 308.127273 88.495555 
z
" clip-path="url(#p438c98a517)" style="fill: #87ceeb; opacity: 0.7; stroke: #000000; stroke-linejoin: miter"/>
   </g>
   <g id="patch_42">
    <path d="M 313.2 384.48 
L 318.272727 384.48 
L 318.272727 88.389353 
L 313.2 88.389353 
z
" clip-path="url(#p438c98a517)" style="fill: #87ceeb; opacity: 0.7; stroke: #000000; stroke-linejoin: miter"/>
   </g>
   <g id="patch_43">
    <path d="M 318.272727 384.48 
L 323.345455 384.48 
L 323.345455 123.860758 
L 318.272727 123.860758 
z
" clip-path="url(#p438c98a517)" style="fill: #87ceeb; opacity: 0.7; stroke: #000000; stroke-linejoin: miter"/>
   </g>
   <g id="patch_44">
    <path d="M 323.345455 384.48 
L 328.418182 384.48 
L 328.418182 138.622809 
L 323.345455 138.622809 
z
" clip-path="url(#p438c98a517)" style="fill: #87ceeb; opacity: 0.7; stroke: #000000; stroke-linejoin: miter"/>
   </g>
   <g id="patch_45">
    <path d="M 328.418182 384.48 
L 333.490909 384.48 
L 333.490909 169.527536 
L 328.418182 169.527536 
z
" clip-path="url(#p438c98a517)" style="fill: #87ceeb; opacity: 0.7; stroke: #000000; stroke-linejoin: miter"/>
   </g>
   <g id="patch_46">
    <path d="M 333.490909 384.48 
L 338.563636 384.48 
L 338.563636 207.972591 
L 333.490909 207.972591 
z
" clip-path="url(#p438c98a517)" style="fill: #87ceeb; opacity: 0.7; stroke: #000000; stroke-linejoin: miter"/>
   </g>
   <g id="patch_47">
    <path d="M 338.563636 384.48 
L 343.636364 384.48 
L 343.636364 246.417647 
L 338.563636 246.417647 
z
" clip-path="url(#p438c98a517)" style="fill: #87ceeb; opacity: 0.7; stroke: #000000; stroke-linejoin: miter"/>
   </g>
   <g id="patch_48">
    <path d="M 343.636364 384.48 
L 348.709091 384.48 
L 348.709091 277.428575 
L 343.636364 277.428575 
z
" clip-path="url(#p438c98a517)" style="fill: #87ceeb; opacity: 0.7; stroke: #000000; stroke-linejoin: miter"/>
   </g>
   <g id="patch_49">
    <path d="M 348.709091 384.48 
L 353.781818 384.48 
L 353.781818 313.430989 
L 348.709091 313.430989 
z
" clip-path="url(#p438c98a517)" style="fill: #87ceeb; opacity: 0.7; stroke: #000000; stroke-linejoin: miter"/>
   </g>
   <g id="patch_50">
    <path d="M 353.781818 384.48 
L 358.854545 384.48 
L 358.854545 337.5388 
L 353.781818 337.5388 
z
" clip-path="url(#p438c98a517)" style="fill: #87ceeb; opacity: 0.7; stroke: #000000; stroke-linejoin: miter"/>
   </g>
   <g id="patch_51">
    <path d="M 358.854545 384.48 
L 363.927273 384.48 
L 363.927273 361.859014 
L 358.854545 361.859014 
z
" clip-path="url(#p438c98a517)" style="fill: #87ceeb; opacity: 0.7; stroke: #000000; stroke-linejoin: miter"/>
   </g>
   <g id="patch_52">
    <path d="M 363.927273 384.48 
L 369 384.48 
L 369 374.072223 
L 363.927273 374.072223 
z
" clip-path="url(#p438c98a517)" style="fill: #87ceeb; opacity: 0.7; stroke: #000000; stroke-linejoin: miter"/>
   </g>
   <g id="patch_53">
    <path d="M 369 384.48 
L 374.072727 384.48 
L 374.072727 382.993175 
L 369 382.993175 
z
" clip-path="url(#p438c98a517)" style="fill: #87ceeb; opacity: 0.7; stroke: #000000; stroke-linejoin: miter"/>
   </g>
   <g id="patch_54">
    <path d="M 374.072727 384.48 
L 379.145455 384.48 
L 379.145455 383.417982 
L 374.072727 383.417982 
z
" clip-path="url(#p438c98a517)" style="fill: #87ceeb; opacity: 0.7; stroke: #000000; stroke-linejoin: miter"/>
   </g>
   <g id="patch_55">
    <path d="M 379.145455 384.48 
L 384.218182 384.48 
L 384.218182 377.258277 
L 379.145455 377.258277 
z
" clip-path="url(#p438c98a517)" style="fill: #87ceeb; opacity: 0.7; stroke: #000000; stroke-linejoin: miter"/>
   </g>
   <g id="patch_56">
    <path d="M 384.218182 384.48 
L 389.290909 384.48 
L 389.290909 363.133436 
L 384.218182 363.133436 
z
" clip-path="url(#p438c98a517)" style="fill: #87ceeb; opacity: 0.7; stroke: #000000; stroke-linejoin: miter"/>
   </g>
   <g id="patch_57">
    <path d="M 389.290909 384.48 
L 394.363636 384.48 
L 394.363636 343.167496 
L 389.290909 343.167496 
z
" clip-path="url(#p438c98a517)" style="fill: #87ceeb; opacity: 0.7; stroke: #000000; stroke-linejoin: miter"/>
   </g>
   <g id="patch_58">
    <path d="M 394.363636 384.48 
L 399.436364 384.48 
L 399.436364 318.634878 
L 394.363636 318.634878 
z
" clip-path="url(#p438c98a517)" style="fill: #87ceeb; opacity: 0.7; stroke: #000000; stroke-linejoin: miter"/>
   </g>
   <g id="patch_59">
    <path d="M 399.436364 384.48 
L 404.509091 384.48 
L 404.509091 293.57125 
L 399.436364 293.57125 
z
" clip-path="url(#p438c98a517)" style="fill: #87ceeb; opacity: 0.7; stroke: #000000; stroke-linejoin: miter"/>
   </g>
   <g id="patch_60">
    <path d="M 404.509091 384.48 
L 409.581818 384.48 
L 409.581818 265.95878 
L 404.509091 265.95878 
z
" clip-path="url(#p438c98a517)" style="fill: #87ceeb; opacity: 0.7; stroke: #000000; stroke-linejoin: miter"/>
   </g>
   <g id="patch_61">
    <path d="M 409.581818 384.48 
L 414.654545 384.48 
L 414.654545 220.079598 
L 409.581818 220.079598 
z
" clip-path="url(#p438c98a517)" style="fill: #87ceeb; opacity: 0.7; stroke: #000000; stroke-linejoin: miter"/>
   </g>
   <g id="patch_62">
    <path d="M 414.654545 384.48 
L 419.727273 384.48 
L 419.727273 197.989621 
L 414.654545 197.989621 
z
" clip-path="url(#p438c98a517)" style="fill: #87ceeb; opacity: 0.7; stroke: #000000; stroke-linejoin: miter"/>
   </g>
   <g id="patch_63">
    <path d="M 419.727273 384.48 
L 424.8 384.48 
L 424.8 170.058545 
L 419.727273 170.058545 
z
" clip-path="url(#p438c98a517)" style="fill: #87ceeb; opacity: 0.7; stroke: #000000; stroke-linejoin: miter"/>
   </g>
   <g id="patch_64">
    <path d="M 424.8 384.48 
L 429.872727 384.48 
L 429.872727 154.553081 
L 424.8 154.553081 
z
" clip-path="url(#p438c98a517)" style="fill: #87ceeb; opacity: 0.7; stroke: #000000; stroke-linejoin: miter"/>
   </g>
   <g id="patch_65">
    <path d="M 429.872727 384.48 
L 434.945455 384.48 
L 434.945455 120.887107 
L 429.872727 120.887107 
z
" clip-path="url(#p438c98a517)" style="fill: #87ceeb; opacity: 0.7; stroke: #000000; stroke-linejoin: miter"/>
   </g>
   <g id="patch_66">
    <path d="M 434.945455 384.48 
L 440.018182 384.48 
L 440.018182 115.683218 
L 434.945455 115.683218 
z
" clip-path="url(#p438c98a517)" style="fill: #87ceeb; opacity: 0.7; stroke: #000000; stroke-linejoin: miter"/>
   </g>
   <g id="patch_67">
    <path d="M 440.018182 384.48 
L 445.090909 384.48 
L 445.090909 99.434341 
L 440.018182 99.434341 
z
" clip-path="url(#p438c98a517)" style="fill: #87ceeb; opacity: 0.7; stroke: #000000; stroke-linejoin: miter"/>
   </g>
   <g id="patch_68">
    <path d="M 445.090909 384.48 
L 450.163636 384.48 
L 450.163636 116.214227 
L 445.090909 116.214227 
z
" clip-path="url(#p438c98a517)" style="fill: #87ceeb; opacity: 0.7; stroke: #000000; stroke-linejoin: miter"/>
   </g>
   <g id="patch_69">
    <path d="M 450.163636 384.48 
L 455.236364 384.48 
L 455.236364 94.761462 
L 450.163636 94.761462 
z
" clip-path="url(#p438c98a517)" style="fill: #87ceeb; opacity: 0.7; stroke: #000000; stroke-linejoin: miter"/>
   </g>
   <g id="patch_70">
    <path d="M 455.236364 384.48 
L 460.309091 384.48 
L 460.309091 115.470815 
L 455.236364 115.470815 
z
" clip-path="url(#p438c98a517)" style="fill: #87ceeb; opacity: 0.7; stroke: #000000; stroke-linejoin: miter"/>
   </g>
   <g id="patch_71">
    <path d="M 460.309091 384.48 
L 465.381818 384.48 
L 465.381818 110.904137 
L 460.309091 110.904137 
z
" clip-path="url(#p438c98a517)" style="fill: #87ceeb; opacity: 0.7; stroke: #000000; stroke-linejoin: miter"/>
   </g>
   <g id="patch_72">
    <path d="M 465.381818 384.48 
L 470.454545 384.48 
L 470.454545 115.364613 
L 465.381818 115.364613 
z
" clip-path="url(#p438c98a517)" style="fill: #87ceeb; opacity: 0.7; stroke: #000000; stroke-linejoin: miter"/>
   </g>
   <g id="patch_73">
    <path d="M 470.454545 384.48 
L 475.527273 384.48 
L 475.527273 146.90655 
L 470.454545 146.90655 
z
" clip-path="url(#p438c98a517)" style="fill: #87ceeb; opacity: 0.7; stroke: #000000; stroke-linejoin: miter"/>
   </g>
   <g id="patch_74">
    <path d="M 475.527273 384.48 
L 480.6 384.48 
L 480.6 171.439169 
L 475.527273 171.439169 
z
" clip-path="url(#p438c98a517)" style="fill: #87ceeb; opacity: 0.7; stroke: #000000; stroke-linejoin: miter"/>
   </g>
   <g id="patch_75">
    <path d="M 480.6 384.48 
L 485.672727 384.48 
L 485.672727 188.325256 
L 480.6 188.325256 
z
" clip-path="url(#p438c98a517)" style="fill: #87ceeb; opacity: 0.7; stroke: #000000; stroke-linejoin: miter"/>
   </g>
   <g id="patch_76">
    <path d="M 485.672727 384.48 
L 490.745455 384.48 
L 490.745455 213.601287 
L 485.672727 213.601287 
z
" clip-path="url(#p438c98a517)" style="fill: #87ceeb; opacity: 0.7; stroke: #000000; stroke-linejoin: miter"/>
   </g>
   <g id="patch_77">
    <path d="M 490.745455 384.48 
L 495.818182 384.48 
L 495.818182 229.106752 
L 490.745455 229.106752 
z
" clip-path="url(#p438c98a517)" style="fill: #87ceeb; opacity: 0.7; stroke: #000000; stroke-linejoin: miter"/>
   </g>
   <g id="patch_78">
    <path d="M 495.818182 384.48 
L 500.890909 384.48 
L 500.890909 244.612216 
L 495.818182 244.612216 
z
" clip-path="url(#p438c98a517)" style="fill: #87ceeb; opacity: 0.7; stroke: #000000; stroke-linejoin: miter"/>
   </g>
   <g id="patch_79">
    <path d="M 500.890909 384.48 
L 505.963636 384.48 
L 505.963636 269.251036 
L 500.890909 269.251036 
z
" clip-path="url(#p438c98a517)" style="fill: #87ceeb; opacity: 0.7; stroke: #000000; stroke-linejoin: miter"/>
   </g>
   <g id="patch_80">
    <path d="M 505.963636 384.48 
L 511.036364 384.48 
L 511.036364 279.234006 
L 505.963636 279.234006 
z
" clip-path="url(#p438c98a517)" style="fill: #87ceeb; opacity: 0.7; stroke: #000000; stroke-linejoin: miter"/>
   </g>
   <g id="patch_81">
    <path d="M 511.036364 384.48 
L 516.109091 384.48 
L 516.109091 298.24413 
L 511.036364 298.24413 
z
" clip-path="url(#p438c98a517)" style="fill: #87ceeb; opacity: 0.7; stroke: #000000; stroke-linejoin: miter"/>
   </g>
   <g id="patch_82">
    <path d="M 516.109091 384.48 
L 521.181818 384.48 
L 521.181818 315.873631 
L 516.109091 315.873631 
z
" clip-path="url(#p438c98a517)" style="fill: #87ceeb; opacity: 0.7; stroke: #000000; stroke-linejoin: miter"/>
   </g>
   <g id="patch_83">
    <path d="M 521.181818 384.48 
L 526.254545 384.48 
L 526.254545 327.55583 
L 521.181818 327.55583 
z
" clip-path="url(#p438c98a517)" style="fill: #87ceeb; opacity: 0.7; stroke: #000000; stroke-linejoin: miter"/>
   </g>
   <g id="patch_84">
    <path d="M 526.254545 384.48 
L 531.327273 384.48 
L 531.327273 342.317881 
L 526.254545 342.317881 
z
" clip-path="url(#p438c98a517)" style="fill: #87ceeb; opacity: 0.7; stroke: #000000; stroke-linejoin: miter"/>
   </g>
   <g id="patch_85">
    <path d="M 531.327273 384.48 
L 536.4 384.48 
L 536.4 348.796192 
L 531.327273 348.796192 
z
" clip-path="url(#p438c98a517)" style="fill: #87ceeb; opacity: 0.7; stroke: #000000; stroke-linejoin: miter"/>
   </g>
   <g id="patch_86">
    <path d="M 536.4 384.48 
L 541.472727 384.48 
L 541.472727 355.380704 
L 536.4 355.380704 
z
" clip-path="url(#p438c98a517)" style="fill: #87ceeb; opacity: 0.7; stroke: #000000; stroke-linejoin: miter"/>
   </g>
   <g id="patch_87">
    <path d="M 541.472727 384.48 
L 546.545455 384.48 
L 546.545455 362.071418 
L 541.472727 362.071418 
z
" clip-path="url(#p438c98a517)" style="fill: #87ceeb; opacity: 0.7; stroke: #000000; stroke-linejoin: miter"/>
   </g>
   <g id="patch_88">
    <path d="M 546.545455 384.48 
L 551.618182 384.48 
L 551.618182 364.089252 
L 546.545455 364.089252 
z
" clip-path="url(#p438c98a517)" style="fill: #87ceeb; opacity: 0.7; stroke: #000000; stroke-linejoin: miter"/>
   </g>
   <g id="patch_89">
    <path d="M 551.618182 384.48 
L 556.690909 384.48 
L 556.690909 371.523379 
L 551.618182 371.523379 
z
" clip-path="url(#p438c98a517)" style="fill: #87ceeb; opacity: 0.7; stroke: #000000; stroke-linejoin: miter"/>
   </g>
   <g id="patch_90">
    <path d="M 556.690909 384.48 
L 561.763636 384.48 
L 561.763636 374.390828 
L 556.690909 374.390828 
z
" clip-path="url(#p438c98a517)" style="fill: #87ceeb; opacity: 0.7; stroke: #000000; stroke-linejoin: miter"/>
   </g>
   <g id="patch_91">
    <path d="M 561.763636 384.48 
L 566.836364 384.48 
L 566.836364 376.302461 
L 561.763636 376.302461 
z
" clip-path="url(#p438c98a517)" style="fill: #87ceeb; opacity: 0.7; stroke: #000000; stroke-linejoin: miter"/>
   </g>
   <g id="patch_92">
    <path d="M 566.836364 384.48 
L 571.909091 384.48 
L 571.909091 379.80712 
L 566.836364 379.80712 
z
" clip-path="url(#p438c98a517)" style="fill: #87ceeb; opacity: 0.7; stroke: #000000; stroke-linejoin: miter"/>
   </g>
   <g id="patch_93">
    <path d="M 571.909091 384.48 
L 576.981818 384.48 
L 576.981818 382.037358 
L 571.909091 382.037358 
z
" clip-path="url(#p438c98a517)" style="fill: #87ceeb; opacity: 0.7; stroke: #000000; stroke-linejoin: miter"/>
   </g>
   <g id="patch_94">
    <path d="M 576.981818 384.48 
L 582.054545 384.48 
L 582.054545 382.249762 
L 576.981818 382.249762 
z
" clip-path="url(#p438c98a517)" style="fill: #87ceeb; opacity: 0.7; stroke: #000000; stroke-linejoin: miter"/>
   </g>
   <g id="patch_95">
    <path d="M 582.054545 384.48 
L 587.127273 384.48 
L 587.127273 382.674569 
L 582.054545 382.674569 
z
" clip-path="url(#p438c98a517)" style="fill: #87ceeb; opacity: 0.7; stroke: #000000; stroke-linejoin: miter"/>
   </g>
   <g id="patch_96">
    <path d="M 587.127273 384.48 
L 592.2 384.48 
L 592.2 383.524184 
L 587.127273 383.524184 
z
" clip-path="url(#p438c98a517)" style="fill: #87ceeb; opacity: 0.7; stroke: #000000; stroke-linejoin: miter"/>
   </g>
   <g id="patch_97">
    <path d="M 592.2 384.48 
L 597.272727 384.48 
L 597.272727 383.417982 
L 592.2 383.417982 
z
" clip-path="url(#p438c98a517)" style="fill: #87ceeb; opacity: 0.7; stroke: #000000; stroke-linejoin: miter"/>
   </g>
   <g id="patch_98">
    <path d="M 597.272727 384.48 
L 602.345455 384.48 
L 602.345455 383.948991 
L 597.272727 383.948991 
z
" clip-path="url(#p438c98a517)" style="fill: #87ceeb; opacity: 0.7; stroke: #000000; stroke-linejoin: miter"/>
   </g>
   <g id="patch_99">
    <path d="M 602.345455 384.48 
L 607.418182 384.48 
L 607.418182 383.842789 
L 602.345455 383.842789 
z
" clip-path="url(#p438c98a517)" style="fill: #87ceeb; opacity: 0.7; stroke: #000000; stroke-linejoin: miter"/>
   </g>
   <g id="patch_100">
    <path d="M 607.418182 384.48 
L 612.490909 384.48 
L 612.490909 384.373798 
L 607.418182 384.373798 
z
" clip-path="url(#p438c98a517)" style="fill: #87ceeb; opacity: 0.7; stroke: #000000; stroke-linejoin: miter"/>
   </g>
   <g id="patch_101">
    <path d="M 612.490909 384.48 
L 617.563636 384.48 
L 617.563636 384.161395 
L 612.490909 384.161395 
z
" clip-path="url(#p438c98a517)" style="fill: #87ceeb; opacity: 0.7; stroke: #000000; stroke-linejoin: miter"/>
   </g>
   <g id="patch_102">
    <path d="M 617.563636 384.48 
L 622.636364 384.48 
L 622.636364 384.267596 
L 617.563636 384.267596 
z
" clip-path="url(#p438c98a517)" style="fill: #87ceeb; opacity: 0.7; stroke: #000000; stroke-linejoin: miter"/>
   </g>
   <g id="matplotlib.axis_1">
    <g id="xtick_1">
     <g id="line2d_1">
      <defs>
       <path id="m422ca5e06f" d="M 0 0 
L 0 3.5 
" style="stroke: #000000; stroke-width: 0.8"/>
      </defs>
      <g>
       <use xlink:href="#m422ca5e06f" x="149.871039" y="384.48" style="stroke: #000000; stroke-width: 0.8"/>
      </g>
     </g>
     <g id="text_1">
      <!-- −3 -->
      <g transform="translate(142.499945 399.078438) scale(0.1 -0.1)">
       <defs>
        <path id="DejaVuSans-2212" d="M 678 2272 
L 4684 2272 
L 4684 1741 
L 678 1741 
L 678 2272 
z
" transform="scale(0.015625)"/>
        <path id="DejaVuSans-33" d="M 2597 2516 
Q 3050 2419 3304 2112 
Q 3559 1806 3559 1356 
Q 3559 666 3084 287 
Q 2609 -91 1734 -91 
Q 1441 -91 1130 -33 
Q 819 25 488 141 
L 488 750 
Q 750 597 1062 519 
Q 1375 441 1716 441 
Q 2309 441 2620 675 
Q 2931 909 2931 1356 
Q 2931 1769 2642 2001 
Q 2353 2234 1838 2234 
L 1294 2234 
L 1294 2753 
L 1863 2753 
Q 2328 2753 2575 2939 
Q 2822 3125 2822 3475 
Q 2822 3834 2567 4026 
Q 2313 4219 1838 4219 
Q 1578 4219 1281 4162 
Q 984 4106 628 3988 
L 628 4550 
Q 988 4650 1302 4700 
Q 1616 4750 1894 4750 
Q 2613 4750 3031 4423 
Q 3450 4097 3450 3541 
Q 3450 3153 3228 2886 
Q 3006 2619 2597 2516 
z
" transform="scale(0.015625)"/>
       </defs>
       <use xlink:href="#DejaVuSans-2212"/>
       <use xlink:href="#DejaVuSans-33" transform="translate(83.789062 0)"/>
      </g>
     </g>
    </g>
    <g id="xtick_2">
     <g id="line2d_2">
      <g>
       <use xlink:href="#m422ca5e06f" x="224.79041" y="384.48" style="stroke: #000000; stroke-width: 0.8"/>
      </g>
     </g>
     <g id="text_2">
      <!-- −2 -->
      <g transform="translate(217.419316 399.078438) scale(0.1 -0.1)">
       <defs>
        <path id="DejaVuSans-32" d="M 1228 531 
L 3431 531 
L 3431 0 
L 469 0 
L 469 531 
Q 828 903 1448 1529 
Q 2069 2156 2228 2338 
Q 2531 2678 2651 2914 
Q 2772 3150 2772 3378 
Q 2772 3750 2511 3984 
Q 2250 4219 1831 4219 
Q 1534 4219 1204 4116 
Q 875 4013 500 3803 
L 500 4441 
Q 881 4594 1212 4672 
Q 1544 4750 1819 4750 
Q 2544 4750 2975 4387 
Q 3406 4025 3406 3419 
Q 3406 3131 3298 2873 
Q 3191 2616 2906 2266 
Q 2828 2175 2409 1742 
Q 1991 1309 1228 531 
z
" transform="scale(0.015625)"/>
       </defs>
       <use xlink:href="#DejaVuSans-2212"/>
       <use xlink:href="#DejaVuSans-32" transform="translate(83.789062 0)"/>
      </g>
     </g>
    </g>
    <g id="xtick_3">
     <g id="line2d_3">
      <g>
       <use xlink:href="#m422ca5e06f" x="299.709781" y="384.48" style="stroke: #000000; stroke-width: 0.8"/>
      </g>
     </g>
     <g id="text_3">
      <!-- −1 -->
      <g transform="translate(292.338688 399.078438) scale(0.1 -0.1)">
       <defs>
        <path id="DejaVuSans-31" d="M 794 531 
L 1825 531 
L 1825 4091 
L 703 3866 
L 703 4441 
L 1819 4666 
L 2450 4666 
L 2450 531 
L 3481 531 
L 3481 0 
L 794 0 
L 794 531 
z
" transform="scale(0.015625)"/>
       </defs>
       <use xlink:href="#DejaVuSans-2212"/>
       <use xlink:href="#DejaVuSans-31" transform="translate(83.789062 0)"/>
      </g>
     </g>
    </g>
    <g id="xtick_4">
     <g id="line2d_4">
      <g>
       <use xlink:href="#m422ca5e06f" x="374.629152" y="384.48" style="stroke: #000000; stroke-width: 0.8"/>
      </g>
     </g>
     <g id="text_4">
      <!-- 0 -->
      <g transform="translate(371.447902 399.078438) scale(0.1 -0.1)">
       <defs>
        <path id="DejaVuSans-30" d="M 2034 4250 
Q 1547 4250 1301 3770 
Q 1056 3291 1056 2328 
Q 1056 1369 1301 889 
Q 1547 409 2034 409 
Q 2525 409 2770 889 
Q 3016 1369 3016 2328 
Q 3016 3291 2770 3770 
Q 2525 4250 2034 4250 
z
M 2034 4750 
Q 2819 4750 3233 4129 
Q 3647 3509 3647 2328 
Q 3647 1150 3233 529 
Q 2819 -91 2034 -91 
Q 1250 -91 836 529 
Q 422 1150 422 2328 
Q 422 3509 836 4129 
Q 1250 4750 2034 4750 
z
" transform="scale(0.015625)"/>
       </defs>
       <use xlink:href="#DejaVuSans-30"/>
      </g>
     </g>
    </g>
    <g id="xtick_5">
     <g id="line2d_5">
      <g>
       <use xlink:href="#m422ca5e06f" x="449.548523" y="384.48" style="stroke: #000000; stroke-width: 0.8"/>
      </g>
     </g>
     <g id="text_5">
      <!-- 1 -->
      <g transform="translate(446.367273 399.078438) scale(0.1 -0.1)">
       <use xlink:href="#DejaVuSans-31"/>
      </g>
     </g>
    </g>
    <g id="xtick_6">
     <g id="line2d_6">
      <g>
       <use xlink:href="#m422ca5e06f" x="524.467894" y="384.48" style="stroke: #000000; stroke-width: 0.8"/>
      </g>
     </g>
     <g id="text_6">
      <!-- 2 -->
      <g transform="translate(521.286644 399.078438) scale(0.1 -0.1)">
       <use xlink:href="#DejaVuSans-32"/>
      </g>
     </g>
    </g>
    <g id="xtick_7">
     <g id="line2d_7">
      <g>
       <use xlink:href="#m422ca5e06f" x="599.387266" y="384.48" style="stroke: #000000; stroke-width: 0.8"/>
      </g>
     </g>
     <g id="text_7">
      <!-- 3 -->
      <g transform="translate(596.206016 399.078438) scale(0.1 -0.1)">
       <use xlink:href="#DejaVuSans-33"/>
      </g>
     </g>
    </g>
    <g id="text_8">
     <!-- Position x -->
     <g transform="translate(344.9875 412.756563) scale(0.1 -0.1)">
      <defs>
       <path id="DejaVuSans-50" d="M 1259 4147 
L 1259 2394 
L 2053 2394 
Q 2494 2394 2734 2622 
Q 2975 2850 2975 3272 
Q 2975 3691 2734 3919 
Q 2494 4147 2053 4147 
L 1259 4147 
z
M 628 4666 
L 2053 4666 
Q 2838 4666 3239 4311 
Q 3641 3956 3641 3272 
Q 3641 2581 3239 2228 
Q 2838 1875 2053 1875 
L 1259 1875 
L 1259 0 
L 628 0 
L 628 4666 
z
" transform="scale(0.015625)"/>
       <path id="DejaVuSans-6f" d="M 1959 3097 
Q 1497 3097 1228 2736 
Q 959 2375 959 1747 
Q 959 1119 1226 758 
Q 1494 397 1959 397 
Q 2419 397 2687 759 
Q 2956 1122 2956 1747 
Q 2956 2369 2687 2733 
Q 2419 3097 1959 3097 
z
M 1959 3584 
Q 2709 3584 3137 3096 
Q 3566 2609 3566 1747 
Q 3566 888 3137 398 
Q 2709 -91 1959 -91 
Q 1206 -91 779 398 
Q 353 888 353 1747 
Q 353 2609 779 3096 
Q 1206 3584 1959 3584 
z
" transform="scale(0.015625)"/>
       <path id="DejaVuSans-73" d="M 2834 3397 
L 2834 2853 
Q 2591 2978 2328 3040 
Q 2066 3103 1784 3103 
Q 1356 3103 1142 2972 
Q 928 2841 928 2578 
Q 928 2378 1081 2264 
Q 1234 2150 1697 2047 
L 1894 2003 
Q 2506 1872 2764 1633 
Q 3022 1394 3022 966 
Q 3022 478 2636 193 
Q 2250 -91 1575 -91 
Q 1294 -91 989 -36 
Q 684 19 347 128 
L 347 722 
Q 666 556 975 473 
Q 1284 391 1588 391 
Q 1994 391 2212 530 
Q 2431 669 2431 922 
Q 2431 1156 2273 1281 
Q 2116 1406 1581 1522 
L 1381 1569 
Q 847 1681 609 1914 
Q 372 2147 372 2553 
Q 372 3047 722 3315 
Q 1072 3584 1716 3584 
Q 2034 3584 2315 3537 
Q 2597 3491 2834 3397 
z
" transform="scale(0.015625)"/>
       <path id="DejaVuSans-69" d="M 603 3500 
L 1178 3500 
L 1178 0 
L 603 0 
L 603 3500 
z
M 603 4863 
L 1178 4863 
L 1178 4134 
L 603 4134 
L 603 4863 
z
" transform="scale(0.015625)"/>
       <path id="DejaVuSans-74" d="M 1172 4494 
L 1172 3500 
L 2356 3500 
L 2356 3053 
L 1172 3053 
L 1172 1153 
Q 1172 725 1289 603 
Q 1406 481 1766 481 
L 2356 481 
L 2356 0 
L 1766 0 
Q 1100 0 847 248 
Q 594 497 594 1153 
L 594 3053 
L 172 3053 
L 172 3500 
L 594 3500 
L 594 4494 
L 1172 4494 
z
" transform="scale(0.015625)"/>
       <path id="DejaVuSans-6e" d="M 3513 2113 
L 3513 0 
L 2938 0 
L 2938 2094 
Q 2938 2591 2744 2837 
Q 2550 3084 2163 3084 
Q 1697 3084 1428 2787 
Q 1159 2491 1159 1978 
L 1159 0 
L 581 0 
L 581 3500 
L 1159 3500 
L 1159 2956 
Q 1366 3272 1645 3428 
Q 1925 3584 2291 3584 
Q 2894 3584 3203 3211 
Q 3513 2838 3513 2113 
z
" transform="scale(0.015625)"/>
       <path id="DejaVuSans-20" transform="scale(0.015625)"/>
       <path id="DejaVuSans-78" d="M 3513 3500 
L 2247 1797 
L 3578 0 
L 2900 0 
L 1881 1375 
L 863 0 
L 184 0 
L 1544 1831 
L 300 3500 
L 978 3500 
L 1906 2253 
L 2834 3500 
L 3513 3500 
z
" transform="scale(0.015625)"/>
      </defs>
      <use xlink:href="#DejaVuSans-50"/>
      <use xlink:href="#DejaVuSans-6f" transform="translate(56.677734 0)"/>
      <use xlink:href="#DejaVuSans-73" transform="translate(117.859375 0)"/>
      <use xlink:href="#DejaVuSans-69" transform="translate(169.958984 0)"/>
      <use xlink:href="#DejaVuSans-74" transform="translate(197.742188 0)"/>
      <use xlink:href="#DejaVuSans-69" transform="translate(236.951172 0)"/>
      <use xlink:href="#DejaVuSans-6f" transform="translate(264.734375 0)"/>
      <use xlink:href="#DejaVuSans-6e" transform="translate(325.916016 0)"/>
      <use xlink:href="#DejaVuSans-20" transform="translate(389.294922 0)"/>
      <use xlink:href="#DejaVuSans-78" transform="translate(421.082031 0)"/>
     </g>
    </g>
   </g>
   <g id="matplotlib.axis_2">
    <g id="ytick_1">
     <g id="line2d_8">
      <path d="M 90 384.48 
L 648 384.48 
" clip-path="url(#p438c98a517)" style="fill: none; stroke-dasharray: 2.96,1.28; stroke-dashoffset: 0; stroke: #b0b0b0; stroke-opacity: 0.5; stroke-width: 0.8"/>
     </g>
     <g id="line2d_9">
      <defs>
       <path id="m822d74b1cc" d="M 0 0 
L -3.5 0 
" style="stroke: #000000; stroke-width: 0.8"/>
      </defs>
      <g>
       <use xlink:href="#m822d74b1cc" x="90" y="384.48" style="stroke: #000000; stroke-width: 0.8"/>
      </g>
     </g>
     <g id="text_9">
      <!-- 0.0 -->
      <g transform="translate(67.096875 388.279219) scale(0.1 -0.1)">
       <defs>
        <path id="DejaVuSans-2e" d="M 684 794 
L 1344 794 
L 1344 0 
L 684 0 
L 684 794 
z
" transform="scale(0.015625)"/>
       </defs>
       <use xlink:href="#DejaVuSans-30"/>
       <use xlink:href="#DejaVuSans-2e" transform="translate(63.623047 0)"/>
       <use xlink:href="#DejaVuSans-30" transform="translate(95.410156 0)"/>
      </g>
     </g>
    </g>
    <g id="ytick_2">
     <g id="line2d_10">
      <path d="M 90 312.571652 
L 648 312.571652 
" clip-path="url(#p438c98a517)" style="fill: none; stroke-dasharray: 2.96,1.28; stroke-dashoffset: 0; stroke: #b0b0b0; stroke-opacity: 0.5; stroke-width: 0.8"/>
     </g>
     <g id="line2d_11">
      <g>
       <use xlink:href="#m822d74b1cc" x="90" y="312.571652" style="stroke: #000000; stroke-width: 0.8"/>
      </g>
     </g>
     <g id="text_10">
      <!-- 0.1 -->
      <g transform="translate(67.096875 316.370871) scale(0.1 -0.1)">
       <use xlink:href="#DejaVuSans-30"/>
       <use xlink:href="#DejaVuSans-2e" transform="translate(63.623047 0)"/>
       <use xlink:href="#DejaVuSans-31" transform="translate(95.410156 0)"/>
      </g>
     </g>
    </g>
    <g id="ytick_3">
     <g id="line2d_12">
      <path d="M 90 240.663304 
L 648 240.663304 
" clip-path="url(#p438c98a517)" style="fill: none; stroke-dasharray: 2.96,1.28; stroke-dashoffset: 0; stroke: #b0b0b0; stroke-opacity: 0.5; stroke-width: 0.8"/>
     </g>
     <g id="line2d_13">
      <g>
       <use xlink:href="#m822d74b1cc" x="90" y="240.663304" style="stroke: #000000; stroke-width: 0.8"/>
      </g>
     </g>
     <g id="text_11">
      <!-- 0.2 -->
      <g transform="translate(67.096875 244.462523) scale(0.1 -0.1)">
       <use xlink:href="#DejaVuSans-30"/>
       <use xlink:href="#DejaVuSans-2e" transform="translate(63.623047 0)"/>
       <use xlink:href="#DejaVuSans-32" transform="translate(95.410156 0)"/>
      </g>
     </g>
    </g>
    <g id="ytick_4">
     <g id="line2d_14">
      <path d="M 90 168.754957 
L 648 168.754957 
" clip-path="url(#p438c98a517)" style="fill: none; stroke-dasharray: 2.96,1.28; stroke-dashoffset: 0; stroke: #b0b0b0; stroke-opacity: 0.5; stroke-width: 0.8"/>
     </g>
     <g id="line2d_15">
      <g>
       <use xlink:href="#m822d74b1cc" x="90" y="168.754957" style="stroke: #000000; stroke-width: 0.8"/>
      </g>
     </g>
     <g id="text_12">
      <!-- 0.3 -->
      <g transform="translate(67.096875 172.554175) scale(0.1 -0.1)">
       <use xlink:href="#DejaVuSans-30"/>
       <use xlink:href="#DejaVuSans-2e" transform="translate(63.623047 0)"/>
       <use xlink:href="#DejaVuSans-33" transform="translate(95.410156 0)"/>
      </g>
     </g>
    </g>
    <g id="ytick_5">
     <g id="line2d_16">
      <path d="M 90 96.846609 
L 648 96.846609 
" clip-path="url(#p438c98a517)" style="fill: none; stroke-dasharray: 2.96,1.28; stroke-dashoffset: 0; stroke: #b0b0b0; stroke-opacity: 0.5; stroke-width: 0.8"/>
     </g>
     <g id="line2d_17">
      <g>
       <use xlink:href="#m822d74b1cc" x="90" y="96.846609" style="stroke: #000000; stroke-width: 0.8"/>
      </g>
     </g>
     <g id="text_13">
      <!-- 0.4 -->
      <g transform="translate(67.096875 100.645827) scale(0.1 -0.1)">
       <defs>
        <path id="DejaVuSans-34" d="M 2419 4116 
L 825 1625 
L 2419 1625 
L 2419 4116 
z
M 2253 4666 
L 3047 4666 
L 3047 1625 
L 3713 1625 
L 3713 1100 
L 3047 1100 
L 3047 0 
L 2419 0 
L 2419 1100 
L 313 1100 
L 313 1709 
L 2253 4666 
z
" transform="scale(0.015625)"/>
       </defs>
       <use xlink:href="#DejaVuSans-30"/>
       <use xlink:href="#DejaVuSans-2e" transform="translate(63.623047 0)"/>
       <use xlink:href="#DejaVuSans-34" transform="translate(95.410156 0)"/>
      </g>
     </g>
    </g>
    <g id="text_14">
     <!-- Probability Density -->
     <g transform="translate(61.017187 265.186562) rotate(-90) scale(0.1 -0.1)">
      <defs>
       <path id="DejaVuSans-72" d="M 2631 2963 
Q 2534 3019 2420 3045 
Q 2306 3072 2169 3072 
Q 1681 3072 1420 2755 
Q 1159 2438 1159 1844 
L 1159 0 
L 581 0 
L 581 3500 
L 1159 3500 
L 1159 2956 
Q 1341 3275 1631 3429 
Q 1922 3584 2338 3584 
Q 2397 3584 2469 3576 
Q 2541 3569 2628 3553 
L 2631 2963 
z
" transform="scale(0.015625)"/>
       <path id="DejaVuSans-62" d="M 3116 1747 
Q 3116 2381 2855 2742 
Q 2594 3103 2138 3103 
Q 1681 3103 1420 2742 
Q 1159 2381 1159 1747 
Q 1159 1113 1420 752 
Q 1681 391 2138 391 
Q 2594 391 2855 752 
Q 3116 1113 3116 1747 
z
M 1159 2969 
Q 1341 3281 1617 3432 
Q 1894 3584 2278 3584 
Q 2916 3584 3314 3078 
Q 3713 2572 3713 1747 
Q 3713 922 3314 415 
Q 2916 -91 2278 -91 
Q 1894 -91 1617 61 
Q 1341 213 1159 525 
L 1159 0 
L 581 0 
L 581 4863 
L 1159 4863 
L 1159 2969 
z
" transform="scale(0.015625)"/>
       <path id="DejaVuSans-61" d="M 2194 1759 
Q 1497 1759 1228 1600 
Q 959 1441 959 1056 
Q 959 750 1161 570 
Q 1363 391 1709 391 
Q 2188 391 2477 730 
Q 2766 1069 2766 1631 
L 2766 1759 
L 2194 1759 
z
M 3341 1997 
L 3341 0 
L 2766 0 
L 2766 531 
Q 2569 213 2275 61 
Q 1981 -91 1556 -91 
Q 1019 -91 701 211 
Q 384 513 384 1019 
Q 384 1609 779 1909 
Q 1175 2209 1959 2209 
L 2766 2209 
L 2766 2266 
Q 2766 2663 2505 2880 
Q 2244 3097 1772 3097 
Q 1472 3097 1187 3025 
Q 903 2953 641 2809 
L 641 3341 
Q 956 3463 1253 3523 
Q 1550 3584 1831 3584 
Q 2591 3584 2966 3190 
Q 3341 2797 3341 1997 
z
" transform="scale(0.015625)"/>
       <path id="DejaVuSans-6c" d="M 603 4863 
L 1178 4863 
L 1178 0 
L 603 0 
L 603 4863 
z
" transform="scale(0.015625)"/>
       <path id="DejaVuSans-79" d="M 2059 -325 
Q 1816 -950 1584 -1140 
Q 1353 -1331 966 -1331 
L 506 -1331 
L 506 -850 
L 844 -850 
Q 1081 -850 1212 -737 
Q 1344 -625 1503 -206 
L 1606 56 
L 191 3500 
L 800 3500 
L 1894 763 
L 2988 3500 
L 3597 3500 
L 2059 -325 
z
" transform="scale(0.015625)"/>
       <path id="DejaVuSans-44" d="M 1259 4147 
L 1259 519 
L 2022 519 
Q 2988 519 3436 956 
Q 3884 1394 3884 2338 
Q 3884 3275 3436 3711 
Q 2988 4147 2022 4147 
L 1259 4147 
z
M 628 4666 
L 1925 4666 
Q 3281 4666 3915 4102 
Q 4550 3538 4550 2338 
Q 4550 1131 3912 565 
Q 3275 0 1925 0 
L 628 0 
L 628 4666 
z
" transform="scale(0.015625)"/>
       <path id="DejaVuSans-65" d="M 3597 1894 
L 3597 1613 
L 953 1613 
Q 991 1019 1311 708 
Q 1631 397 2203 397 
Q 2534 397 2845 478 
Q 3156 559 3463 722 
L 3463 178 
Q 3153 47 2828 -22 
Q 2503 -91 2169 -91 
Q 1331 -91 842 396 
Q 353 884 353 1716 
Q 353 2575 817 3079 
Q 1281 3584 2069 3584 
Q 2775 3584 3186 3129 
Q 3597 2675 3597 1894 
z
M 3022 2063 
Q 3016 2534 2758 2815 
Q 2500 3097 2075 3097 
Q 1594 3097 1305 2825 
Q 1016 2553 972 2059 
L 3022 2063 
z
" transform="scale(0.015625)"/>
      </defs>
      <use xlink:href="#DejaVuSans-50"/>
      <use xlink:href="#DejaVuSans-72" transform="translate(58.552734 0)"/>
      <use xlink:href="#DejaVuSans-6f" transform="translate(97.416016 0)"/>
      <use xlink:href="#DejaVuSans-62" transform="translate(158.597656 0)"/>
      <use xlink:href="#DejaVuSans-61" transform="translate(222.074219 0)"/>
      <use xlink:href="#DejaVuSans-62" transform="translate(283.353516 0)"/>
      <use xlink:href="#DejaVuSans-69" transform="translate(346.830078 0)"/>
      <use xlink:href="#DejaVuSans-6c" transform="translate(374.613281 0)"/>
      <use xlink:href="#DejaVuSans-69" transform="translate(402.396484 0)"/>
      <use xlink:href="#DejaVuSans-74" transform="translate(430.179688 0)"/>
      <use xlink:href="#DejaVuSans-79" transform="translate(469.388672 0)"/>
      <use xlink:href="#DejaVuSans-20" transform="translate(528.568359 0)"/>
      <use xlink:href="#DejaVuSans-44" transform="translate(560.355469 0)"/>
      <use xlink:href="#DejaVuSans-65" transform="translate(637.357422 0)"/>
      <use xlink:href="#DejaVuSans-6e" transform="translate(698.880859 0)"/>
      <use xlink:href="#DejaVuSans-73" transform="translate(762.259766 0)"/>
      <use xlink:href="#DejaVuSans-69" transform="translate(814.359375 0)"/>
      <use xlink:href="#DejaVuSans-74" transform="translate(842.142578 0)"/>
      <use xlink:href="#DejaVuSans-79" transform="translate(881.351562 0)"/>
     </g>
    </g>
   </g>
   <g id="line2d_18">
    <path d="M 115.363636 384.418828 
L 133.475084 384.213978 
L 144.230341 383.880615 
L 152.144587 383.421547 
L 158.536863 382.834608 
L 163.965224 382.117264 
L 168.683332 381.274998 
L 172.944849 380.291342 
L 176.800507 379.177323 
L 180.402504 377.906437 
L 183.750839 376.491461 
L 186.946977 374.898849 
L 189.990917 373.132382 
L 192.933393 371.16458 
L 195.774405 368.994587 
L 198.564684 366.578445 
L 201.30423 363.905491 
L 203.993045 360.966968 
L 206.681859 357.691198 
L 209.319941 354.12533 
L 211.958023 350.18747 
L 214.646837 345.767707 
L 217.335652 340.915365 
L 220.075198 335.504923 
L 222.865477 329.490069 
L 225.706489 322.825292 
L 228.598233 315.467292 
L 231.591441 307.23187 
L 234.686114 298.05317 
L 237.932984 287.706365 
L 241.332051 276.113756 
L 244.98478 262.840596 
L 248.941903 247.60422 
L 253.507814 229.105795 
L 259.544964 203.635575 
L 270.148024 158.805972 
L 274.206612 142.703459 
L 277.504214 130.489566 
L 280.345225 120.781992 
L 282.881843 112.879662 
L 285.164798 106.474589 
L 287.244824 101.287093 
L 289.121921 97.182713 
L 290.846821 93.927536 
L 292.419524 91.414937 
L 293.890762 89.475815 
L 295.209803 88.088117 
L 296.427379 87.110666 
L 297.594223 86.454324 
L 298.659602 86.099794 
L 299.674249 85.983191 
L 300.688896 86.085452 
L 301.703543 86.409373 
L 302.768922 86.99069 
L 303.885034 87.867196 
L 305.051878 89.078456 
L 306.269454 90.665578 
L 307.588495 92.758604 
L 309.009001 95.447269 
L 310.530971 98.826356 
L 312.154406 102.99424 
L 313.879306 108.050948 
L 315.756403 114.273495 
L 317.734964 121.619287 
L 319.865723 130.39463 
L 322.199411 140.974156 
L 324.736028 153.529914 
L 327.57704 168.752465 
L 330.82391 187.407945 
L 334.831765 211.813717 
L 342.08649 257.711576 
L 347.311922 290.034682 
L 350.863186 310.646324 
L 353.805662 326.456711 
L 356.393012 339.171398 
L 358.675968 349.32 
L 360.755994 357.59531 
L 362.683823 364.370476 
L 364.408723 369.658159 
L 366.032158 373.935625 
L 367.503396 377.205899 
L 368.873169 379.718743 
L 370.090745 381.513398 
L 371.206857 382.790435 
L 372.272236 383.67776 
L 373.236151 384.199586 
L 374.149333 384.44672 
L 375.011783 384.458836 
L 375.874233 384.255962 
L 376.787415 383.807187 
L 377.75133 383.073282 
L 378.765977 382.013642 
L 379.882088 380.510687 
L 381.099665 378.472636 
L 382.418706 375.802865 
L 383.839211 372.401649 
L 385.361182 368.168341 
L 387.035349 362.832164 
L 388.861713 356.235176 
L 390.840275 348.227469 
L 393.021766 338.43757 
L 395.456918 326.43472 
L 398.196465 311.753745 
L 401.341871 293.641397 
L 405.298994 269.482607 
L 420.265036 176.741516 
L 423.461173 159.081169 
L 426.251452 144.856547 
L 428.78807 133.040776 
L 431.121758 123.205965 
L 433.252516 115.155514 
L 435.231078 108.514327 
L 437.057442 103.121998 
L 438.782342 98.695286 
L 440.405777 95.129046 
L 441.877015 92.40407 
L 443.297521 90.231921 
L 444.616562 88.618233 
L 445.834138 87.471945 
L 446.95025 86.708741 
L 448.015629 86.234605 
L 449.081008 86.006352 
L 450.095655 86.014818 
L 451.110302 86.240601 
L 452.175681 86.707912 
L 453.291793 87.445869 
L 454.509369 88.534579 
L 455.777678 89.975476 
L 457.147451 91.87281 
L 458.669421 94.381694 
L 460.292857 97.502945 
L 462.068489 101.415839 
L 463.996318 106.217972 
L 466.127076 112.145908 
L 468.460764 119.316678 
L 471.048114 128.000321 
L 473.99059 138.675322 
L 477.440389 152.061574 
L 481.752639 169.740151 
L 488.855167 199.965643 
L 496.515752 232.263874 
L 501.284592 251.407559 
L 505.34318 266.810716 
L 509.046641 280.018506 
L 512.496441 291.521861 
L 515.794043 301.757532 
L 518.939448 310.8105 
L 521.983389 318.907037 
L 524.925865 326.117777 
L 527.817609 332.62612 
L 530.65862 338.478726 
L 533.448899 343.724046 
L 536.188446 348.410913 
L 538.927993 352.662354 
L 541.667539 356.503202 
L 544.407086 359.959298 
L 547.146633 363.057004 
L 549.88618 365.822775 
L 552.676459 368.325625 
L 555.51747 370.57603 
L 558.409214 372.58618 
L 561.402422 374.398272 
L 564.547828 376.039578 
L 567.84543 377.504753 
L 571.29523 378.793283 
L 574.998691 379.937503 
L 579.006546 380.940165 
L 583.42026 381.810431 
L 588.341298 382.548909 
L 593.972588 383.162641 
L 600.618525 383.654665 
L 608.786433 384.02641 
L 619.643155 384.283432 
L 622.636364 384.325162 
L 622.636364 384.325162 
" clip-path="url(#p438c98a517)" style="fill: none; stroke-dasharray: 5.55,2.4; stroke-dashoffset: 0; stroke: #ff0000; stroke-width: 1.5"/>
   </g>
   <g id="patch_103">
    <path d="M 90 384.48 
L 90 51.84 
" style="fill: none; stroke: #000000; stroke-width: 0.8; stroke-linejoin: miter; stroke-linecap: square"/>
   </g>
   <g id="patch_104">
    <path d="M 648 384.48 
L 648 51.84 
" style="fill: none; stroke: #000000; stroke-width: 0.8; stroke-linejoin: miter; stroke-linecap: square"/>
   </g>
   <g id="patch_105">
    <path d="M 90 384.48 
L 648 384.48 
" style="fill: none; stroke: #000000; stroke-width: 0.8; stroke-linejoin: miter; stroke-linecap: square"/>
   </g>
   <g id="patch_106">
    <path d="M 90 51.84 
L 648 51.84 
" style="fill: none; stroke: #000000; stroke-width: 0.8; stroke-linejoin: miter; stroke-linecap: square"/>
   </g>
   <g id="text_15">
    <!-- Histogram of Metropolis Samples -->
    <g transform="translate(269.58375 45.84) scale(0.12 -0.12)">
     <defs>
      <path id="DejaVuSans-48" d="M 628 4666 
L 1259 4666 
L 1259 2753 
L 3553 2753 
L 3553 4666 
L 4184 4666 
L 4184 0 
L 3553 0 
L 3553 2222 
L 1259 2222 
L 1259 0 
L 628 0 
L 628 4666 
z
" transform="scale(0.015625)"/>
      <path id="DejaVuSans-67" d="M 2906 1791 
Q 2906 2416 2648 2759 
Q 2391 3103 1925 3103 
Q 1463 3103 1205 2759 
Q 947 2416 947 1791 
Q 947 1169 1205 825 
Q 1463 481 1925 481 
Q 2391 481 2648 825 
Q 2906 1169 2906 1791 
z
M 3481 434 
Q 3481 -459 3084 -895 
Q 2688 -1331 1869 -1331 
Q 1566 -1331 1297 -1286 
Q 1028 -1241 775 -1147 
L 775 -588 
Q 1028 -725 1275 -790 
Q 1522 -856 1778 -856 
Q 2344 -856 2625 -561 
Q 2906 -266 2906 331 
L 2906 616 
Q 2728 306 2450 153 
Q 2172 0 1784 0 
Q 1141 0 747 490 
Q 353 981 353 1791 
Q 353 2603 747 3093 
Q 1141 3584 1784 3584 
Q 2172 3584 2450 3431 
Q 2728 3278 2906 2969 
L 2906 3500 
L 3481 3500 
L 3481 434 
z
" transform="scale(0.015625)"/>
      <path id="DejaVuSans-6d" d="M 3328 2828 
Q 3544 3216 3844 3400 
Q 4144 3584 4550 3584 
Q 5097 3584 5394 3201 
Q 5691 2819 5691 2113 
L 5691 0 
L 5113 0 
L 5113 2094 
Q 5113 2597 4934 2840 
Q 4756 3084 4391 3084 
Q 3944 3084 3684 2787 
Q 3425 2491 3425 1978 
L 3425 0 
L 2847 0 
L 2847 2094 
Q 2847 2600 2669 2842 
Q 2491 3084 2119 3084 
Q 1678 3084 1418 2786 
Q 1159 2488 1159 1978 
L 1159 0 
L 581 0 
L 581 3500 
L 1159 3500 
L 1159 2956 
Q 1356 3278 1631 3431 
Q 1906 3584 2284 3584 
Q 2666 3584 2933 3390 
Q 3200 3197 3328 2828 
z
" transform="scale(0.015625)"/>
      <path id="DejaVuSans-66" d="M 2375 4863 
L 2375 4384 
L 1825 4384 
Q 1516 4384 1395 4259 
Q 1275 4134 1275 3809 
L 1275 3500 
L 2222 3500 
L 2222 3053 
L 1275 3053 
L 1275 0 
L 697 0 
L 697 3053 
L 147 3053 
L 147 3500 
L 697 3500 
L 697 3744 
Q 697 4328 969 4595 
Q 1241 4863 1831 4863 
L 2375 4863 
z
" transform="scale(0.015625)"/>
      <path id="DejaVuSans-4d" d="M 628 4666 
L 1569 4666 
L 2759 1491 
L 3956 4666 
L 4897 4666 
L 4897 0 
L 4281 0 
L 4281 4097 
L 3078 897 
L 2444 897 
L 1241 4097 
L 1241 0 
L 628 0 
L 628 4666 
z
" transform="scale(0.015625)"/>
      <path id="DejaVuSans-70" d="M 1159 525 
L 1159 -1331 
L 581 -1331 
L 581 3500 
L 1159 3500 
L 1159 2969 
Q 1341 3281 1617 3432 
Q 1894 3584 2278 3584 
Q 2916 3584 3314 3078 
Q 3713 2572 3713 1747 
Q 3713 922 3314 415 
Q 2916 -91 2278 -91 
Q 1894 -91 1617 61 
Q 1341 213 1159 525 
z
M 3116 1747 
Q 3116 2381 2855 2742 
Q 2594 3103 2138 3103 
Q 1681 3103 1420 2742 
Q 1159 2381 1159 1747 
Q 1159 1113 1420 752 
Q 1681 391 2138 391 
Q 2594 391 2855 752 
Q 3116 1113 3116 1747 
z
" transform="scale(0.015625)"/>
      <path id="DejaVuSans-53" d="M 3425 4513 
L 3425 3897 
Q 3066 4069 2747 4153 
Q 2428 4238 2131 4238 
Q 1616 4238 1336 4038 
Q 1056 3838 1056 3469 
Q 1056 3159 1242 3001 
Q 1428 2844 1947 2747 
L 2328 2669 
Q 3034 2534 3370 2195 
Q 3706 1856 3706 1288 
Q 3706 609 3251 259 
Q 2797 -91 1919 -91 
Q 1588 -91 1214 -16 
Q 841 59 441 206 
L 441 856 
Q 825 641 1194 531 
Q 1563 422 1919 422 
Q 2459 422 2753 634 
Q 3047 847 3047 1241 
Q 3047 1584 2836 1778 
Q 2625 1972 2144 2069 
L 1759 2144 
Q 1053 2284 737 2584 
Q 422 2884 422 3419 
Q 422 4038 858 4394 
Q 1294 4750 2059 4750 
Q 2388 4750 2728 4690 
Q 3069 4631 3425 4513 
z
" transform="scale(0.015625)"/>
     </defs>
     <use xlink:href="#DejaVuSans-48"/>
     <use xlink:href="#DejaVuSans-69" transform="translate(75.195312 0)"/>
     <use xlink:href="#DejaVuSans-73" transform="translate(102.978516 0)"/>
     <use xlink:href="#DejaVuSans-74" transform="translate(155.078125 0)"/>
     <use xlink:href="#DejaVuSans-6f" transform="translate(194.287109 0)"/>
     <use xlink:href="#DejaVuSans-67" transform="translate(255.46875 0)"/>
     <use xlink:href="#DejaVuSans-72" transform="translate(318.945312 0)"/>
     <use xlink:href="#DejaVuSans-61" transform="translate(360.058594 0)"/>
     <use xlink:href="#DejaVuSans-6d" transform="translate(421.337891 0)"/>
     <use xlink:href="#DejaVuSans-20" transform="translate(518.75 0)"/>
     <use xlink:href="#DejaVuSans-6f" transform="translate(550.537109 0)"/>
     <use xlink:href="#DejaVuSans-66" transform="translate(611.71875 0)"/>
     <use xlink:href="#DejaVuSans-20" transform="translate(646.923828 0)"/>
     <use xlink:href="#DejaVuSans-4d" transform="translate(678.710938 0)"/>
     <use xlink:href="#DejaVuSans-65" transform="translate(764.990234 0)"/>
     <use xlink:href="#DejaVuSans-74" transform="translate(826.513672 0)"/>
     <use xlink:href="#DejaVuSans-72" transform="translate(865.722656 0)"/>
     <use xlink:href="#DejaVuSans-6f" transform="translate(904.585938 0)"/>
     <use xlink:href="#DejaVuSans-70" transform="translate(965.767578 0)"/>
     <use xlink:href="#DejaVuSans-6f" transform="translate(1029.244141 0)"/>
     <use xlink:href="#DejaVuSans-6c" transform="translate(1090.425781 0)"/>
     <use xlink:href="#DejaVuSans-69" transform="translate(1118.208984 0)"/>
     <use xlink:href="#DejaVuSans-73" transform="translate(1145.992188 0)"/>
     <use xlink:href="#DejaVuSans-20" transform="translate(1198.091797 0)"/>
     <use xlink:href="#DejaVuSans-53" transform="translate(1229.878906 0)"/>
     <use xlink:href="#DejaVuSans-61" transform="translate(1293.355469 0)"/>
     <use xlink:href="#DejaVuSans-6d" transform="translate(1354.634766 0)"/>
     <use xlink:href="#DejaVuSans-70" transform="translate(1452.046875 0)"/>
     <use xlink:href="#DejaVuSans-6c" transform="translate(1515.523438 0)"/>
     <use xlink:href="#DejaVuSans-65" transform="translate(1543.306641 0)"/>
     <use xlink:href="#DejaVuSans-73" transform="translate(1604.830078 0)"/>
    </g>
   </g>
   <g id="legend_1">
    <g id="patch_107">
     <path d="M 462.6625 89.19625 
L 641 89.19625 
Q 643 89.19625 643 87.19625 
L 643 58.84 
Q 643 56.84 641 56.84 
L 462.6625 56.84 
Q 460.6625 56.84 460.6625 58.84 
L 460.6625 87.19625 
Q 460.6625 89.19625 462.6625 89.19625 
z
" style="fill: #ffffff; opacity: 0.8; stroke: #cccccc; stroke-linejoin: miter"/>
    </g>
    <g id="line2d_19">
     <path d="M 464.6625 64.938437 
L 474.6625 64.938437 
L 484.6625 64.938437 
" style="fill: none; stroke-dasharray: 5.55,2.4; stroke-dashoffset: 0; stroke: #ff0000; stroke-width: 1.5"/>
    </g>
    <g id="text_16">
     <!-- Analytical Probability Density -->
     <g transform="translate(492.6625 68.438437) scale(0.1 -0.1)">
      <defs>
       <path id="DejaVuSans-41" d="M 2188 4044 
L 1331 1722 
L 3047 1722 
L 2188 4044 
z
M 1831 4666 
L 2547 4666 
L 4325 0 
L 3669 0 
L 3244 1197 
L 1141 1197 
L 716 0 
L 50 0 
L 1831 4666 
z
" transform="scale(0.015625)"/>
       <path id="DejaVuSans-63" d="M 3122 3366 
L 3122 2828 
Q 2878 2963 2633 3030 
Q 2388 3097 2138 3097 
Q 1578 3097 1268 2742 
Q 959 2388 959 1747 
Q 959 1106 1268 751 
Q 1578 397 2138 397 
Q 2388 397 2633 464 
Q 2878 531 3122 666 
L 3122 134 
Q 2881 22 2623 -34 
Q 2366 -91 2075 -91 
Q 1284 -91 818 406 
Q 353 903 353 1747 
Q 353 2603 823 3093 
Q 1294 3584 2113 3584 
Q 2378 3584 2631 3529 
Q 2884 3475 3122 3366 
z
" transform="scale(0.015625)"/>
      </defs>
      <use xlink:href="#DejaVuSans-41"/>
      <use xlink:href="#DejaVuSans-6e" transform="translate(68.408203 0)"/>
      <use xlink:href="#DejaVuSans-61" transform="translate(131.787109 0)"/>
      <use xlink:href="#DejaVuSans-6c" transform="translate(193.066406 0)"/>
      <use xlink:href="#DejaVuSans-79" transform="translate(220.849609 0)"/>
      <use xlink:href="#DejaVuSans-74" transform="translate(280.029297 0)"/>
      <use xlink:href="#DejaVuSans-69" transform="translate(319.238281 0)"/>
      <use xlink:href="#DejaVuSans-63" transform="translate(347.021484 0)"/>
      <use xlink:href="#DejaVuSans-61" transform="translate(402.001953 0)"/>
      <use xlink:href="#DejaVuSans-6c" transform="translate(463.28125 0)"/>
      <use xlink:href="#DejaVuSans-20" transform="translate(491.064453 0)"/>
      <use xlink:href="#DejaVuSans-50" transform="translate(522.851562 0)"/>
      <use xlink:href="#DejaVuSans-72" transform="translate(581.404297 0)"/>
      <use xlink:href="#DejaVuSans-6f" transform="translate(620.267578 0)"/>
      <use xlink:href="#DejaVuSans-62" transform="translate(681.449219 0)"/>
      <use xlink:href="#DejaVuSans-61" transform="translate(744.925781 0)"/>
      <use xlink:href="#DejaVuSans-62" transform="translate(806.205078 0)"/>
      <use xlink:href="#DejaVuSans-69" transform="translate(869.681641 0)"/>
      <use xlink:href="#DejaVuSans-6c" transform="translate(897.464844 0)"/>
      <use xlink:href="#DejaVuSans-69" transform="translate(925.248047 0)"/>
      <use xlink:href="#DejaVuSans-74" transform="translate(953.03125 0)"/>
      <use xlink:href="#DejaVuSans-79" transform="translate(992.240234 0)"/>
      <use xlink:href="#DejaVuSans-20" transform="translate(1051.419922 0)"/>
      <use xlink:href="#DejaVuSans-44" transform="translate(1083.207031 0)"/>
      <use xlink:href="#DejaVuSans-65" transform="translate(1160.208984 0)"/>
      <use xlink:href="#DejaVuSans-6e" transform="translate(1221.732422 0)"/>
      <use xlink:href="#DejaVuSans-73" transform="translate(1285.111328 0)"/>
      <use xlink:href="#DejaVuSans-69" transform="translate(1337.210938 0)"/>
      <use xlink:href="#DejaVuSans-74" transform="translate(1364.994141 0)"/>
      <use xlink:href="#DejaVuSans-79" transform="translate(1404.203125 0)"/>
     </g>
    </g>
    <g id="patch_108">
     <path d="M 464.6625 83.116562 
L 484.6625 83.116562 
L 484.6625 76.116562 
L 464.6625 76.116562 
z
" style="fill: #87ceeb; opacity: 0.7; stroke: #000000; stroke-linejoin: miter"/>
    </g>
    <g id="text_17">
     <!-- Metropolis Samples -->
     <g transform="translate(492.6625 83.116562) scale(0.1 -0.1)">
      <use xlink:href="#DejaVuSans-4d"/>
      <use xlink:href="#DejaVuSans-65" transform="translate(86.279297 0)"/>
      <use xlink:href="#DejaVuSans-74" transform="translate(147.802734 0)"/>
      <use xlink:href="#DejaVuSans-72" transform="translate(187.011719 0)"/>
      <use xlink:href="#DejaVuSans-6f" transform="translate(225.875 0)"/>
      <use xlink:href="#DejaVuSans-70" transform="translate(287.056641 0)"/>
      <use xlink:href="#DejaVuSans-6f" transform="translate(350.533203 0)"/>
      <use xlink:href="#DejaVuSans-6c" transform="translate(411.714844 0)"/>
      <use xlink:href="#DejaVuSans-69" transform="translate(439.498047 0)"/>
      <use xlink:href="#DejaVuSans-73" transform="translate(467.28125 0)"/>
      <use xlink:href="#DejaVuSans-20" transform="translate(519.380859 0)"/>
      <use xlink:href="#DejaVuSans-53" transform="translate(551.167969 0)"/>
      <use xlink:href="#DejaVuSans-61" transform="translate(614.644531 0)"/>
      <use xlink:href="#DejaVuSans-6d" transform="translate(675.923828 0)"/>
      <use xlink:href="#DejaVuSans-70" transform="translate(773.335938 0)"/>
      <use xlink:href="#DejaVuSans-6c" transform="translate(836.8125 0)"/>
      <use xlink:href="#DejaVuSans-65" transform="translate(864.595703 0)"/>
      <use xlink:href="#DejaVuSans-73" transform="translate(926.119141 0)"/>
     </g>
    </g>
   </g>
  </g>
 </g>
 <defs>
  <clipPath id="p438c98a517">
   <rect x="90" y="51.84" width="558" height="332.64"/>
  </clipPath>
 </defs>
</svg>
