<?xml version="1.0" encoding="utf-8" standalone="no"?>
<!DOCTYPE svg PUBLIC "-//W3C//DTD SVG 1.1//EN"
  "http://www.w3.org/Graphics/SVG/1.1/DTD/svg11.dtd">
<svg xmlns:xlink="http://www.w3.org/1999/xlink" width="720pt" height="432pt" viewBox="0 0 720 432" xmlns="http://www.w3.org/2000/svg" version="1.1">
 <metadata>
  <rdf:RDF xmlns:dc="http://purl.org/dc/elements/1.1/" xmlns:cc="http://creativecommons.org/ns#" xmlns:rdf="http://www.w3.org/1999/02/22-rdf-syntax-ns#">
   <cc:Work>
    <dc:type rdf:resource="http://purl.org/dc/dcmitype/StillImage"/>
    <dc:date>2025-12-10T00:54:37.091323</dc:date>
    <dc:format>image/svg+xml</dc:format>
    <dc:creator>
     <cc:Agent>
      <dc:title>Matplotlib v3.10.7, https://matplotlib.org/</dc:title>
     </cc:Agent>
    </dc:creator>
   </cc:Work>
  </rdf:RDF>
 </metadata>
 <defs>
  <style type="text/css">*{stroke-linejoin: round; stroke-linecap: butt}</style>
 </defs>
 <g id="figure_1">
  <g id="patch_1">
   <path d="M 0 432 
L 720 432 
L 720 0 
L 0 0 
z
" style="fill: #ffffff"/>
  </g>
  <g id="axes_1">
   <g id="patch_2">
    <path d="M 90 384.48 
L 648 384.48 
L 648 51.84 
L 90 51.84 
z
" style="fill: #ffffff"/>
   </g>
   <g id="patch_3">
    <path d="M 115.363636 384.48 
L 120.436364 384.48 
L 120.436364 384.07254 
L 115.363636 384.07254 
z
" clip-path="url(#p4d049948ca)" style="fill: #87ceeb; opacity: 0.7; stroke: #000000; stroke-linejoin: miter"/>
   </g>
   <g id="patch_4">
    <path d="M 120.436364 384.48 
L 125.509091 384.48 
L 125.509091 383.66508 
L 120.436364 383.66508 
z
" clip-path="url(#p4d049948ca)" style="fill: #87ceeb; opacity: 0.7; stroke: #000000; stroke-linejoin: miter"/>
   </g>
   <g id="patch_5">
    <path d="M 125.509091 384.48 
L 130.581818 384.48 
L 130.581818 383.766945 
L 125.509091 383.766945 
z
" clip-path="url(#p4d049948ca)" style="fill: #87ceeb; opacity: 0.7; stroke: #000000; stroke-linejoin: miter"/>
   </g>
   <g id="patch_6">
    <path d="M 130.581818 384.48 
L 135.654545 384.48 
L 135.654545 382.238971 
L 130.581818 382.238971 
z
" clip-path="url(#p4d049948ca)" style="fill: #87ceeb; opacity: 0.7; stroke: #000000; stroke-linejoin: miter"/>
   </g>
   <g id="patch_7">
    <path d="M 135.654545 384.48 
L 140.727273 384.48 
L 140.727273 382.137106 
L 135.654545 382.137106 
z
" clip-path="url(#p4d049948ca)" style="fill: #87ceeb; opacity: 0.7; stroke: #000000; stroke-linejoin: miter"/>
   </g>
   <g id="patch_8">
    <path d="M 140.727273 384.48 
L 145.8 384.48 
L 145.8 380.405402 
L 140.727273 380.405402 
z
" clip-path="url(#p4d049948ca)" style="fill: #87ceeb; opacity: 0.7; stroke: #000000; stroke-linejoin: miter"/>
   </g>
   <g id="patch_9">
    <path d="M 145.8 384.48 
L 150.872727 384.48 
L 150.872727 378.266238 
L 145.8 378.266238 
z
" clip-path="url(#p4d049948ca)" style="fill: #87ceeb; opacity: 0.7; stroke: #000000; stroke-linejoin: miter"/>
   </g>
   <g id="patch_10">
    <path d="M 150.872727 384.48 
L 155.945455 384.48 
L 155.945455 374.293505 
L 150.872727 374.293505 
z
" clip-path="url(#p4d049948ca)" style="fill: #87ceeb; opacity: 0.7; stroke: #000000; stroke-linejoin: miter"/>
   </g>
   <g id="patch_11">
    <path d="M 155.945455 384.48 
L 161.018182 384.48 
L 161.018182 365.431254 
L 155.945455 365.431254 
z
" clip-path="url(#p4d049948ca)" style="fill: #87ceeb; opacity: 0.7; stroke: #000000; stroke-linejoin: miter"/>
   </g>
   <g id="patch_12">
    <path d="M 161.018182 384.48 
L 166.090909 384.48 
L 166.090909 359.828682 
L 161.018182 359.828682 
z
" clip-path="url(#p4d049948ca)" style="fill: #87ceeb; opacity: 0.7; stroke: #000000; stroke-linejoin: miter"/>
   </g>
   <g id="patch_13">
    <path d="M 166.090909 384.48 
L 171.163636 384.48 
L 171.163636 349.845916 
L 166.090909 349.845916 
z
" clip-path="url(#p4d049948ca)" style="fill: #87ceeb; opacity: 0.7; stroke: #000000; stroke-linejoin: miter"/>
   </g>
   <g id="patch_14">
    <path d="M 171.163636 384.48 
L 176.236364 384.48 
L 176.236364 335.686688 
L 171.163636 335.686688 
z
" clip-path="url(#p4d049948ca)" style="fill: #87ceeb; opacity: 0.7; stroke: #000000; stroke-linejoin: miter"/>
   </g>
   <g id="patch_15">
    <path d="M 176.236364 384.48 
L 181.309091 384.48 
L 181.309091 319.592026 
L 176.236364 319.592026 
z
" clip-path="url(#p4d049948ca)" style="fill: #87ceeb; opacity: 0.7; stroke: #000000; stroke-linejoin: miter"/>
   </g>
   <g id="patch_16">
    <path d="M 181.309091 384.48 
L 186.381818 384.48 
L 186.381818 290.764244 
L 181.309091 290.764244 
z
" clip-path="url(#p4d049948ca)" style="fill: #87ceeb; opacity: 0.7; stroke: #000000; stroke-linejoin: miter"/>
   </g>
   <g id="patch_17">
    <path d="M 186.381818 384.48 
L 191.454545 384.48 
L 191.454545 270.900579 
L 186.381818 270.900579 
z
" clip-path="url(#p4d049948ca)" style="fill: #87ceeb; opacity: 0.7; stroke: #000000; stroke-linejoin: miter"/>
   </g>
   <g id="patch_18">
    <path d="M 191.454545 384.48 
L 196.527273 384.48 
L 196.527273 239.933633 
L 191.454545 239.933633 
z
" clip-path="url(#p4d049948ca)" style="fill: #87ceeb; opacity: 0.7; stroke: #000000; stroke-linejoin: miter"/>
   </g>
   <g id="patch_19">
    <path d="M 196.527273 384.48 
L 201.6 384.48 
L 201.6 199.391383 
L 196.527273 199.391383 
z
" clip-path="url(#p4d049948ca)" style="fill: #87ceeb; opacity: 0.7; stroke: #000000; stroke-linejoin: miter"/>
   </g>
   <g id="patch_20">
    <path d="M 201.6 384.48 
L 206.672727 384.48 
L 206.672727 167.915113 
L 201.6 167.915113 
z
" clip-path="url(#p4d049948ca)" style="fill: #87ceeb; opacity: 0.7; stroke: #000000; stroke-linejoin: miter"/>
   </g>
   <g id="patch_21">
    <path d="M 206.672727 384.48 
L 211.745455 384.48 
L 211.745455 140.309711 
L 206.672727 140.309711 
z
" clip-path="url(#p4d049948ca)" style="fill: #87ceeb; opacity: 0.7; stroke: #000000; stroke-linejoin: miter"/>
   </g>
   <g id="patch_22">
    <path d="M 211.745455 384.48 
L 216.818182 384.48 
L 216.818182 127.474727 
L 211.745455 127.474727 
z
" clip-path="url(#p4d049948ca)" style="fill: #87ceeb; opacity: 0.7; stroke: #000000; stroke-linejoin: miter"/>
   </g>
   <g id="patch_23">
    <path d="M 216.818182 384.48 
L 221.890909 384.48 
L 221.890909 99.665595 
L 216.818182 99.665595 
z
" clip-path="url(#p4d049948ca)" style="fill: #87ceeb; opacity: 0.7; stroke: #000000; stroke-linejoin: miter"/>
   </g>
   <g id="patch_24">
    <path d="M 221.890909 384.48 
L 226.963636 384.48 
L 226.963636 67.68 
L 221.890909 67.68 
z
" clip-path="url(#p4d049948ca)" style="fill: #87ceeb; opacity: 0.7; stroke: #000000; stroke-linejoin: miter"/>
   </g>
   <g id="patch_25">
    <path d="M 226.963636 384.48 
L 232.036364 384.48 
L 232.036364 74.912412 
L 226.963636 74.912412 
z
" clip-path="url(#p4d049948ca)" style="fill: #87ceeb; opacity: 0.7; stroke: #000000; stroke-linejoin: miter"/>
   </g>
   <g id="patch_26">
    <path d="M 232.036364 384.48 
L 237.109091 384.48 
L 237.109091 118.205016 
L 232.036364 118.205016 
z
" clip-path="url(#p4d049948ca)" style="fill: #87ceeb; opacity: 0.7; stroke: #000000; stroke-linejoin: miter"/>
   </g>
   <g id="patch_27">
    <path d="M 237.109091 384.48 
L 242.181818 384.48 
L 242.181818 154.978264 
L 237.109091 154.978264 
z
" clip-path="url(#p4d049948ca)" style="fill: #87ceeb; opacity: 0.7; stroke: #000000; stroke-linejoin: miter"/>
   </g>
   <g id="patch_28">
    <path d="M 242.181818 384.48 
L 247.254545 384.48 
L 247.254545 197.965273 
L 242.181818 197.965273 
z
" clip-path="url(#p4d049948ca)" style="fill: #87ceeb; opacity: 0.7; stroke: #000000; stroke-linejoin: miter"/>
   </g>
   <g id="patch_29">
    <path d="M 247.254545 384.48 
L 252.327273 384.48 
L 252.327273 257.454405 
L 247.254545 257.454405 
z
" clip-path="url(#p4d049948ca)" style="fill: #87ceeb; opacity: 0.7; stroke: #000000; stroke-linejoin: miter"/>
   </g>
   <g id="patch_30">
    <path d="M 252.327273 384.48 
L 257.4 384.48 
L 257.4 309.81299 
L 252.327273 309.81299 
z
" clip-path="url(#p4d049948ca)" style="fill: #87ceeb; opacity: 0.7; stroke: #000000; stroke-linejoin: miter"/>
   </g>
   <g id="patch_31">
    <path d="M 257.4 384.48 
L 262.472727 384.48 
L 262.472727 349.336592 
L 257.4 349.336592 
z
" clip-path="url(#p4d049948ca)" style="fill: #87ceeb; opacity: 0.7; stroke: #000000; stroke-linejoin: miter"/>
   </g>
   <g id="patch_32">
    <path d="M 262.472727 384.48 
L 267.545455 384.48 
L 267.545455 378.469968 
L 262.472727 378.469968 
z
" clip-path="url(#p4d049948ca)" style="fill: #87ceeb; opacity: 0.7; stroke: #000000; stroke-linejoin: miter"/>
   </g>
   <g id="patch_33">
    <path d="M 267.545455 384.48 
L 272.618182 384.48 
L 272.618182 382.238971 
L 267.545455 382.238971 
z
" clip-path="url(#p4d049948ca)" style="fill: #87ceeb; opacity: 0.7; stroke: #000000; stroke-linejoin: miter"/>
   </g>
   <g id="patch_34">
    <path d="M 272.618182 384.48 
L 277.690909 384.48 
L 277.690909 368.487203 
L 272.618182 368.487203 
z
" clip-path="url(#p4d049948ca)" style="fill: #87ceeb; opacity: 0.7; stroke: #000000; stroke-linejoin: miter"/>
   </g>
   <g id="patch_35">
    <path d="M 277.690909 384.48 
L 282.763636 384.48 
L 282.763636 327.639357 
L 277.690909 327.639357 
z
" clip-path="url(#p4d049948ca)" style="fill: #87ceeb; opacity: 0.7; stroke: #000000; stroke-linejoin: miter"/>
   </g>
   <g id="patch_36">
    <path d="M 282.763636 384.48 
L 287.836364 384.48 
L 287.836364 289.84746 
L 282.763636 289.84746 
z
" clip-path="url(#p4d049948ca)" style="fill: #87ceeb; opacity: 0.7; stroke: #000000; stroke-linejoin: miter"/>
   </g>
   <g id="patch_37">
    <path d="M 287.836364 384.48 
L 292.909091 384.48 
L 292.909091 241.563473 
L 287.836364 241.563473 
z
" clip-path="url(#p4d049948ca)" style="fill: #87ceeb; opacity: 0.7; stroke: #000000; stroke-linejoin: miter"/>
   </g>
   <g id="patch_38">
    <path d="M 292.909091 384.48 
L 297.981818 384.48 
L 297.981818 201.123087 
L 292.909091 201.123087 
z
" clip-path="url(#p4d049948ca)" style="fill: #87ceeb; opacity: 0.7; stroke: #000000; stroke-linejoin: miter"/>
   </g>
   <g id="patch_39">
    <path d="M 297.981818 384.48 
L 303.054545 384.48 
L 303.054545 173.82328 
L 297.981818 173.82328 
z
" clip-path="url(#p4d049948ca)" style="fill: #87ceeb; opacity: 0.7; stroke: #000000; stroke-linejoin: miter"/>
   </g>
   <g id="patch_40">
    <path d="M 303.054545 384.48 
L 308.127273 384.48 
L 308.127273 197.048489 
L 303.054545 197.048489 
z
" clip-path="url(#p4d049948ca)" style="fill: #87ceeb; opacity: 0.7; stroke: #000000; stroke-linejoin: miter"/>
   </g>
   <g id="patch_41">
    <path d="M 308.127273 384.48 
L 313.2 384.48 
L 313.2 223.635241 
L 308.127273 223.635241 
z
" clip-path="url(#p4d049948ca)" style="fill: #87ceeb; opacity: 0.7; stroke: #000000; stroke-linejoin: miter"/>
   </g>
   <g id="patch_42">
    <path d="M 313.2 384.48 
L 318.272727 384.48 
L 318.272727 273.854662 
L 313.2 273.854662 
z
" clip-path="url(#p4d049948ca)" style="fill: #87ceeb; opacity: 0.7; stroke: #000000; stroke-linejoin: miter"/>
   </g>
   <g id="patch_43">
    <path d="M 318.272727 384.48 
L 323.345455 384.48 
L 323.345455 317.962186 
L 318.272727 317.962186 
z
" clip-path="url(#p4d049948ca)" style="fill: #87ceeb; opacity: 0.7; stroke: #000000; stroke-linejoin: miter"/>
   </g>
   <g id="patch_44">
    <path d="M 323.345455 384.48 
L 328.418182 384.48 
L 328.418182 361.967846 
L 323.345455 361.967846 
z
" clip-path="url(#p4d049948ca)" style="fill: #87ceeb; opacity: 0.7; stroke: #000000; stroke-linejoin: miter"/>
   </g>
   <g id="patch_45">
    <path d="M 328.418182 384.48 
L 333.490909 384.48 
L 333.490909 381.118457 
L 328.418182 381.118457 
z
" clip-path="url(#p4d049948ca)" style="fill: #87ceeb; opacity: 0.7; stroke: #000000; stroke-linejoin: miter"/>
   </g>
   <g id="patch_46">
    <path d="M 333.490909 384.48 
L 338.563636 384.48 
L 338.563636 378.368103 
L 333.490909 378.368103 
z
" clip-path="url(#p4d049948ca)" style="fill: #87ceeb; opacity: 0.7; stroke: #000000; stroke-linejoin: miter"/>
   </g>
   <g id="patch_47">
    <path d="M 338.563636 384.48 
L 343.636364 384.48 
L 343.636364 353.716785 
L 338.563636 353.716785 
z
" clip-path="url(#p4d049948ca)" style="fill: #87ceeb; opacity: 0.7; stroke: #000000; stroke-linejoin: miter"/>
   </g>
   <g id="patch_48">
    <path d="M 343.636364 384.48 
L 348.709091 384.48 
L 348.709091 318.267781 
L 343.636364 318.267781 
z
" clip-path="url(#p4d049948ca)" style="fill: #87ceeb; opacity: 0.7; stroke: #000000; stroke-linejoin: miter"/>
   </g>
   <g id="patch_49">
    <path d="M 348.709091 384.48 
L 353.781818 384.48 
L 353.781818 271.206174 
L 348.709091 271.206174 
z
" clip-path="url(#p4d049948ca)" style="fill: #87ceeb; opacity: 0.7; stroke: #000000; stroke-linejoin: miter"/>
   </g>
   <g id="patch_50">
    <path d="M 353.781818 384.48 
L 358.854545 384.48 
L 358.854545 225.978135 
L 353.781818 225.978135 
z
" clip-path="url(#p4d049948ca)" style="fill: #87ceeb; opacity: 0.7; stroke: #000000; stroke-linejoin: miter"/>
   </g>
   <g id="patch_51">
    <path d="M 358.854545 384.48 
L 363.927273 384.48 
L 363.927273 190.936592 
L 358.854545 190.936592 
z
" clip-path="url(#p4d049948ca)" style="fill: #87ceeb; opacity: 0.7; stroke: #000000; stroke-linejoin: miter"/>
   </g>
   <g id="patch_52">
    <path d="M 363.927273 384.48 
L 369 384.48 
L 369 201.530547 
L 363.927273 201.530547 
z
" clip-path="url(#p4d049948ca)" style="fill: #87ceeb; opacity: 0.7; stroke: #000000; stroke-linejoin: miter"/>
   </g>
   <g id="patch_53">
    <path d="M 369 384.48 
L 374.072727 384.48 
L 374.072727 235.044116 
L 369 235.044116 
z
" clip-path="url(#p4d049948ca)" style="fill: #87ceeb; opacity: 0.7; stroke: #000000; stroke-linejoin: miter"/>
   </g>
   <g id="patch_54">
    <path d="M 374.072727 384.48 
L 379.145455 384.48 
L 379.145455 271.104309 
L 374.072727 271.104309 
z
" clip-path="url(#p4d049948ca)" style="fill: #87ceeb; opacity: 0.7; stroke: #000000; stroke-linejoin: miter"/>
   </g>
   <g id="patch_55">
    <path d="M 379.145455 384.48 
L 384.218182 384.48 
L 384.218182 321.93492 
L 379.145455 321.93492 
z
" clip-path="url(#p4d049948ca)" style="fill: #87ceeb; opacity: 0.7; stroke: #000000; stroke-linejoin: miter"/>
   </g>
   <g id="patch_56">
    <path d="M 384.218182 384.48 
L 389.290909 384.48 
L 389.290909 364.10701 
L 384.218182 364.10701 
z
" clip-path="url(#p4d049948ca)" style="fill: #87ceeb; opacity: 0.7; stroke: #000000; stroke-linejoin: miter"/>
   </g>
   <g id="patch_57">
    <path d="M 389.290909 384.48 
L 394.363636 384.48 
L 394.363636 382.544566 
L 389.290909 382.544566 
z
" clip-path="url(#p4d049948ca)" style="fill: #87ceeb; opacity: 0.7; stroke: #000000; stroke-linejoin: miter"/>
   </g>
   <g id="patch_58">
    <path d="M 394.363636 384.48 
L 399.436364 384.48 
L 399.436364 376.840129 
L 394.363636 376.840129 
z
" clip-path="url(#p4d049948ca)" style="fill: #87ceeb; opacity: 0.7; stroke: #000000; stroke-linejoin: miter"/>
   </g>
   <g id="patch_59">
    <path d="M 399.436364 384.48 
L 404.509091 384.48 
L 404.509091 345.975048 
L 399.436364 345.975048 
z
" clip-path="url(#p4d049948ca)" style="fill: #87ceeb; opacity: 0.7; stroke: #000000; stroke-linejoin: miter"/>
   </g>
   <g id="patch_60">
    <path d="M 404.509091 384.48 
L 409.581818 384.48 
L 409.581818 300.237685 
L 404.509091 300.237685 
z
" clip-path="url(#p4d049948ca)" style="fill: #87ceeb; opacity: 0.7; stroke: #000000; stroke-linejoin: miter"/>
   </g>
   <g id="patch_61">
    <path d="M 409.581818 384.48 
L 414.654545 384.48 
L 414.654545 243.498907 
L 409.581818 243.498907 
z
" clip-path="url(#p4d049948ca)" style="fill: #87ceeb; opacity: 0.7; stroke: #000000; stroke-linejoin: miter"/>
   </g>
   <g id="patch_62">
    <path d="M 414.654545 384.48 
L 419.727273 384.48 
L 419.727273 215.99537 
L 414.654545 215.99537 
z
" clip-path="url(#p4d049948ca)" style="fill: #87ceeb; opacity: 0.7; stroke: #000000; stroke-linejoin: miter"/>
   </g>
   <g id="patch_63">
    <path d="M 419.727273 384.48 
L 424.8 384.48 
L 424.8 193.890675 
L 419.727273 193.890675 
z
" clip-path="url(#p4d049948ca)" style="fill: #87ceeb; opacity: 0.7; stroke: #000000; stroke-linejoin: miter"/>
   </g>
   <g id="patch_64">
    <path d="M 424.8 384.48 
L 429.872727 384.48 
L 429.872727 192.057106 
L 424.8 192.057106 
z
" clip-path="url(#p4d049948ca)" style="fill: #87ceeb; opacity: 0.7; stroke: #000000; stroke-linejoin: miter"/>
   </g>
   <g id="patch_65">
    <path d="M 429.872727 384.48 
L 434.945455 384.48 
L 434.945455 202.243601 
L 429.872727 202.243601 
z
" clip-path="url(#p4d049948ca)" style="fill: #87ceeb; opacity: 0.7; stroke: #000000; stroke-linejoin: miter"/>
   </g>
   <g id="patch_66">
    <path d="M 434.945455 384.48 
L 440.018182 384.48 
L 440.018182 250.833183 
L 434.945455 250.833183 
z
" clip-path="url(#p4d049948ca)" style="fill: #87ceeb; opacity: 0.7; stroke: #000000; stroke-linejoin: miter"/>
   </g>
   <g id="patch_67">
    <path d="M 440.018182 384.48 
L 445.090909 384.48 
L 445.090909 298.098521 
L 440.018182 298.098521 
z
" clip-path="url(#p4d049948ca)" style="fill: #87ceeb; opacity: 0.7; stroke: #000000; stroke-linejoin: miter"/>
   </g>
   <g id="patch_68">
    <path d="M 445.090909 384.48 
L 450.163636 384.48 
L 450.163636 341.90045 
L 445.090909 341.90045 
z
" clip-path="url(#p4d049948ca)" style="fill: #87ceeb; opacity: 0.7; stroke: #000000; stroke-linejoin: miter"/>
   </g>
   <g id="patch_69">
    <path d="M 450.163636 384.48 
L 455.236364 384.48 
L 455.236364 371.645016 
L 450.163636 371.645016 
z
" clip-path="url(#p4d049948ca)" style="fill: #87ceeb; opacity: 0.7; stroke: #000000; stroke-linejoin: miter"/>
   </g>
   <g id="patch_70">
    <path d="M 455.236364 384.48 
L 460.309091 384.48 
L 460.309091 383.766945 
L 455.236364 383.766945 
z
" clip-path="url(#p4d049948ca)" style="fill: #87ceeb; opacity: 0.7; stroke: #000000; stroke-linejoin: miter"/>
   </g>
   <g id="patch_71">
    <path d="M 460.309091 384.48 
L 465.381818 384.48 
L 465.381818 372.052476 
L 460.309091 372.052476 
z
" clip-path="url(#p4d049948ca)" style="fill: #87ceeb; opacity: 0.7; stroke: #000000; stroke-linejoin: miter"/>
   </g>
   <g id="patch_72">
    <path d="M 465.381818 384.48 
L 470.454545 384.48 
L 470.454545 340.779936 
L 465.381818 340.779936 
z
" clip-path="url(#p4d049948ca)" style="fill: #87ceeb; opacity: 0.7; stroke: #000000; stroke-linejoin: miter"/>
   </g>
   <g id="patch_73">
    <path d="M 470.454545 384.48 
L 475.527273 384.48 
L 475.527273 304.210418 
L 470.454545 304.210418 
z
" clip-path="url(#p4d049948ca)" style="fill: #87ceeb; opacity: 0.7; stroke: #000000; stroke-linejoin: miter"/>
   </g>
   <g id="patch_74">
    <path d="M 475.527273 384.48 
L 480.6 384.48 
L 480.6 245.943666 
L 475.527273 245.943666 
z
" clip-path="url(#p4d049948ca)" style="fill: #87ceeb; opacity: 0.7; stroke: #000000; stroke-linejoin: miter"/>
   </g>
   <g id="patch_75">
    <path d="M 480.6 384.48 
L 485.672727 384.48 
L 485.672727 186.556399 
L 480.6 186.556399 
z
" clip-path="url(#p4d049948ca)" style="fill: #87ceeb; opacity: 0.7; stroke: #000000; stroke-linejoin: miter"/>
   </g>
   <g id="patch_76">
    <path d="M 485.672727 384.48 
L 490.745455 384.48 
L 490.745455 140.9209 
L 485.672727 140.9209 
z
" clip-path="url(#p4d049948ca)" style="fill: #87ceeb; opacity: 0.7; stroke: #000000; stroke-linejoin: miter"/>
   </g>
   <g id="patch_77">
    <path d="M 490.745455 384.48 
L 495.818182 384.48 
L 495.818182 108.935305 
L 490.745455 108.935305 
z
" clip-path="url(#p4d049948ca)" style="fill: #87ceeb; opacity: 0.7; stroke: #000000; stroke-linejoin: miter"/>
   </g>
   <g id="patch_78">
    <path d="M 495.818182 384.48 
L 500.890909 384.48 
L 500.890909 96.405916 
L 495.818182 96.405916 
z
" clip-path="url(#p4d049948ca)" style="fill: #87ceeb; opacity: 0.7; stroke: #000000; stroke-linejoin: miter"/>
   </g>
   <g id="patch_79">
    <path d="M 500.890909 384.48 
L 505.963636 384.48 
L 505.963636 89.377235 
L 500.890909 89.377235 
z
" clip-path="url(#p4d049948ca)" style="fill: #87ceeb; opacity: 0.7; stroke: #000000; stroke-linejoin: miter"/>
   </g>
   <g id="patch_80">
    <path d="M 505.963636 384.48 
L 511.036364 384.48 
L 511.036364 100.17492 
L 505.963636 100.17492 
z
" clip-path="url(#p4d049948ca)" style="fill: #87ceeb; opacity: 0.7; stroke: #000000; stroke-linejoin: miter"/>
   </g>
   <g id="patch_81">
    <path d="M 511.036364 384.48 
L 516.109091 384.48 
L 516.109091 113.111768 
L 511.036364 113.111768 
z
" clip-path="url(#p4d049948ca)" style="fill: #87ceeb; opacity: 0.7; stroke: #000000; stroke-linejoin: miter"/>
   </g>
   <g id="patch_82">
    <path d="M 516.109091 384.48 
L 521.181818 384.48 
L 521.181818 148.357042 
L 516.109091 148.357042 
z
" clip-path="url(#p4d049948ca)" style="fill: #87ceeb; opacity: 0.7; stroke: #000000; stroke-linejoin: miter"/>
   </g>
   <g id="patch_83">
    <path d="M 521.181818 384.48 
L 526.254545 384.48 
L 526.254545 191.344051 
L 521.181818 191.344051 
z
" clip-path="url(#p4d049948ca)" style="fill: #87ceeb; opacity: 0.7; stroke: #000000; stroke-linejoin: miter"/>
   </g>
   <g id="patch_84">
    <path d="M 526.254545 384.48 
L 531.327273 384.48 
L 531.327273 217.727074 
L 526.254545 217.727074 
z
" clip-path="url(#p4d049948ca)" style="fill: #87ceeb; opacity: 0.7; stroke: #000000; stroke-linejoin: miter"/>
   </g>
   <g id="patch_85">
    <path d="M 531.327273 384.48 
L 536.4 384.48 
L 536.4 245.230611 
L 531.327273 245.230611 
z
" clip-path="url(#p4d049948ca)" style="fill: #87ceeb; opacity: 0.7; stroke: #000000; stroke-linejoin: miter"/>
   </g>
   <g id="patch_86">
    <path d="M 536.4 384.48 
L 541.472727 384.48 
L 541.472727 283.022508 
L 536.4 283.022508 
z
" clip-path="url(#p4d049948ca)" style="fill: #87ceeb; opacity: 0.7; stroke: #000000; stroke-linejoin: miter"/>
   </g>
   <g id="patch_87">
    <path d="M 541.472727 384.48 
L 546.545455 384.48 
L 546.545455 306.349582 
L 541.472727 306.349582 
z
" clip-path="url(#p4d049948ca)" style="fill: #87ceeb; opacity: 0.7; stroke: #000000; stroke-linejoin: miter"/>
   </g>
   <g id="patch_88">
    <path d="M 546.545455 384.48 
L 551.618182 384.48 
L 551.618182 321.833055 
L 546.545455 321.833055 
z
" clip-path="url(#p4d049948ca)" style="fill: #87ceeb; opacity: 0.7; stroke: #000000; stroke-linejoin: miter"/>
   </g>
   <g id="patch_89">
    <path d="M 551.618182 384.48 
L 556.690909 384.48 
L 556.690909 344.854534 
L 551.618182 344.854534 
z
" clip-path="url(#p4d049948ca)" style="fill: #87ceeb; opacity: 0.7; stroke: #000000; stroke-linejoin: miter"/>
   </g>
   <g id="patch_90">
    <path d="M 556.690909 384.48 
L 561.763636 384.48 
L 561.763636 357.180193 
L 556.690909 357.180193 
z
" clip-path="url(#p4d049948ca)" style="fill: #87ceeb; opacity: 0.7; stroke: #000000; stroke-linejoin: miter"/>
   </g>
   <g id="patch_91">
    <path d="M 561.763636 384.48 
L 566.836364 384.48 
L 566.836364 367.162958 
L 561.763636 367.162958 
z
" clip-path="url(#p4d049948ca)" style="fill: #87ceeb; opacity: 0.7; stroke: #000000; stroke-linejoin: miter"/>
   </g>
   <g id="patch_92">
    <path d="M 566.836364 384.48 
L 571.909091 384.48 
L 571.909091 368.487203 
L 566.836364 368.487203 
z
" clip-path="url(#p4d049948ca)" style="fill: #87ceeb; opacity: 0.7; stroke: #000000; stroke-linejoin: miter"/>
   </g>
   <g id="patch_93">
    <path d="M 571.909091 384.48 
L 576.981818 384.48 
L 576.981818 373.98791 
L 571.909091 373.98791 
z
" clip-path="url(#p4d049948ca)" style="fill: #87ceeb; opacity: 0.7; stroke: #000000; stroke-linejoin: miter"/>
   </g>
   <g id="patch_94">
    <path d="M 576.981818 384.48 
L 582.054545 384.48 
L 582.054545 376.738264 
L 576.981818 376.738264 
z
" clip-path="url(#p4d049948ca)" style="fill: #87ceeb; opacity: 0.7; stroke: #000000; stroke-linejoin: miter"/>
   </g>
   <g id="patch_95">
    <path d="M 582.054545 384.48 
L 587.127273 384.48 
L 587.127273 380.201672 
L 582.054545 380.201672 
z
" clip-path="url(#p4d049948ca)" style="fill: #87ceeb; opacity: 0.7; stroke: #000000; stroke-linejoin: miter"/>
   </g>
   <g id="patch_96">
    <path d="M 587.127273 384.48 
L 592.2 384.48 
L 592.2 381.525916 
L 587.127273 381.525916 
z
" clip-path="url(#p4d049948ca)" style="fill: #87ceeb; opacity: 0.7; stroke: #000000; stroke-linejoin: miter"/>
   </g>
   <g id="patch_97">
    <path d="M 592.2 384.48 
L 597.272727 384.48 
L 597.272727 382.748296 
L 592.2 382.748296 
z
" clip-path="url(#p4d049948ca)" style="fill: #87ceeb; opacity: 0.7; stroke: #000000; stroke-linejoin: miter"/>
   </g>
   <g id="patch_98">
    <path d="M 597.272727 384.48 
L 602.345455 384.48 
L 602.345455 383.257621 
L 597.272727 383.257621 
z
" clip-path="url(#p4d049948ca)" style="fill: #87ceeb; opacity: 0.7; stroke: #000000; stroke-linejoin: miter"/>
   </g>
   <g id="patch_99">
    <path d="M 602.345455 384.48 
L 607.418182 384.48 
L 607.418182 384.07254 
L 602.345455 384.07254 
z
" clip-path="url(#p4d049948ca)" style="fill: #87ceeb; opacity: 0.7; stroke: #000000; stroke-linejoin: miter"/>
   </g>
   <g id="patch_100">
    <path d="M 607.418182 384.48 
L 612.490909 384.48 
L 612.490909 384.378135 
L 607.418182 384.378135 
z
" clip-path="url(#p4d049948ca)" style="fill: #87ceeb; opacity: 0.7; stroke: #000000; stroke-linejoin: miter"/>
   </g>
   <g id="patch_101">
    <path d="M 612.490909 384.48 
L 617.563636 384.48 
L 617.563636 384.174405 
L 612.490909 384.174405 
z
" clip-path="url(#p4d049948ca)" style="fill: #87ceeb; opacity: 0.7; stroke: #000000; stroke-linejoin: miter"/>
   </g>
   <g id="patch_102">
    <path d="M 617.563636 384.48 
L 622.636364 384.48 
L 622.636364 383.970675 
L 617.563636 383.970675 
z
" clip-path="url(#p4d049948ca)" style="fill: #87ceeb; opacity: 0.7; stroke: #000000; stroke-linejoin: miter"/>
   </g>
   <g id="matplotlib.axis_1">
    <g id="xtick_1">
     <g id="line2d_1">
      <defs>
       <path id="m5ee277db1a" d="M 0 0 
L 0 3.5 
" style="stroke: #000000; stroke-width: 0.8"/>
      </defs>
      <g>
       <use xlink:href="#m5ee277db1a" x="134.009767" y="384.48" style="stroke: #000000; stroke-width: 0.8"/>
      </g>
     </g>
     <g id="text_1">
      <!-- −4 -->
      <g transform="translate(126.638673 399.078438) scale(0.1 -0.1)">
       <defs>
        <path id="DejaVuSans-2212" d="M 678 2272 
L 4684 2272 
L 4684 1741 
L 678 1741 
L 678 2272 
z
" transform="scale(0.015625)"/>
        <path id="DejaVuSans-34" d="M 2419 4116 
L 825 1625 
L 2419 1625 
L 2419 4116 
z
M 2253 4666 
L 3047 4666 
L 3047 1625 
L 3713 1625 
L 3713 1100 
L 3047 1100 
L 3047 0 
L 2419 0 
L 2419 1100 
L 313 1100 
L 313 1709 
L 2253 4666 
z
" transform="scale(0.015625)"/>
       </defs>
       <use xlink:href="#DejaVuSans-2212"/>
       <use xlink:href="#DejaVuSans-34" transform="translate(83.789062 0)"/>
      </g>
     </g>
    </g>
    <g id="xtick_2">
     <g id="line2d_2">
      <g>
       <use xlink:href="#m5ee277db1a" x="248.61472" y="384.48" style="stroke: #000000; stroke-width: 0.8"/>
      </g>
     </g>
     <g id="text_2">
      <!-- −2 -->
      <g transform="translate(241.243627 399.078438) scale(0.1 -0.1)">
       <defs>
        <path id="DejaVuSans-32" d="M 1228 531 
L 3431 531 
L 3431 0 
L 469 0 
L 469 531 
Q 828 903 1448 1529 
Q 2069 2156 2228 2338 
Q 2531 2678 2651 2914 
Q 2772 3150 2772 3378 
Q 2772 3750 2511 3984 
Q 2250 4219 1831 4219 
Q 1534 4219 1204 4116 
Q 875 4013 500 3803 
L 500 4441 
Q 881 4594 1212 4672 
Q 1544 4750 1819 4750 
Q 2544 4750 2975 4387 
Q 3406 4025 3406 3419 
Q 3406 3131 3298 2873 
Q 3191 2616 2906 2266 
Q 2828 2175 2409 1742 
Q 1991 1309 1228 531 
z
" transform="scale(0.015625)"/>
       </defs>
       <use xlink:href="#DejaVuSans-2212"/>
       <use xlink:href="#DejaVuSans-32" transform="translate(83.789062 0)"/>
      </g>
     </g>
    </g>
    <g id="xtick_3">
     <g id="line2d_3">
      <g>
       <use xlink:href="#m5ee277db1a" x="363.219674" y="384.48" style="stroke: #000000; stroke-width: 0.8"/>
      </g>
     </g>
     <g id="text_3">
      <!-- 0 -->
      <g transform="translate(360.038424 399.078438) scale(0.1 -0.1)">
       <defs>
        <path id="DejaVuSans-30" d="M 2034 4250 
Q 1547 4250 1301 3770 
Q 1056 3291 1056 2328 
Q 1056 1369 1301 889 
Q 1547 409 2034 409 
Q 2525 409 2770 889 
Q 3016 1369 3016 2328 
Q 3016 3291 2770 3770 
Q 2525 4250 2034 4250 
z
M 2034 4750 
Q 2819 4750 3233 4129 
Q 3647 3509 3647 2328 
Q 3647 1150 3233 529 
Q 2819 -91 2034 -91 
Q 1250 -91 836 529 
Q 422 1150 422 2328 
Q 422 3509 836 4129 
Q 1250 4750 2034 4750 
z
" transform="scale(0.015625)"/>
       </defs>
       <use xlink:href="#DejaVuSans-30"/>
      </g>
     </g>
    </g>
    <g id="xtick_4">
     <g id="line2d_4">
      <g>
       <use xlink:href="#m5ee277db1a" x="477.824627" y="384.48" style="stroke: #000000; stroke-width: 0.8"/>
      </g>
     </g>
     <g id="text_4">
      <!-- 2 -->
      <g transform="translate(474.643377 399.078438) scale(0.1 -0.1)">
       <use xlink:href="#DejaVuSans-32"/>
      </g>
     </g>
    </g>
    <g id="xtick_5">
     <g id="line2d_5">
      <g>
       <use xlink:href="#m5ee277db1a" x="592.42958" y="384.48" style="stroke: #000000; stroke-width: 0.8"/>
      </g>
     </g>
     <g id="text_5">
      <!-- 4 -->
      <g transform="translate(589.24833 399.078438) scale(0.1 -0.1)">
       <use xlink:href="#DejaVuSans-34"/>
      </g>
     </g>
    </g>
    <g id="text_6">
     <!-- Position x -->
     <g transform="translate(344.9875 412.756563) scale(0.1 -0.1)">
      <defs>
       <path id="DejaVuSans-50" d="M 1259 4147 
L 1259 2394 
L 2053 2394 
Q 2494 2394 2734 2622 
Q 2975 2850 2975 3272 
Q 2975 3691 2734 3919 
Q 2494 4147 2053 4147 
L 1259 4147 
z
M 628 4666 
L 2053 4666 
Q 2838 4666 3239 4311 
Q 3641 3956 3641 3272 
Q 3641 2581 3239 2228 
Q 2838 1875 2053 1875 
L 1259 1875 
L 1259 0 
L 628 0 
L 628 4666 
z
" transform="scale(0.015625)"/>
       <path id="DejaVuSans-6f" d="M 1959 3097 
Q 1497 3097 1228 2736 
Q 959 2375 959 1747 
Q 959 1119 1226 758 
Q 1494 397 1959 397 
Q 2419 397 2687 759 
Q 2956 1122 2956 1747 
Q 2956 2369 2687 2733 
Q 2419 3097 1959 3097 
z
M 1959 3584 
Q 2709 3584 3137 3096 
Q 3566 2609 3566 1747 
Q 3566 888 3137 398 
Q 2709 -91 1959 -91 
Q 1206 -91 779 398 
Q 353 888 353 1747 
Q 353 2609 779 3096 
Q 1206 3584 1959 3584 
z
" transform="scale(0.015625)"/>
       <path id="DejaVuSans-73" d="M 2834 3397 
L 2834 2853 
Q 2591 2978 2328 3040 
Q 2066 3103 1784 3103 
Q 1356 3103 1142 2972 
Q 928 2841 928 2578 
Q 928 2378 1081 2264 
Q 1234 2150 1697 2047 
L 1894 2003 
Q 2506 1872 2764 1633 
Q 3022 1394 3022 966 
Q 3022 478 2636 193 
Q 2250 -91 1575 -91 
Q 1294 -91 989 -36 
Q 684 19 347 128 
L 347 722 
Q 666 556 975 473 
Q 1284 391 1588 391 
Q 1994 391 2212 530 
Q 2431 669 2431 922 
Q 2431 1156 2273 1281 
Q 2116 1406 1581 1522 
L 1381 1569 
Q 847 1681 609 1914 
Q 372 2147 372 2553 
Q 372 3047 722 3315 
Q 1072 3584 1716 3584 
Q 2034 3584 2315 3537 
Q 2597 3491 2834 3397 
z
" transform="scale(0.015625)"/>
       <path id="DejaVuSans-69" d="M 603 3500 
L 1178 3500 
L 1178 0 
L 603 0 
L 603 3500 
z
M 603 4863 
L 1178 4863 
L 1178 4134 
L 603 4134 
L 603 4863 
z
" transform="scale(0.015625)"/>
       <path id="DejaVuSans-74" d="M 1172 4494 
L 1172 3500 
L 2356 3500 
L 2356 3053 
L 1172 3053 
L 1172 1153 
Q 1172 725 1289 603 
Q 1406 481 1766 481 
L 2356 481 
L 2356 0 
L 1766 0 
Q 1100 0 847 248 
Q 594 497 594 1153 
L 594 3053 
L 172 3053 
L 172 3500 
L 594 3500 
L 594 4494 
L 1172 4494 
z
" transform="scale(0.015625)"/>
       <path id="DejaVuSans-6e" d="M 3513 2113 
L 3513 0 
L 2938 0 
L 2938 2094 
Q 2938 2591 2744 2837 
Q 2550 3084 2163 3084 
Q 1697 3084 1428 2787 
Q 1159 2491 1159 1978 
L 1159 0 
L 581 0 
L 581 3500 
L 1159 3500 
L 1159 2956 
Q 1366 3272 1645 3428 
Q 1925 3584 2291 3584 
Q 2894 3584 3203 3211 
Q 3513 2838 3513 2113 
z
" transform="scale(0.015625)"/>
       <path id="DejaVuSans-20" transform="scale(0.015625)"/>
       <path id="DejaVuSans-78" d="M 3513 3500 
L 2247 1797 
L 3578 0 
L 2900 0 
L 1881 1375 
L 863 0 
L 184 0 
L 1544 1831 
L 300 3500 
L 978 3500 
L 1906 2253 
L 2834 3500 
L 3513 3500 
z
" transform="scale(0.015625)"/>
      </defs>
      <use xlink:href="#DejaVuSans-50"/>
      <use xlink:href="#DejaVuSans-6f" transform="translate(56.677734 0)"/>
      <use xlink:href="#DejaVuSans-73" transform="translate(117.859375 0)"/>
      <use xlink:href="#DejaVuSans-69" transform="translate(169.958984 0)"/>
      <use xlink:href="#DejaVuSans-74" transform="translate(197.742188 0)"/>
      <use xlink:href="#DejaVuSans-69" transform="translate(236.951172 0)"/>
      <use xlink:href="#DejaVuSans-6f" transform="translate(264.734375 0)"/>
      <use xlink:href="#DejaVuSans-6e" transform="translate(325.916016 0)"/>
      <use xlink:href="#DejaVuSans-20" transform="translate(389.294922 0)"/>
      <use xlink:href="#DejaVuSans-78" transform="translate(421.082031 0)"/>
     </g>
    </g>
   </g>
   <g id="matplotlib.axis_2">
    <g id="ytick_1">
     <g id="line2d_6">
      <path d="M 90 384.48 
L 648 384.48 
" clip-path="url(#p4d049948ca)" style="fill: none; stroke-dasharray: 2.96,1.28; stroke-dashoffset: 0; stroke: #b0b0b0; stroke-opacity: 0.5; stroke-width: 0.8"/>
     </g>
     <g id="line2d_7">
      <defs>
       <path id="m3d32250cb3" d="M 0 0 
L -3.5 0 
" style="stroke: #000000; stroke-width: 0.8"/>
      </defs>
      <g>
       <use xlink:href="#m3d32250cb3" x="90" y="384.48" style="stroke: #000000; stroke-width: 0.8"/>
      </g>
     </g>
     <g id="text_7">
      <!-- 0.00 -->
      <g transform="translate(60.734375 388.279219) scale(0.1 -0.1)">
       <defs>
        <path id="DejaVuSans-2e" d="M 684 794 
L 1344 794 
L 1344 0 
L 684 0 
L 684 794 
z
" transform="scale(0.015625)"/>
       </defs>
       <use xlink:href="#DejaVuSans-30"/>
       <use xlink:href="#DejaVuSans-2e" transform="translate(63.623047 0)"/>
       <use xlink:href="#DejaVuSans-30" transform="translate(95.410156 0)"/>
       <use xlink:href="#DejaVuSans-30" transform="translate(159.033203 0)"/>
      </g>
     </g>
    </g>
    <g id="ytick_2">
     <g id="line2d_8">
      <path d="M 90 339.391799 
L 648 339.391799 
" clip-path="url(#p4d049948ca)" style="fill: none; stroke-dasharray: 2.96,1.28; stroke-dashoffset: 0; stroke: #b0b0b0; stroke-opacity: 0.5; stroke-width: 0.8"/>
     </g>
     <g id="line2d_9">
      <g>
       <use xlink:href="#m3d32250cb3" x="90" y="339.391799" style="stroke: #000000; stroke-width: 0.8"/>
      </g>
     </g>
     <g id="text_8">
      <!-- 0.05 -->
      <g transform="translate(60.734375 343.191018) scale(0.1 -0.1)">
       <defs>
        <path id="DejaVuSans-35" d="M 691 4666 
L 3169 4666 
L 3169 4134 
L 1269 4134 
L 1269 2991 
Q 1406 3038 1543 3061 
Q 1681 3084 1819 3084 
Q 2600 3084 3056 2656 
Q 3513 2228 3513 1497 
Q 3513 744 3044 326 
Q 2575 -91 1722 -91 
Q 1428 -91 1123 -41 
Q 819 9 494 109 
L 494 744 
Q 775 591 1075 516 
Q 1375 441 1709 441 
Q 2250 441 2565 725 
Q 2881 1009 2881 1497 
Q 2881 1984 2565 2268 
Q 2250 2553 1709 2553 
Q 1456 2553 1204 2497 
Q 953 2441 691 2322 
L 691 4666 
z
" transform="scale(0.015625)"/>
       </defs>
       <use xlink:href="#DejaVuSans-30"/>
       <use xlink:href="#DejaVuSans-2e" transform="translate(63.623047 0)"/>
       <use xlink:href="#DejaVuSans-30" transform="translate(95.410156 0)"/>
       <use xlink:href="#DejaVuSans-35" transform="translate(159.033203 0)"/>
      </g>
     </g>
    </g>
    <g id="ytick_3">
     <g id="line2d_10">
      <path d="M 90 294.303598 
L 648 294.303598 
" clip-path="url(#p4d049948ca)" style="fill: none; stroke-dasharray: 2.96,1.28; stroke-dashoffset: 0; stroke: #b0b0b0; stroke-opacity: 0.5; stroke-width: 0.8"/>
     </g>
     <g id="line2d_11">
      <g>
       <use xlink:href="#m3d32250cb3" x="90" y="294.303598" style="stroke: #000000; stroke-width: 0.8"/>
      </g>
     </g>
     <g id="text_9">
      <!-- 0.10 -->
      <g transform="translate(60.734375 298.102816) scale(0.1 -0.1)">
       <defs>
        <path id="DejaVuSans-31" d="M 794 531 
L 1825 531 
L 1825 4091 
L 703 3866 
L 703 4441 
L 1819 4666 
L 2450 4666 
L 2450 531 
L 3481 531 
L 3481 0 
L 794 0 
L 794 531 
z
" transform="scale(0.015625)"/>
       </defs>
       <use xlink:href="#DejaVuSans-30"/>
       <use xlink:href="#DejaVuSans-2e" transform="translate(63.623047 0)"/>
       <use xlink:href="#DejaVuSans-31" transform="translate(95.410156 0)"/>
       <use xlink:href="#DejaVuSans-30" transform="translate(159.033203 0)"/>
      </g>
     </g>
    </g>
    <g id="ytick_4">
     <g id="line2d_12">
      <path d="M 90 249.215396 
L 648 249.215396 
" clip-path="url(#p4d049948ca)" style="fill: none; stroke-dasharray: 2.96,1.28; stroke-dashoffset: 0; stroke: #b0b0b0; stroke-opacity: 0.5; stroke-width: 0.8"/>
     </g>
     <g id="line2d_13">
      <g>
       <use xlink:href="#m3d32250cb3" x="90" y="249.215396" style="stroke: #000000; stroke-width: 0.8"/>
      </g>
     </g>
     <g id="text_10">
      <!-- 0.15 -->
      <g transform="translate(60.734375 253.014615) scale(0.1 -0.1)">
       <use xlink:href="#DejaVuSans-30"/>
       <use xlink:href="#DejaVuSans-2e" transform="translate(63.623047 0)"/>
       <use xlink:href="#DejaVuSans-31" transform="translate(95.410156 0)"/>
       <use xlink:href="#DejaVuSans-35" transform="translate(159.033203 0)"/>
      </g>
     </g>
    </g>
    <g id="ytick_5">
     <g id="line2d_14">
      <path d="M 90 204.127195 
L 648 204.127195 
" clip-path="url(#p4d049948ca)" style="fill: none; stroke-dasharray: 2.96,1.28; stroke-dashoffset: 0; stroke: #b0b0b0; stroke-opacity: 0.5; stroke-width: 0.8"/>
     </g>
     <g id="line2d_15">
      <g>
       <use xlink:href="#m3d32250cb3" x="90" y="204.127195" style="stroke: #000000; stroke-width: 0.8"/>
      </g>
     </g>
     <g id="text_11">
      <!-- 0.20 -->
      <g transform="translate(60.734375 207.926414) scale(0.1 -0.1)">
       <use xlink:href="#DejaVuSans-30"/>
       <use xlink:href="#DejaVuSans-2e" transform="translate(63.623047 0)"/>
       <use xlink:href="#DejaVuSans-32" transform="translate(95.410156 0)"/>
       <use xlink:href="#DejaVuSans-30" transform="translate(159.033203 0)"/>
      </g>
     </g>
    </g>
    <g id="ytick_6">
     <g id="line2d_16">
      <path d="M 90 159.038994 
L 648 159.038994 
" clip-path="url(#p4d049948ca)" style="fill: none; stroke-dasharray: 2.96,1.28; stroke-dashoffset: 0; stroke: #b0b0b0; stroke-opacity: 0.5; stroke-width: 0.8"/>
     </g>
     <g id="line2d_17">
      <g>
       <use xlink:href="#m3d32250cb3" x="90" y="159.038994" style="stroke: #000000; stroke-width: 0.8"/>
      </g>
     </g>
     <g id="text_12">
      <!-- 0.25 -->
      <g transform="translate(60.734375 162.838213) scale(0.1 -0.1)">
       <use xlink:href="#DejaVuSans-30"/>
       <use xlink:href="#DejaVuSans-2e" transform="translate(63.623047 0)"/>
       <use xlink:href="#DejaVuSans-32" transform="translate(95.410156 0)"/>
       <use xlink:href="#DejaVuSans-35" transform="translate(159.033203 0)"/>
      </g>
     </g>
    </g>
    <g id="ytick_7">
     <g id="line2d_18">
      <path d="M 90 113.950793 
L 648 113.950793 
" clip-path="url(#p4d049948ca)" style="fill: none; stroke-dasharray: 2.96,1.28; stroke-dashoffset: 0; stroke: #b0b0b0; stroke-opacity: 0.5; stroke-width: 0.8"/>
     </g>
     <g id="line2d_19">
      <g>
       <use xlink:href="#m3d32250cb3" x="90" y="113.950793" style="stroke: #000000; stroke-width: 0.8"/>
      </g>
     </g>
     <g id="text_13">
      <!-- 0.30 -->
      <g transform="translate(60.734375 117.750012) scale(0.1 -0.1)">
       <defs>
        <path id="DejaVuSans-33" d="M 2597 2516 
Q 3050 2419 3304 2112 
Q 3559 1806 3559 1356 
Q 3559 666 3084 287 
Q 2609 -91 1734 -91 
Q 1441 -91 1130 -33 
Q 819 25 488 141 
L 488 750 
Q 750 597 1062 519 
Q 1375 441 1716 441 
Q 2309 441 2620 675 
Q 2931 909 2931 1356 
Q 2931 1769 2642 2001 
Q 2353 2234 1838 2234 
L 1294 2234 
L 1294 2753 
L 1863 2753 
Q 2328 2753 2575 2939 
Q 2822 3125 2822 3475 
Q 2822 3834 2567 4026 
Q 2313 4219 1838 4219 
Q 1578 4219 1281 4162 
Q 984 4106 628 3988 
L 628 4550 
Q 988 4650 1302 4700 
Q 1616 4750 1894 4750 
Q 2613 4750 3031 4423 
Q 3450 4097 3450 3541 
Q 3450 3153 3228 2886 
Q 3006 2619 2597 2516 
z
" transform="scale(0.015625)"/>
       </defs>
       <use xlink:href="#DejaVuSans-30"/>
       <use xlink:href="#DejaVuSans-2e" transform="translate(63.623047 0)"/>
       <use xlink:href="#DejaVuSans-33" transform="translate(95.410156 0)"/>
       <use xlink:href="#DejaVuSans-30" transform="translate(159.033203 0)"/>
      </g>
     </g>
    </g>
    <g id="ytick_8">
     <g id="line2d_20">
      <path d="M 90 68.862592 
L 648 68.862592 
" clip-path="url(#p4d049948ca)" style="fill: none; stroke-dasharray: 2.96,1.28; stroke-dashoffset: 0; stroke: #b0b0b0; stroke-opacity: 0.5; stroke-width: 0.8"/>
     </g>
     <g id="line2d_21">
      <g>
       <use xlink:href="#m3d32250cb3" x="90" y="68.862592" style="stroke: #000000; stroke-width: 0.8"/>
      </g>
     </g>
     <g id="text_14">
      <!-- 0.35 -->
      <g transform="translate(60.734375 72.66181) scale(0.1 -0.1)">
       <use xlink:href="#DejaVuSans-30"/>
       <use xlink:href="#DejaVuSans-2e" transform="translate(63.623047 0)"/>
       <use xlink:href="#DejaVuSans-33" transform="translate(95.410156 0)"/>
       <use xlink:href="#DejaVuSans-35" transform="translate(159.033203 0)"/>
      </g>
     </g>
    </g>
    <g id="text_15">
     <!-- Probability Density -->
     <g transform="translate(54.654687 265.186562) rotate(-90) scale(0.1 -0.1)">
      <defs>
       <path id="DejaVuSans-72" d="M 2631 2963 
Q 2534 3019 2420 3045 
Q 2306 3072 2169 3072 
Q 1681 3072 1420 2755 
Q 1159 2438 1159 1844 
L 1159 0 
L 581 0 
L 581 3500 
L 1159 3500 
L 1159 2956 
Q 1341 3275 1631 3429 
Q 1922 3584 2338 3584 
Q 2397 3584 2469 3576 
Q 2541 3569 2628 3553 
L 2631 2963 
z
" transform="scale(0.015625)"/>
       <path id="DejaVuSans-62" d="M 3116 1747 
Q 3116 2381 2855 2742 
Q 2594 3103 2138 3103 
Q 1681 3103 1420 2742 
Q 1159 2381 1159 1747 
Q 1159 1113 1420 752 
Q 1681 391 2138 391 
Q 2594 391 2855 752 
Q 3116 1113 3116 1747 
z
M 1159 2969 
Q 1341 3281 1617 3432 
Q 1894 3584 2278 3584 
Q 2916 3584 3314 3078 
Q 3713 2572 3713 1747 
Q 3713 922 3314 415 
Q 2916 -91 2278 -91 
Q 1894 -91 1617 61 
Q 1341 213 1159 525 
L 1159 0 
L 581 0 
L 581 4863 
L 1159 4863 
L 1159 2969 
z
" transform="scale(0.015625)"/>
       <path id="DejaVuSans-61" d="M 2194 1759 
Q 1497 1759 1228 1600 
Q 959 1441 959 1056 
Q 959 750 1161 570 
Q 1363 391 1709 391 
Q 2188 391 2477 730 
Q 2766 1069 2766 1631 
L 2766 1759 
L 2194 1759 
z
M 3341 1997 
L 3341 0 
L 2766 0 
L 2766 531 
Q 2569 213 2275 61 
Q 1981 -91 1556 -91 
Q 1019 -91 701 211 
Q 384 513 384 1019 
Q 384 1609 779 1909 
Q 1175 2209 1959 2209 
L 2766 2209 
L 2766 2266 
Q 2766 2663 2505 2880 
Q 2244 3097 1772 3097 
Q 1472 3097 1187 3025 
Q 903 2953 641 2809 
L 641 3341 
Q 956 3463 1253 3523 
Q 1550 3584 1831 3584 
Q 2591 3584 2966 3190 
Q 3341 2797 3341 1997 
z
" transform="scale(0.015625)"/>
       <path id="DejaVuSans-6c" d="M 603 4863 
L 1178 4863 
L 1178 0 
L 603 0 
L 603 4863 
z
" transform="scale(0.015625)"/>
       <path id="DejaVuSans-79" d="M 2059 -325 
Q 1816 -950 1584 -1140 
Q 1353 -1331 966 -1331 
L 506 -1331 
L 506 -850 
L 844 -850 
Q 1081 -850 1212 -737 
Q 1344 -625 1503 -206 
L 1606 56 
L 191 3500 
L 800 3500 
L 1894 763 
L 2988 3500 
L 3597 3500 
L 2059 -325 
z
" transform="scale(0.015625)"/>
       <path id="DejaVuSans-44" d="M 1259 4147 
L 1259 519 
L 2022 519 
Q 2988 519 3436 956 
Q 3884 1394 3884 2338 
Q 3884 3275 3436 3711 
Q 2988 4147 2022 4147 
L 1259 4147 
z
M 628 4666 
L 1925 4666 
Q 3281 4666 3915 4102 
Q 4550 3538 4550 2338 
Q 4550 1131 3912 565 
Q 3275 0 1925 0 
L 628 0 
L 628 4666 
z
" transform="scale(0.015625)"/>
       <path id="DejaVuSans-65" d="M 3597 1894 
L 3597 1613 
L 953 1613 
Q 991 1019 1311 708 
Q 1631 397 2203 397 
Q 2534 397 2845 478 
Q 3156 559 3463 722 
L 3463 178 
Q 3153 47 2828 -22 
Q 2503 -91 2169 -91 
Q 1331 -91 842 396 
Q 353 884 353 1716 
Q 353 2575 817 3079 
Q 1281 3584 2069 3584 
Q 2775 3584 3186 3129 
Q 3597 2675 3597 1894 
z
M 3022 2063 
Q 3016 2534 2758 2815 
Q 2500 3097 2075 3097 
Q 1594 3097 1305 2825 
Q 1016 2553 972 2059 
L 3022 2063 
z
" transform="scale(0.015625)"/>
      </defs>
      <use xlink:href="#DejaVuSans-50"/>
      <use xlink:href="#DejaVuSans-72" transform="translate(58.552734 0)"/>
      <use xlink:href="#DejaVuSans-6f" transform="translate(97.416016 0)"/>
      <use xlink:href="#DejaVuSans-62" transform="translate(158.597656 0)"/>
      <use xlink:href="#DejaVuSans-61" transform="translate(222.074219 0)"/>
      <use xlink:href="#DejaVuSans-62" transform="translate(283.353516 0)"/>
      <use xlink:href="#DejaVuSans-69" transform="translate(346.830078 0)"/>
      <use xlink:href="#DejaVuSans-6c" transform="translate(374.613281 0)"/>
      <use xlink:href="#DejaVuSans-69" transform="translate(402.396484 0)"/>
      <use xlink:href="#DejaVuSans-74" transform="translate(430.179688 0)"/>
      <use xlink:href="#DejaVuSans-79" transform="translate(469.388672 0)"/>
      <use xlink:href="#DejaVuSans-20" transform="translate(528.568359 0)"/>
      <use xlink:href="#DejaVuSans-44" transform="translate(560.355469 0)"/>
      <use xlink:href="#DejaVuSans-65" transform="translate(637.357422 0)"/>
      <use xlink:href="#DejaVuSans-6e" transform="translate(698.880859 0)"/>
      <use xlink:href="#DejaVuSans-73" transform="translate(762.259766 0)"/>
      <use xlink:href="#DejaVuSans-69" transform="translate(814.359375 0)"/>
      <use xlink:href="#DejaVuSans-74" transform="translate(842.142578 0)"/>
      <use xlink:href="#DejaVuSans-79" transform="translate(881.351562 0)"/>
     </g>
    </g>
   </g>
   <g id="line2d_22">
    <path d="M 115.363636 384.259301 
L 123.125685 383.95087 
L 128.706243 383.516669 
L 133.17069 382.95207 
L 136.924883 382.256214 
L 140.171754 381.432241 
L 143.063497 380.474297 
L 145.701579 379.371499 
L 148.187464 378.090597 
L 150.521152 376.635251 
L 152.753375 374.97607 
L 154.884134 373.112299 
L 156.96416 370.993167 
L 158.993454 368.604704 
L 161.022748 365.862405 
L 163.001309 362.811444 
L 164.979871 359.350994 
L 166.958432 355.443555 
L 168.987726 350.932141 
L 171.01702 345.870889 
L 173.097046 340.07227 
L 175.227805 333.451238 
L 177.409295 325.920847 
L 179.641519 317.395156 
L 181.975207 307.569578 
L 184.359627 296.555515 
L 186.896244 283.76664 
L 189.585059 269.05027 
L 192.578267 251.379901 
L 195.977334 229.930684 
L 200.64471 198.907469 
L 207.442844 153.789952 
L 210.38532 135.809832 
L 212.719008 122.855184 
L 214.69757 113.062281 
L 216.42247 105.595804 
L 217.94444 99.954576 
L 219.263481 95.859401 
L 220.430325 92.900424 
L 221.495704 90.77659 
L 222.408886 89.416394 
L 223.220604 88.577537 
L 223.930857 88.137802 
L 224.590377 87.981218 
L 225.199165 88.055975 
L 225.807954 88.344679 
L 226.467474 88.902339 
L 227.228459 89.866504 
L 228.040177 91.27828 
L 228.953359 93.34438 
L 229.968006 96.237801 
L 231.084118 100.149555 
L 232.301694 105.285348 
L 233.620735 111.860277 
L 235.04124 120.090996 
L 236.613943 130.543196 
L 238.338843 143.532104 
L 240.266672 159.770671 
L 242.498895 180.532859 
L 245.238442 208.235067 
L 249.702888 256.07645 
L 253.812208 299.21846 
L 256.298093 323.036904 
L 258.327387 340.405845 
L 260.052287 353.323163 
L 261.574257 363.09076 
L 262.893298 370.192361 
L 264.060142 375.344729 
L 265.125522 379.077758 
L 266.038704 381.515087 
L 266.850421 383.077746 
L 267.509942 383.923249 
L 268.11873 384.363523 
L 268.626054 384.479986 
L 269.133377 384.368519 
L 269.6407 384.02934 
L 270.249489 383.322729 
L 270.909009 382.190706 
L 271.669994 380.415861 
L 272.532444 377.807312 
L 273.496359 374.159667 
L 274.61247 369.005549 
L 275.880779 362.000445 
L 277.301285 352.815511 
L 278.92472 340.778394 
L 280.852549 324.708935 
L 283.338434 301.940692 
L 291.04975 229.811164 
L 292.926847 215.01697 
L 294.49955 204.265239 
L 295.869323 196.341058 
L 297.0869 190.55108 
L 298.152279 186.526101 
L 299.065461 183.88881 
L 299.877179 182.195474 
L 300.536699 181.28039 
L 301.094755 180.832979 
L 301.602078 180.688241 
L 302.05867 180.77217 
L 302.565993 181.103764 
L 303.124049 181.757997 
L 303.783569 182.920535 
L 304.544554 184.781422 
L 305.407004 187.552792 
L 306.370919 191.462254 
L 307.436298 196.743168 
L 308.653874 203.944911 
L 310.023648 213.415422 
L 311.647083 226.292692 
L 313.574912 243.483946 
L 316.162262 268.752513 
L 322.300876 329.458076 
L 324.279437 346.393625 
L 325.902872 358.455717 
L 327.272645 367.082918 
L 328.490222 373.41381 
L 329.555601 377.839064 
L 330.468783 380.761739 
L 331.280501 382.662819 
L 331.940021 383.714729 
L 332.548809 384.288976 
L 333.056133 384.474825 
L 333.512724 384.414092 
L 333.969315 384.137486 
L 334.527371 383.507188 
L 335.136159 382.455375 
L 335.846412 380.753444 
L 336.658129 378.193723 
L 337.571312 374.552275 
L 338.636691 369.327054 
L 339.854267 362.146323 
L 341.224041 352.664935 
L 342.847476 339.761438 
L 344.826037 322.104902 
L 347.667049 294.484863 
L 352.23296 250.12008 
L 354.262253 232.647376 
L 355.885689 220.45692 
L 357.306194 211.399139 
L 358.523771 204.992398 
L 359.58915 200.502303 
L 360.502332 197.527961 
L 361.31405 195.585444 
L 362.024302 194.439042 
L 362.582358 193.90512 
L 363.089682 193.701635 
L 363.546273 193.748573 
L 364.002864 194.013378 
L 364.510187 194.56237 
L 365.118976 195.572948 
L 365.829228 197.231611 
L 366.640946 199.748194 
L 367.554128 203.348889 
L 368.619507 208.536288 
L 369.786351 215.362744 
L 371.156125 224.768147 
L 372.728827 237.178739 
L 374.656657 254.262734 
L 377.345471 280.273204 
L 382.317241 328.589118 
L 384.346535 345.964392 
L 385.96997 358.062366 
L 387.390475 367.035743 
L 388.608052 373.372219 
L 389.673431 377.805377 
L 390.586613 380.736022 
L 391.398331 382.644666 
L 392.108584 383.765823 
L 392.666639 384.283028 
L 393.173963 384.473807 
L 393.630554 384.417515 
L 394.087145 384.145342 
L 394.645201 383.520434 
L 395.253989 382.47443 
L 395.964242 380.779103 
L 396.775959 378.226513 
L 397.689142 374.592131 
L 398.754521 369.372896 
L 399.972097 362.193857 
L 401.341871 352.703307 
L 402.914573 340.192944 
L 404.842402 322.958131 
L 407.429752 297.635391 
L 413.416169 238.384914 
L 415.39473 221.322339 
L 417.068898 208.727742 
L 418.489403 199.634385 
L 419.757712 192.900338 
L 420.873824 188.137511 
L 421.837738 184.943167 
L 422.700188 182.829067 
L 423.410441 181.625051 
L 424.019229 180.982722 
L 424.526553 180.72327 
L 425.033876 180.714639 
L 425.5412 180.956244 
L 426.099255 181.509575 
L 426.708044 182.453945 
L 427.418296 183.999287 
L 428.230014 186.339026 
L 429.143196 189.681953 
L 430.208575 194.494362 
L 431.375419 200.82784 
L 432.745193 209.564825 
L 434.317895 221.12808 
L 436.194992 236.698477 
L 438.579412 258.46649 
L 446.645855 333.749221 
L 448.573685 348.805467 
L 450.19712 359.792334 
L 451.617625 367.931905 
L 452.835202 373.704817 
L 453.951313 377.956909 
L 454.915228 380.794663 
L 455.726945 382.567853 
L 456.437198 383.649131 
L 457.045986 384.223117 
L 457.604042 384.461626 
L 458.111366 384.439173 
L 458.618689 384.188869 
L 459.176745 383.650962 
L 459.836265 382.662346 
L 460.546518 381.173706 
L 461.358236 378.941116 
L 462.271418 375.765189 
L 463.336797 371.196158 
L 464.503641 365.167159 
L 465.822682 357.133168 
L 467.29392 346.762075 
L 468.968088 333.34111 
L 470.946649 315.588766 
L 473.331069 292.082398 
L 476.730137 256.144659 
L 482.818018 191.633606 
L 485.4561 166.224654 
L 487.637591 147.273142 
L 489.56542 132.401604 
L 491.29032 120.763135 
L 492.863023 111.62201 
L 494.283528 104.622508 
L 495.602569 99.216836 
L 496.769413 95.322359 
L 497.834793 92.495214 
L 498.798707 90.533667 
L 499.661157 89.254269 
L 500.422142 88.493869 
L 501.132395 88.091414 
L 501.791916 87.979226 
L 502.400704 88.095503 
L 503.060224 88.455326 
L 503.770477 89.109234 
L 504.582195 90.186395 
L 505.495377 91.80579 
L 506.510024 94.091879 
L 507.626135 97.170441 
L 508.894444 101.343815 
L 510.31495 106.808064 
L 511.938385 113.97978 
L 513.764749 123.088487 
L 515.895508 134.888427 
L 518.482857 150.545865 
L 521.881925 172.596332 
L 533.601096 249.787005 
L 536.797234 268.725653 
L 539.638246 284.265891 
L 542.276328 297.5009 
L 544.762213 308.877068 
L 547.146633 318.783142 
L 549.480321 327.539104 
L 551.712544 335.071998 
L 553.894035 341.672831 
L 556.024793 347.433203 
L 558.155552 352.557353 
L 560.235578 356.989062 
L 562.315604 360.90099 
L 564.344898 364.258421 
L 566.424924 367.271598 
L 568.50495 369.892995 
L 570.584977 372.162899 
L 572.715735 374.163547 
L 574.897226 375.911128 
L 577.180182 377.455103 
L 579.564602 378.798859 
L 582.101219 379.971543 
L 584.840766 380.989169 
L 587.833974 381.859302 
L 591.182309 382.595034 
L 594.987235 383.198202 
L 599.502414 383.681182 
L 605.082972 384.044677 
L 612.540627 384.293865 
L 622.636364 384.424985 
L 622.636364 384.424985 
" clip-path="url(#p4d049948ca)" style="fill: none; stroke-dasharray: 5.55,2.4; stroke-dashoffset: 0; stroke: #ff0000; stroke-width: 1.5"/>
   </g>
   <g id="patch_103">
    <path d="M 90 384.48 
L 90 51.84 
" style="fill: none; stroke: #000000; stroke-width: 0.8; stroke-linejoin: miter; stroke-linecap: square"/>
   </g>
   <g id="patch_104">
    <path d="M 648 384.48 
L 648 51.84 
" style="fill: none; stroke: #000000; stroke-width: 0.8; stroke-linejoin: miter; stroke-linecap: square"/>
   </g>
   <g id="patch_105">
    <path d="M 90 384.48 
L 648 384.48 
" style="fill: none; stroke: #000000; stroke-width: 0.8; stroke-linejoin: miter; stroke-linecap: square"/>
   </g>
   <g id="patch_106">
    <path d="M 90 51.84 
L 648 51.84 
" style="fill: none; stroke: #000000; stroke-width: 0.8; stroke-linejoin: miter; stroke-linecap: square"/>
   </g>
   <g id="text_16">
    <!-- Histogram of Metropolis Samples -->
    <g transform="translate(269.58375 45.84) scale(0.12 -0.12)">
     <defs>
      <path id="DejaVuSans-48" d="M 628 4666 
L 1259 4666 
L 1259 2753 
L 3553 2753 
L 3553 4666 
L 4184 4666 
L 4184 0 
L 3553 0 
L 3553 2222 
L 1259 2222 
L 1259 0 
L 628 0 
L 628 4666 
z
" transform="scale(0.015625)"/>
      <path id="DejaVuSans-67" d="M 2906 1791 
Q 2906 2416 2648 2759 
Q 2391 3103 1925 3103 
Q 1463 3103 1205 2759 
Q 947 2416 947 1791 
Q 947 1169 1205 825 
Q 1463 481 1925 481 
Q 2391 481 2648 825 
Q 2906 1169 2906 1791 
z
M 3481 434 
Q 3481 -459 3084 -895 
Q 2688 -1331 1869 -1331 
Q 1566 -1331 1297 -1286 
Q 1028 -1241 775 -1147 
L 775 -588 
Q 1028 -725 1275 -790 
Q 1522 -856 1778 -856 
Q 2344 -856 2625 -561 
Q 2906 -266 2906 331 
L 2906 616 
Q 2728 306 2450 153 
Q 2172 0 1784 0 
Q 1141 0 747 490 
Q 353 981 353 1791 
Q 353 2603 747 3093 
Q 1141 3584 1784 3584 
Q 2172 3584 2450 3431 
Q 2728 3278 2906 2969 
L 2906 3500 
L 3481 3500 
L 3481 434 
z
" transform="scale(0.015625)"/>
      <path id="DejaVuSans-6d" d="M 3328 2828 
Q 3544 3216 3844 3400 
Q 4144 3584 4550 3584 
Q 5097 3584 5394 3201 
Q 5691 2819 5691 2113 
L 5691 0 
L 5113 0 
L 5113 2094 
Q 5113 2597 4934 2840 
Q 4756 3084 4391 3084 
Q 3944 3084 3684 2787 
Q 3425 2491 3425 1978 
L 3425 0 
L 2847 0 
L 2847 2094 
Q 2847 2600 2669 2842 
Q 2491 3084 2119 3084 
Q 1678 3084 1418 2786 
Q 1159 2488 1159 1978 
L 1159 0 
L 581 0 
L 581 3500 
L 1159 3500 
L 1159 2956 
Q 1356 3278 1631 3431 
Q 1906 3584 2284 3584 
Q 2666 3584 2933 3390 
Q 3200 3197 3328 2828 
z
" transform="scale(0.015625)"/>
      <path id="DejaVuSans-66" d="M 2375 4863 
L 2375 4384 
L 1825 4384 
Q 1516 4384 1395 4259 
Q 1275 4134 1275 3809 
L 1275 3500 
L 2222 3500 
L 2222 3053 
L 1275 3053 
L 1275 0 
L 697 0 
L 697 3053 
L 147 3053 
L 147 3500 
L 697 3500 
L 697 3744 
Q 697 4328 969 4595 
Q 1241 4863 1831 4863 
L 2375 4863 
z
" transform="scale(0.015625)"/>
      <path id="DejaVuSans-4d" d="M 628 4666 
L 1569 4666 
L 2759 1491 
L 3956 4666 
L 4897 4666 
L 4897 0 
L 4281 0 
L 4281 4097 
L 3078 897 
L 2444 897 
L 1241 4097 
L 1241 0 
L 628 0 
L 628 4666 
z
" transform="scale(0.015625)"/>
      <path id="DejaVuSans-70" d="M 1159 525 
L 1159 -1331 
L 581 -1331 
L 581 3500 
L 1159 3500 
L 1159 2969 
Q 1341 3281 1617 3432 
Q 1894 3584 2278 3584 
Q 2916 3584 3314 3078 
Q 3713 2572 3713 1747 
Q 3713 922 3314 415 
Q 2916 -91 2278 -91 
Q 1894 -91 1617 61 
Q 1341 213 1159 525 
z
M 3116 1747 
Q 3116 2381 2855 2742 
Q 2594 3103 2138 3103 
Q 1681 3103 1420 2742 
Q 1159 2381 1159 1747 
Q 1159 1113 1420 752 
Q 1681 391 2138 391 
Q 2594 391 2855 752 
Q 3116 1113 3116 1747 
z
" transform="scale(0.015625)"/>
      <path id="DejaVuSans-53" d="M 3425 4513 
L 3425 3897 
Q 3066 4069 2747 4153 
Q 2428 4238 2131 4238 
Q 1616 4238 1336 4038 
Q 1056 3838 1056 3469 
Q 1056 3159 1242 3001 
Q 1428 2844 1947 2747 
L 2328 2669 
Q 3034 2534 3370 2195 
Q 3706 1856 3706 1288 
Q 3706 609 3251 259 
Q 2797 -91 1919 -91 
Q 1588 -91 1214 -16 
Q 841 59 441 206 
L 441 856 
Q 825 641 1194 531 
Q 1563 422 1919 422 
Q 2459 422 2753 634 
Q 3047 847 3047 1241 
Q 3047 1584 2836 1778 
Q 2625 1972 2144 2069 
L 1759 2144 
Q 1053 2284 737 2584 
Q 422 2884 422 3419 
Q 422 4038 858 4394 
Q 1294 4750 2059 4750 
Q 2388 4750 2728 4690 
Q 3069 4631 3425 4513 
z
" transform="scale(0.015625)"/>
     </defs>
     <use xlink:href="#DejaVuSans-48"/>
     <use xlink:href="#DejaVuSans-69" transform="translate(75.195312 0)"/>
     <use xlink:href="#DejaVuSans-73" transform="translate(102.978516 0)"/>
     <use xlink:href="#DejaVuSans-74" transform="translate(155.078125 0)"/>
     <use xlink:href="#DejaVuSans-6f" transform="translate(194.287109 0)"/>
     <use xlink:href="#DejaVuSans-67" transform="translate(255.46875 0)"/>
     <use xlink:href="#DejaVuSans-72" transform="translate(318.945312 0)"/>
     <use xlink:href="#DejaVuSans-61" transform="translate(360.058594 0)"/>
     <use xlink:href="#DejaVuSans-6d" transform="translate(421.337891 0)"/>
     <use xlink:href="#DejaVuSans-20" transform="translate(518.75 0)"/>
     <use xlink:href="#DejaVuSans-6f" transform="translate(550.537109 0)"/>
     <use xlink:href="#DejaVuSans-66" transform="translate(611.71875 0)"/>
     <use xlink:href="#DejaVuSans-20" transform="translate(646.923828 0)"/>
     <use xlink:href="#DejaVuSans-4d" transform="translate(678.710938 0)"/>
     <use xlink:href="#DejaVuSans-65" transform="translate(764.990234 0)"/>
     <use xlink:href="#DejaVuSans-74" transform="translate(826.513672 0)"/>
     <use xlink:href="#DejaVuSans-72" transform="translate(865.722656 0)"/>
     <use xlink:href="#DejaVuSans-6f" transform="translate(904.585938 0)"/>
     <use xlink:href="#DejaVuSans-70" transform="translate(965.767578 0)"/>
     <use xlink:href="#DejaVuSans-6f" transform="translate(1029.244141 0)"/>
     <use xlink:href="#DejaVuSans-6c" transform="translate(1090.425781 0)"/>
     <use xlink:href="#DejaVuSans-69" transform="translate(1118.208984 0)"/>
     <use xlink:href="#DejaVuSans-73" transform="translate(1145.992188 0)"/>
     <use xlink:href="#DejaVuSans-20" transform="translate(1198.091797 0)"/>
     <use xlink:href="#DejaVuSans-53" transform="translate(1229.878906 0)"/>
     <use xlink:href="#DejaVuSans-61" transform="translate(1293.355469 0)"/>
     <use xlink:href="#DejaVuSans-6d" transform="translate(1354.634766 0)"/>
     <use xlink:href="#DejaVuSans-70" transform="translate(1452.046875 0)"/>
     <use xlink:href="#DejaVuSans-6c" transform="translate(1515.523438 0)"/>
     <use xlink:href="#DejaVuSans-65" transform="translate(1543.306641 0)"/>
     <use xlink:href="#DejaVuSans-73" transform="translate(1604.830078 0)"/>
    </g>
   </g>
   <g id="legend_1">
    <g id="patch_107">
     <path d="M 279.83125 89.19625 
L 458.16875 89.19625 
Q 460.16875 89.19625 460.16875 87.19625 
L 460.16875 58.84 
Q 460.16875 56.84 458.16875 56.84 
L 279.83125 56.84 
Q 277.83125 56.84 277.83125 58.84 
L 277.83125 87.19625 
Q 277.83125 89.19625 279.83125 89.19625 
z
" style="fill: #ffffff; opacity: 0.8; stroke: #cccccc; stroke-linejoin: miter"/>
    </g>
    <g id="line2d_23">
     <path d="M 281.83125 64.938437 
L 291.83125 64.938437 
L 301.83125 64.938437 
" style="fill: none; stroke-dasharray: 5.55,2.4; stroke-dashoffset: 0; stroke: #ff0000; stroke-width: 1.5"/>
    </g>
    <g id="text_17">
     <!-- Analytical Probability Density -->
     <g transform="translate(309.83125 68.438437) scale(0.1 -0.1)">
      <defs>
       <path id="DejaVuSans-41" d="M 2188 4044 
L 1331 1722 
L 3047 1722 
L 2188 4044 
z
M 1831 4666 
L 2547 4666 
L 4325 0 
L 3669 0 
L 3244 1197 
L 1141 1197 
L 716 0 
L 50 0 
L 1831 4666 
z
" transform="scale(0.015625)"/>
       <path id="DejaVuSans-63" d="M 3122 3366 
L 3122 2828 
Q 2878 2963 2633 3030 
Q 2388 3097 2138 3097 
Q 1578 3097 1268 2742 
Q 959 2388 959 1747 
Q 959 1106 1268 751 
Q 1578 397 2138 397 
Q 2388 397 2633 464 
Q 2878 531 3122 666 
L 3122 134 
Q 2881 22 2623 -34 
Q 2366 -91 2075 -91 
Q 1284 -91 818 406 
Q 353 903 353 1747 
Q 353 2603 823 3093 
Q 1294 3584 2113 3584 
Q 2378 3584 2631 3529 
Q 2884 3475 3122 3366 
z
" transform="scale(0.015625)"/>
      </defs>
      <use xlink:href="#DejaVuSans-41"/>
      <use xlink:href="#DejaVuSans-6e" transform="translate(68.408203 0)"/>
      <use xlink:href="#DejaVuSans-61" transform="translate(131.787109 0)"/>
      <use xlink:href="#DejaVuSans-6c" transform="translate(193.066406 0)"/>
      <use xlink:href="#DejaVuSans-79" transform="translate(220.849609 0)"/>
      <use xlink:href="#DejaVuSans-74" transform="translate(280.029297 0)"/>
      <use xlink:href="#DejaVuSans-69" transform="translate(319.238281 0)"/>
      <use xlink:href="#DejaVuSans-63" transform="translate(347.021484 0)"/>
      <use xlink:href="#DejaVuSans-61" transform="translate(402.001953 0)"/>
      <use xlink:href="#DejaVuSans-6c" transform="translate(463.28125 0)"/>
      <use xlink:href="#DejaVuSans-20" transform="translate(491.064453 0)"/>
      <use xlink:href="#DejaVuSans-50" transform="translate(522.851562 0)"/>
      <use xlink:href="#DejaVuSans-72" transform="translate(581.404297 0)"/>
      <use xlink:href="#DejaVuSans-6f" transform="translate(620.267578 0)"/>
      <use xlink:href="#DejaVuSans-62" transform="translate(681.449219 0)"/>
      <use xlink:href="#DejaVuSans-61" transform="translate(744.925781 0)"/>
      <use xlink:href="#DejaVuSans-62" transform="translate(806.205078 0)"/>
      <use xlink:href="#DejaVuSans-69" transform="translate(869.681641 0)"/>
      <use xlink:href="#DejaVuSans-6c" transform="translate(897.464844 0)"/>
      <use xlink:href="#DejaVuSans-69" transform="translate(925.248047 0)"/>
      <use xlink:href="#DejaVuSans-74" transform="translate(953.03125 0)"/>
      <use xlink:href="#DejaVuSans-79" transform="translate(992.240234 0)"/>
      <use xlink:href="#DejaVuSans-20" transform="translate(1051.419922 0)"/>
      <use xlink:href="#DejaVuSans-44" transform="translate(1083.207031 0)"/>
      <use xlink:href="#DejaVuSans-65" transform="translate(1160.208984 0)"/>
      <use xlink:href="#DejaVuSans-6e" transform="translate(1221.732422 0)"/>
      <use xlink:href="#DejaVuSans-73" transform="translate(1285.111328 0)"/>
      <use xlink:href="#DejaVuSans-69" transform="translate(1337.210938 0)"/>
      <use xlink:href="#DejaVuSans-74" transform="translate(1364.994141 0)"/>
      <use xlink:href="#DejaVuSans-79" transform="translate(1404.203125 0)"/>
     </g>
    </g>
    <g id="patch_108">
     <path d="M 281.83125 83.116562 
L 301.83125 83.116562 
L 301.83125 76.116562 
L 281.83125 76.116562 
z
" style="fill: #87ceeb; opacity: 0.7; stroke: #000000; stroke-linejoin: miter"/>
    </g>
    <g id="text_18">
     <!-- Metropolis Samples -->
     <g transform="translate(309.83125 83.116562) scale(0.1 -0.1)">
      <use xlink:href="#DejaVuSans-4d"/>
      <use xlink:href="#DejaVuSans-65" transform="translate(86.279297 0)"/>
      <use xlink:href="#DejaVuSans-74" transform="translate(147.802734 0)"/>
      <use xlink:href="#DejaVuSans-72" transform="translate(187.011719 0)"/>
      <use xlink:href="#DejaVuSans-6f" transform="translate(225.875 0)"/>
      <use xlink:href="#DejaVuSans-70" transform="translate(287.056641 0)"/>
      <use xlink:href="#DejaVuSans-6f" transform="translate(350.533203 0)"/>
      <use xlink:href="#DejaVuSans-6c" transform="translate(411.714844 0)"/>
      <use xlink:href="#DejaVuSans-69" transform="translate(439.498047 0)"/>
      <use xlink:href="#DejaVuSans-73" transform="translate(467.28125 0)"/>
      <use xlink:href="#DejaVuSans-20" transform="translate(519.380859 0)"/>
      <use xlink:href="#DejaVuSans-53" transform="translate(551.167969 0)"/>
      <use xlink:href="#DejaVuSans-61" transform="translate(614.644531 0)"/>
      <use xlink:href="#DejaVuSans-6d" transform="translate(675.923828 0)"/>
      <use xlink:href="#DejaVuSans-70" transform="translate(773.335938 0)"/>
      <use xlink:href="#DejaVuSans-6c" transform="translate(836.8125 0)"/>
      <use xlink:href="#DejaVuSans-65" transform="translate(864.595703 0)"/>
      <use xlink:href="#DejaVuSans-73" transform="translate(926.119141 0)"/>
     </g>
    </g>
   </g>
  </g>
 </g>
 <defs>
  <clipPath id="p4d049948ca">
   <rect x="90" y="51.84" width="558" height="332.64"/>
  </clipPath>
 </defs>
</svg>
