<?xml version="1.0" encoding="utf-8" standalone="no"?>
<!DOCTYPE svg PUBLIC "-//W3C//DTD SVG 1.1//EN"
  "http://www.w3.org/Graphics/SVG/1.1/DTD/svg11.dtd">
<svg xmlns:xlink="http://www.w3.org/1999/xlink" width="720pt" height="432pt" viewBox="0 0 720 432" xmlns="http://www.w3.org/2000/svg" version="1.1">
 <metadata>
  <rdf:RDF xmlns:dc="http://purl.org/dc/elements/1.1/" xmlns:cc="http://creativecommons.org/ns#" xmlns:rdf="http://www.w3.org/1999/02/22-rdf-syntax-ns#">
   <cc:Work>
    <dc:type rdf:resource="http://purl.org/dc/dcmitype/StillImage"/>
    <dc:date>2025-12-10T00:54:09.488436</dc:date>
    <dc:format>image/svg+xml</dc:format>
    <dc:creator>
     <cc:Agent>
      <dc:title>Matplotlib v3.10.7, https://matplotlib.org/</dc:title>
     </cc:Agent>
    </dc:creator>
   </cc:Work>
  </rdf:RDF>
 </metadata>
 <defs>
  <style type="text/css">*{stroke-linejoin: round; stroke-linecap: butt}</style>
 </defs>
 <g id="figure_1">
  <g id="patch_1">
   <path d="M 0 432 
L 720 432 
L 720 0 
L 0 0 
z
" style="fill: #ffffff"/>
  </g>
  <g id="axes_1">
   <g id="patch_2">
    <path d="M 90 384.48 
L 648 384.48 
L 648 51.84 
L 90 51.84 
z
" style="fill: #ffffff"/>
   </g>
   <g id="patch_3">
    <path d="M 115.363636 384.48 
L 120.436364 384.48 
L 120.436364 383.839569 
L 115.363636 383.839569 
z
" clip-path="url(#p021b54d5dc)" style="fill: #87ceeb; opacity: 0.7; stroke: #000000; stroke-linejoin: miter"/>
   </g>
   <g id="patch_4">
    <path d="M 120.436364 384.48 
L 125.509091 384.48 
L 125.509091 383.73283 
L 120.436364 383.73283 
z
" clip-path="url(#p021b54d5dc)" style="fill: #87ceeb; opacity: 0.7; stroke: #000000; stroke-linejoin: miter"/>
   </g>
   <g id="patch_5">
    <path d="M 125.509091 384.48 
L 130.581818 384.48 
L 130.581818 384.373261 
L 125.509091 384.373261 
z
" clip-path="url(#p021b54d5dc)" style="fill: #87ceeb; opacity: 0.7; stroke: #000000; stroke-linejoin: miter"/>
   </g>
   <g id="patch_6">
    <path d="M 130.581818 384.48 
L 135.654545 384.48 
L 135.654545 384.053046 
L 130.581818 384.053046 
z
" clip-path="url(#p021b54d5dc)" style="fill: #87ceeb; opacity: 0.7; stroke: #000000; stroke-linejoin: miter"/>
   </g>
   <g id="patch_7">
    <path d="M 135.654545 384.48 
L 140.727273 384.48 
L 140.727273 383.519353 
L 135.654545 383.519353 
z
" clip-path="url(#p021b54d5dc)" style="fill: #87ceeb; opacity: 0.7; stroke: #000000; stroke-linejoin: miter"/>
   </g>
   <g id="patch_8">
    <path d="M 140.727273 384.48 
L 145.8 384.48 
L 145.8 382.345229 
L 140.727273 382.345229 
z
" clip-path="url(#p021b54d5dc)" style="fill: #87ceeb; opacity: 0.7; stroke: #000000; stroke-linejoin: miter"/>
   </g>
   <g id="patch_9">
    <path d="M 145.8 384.48 
L 150.872727 384.48 
L 150.872727 381.704798 
L 145.8 381.704798 
z
" clip-path="url(#p021b54d5dc)" style="fill: #87ceeb; opacity: 0.7; stroke: #000000; stroke-linejoin: miter"/>
   </g>
   <g id="patch_10">
    <path d="M 150.872727 384.48 
L 155.945455 384.48 
L 155.945455 378.929596 
L 150.872727 378.929596 
z
" clip-path="url(#p021b54d5dc)" style="fill: #87ceeb; opacity: 0.7; stroke: #000000; stroke-linejoin: miter"/>
   </g>
   <g id="patch_11">
    <path d="M 155.945455 384.48 
L 161.018182 384.48 
L 161.018182 376.047655 
L 155.945455 376.047655 
z
" clip-path="url(#p021b54d5dc)" style="fill: #87ceeb; opacity: 0.7; stroke: #000000; stroke-linejoin: miter"/>
   </g>
   <g id="patch_12">
    <path d="M 161.018182 384.48 
L 166.090909 384.48 
L 166.090909 373.058976 
L 161.018182 373.058976 
z
" clip-path="url(#p021b54d5dc)" style="fill: #87ceeb; opacity: 0.7; stroke: #000000; stroke-linejoin: miter"/>
   </g>
   <g id="patch_13">
    <path d="M 166.090909 384.48 
L 171.163636 384.48 
L 171.163636 368.575957 
L 166.090909 368.575957 
z
" clip-path="url(#p021b54d5dc)" style="fill: #87ceeb; opacity: 0.7; stroke: #000000; stroke-linejoin: miter"/>
   </g>
   <g id="patch_14">
    <path d="M 171.163636 384.48 
L 176.236364 384.48 
L 176.236364 361.104259 
L 171.163636 361.104259 
z
" clip-path="url(#p021b54d5dc)" style="fill: #87ceeb; opacity: 0.7; stroke: #000000; stroke-linejoin: miter"/>
   </g>
   <g id="patch_15">
    <path d="M 176.236364 384.48 
L 181.309091 384.48 
L 181.309091 353.312345 
L 176.236364 353.312345 
z
" clip-path="url(#p021b54d5dc)" style="fill: #87ceeb; opacity: 0.7; stroke: #000000; stroke-linejoin: miter"/>
   </g>
   <g id="patch_16">
    <path d="M 181.309091 384.48 
L 186.381818 384.48 
L 186.381818 349.469757 
L 181.309091 349.469757 
z
" clip-path="url(#p021b54d5dc)" style="fill: #87ceeb; opacity: 0.7; stroke: #000000; stroke-linejoin: miter"/>
   </g>
   <g id="patch_17">
    <path d="M 186.381818 384.48 
L 191.454545 384.48 
L 191.454545 318.302102 
L 186.381818 318.302102 
z
" clip-path="url(#p021b54d5dc)" style="fill: #87ceeb; opacity: 0.7; stroke: #000000; stroke-linejoin: miter"/>
   </g>
   <g id="patch_18">
    <path d="M 191.454545 384.48 
L 196.527273 384.48 
L 196.527273 310.510189 
L 191.454545 310.510189 
z
" clip-path="url(#p021b54d5dc)" style="fill: #87ceeb; opacity: 0.7; stroke: #000000; stroke-linejoin: miter"/>
   </g>
   <g id="patch_19">
    <path d="M 196.527273 384.48 
L 201.6 384.48 
L 201.6 297.594825 
L 196.527273 297.594825 
z
" clip-path="url(#p021b54d5dc)" style="fill: #87ceeb; opacity: 0.7; stroke: #000000; stroke-linejoin: miter"/>
   </g>
   <g id="patch_20">
    <path d="M 201.6 384.48 
L 206.672727 384.48 
L 206.672727 268.561941 
L 201.6 268.561941 
z
" clip-path="url(#p021b54d5dc)" style="fill: #87ceeb; opacity: 0.7; stroke: #000000; stroke-linejoin: miter"/>
   </g>
   <g id="patch_21">
    <path d="M 206.672727 384.48 
L 211.745455 384.48 
L 211.745455 235.57973 
L 206.672727 235.57973 
z
" clip-path="url(#p021b54d5dc)" style="fill: #87ceeb; opacity: 0.7; stroke: #000000; stroke-linejoin: miter"/>
   </g>
   <g id="patch_22">
    <path d="M 211.745455 384.48 
L 216.818182 384.48 
L 216.818182 200.142534 
L 211.745455 200.142534 
z
" clip-path="url(#p021b54d5dc)" style="fill: #87ceeb; opacity: 0.7; stroke: #000000; stroke-linejoin: miter"/>
   </g>
   <g id="patch_23">
    <path d="M 216.818182 384.48 
L 221.890909 384.48 
L 221.890909 198.327978 
L 216.818182 198.327978 
z
" clip-path="url(#p021b54d5dc)" style="fill: #87ceeb; opacity: 0.7; stroke: #000000; stroke-linejoin: miter"/>
   </g>
   <g id="patch_24">
    <path d="M 221.890909 384.48 
L 226.963636 384.48 
L 226.963636 146.773261 
L 221.890909 146.773261 
z
" clip-path="url(#p021b54d5dc)" style="fill: #87ceeb; opacity: 0.7; stroke: #000000; stroke-linejoin: miter"/>
   </g>
   <g id="patch_25">
    <path d="M 226.963636 384.48 
L 232.036364 384.48 
L 232.036364 108.667601 
L 226.963636 108.667601 
z
" clip-path="url(#p021b54d5dc)" style="fill: #87ceeb; opacity: 0.7; stroke: #000000; stroke-linejoin: miter"/>
   </g>
   <g id="patch_26">
    <path d="M 232.036364 384.48 
L 237.109091 384.48 
L 237.109091 113.470836 
L 232.036364 113.470836 
z
" clip-path="url(#p021b54d5dc)" style="fill: #87ceeb; opacity: 0.7; stroke: #000000; stroke-linejoin: miter"/>
   </g>
   <g id="patch_27">
    <path d="M 237.109091 384.48 
L 242.181818 384.48 
L 242.181818 97.887008 
L 237.109091 97.887008 
z
" clip-path="url(#p021b54d5dc)" style="fill: #87ceeb; opacity: 0.7; stroke: #000000; stroke-linejoin: miter"/>
   </g>
   <g id="patch_28">
    <path d="M 242.181818 384.48 
L 247.254545 384.48 
L 247.254545 99.274609 
L 242.181818 99.274609 
z
" clip-path="url(#p021b54d5dc)" style="fill: #87ceeb; opacity: 0.7; stroke: #000000; stroke-linejoin: miter"/>
   </g>
   <g id="patch_29">
    <path d="M 247.254545 384.48 
L 252.327273 384.48 
L 252.327273 107.920431 
L 247.254545 107.920431 
z
" clip-path="url(#p021b54d5dc)" style="fill: #87ceeb; opacity: 0.7; stroke: #000000; stroke-linejoin: miter"/>
   </g>
   <g id="patch_30">
    <path d="M 252.327273 384.48 
L 257.4 384.48 
L 257.4 138.874609 
L 252.327273 138.874609 
z
" clip-path="url(#p021b54d5dc)" style="fill: #87ceeb; opacity: 0.7; stroke: #000000; stroke-linejoin: miter"/>
   </g>
   <g id="patch_31">
    <path d="M 257.4 384.48 
L 262.472727 384.48 
L 262.472727 172.390512 
L 257.4 172.390512 
z
" clip-path="url(#p021b54d5dc)" style="fill: #87ceeb; opacity: 0.7; stroke: #000000; stroke-linejoin: miter"/>
   </g>
   <g id="patch_32">
    <path d="M 262.472727 384.48 
L 267.545455 384.48 
L 267.545455 201.85035 
L 262.472727 201.85035 
z
" clip-path="url(#p021b54d5dc)" style="fill: #87ceeb; opacity: 0.7; stroke: #000000; stroke-linejoin: miter"/>
   </g>
   <g id="patch_33">
    <path d="M 267.545455 384.48 
L 272.618182 384.48 
L 272.618182 244.012075 
L 267.545455 244.012075 
z
" clip-path="url(#p021b54d5dc)" style="fill: #87ceeb; opacity: 0.7; stroke: #000000; stroke-linejoin: miter"/>
   </g>
   <g id="patch_34">
    <path d="M 272.618182 384.48 
L 277.690909 384.48 
L 277.690909 291.403989 
L 272.618182 291.403989 
z
" clip-path="url(#p021b54d5dc)" style="fill: #87ceeb; opacity: 0.7; stroke: #000000; stroke-linejoin: miter"/>
   </g>
   <g id="patch_35">
    <path d="M 277.690909 384.48 
L 282.763636 384.48 
L 282.763636 337.301563 
L 277.690909 337.301563 
z
" clip-path="url(#p021b54d5dc)" style="fill: #87ceeb; opacity: 0.7; stroke: #000000; stroke-linejoin: miter"/>
   </g>
   <g id="patch_36">
    <path d="M 282.763636 384.48 
L 287.836364 384.48 
L 287.836364 363.23903 
L 282.763636 363.23903 
z
" clip-path="url(#p021b54d5dc)" style="fill: #87ceeb; opacity: 0.7; stroke: #000000; stroke-linejoin: miter"/>
   </g>
   <g id="patch_37">
    <path d="M 287.836364 384.48 
L 292.909091 384.48 
L 292.909091 381.491321 
L 287.836364 381.491321 
z
" clip-path="url(#p021b54d5dc)" style="fill: #87ceeb; opacity: 0.7; stroke: #000000; stroke-linejoin: miter"/>
   </g>
   <g id="patch_38">
    <path d="M 292.909091 384.48 
L 297.981818 384.48 
L 297.981818 381.277844 
L 292.909091 381.277844 
z
" clip-path="url(#p021b54d5dc)" style="fill: #87ceeb; opacity: 0.7; stroke: #000000; stroke-linejoin: miter"/>
   </g>
   <g id="patch_39">
    <path d="M 297.981818 384.48 
L 303.054545 384.48 
L 303.054545 363.132291 
L 297.981818 363.132291 
z
" clip-path="url(#p021b54d5dc)" style="fill: #87ceeb; opacity: 0.7; stroke: #000000; stroke-linejoin: miter"/>
   </g>
   <g id="patch_40">
    <path d="M 303.054545 384.48 
L 308.127273 384.48 
L 308.127273 327.26814 
L 303.054545 327.26814 
z
" clip-path="url(#p021b54d5dc)" style="fill: #87ceeb; opacity: 0.7; stroke: #000000; stroke-linejoin: miter"/>
   </g>
   <g id="patch_41">
    <path d="M 308.127273 384.48 
L 313.2 384.48 
L 313.2 289.16248 
L 308.127273 289.16248 
z
" clip-path="url(#p021b54d5dc)" style="fill: #87ceeb; opacity: 0.7; stroke: #000000; stroke-linejoin: miter"/>
   </g>
   <g id="patch_42">
    <path d="M 313.2 384.48 
L 318.272727 384.48 
L 318.272727 242.19752 
L 313.2 242.19752 
z
" clip-path="url(#p021b54d5dc)" style="fill: #87ceeb; opacity: 0.7; stroke: #000000; stroke-linejoin: miter"/>
   </g>
   <g id="patch_43">
    <path d="M 318.272727 384.48 
L 323.345455 384.48 
L 323.345455 205.692938 
L 318.272727 205.692938 
z
" clip-path="url(#p021b54d5dc)" style="fill: #87ceeb; opacity: 0.7; stroke: #000000; stroke-linejoin: miter"/>
   </g>
   <g id="patch_44">
    <path d="M 323.345455 384.48 
L 328.418182 384.48 
L 328.418182 198.861671 
L 323.345455 198.861671 
z
" clip-path="url(#p021b54d5dc)" style="fill: #87ceeb; opacity: 0.7; stroke: #000000; stroke-linejoin: miter"/>
   </g>
   <g id="patch_45">
    <path d="M 328.418182 384.48 
L 333.490909 384.48 
L 333.490909 182.317197 
L 328.418182 182.317197 
z
" clip-path="url(#p021b54d5dc)" style="fill: #87ceeb; opacity: 0.7; stroke: #000000; stroke-linejoin: miter"/>
   </g>
   <g id="patch_46">
    <path d="M 333.490909 384.48 
L 338.563636 384.48 
L 338.563636 195.019084 
L 333.490909 195.019084 
z
" clip-path="url(#p021b54d5dc)" style="fill: #87ceeb; opacity: 0.7; stroke: #000000; stroke-linejoin: miter"/>
   </g>
   <g id="patch_47">
    <path d="M 338.563636 384.48 
L 343.636364 384.48 
L 343.636364 209.96248 
L 338.563636 209.96248 
z
" clip-path="url(#p021b54d5dc)" style="fill: #87ceeb; opacity: 0.7; stroke: #000000; stroke-linejoin: miter"/>
   </g>
   <g id="patch_48">
    <path d="M 343.636364 384.48 
L 348.709091 384.48 
L 348.709091 251.590512 
L 343.636364 251.590512 
z
" clip-path="url(#p021b54d5dc)" style="fill: #87ceeb; opacity: 0.7; stroke: #000000; stroke-linejoin: miter"/>
   </g>
   <g id="patch_49">
    <path d="M 348.709091 384.48 
L 353.781818 384.48 
L 353.781818 296.313962 
L 348.709091 296.313962 
z
" clip-path="url(#p021b54d5dc)" style="fill: #87ceeb; opacity: 0.7; stroke: #000000; stroke-linejoin: miter"/>
   </g>
   <g id="patch_50">
    <path d="M 353.781818 384.48 
L 358.854545 384.48 
L 358.854545 335.913962 
L 353.781818 335.913962 
z
" clip-path="url(#p021b54d5dc)" style="fill: #87ceeb; opacity: 0.7; stroke: #000000; stroke-linejoin: miter"/>
   </g>
   <g id="patch_51">
    <path d="M 358.854545 384.48 
L 363.927273 384.48 
L 363.927273 367.401833 
L 358.854545 367.401833 
z
" clip-path="url(#p021b54d5dc)" style="fill: #87ceeb; opacity: 0.7; stroke: #000000; stroke-linejoin: miter"/>
   </g>
   <g id="patch_52">
    <path d="M 363.927273 384.48 
L 369 384.48 
L 369 382.98566 
L 363.927273 382.98566 
z
" clip-path="url(#p021b54d5dc)" style="fill: #87ceeb; opacity: 0.7; stroke: #000000; stroke-linejoin: miter"/>
   </g>
   <g id="patch_53">
    <path d="M 369 384.48 
L 374.072727 384.48 
L 374.072727 377.86221 
L 369 377.86221 
z
" clip-path="url(#p021b54d5dc)" style="fill: #87ceeb; opacity: 0.7; stroke: #000000; stroke-linejoin: miter"/>
   </g>
   <g id="patch_54">
    <path d="M 374.072727 384.48 
L 379.145455 384.48 
L 379.145455 353.098868 
L 374.072727 353.098868 
z
" clip-path="url(#p021b54d5dc)" style="fill: #87ceeb; opacity: 0.7; stroke: #000000; stroke-linejoin: miter"/>
   </g>
   <g id="patch_55">
    <path d="M 379.145455 384.48 
L 384.218182 384.48 
L 384.218182 316.807763 
L 379.145455 316.807763 
z
" clip-path="url(#p021b54d5dc)" style="fill: #87ceeb; opacity: 0.7; stroke: #000000; stroke-linejoin: miter"/>
   </g>
   <g id="patch_56">
    <path d="M 384.218182 384.48 
L 389.290909 384.48 
L 389.290909 262.691321 
L 384.218182 262.691321 
z
" clip-path="url(#p021b54d5dc)" style="fill: #87ceeb; opacity: 0.7; stroke: #000000; stroke-linejoin: miter"/>
   </g>
   <g id="patch_57">
    <path d="M 389.290909 384.48 
L 394.363636 384.48 
L 394.363636 217.220701 
L 389.290909 217.220701 
z
" clip-path="url(#p021b54d5dc)" style="fill: #87ceeb; opacity: 0.7; stroke: #000000; stroke-linejoin: miter"/>
   </g>
   <g id="patch_58">
    <path d="M 394.363636 384.48 
L 399.436364 384.48 
L 399.436364 197.580809 
L 394.363636 197.580809 
z
" clip-path="url(#p021b54d5dc)" style="fill: #87ceeb; opacity: 0.7; stroke: #000000; stroke-linejoin: miter"/>
   </g>
   <g id="patch_59">
    <path d="M 399.436364 384.48 
L 404.509091 384.48 
L 404.509091 164.918814 
L 399.436364 164.918814 
z
" clip-path="url(#p021b54d5dc)" style="fill: #87ceeb; opacity: 0.7; stroke: #000000; stroke-linejoin: miter"/>
   </g>
   <g id="patch_60">
    <path d="M 404.509091 384.48 
L 409.581818 384.48 
L 409.581818 170.469218 
L 404.509091 170.469218 
z
" clip-path="url(#p021b54d5dc)" style="fill: #87ceeb; opacity: 0.7; stroke: #000000; stroke-linejoin: miter"/>
   </g>
   <g id="patch_61">
    <path d="M 409.581818 384.48 
L 414.654545 384.48 
L 414.654545 198.007763 
L 409.581818 198.007763 
z
" clip-path="url(#p021b54d5dc)" style="fill: #87ceeb; opacity: 0.7; stroke: #000000; stroke-linejoin: miter"/>
   </g>
   <g id="patch_62">
    <path d="M 414.654545 384.48 
L 419.727273 384.48 
L 419.727273 223.945229 
L 414.654545 223.945229 
z
" clip-path="url(#p021b54d5dc)" style="fill: #87ceeb; opacity: 0.7; stroke: #000000; stroke-linejoin: miter"/>
   </g>
   <g id="patch_63">
    <path d="M 419.727273 384.48 
L 424.8 384.48 
L 424.8 254.365714 
L 419.727273 254.365714 
z
" clip-path="url(#p021b54d5dc)" style="fill: #87ceeb; opacity: 0.7; stroke: #000000; stroke-linejoin: miter"/>
   </g>
   <g id="patch_64">
    <path d="M 424.8 384.48 
L 429.872727 384.48 
L 429.872727 308.268679 
L 424.8 308.268679 
z
" clip-path="url(#p021b54d5dc)" style="fill: #87ceeb; opacity: 0.7; stroke: #000000; stroke-linejoin: miter"/>
   </g>
   <g id="patch_65">
    <path d="M 429.872727 384.48 
L 434.945455 384.48 
L 434.945455 349.683235 
L 429.872727 349.683235 
z
" clip-path="url(#p021b54d5dc)" style="fill: #87ceeb; opacity: 0.7; stroke: #000000; stroke-linejoin: miter"/>
   </g>
   <g id="patch_66">
    <path d="M 434.945455 384.48 
L 440.018182 384.48 
L 440.018182 373.912884 
L 434.945455 373.912884 
z
" clip-path="url(#p021b54d5dc)" style="fill: #87ceeb; opacity: 0.7; stroke: #000000; stroke-linejoin: miter"/>
   </g>
   <g id="patch_67">
    <path d="M 440.018182 384.48 
L 445.090909 384.48 
L 445.090909 384.159784 
L 440.018182 384.159784 
z
" clip-path="url(#p021b54d5dc)" style="fill: #87ceeb; opacity: 0.7; stroke: #000000; stroke-linejoin: miter"/>
   </g>
   <g id="patch_68">
    <path d="M 445.090909 384.48 
L 450.163636 384.48 
L 450.163636 374.2331 
L 445.090909 374.2331 
z
" clip-path="url(#p021b54d5dc)" style="fill: #87ceeb; opacity: 0.7; stroke: #000000; stroke-linejoin: miter"/>
   </g>
   <g id="patch_69">
    <path d="M 450.163636 384.48 
L 455.236364 384.48 
L 455.236364 350.857358 
L 450.163636 350.857358 
z
" clip-path="url(#p021b54d5dc)" style="fill: #87ceeb; opacity: 0.7; stroke: #000000; stroke-linejoin: miter"/>
   </g>
   <g id="patch_70">
    <path d="M 455.236364 384.48 
L 460.309091 384.48 
L 460.309091 306.02717 
L 455.236364 306.02717 
z
" clip-path="url(#p021b54d5dc)" style="fill: #87ceeb; opacity: 0.7; stroke: #000000; stroke-linejoin: miter"/>
   </g>
   <g id="patch_71">
    <path d="M 460.309091 384.48 
L 465.381818 384.48 
L 465.381818 252.230943 
L 460.309091 252.230943 
z
" clip-path="url(#p021b54d5dc)" style="fill: #87ceeb; opacity: 0.7; stroke: #000000; stroke-linejoin: miter"/>
   </g>
   <g id="patch_72">
    <path d="M 465.381818 384.48 
L 470.454545 384.48 
L 470.454545 198.754933 
L 465.381818 198.754933 
z
" clip-path="url(#p021b54d5dc)" style="fill: #87ceeb; opacity: 0.7; stroke: #000000; stroke-linejoin: miter"/>
   </g>
   <g id="patch_73">
    <path d="M 470.454545 384.48 
L 475.527273 384.48 
L 475.527273 152.75062 
L 470.454545 152.75062 
z
" clip-path="url(#p021b54d5dc)" style="fill: #87ceeb; opacity: 0.7; stroke: #000000; stroke-linejoin: miter"/>
   </g>
   <g id="patch_74">
    <path d="M 475.527273 384.48 
L 480.6 384.48 
L 480.6 119.554933 
L 475.527273 119.554933 
z
" clip-path="url(#p021b54d5dc)" style="fill: #87ceeb; opacity: 0.7; stroke: #000000; stroke-linejoin: miter"/>
   </g>
   <g id="patch_75">
    <path d="M 480.6 384.48 
L 485.672727 384.48 
L 485.672727 98.847655 
L 480.6 98.847655 
z
" clip-path="url(#p021b54d5dc)" style="fill: #87ceeb; opacity: 0.7; stroke: #000000; stroke-linejoin: miter"/>
   </g>
   <g id="patch_76">
    <path d="M 485.672727 384.48 
L 490.745455 384.48 
L 490.745455 72.376496 
L 485.672727 72.376496 
z
" clip-path="url(#p021b54d5dc)" style="fill: #87ceeb; opacity: 0.7; stroke: #000000; stroke-linejoin: miter"/>
   </g>
   <g id="patch_77">
    <path d="M 490.745455 384.48 
L 495.818182 384.48 
L 495.818182 73.977574 
L 490.745455 73.977574 
z
" clip-path="url(#p021b54d5dc)" style="fill: #87ceeb; opacity: 0.7; stroke: #000000; stroke-linejoin: miter"/>
   </g>
   <g id="patch_78">
    <path d="M 495.818182 384.48 
L 500.890909 384.48 
L 500.890909 67.68 
L 495.818182 67.68 
z
" clip-path="url(#p021b54d5dc)" style="fill: #87ceeb; opacity: 0.7; stroke: #000000; stroke-linejoin: miter"/>
   </g>
   <g id="patch_79">
    <path d="M 500.890909 384.48 
L 505.963636 384.48 
L 505.963636 82.196442 
L 500.890909 82.196442 
z
" clip-path="url(#p021b54d5dc)" style="fill: #87ceeb; opacity: 0.7; stroke: #000000; stroke-linejoin: miter"/>
   </g>
   <g id="patch_80">
    <path d="M 505.963636 384.48 
L 511.036364 384.48 
L 511.036364 125.105337 
L 505.963636 125.105337 
z
" clip-path="url(#p021b54d5dc)" style="fill: #87ceeb; opacity: 0.7; stroke: #000000; stroke-linejoin: miter"/>
   </g>
   <g id="patch_81">
    <path d="M 511.036364 384.48 
L 516.109091 384.48 
L 516.109091 142.50372 
L 511.036364 142.50372 
z
" clip-path="url(#p021b54d5dc)" style="fill: #87ceeb; opacity: 0.7; stroke: #000000; stroke-linejoin: miter"/>
   </g>
   <g id="patch_82">
    <path d="M 516.109091 384.48 
L 521.181818 384.48 
L 521.181818 187.760863 
L 516.109091 187.760863 
z
" clip-path="url(#p021b54d5dc)" style="fill: #87ceeb; opacity: 0.7; stroke: #000000; stroke-linejoin: miter"/>
   </g>
   <g id="patch_83">
    <path d="M 521.181818 384.48 
L 526.254545 384.48 
L 526.254545 196.299946 
L 521.181818 196.299946 
z
" clip-path="url(#p021b54d5dc)" style="fill: #87ceeb; opacity: 0.7; stroke: #000000; stroke-linejoin: miter"/>
   </g>
   <g id="patch_84">
    <path d="M 526.254545 384.48 
L 531.327273 384.48 
L 531.327273 241.023396 
L 526.254545 241.023396 
z
" clip-path="url(#p021b54d5dc)" style="fill: #87ceeb; opacity: 0.7; stroke: #000000; stroke-linejoin: miter"/>
   </g>
   <g id="patch_85">
    <path d="M 531.327273 384.48 
L 536.4 384.48 
L 536.4 268.241725 
L 531.327273 268.241725 
z
" clip-path="url(#p021b54d5dc)" style="fill: #87ceeb; opacity: 0.7; stroke: #000000; stroke-linejoin: miter"/>
   </g>
   <g id="patch_86">
    <path d="M 536.4 384.48 
L 541.472727 384.48 
L 541.472727 294.179191 
L 536.4 294.179191 
z
" clip-path="url(#p021b54d5dc)" style="fill: #87ceeb; opacity: 0.7; stroke: #000000; stroke-linejoin: miter"/>
   </g>
   <g id="patch_87">
    <path d="M 541.472727 384.48 
L 546.545455 384.48 
L 546.545455 318.622318 
L 541.472727 318.622318 
z
" clip-path="url(#p021b54d5dc)" style="fill: #87ceeb; opacity: 0.7; stroke: #000000; stroke-linejoin: miter"/>
   </g>
   <g id="patch_88">
    <path d="M 546.545455 384.48 
L 551.618182 384.48 
L 551.618182 328.228787 
L 546.545455 328.228787 
z
" clip-path="url(#p021b54d5dc)" style="fill: #87ceeb; opacity: 0.7; stroke: #000000; stroke-linejoin: miter"/>
   </g>
   <g id="patch_89">
    <path d="M 551.618182 384.48 
L 556.690909 384.48 
L 556.690909 346.160863 
L 551.618182 346.160863 
z
" clip-path="url(#p021b54d5dc)" style="fill: #87ceeb; opacity: 0.7; stroke: #000000; stroke-linejoin: miter"/>
   </g>
   <g id="patch_90">
    <path d="M 556.690909 384.48 
L 561.763636 384.48 
L 561.763636 359.076226 
L 556.690909 359.076226 
z
" clip-path="url(#p021b54d5dc)" style="fill: #87ceeb; opacity: 0.7; stroke: #000000; stroke-linejoin: miter"/>
   </g>
   <g id="patch_91">
    <path d="M 561.763636 384.48 
L 566.836364 384.48 
L 566.836364 367.295094 
L 561.763636 367.295094 
z
" clip-path="url(#p021b54d5dc)" style="fill: #87ceeb; opacity: 0.7; stroke: #000000; stroke-linejoin: miter"/>
   </g>
   <g id="patch_92">
    <path d="M 566.836364 384.48 
L 571.909091 384.48 
L 571.909091 373.058976 
L 566.836364 373.058976 
z
" clip-path="url(#p021b54d5dc)" style="fill: #87ceeb; opacity: 0.7; stroke: #000000; stroke-linejoin: miter"/>
   </g>
   <g id="patch_93">
    <path d="M 571.909091 384.48 
L 576.981818 384.48 
L 576.981818 377.221779 
L 571.909091 377.221779 
z
" clip-path="url(#p021b54d5dc)" style="fill: #87ceeb; opacity: 0.7; stroke: #000000; stroke-linejoin: miter"/>
   </g>
   <g id="patch_94">
    <path d="M 576.981818 384.48 
L 582.054545 384.48 
L 582.054545 378.502642 
L 576.981818 378.502642 
z
" clip-path="url(#p021b54d5dc)" style="fill: #87ceeb; opacity: 0.7; stroke: #000000; stroke-linejoin: miter"/>
   </g>
   <g id="patch_95">
    <path d="M 582.054545 384.48 
L 587.127273 384.48 
L 587.127273 380.317197 
L 582.054545 380.317197 
z
" clip-path="url(#p021b54d5dc)" style="fill: #87ceeb; opacity: 0.7; stroke: #000000; stroke-linejoin: miter"/>
   </g>
   <g id="patch_96">
    <path d="M 587.127273 384.48 
L 592.2 384.48 
L 592.2 380.10372 
L 587.127273 380.10372 
z
" clip-path="url(#p021b54d5dc)" style="fill: #87ceeb; opacity: 0.7; stroke: #000000; stroke-linejoin: miter"/>
   </g>
   <g id="patch_97">
    <path d="M 592.2 384.48 
L 597.272727 384.48 
L 597.272727 382.558706 
L 592.2 382.558706 
z
" clip-path="url(#p021b54d5dc)" style="fill: #87ceeb; opacity: 0.7; stroke: #000000; stroke-linejoin: miter"/>
   </g>
   <g id="patch_98">
    <path d="M 597.272727 384.48 
L 602.345455 384.48 
L 602.345455 382.772183 
L 597.272727 382.772183 
z
" clip-path="url(#p021b54d5dc)" style="fill: #87ceeb; opacity: 0.7; stroke: #000000; stroke-linejoin: miter"/>
   </g>
   <g id="patch_99">
    <path d="M 602.345455 384.48 
L 607.418182 384.48 
L 607.418182 383.305876 
L 602.345455 383.305876 
z
" clip-path="url(#p021b54d5dc)" style="fill: #87ceeb; opacity: 0.7; stroke: #000000; stroke-linejoin: miter"/>
   </g>
   <g id="patch_100">
    <path d="M 607.418182 384.48 
L 612.490909 384.48 
L 612.490909 384.159784 
L 607.418182 384.159784 
z
" clip-path="url(#p021b54d5dc)" style="fill: #87ceeb; opacity: 0.7; stroke: #000000; stroke-linejoin: miter"/>
   </g>
   <g id="patch_101">
    <path d="M 612.490909 384.48 
L 617.563636 384.48 
L 617.563636 384.266523 
L 612.490909 384.266523 
z
" clip-path="url(#p021b54d5dc)" style="fill: #87ceeb; opacity: 0.7; stroke: #000000; stroke-linejoin: miter"/>
   </g>
   <g id="patch_102">
    <path d="M 617.563636 384.48 
L 622.636364 384.48 
L 622.636364 384.159784 
L 617.563636 384.159784 
z
" clip-path="url(#p021b54d5dc)" style="fill: #87ceeb; opacity: 0.7; stroke: #000000; stroke-linejoin: miter"/>
   </g>
   <g id="matplotlib.axis_1">
    <g id="xtick_1">
     <g id="line2d_1">
      <defs>
       <path id="m93c69afe43" d="M 0 0 
L 0 3.5 
" style="stroke: #000000; stroke-width: 0.8"/>
      </defs>
      <g>
       <use xlink:href="#m93c69afe43" x="122.594666" y="384.48" style="stroke: #000000; stroke-width: 0.8"/>
      </g>
     </g>
     <g id="text_1">
      <!-- −4 -->
      <g transform="translate(115.223573 399.078438) scale(0.1 -0.1)">
       <defs>
        <path id="DejaVuSans-2212" d="M 678 2272 
L 4684 2272 
L 4684 1741 
L 678 1741 
L 678 2272 
z
" transform="scale(0.015625)"/>
        <path id="DejaVuSans-34" d="M 2419 4116 
L 825 1625 
L 2419 1625 
L 2419 4116 
z
M 2253 4666 
L 3047 4666 
L 3047 1625 
L 3713 1625 
L 3713 1100 
L 3047 1100 
L 3047 0 
L 2419 0 
L 2419 1100 
L 313 1100 
L 313 1709 
L 2253 4666 
z
" transform="scale(0.015625)"/>
       </defs>
       <use xlink:href="#DejaVuSans-2212"/>
       <use xlink:href="#DejaVuSans-34" transform="translate(83.789062 0)"/>
      </g>
     </g>
    </g>
    <g id="xtick_2">
     <g id="line2d_2">
      <g>
       <use xlink:href="#m93c69afe43" x="245.117591" y="384.48" style="stroke: #000000; stroke-width: 0.8"/>
      </g>
     </g>
     <g id="text_2">
      <!-- −2 -->
      <g transform="translate(237.746497 399.078438) scale(0.1 -0.1)">
       <defs>
        <path id="DejaVuSans-32" d="M 1228 531 
L 3431 531 
L 3431 0 
L 469 0 
L 469 531 
Q 828 903 1448 1529 
Q 2069 2156 2228 2338 
Q 2531 2678 2651 2914 
Q 2772 3150 2772 3378 
Q 2772 3750 2511 3984 
Q 2250 4219 1831 4219 
Q 1534 4219 1204 4116 
Q 875 4013 500 3803 
L 500 4441 
Q 881 4594 1212 4672 
Q 1544 4750 1819 4750 
Q 2544 4750 2975 4387 
Q 3406 4025 3406 3419 
Q 3406 3131 3298 2873 
Q 3191 2616 2906 2266 
Q 2828 2175 2409 1742 
Q 1991 1309 1228 531 
z
" transform="scale(0.015625)"/>
       </defs>
       <use xlink:href="#DejaVuSans-2212"/>
       <use xlink:href="#DejaVuSans-32" transform="translate(83.789062 0)"/>
      </g>
     </g>
    </g>
    <g id="xtick_3">
     <g id="line2d_3">
      <g>
       <use xlink:href="#m93c69afe43" x="367.640515" y="384.48" style="stroke: #000000; stroke-width: 0.8"/>
      </g>
     </g>
     <g id="text_3">
      <!-- 0 -->
      <g transform="translate(364.459265 399.078438) scale(0.1 -0.1)">
       <defs>
        <path id="DejaVuSans-30" d="M 2034 4250 
Q 1547 4250 1301 3770 
Q 1056 3291 1056 2328 
Q 1056 1369 1301 889 
Q 1547 409 2034 409 
Q 2525 409 2770 889 
Q 3016 1369 3016 2328 
Q 3016 3291 2770 3770 
Q 2525 4250 2034 4250 
z
M 2034 4750 
Q 2819 4750 3233 4129 
Q 3647 3509 3647 2328 
Q 3647 1150 3233 529 
Q 2819 -91 2034 -91 
Q 1250 -91 836 529 
Q 422 1150 422 2328 
Q 422 3509 836 4129 
Q 1250 4750 2034 4750 
z
" transform="scale(0.015625)"/>
       </defs>
       <use xlink:href="#DejaVuSans-30"/>
      </g>
     </g>
    </g>
    <g id="xtick_4">
     <g id="line2d_4">
      <g>
       <use xlink:href="#m93c69afe43" x="490.163439" y="384.48" style="stroke: #000000; stroke-width: 0.8"/>
      </g>
     </g>
     <g id="text_4">
      <!-- 2 -->
      <g transform="translate(486.982189 399.078438) scale(0.1 -0.1)">
       <use xlink:href="#DejaVuSans-32"/>
      </g>
     </g>
    </g>
    <g id="xtick_5">
     <g id="line2d_5">
      <g>
       <use xlink:href="#m93c69afe43" x="612.686363" y="384.48" style="stroke: #000000; stroke-width: 0.8"/>
      </g>
     </g>
     <g id="text_5">
      <!-- 4 -->
      <g transform="translate(609.505113 399.078438) scale(0.1 -0.1)">
       <use xlink:href="#DejaVuSans-34"/>
      </g>
     </g>
    </g>
    <g id="text_6">
     <!-- Position x -->
     <g transform="translate(344.9875 412.756563) scale(0.1 -0.1)">
      <defs>
       <path id="DejaVuSans-50" d="M 1259 4147 
L 1259 2394 
L 2053 2394 
Q 2494 2394 2734 2622 
Q 2975 2850 2975 3272 
Q 2975 3691 2734 3919 
Q 2494 4147 2053 4147 
L 1259 4147 
z
M 628 4666 
L 2053 4666 
Q 2838 4666 3239 4311 
Q 3641 3956 3641 3272 
Q 3641 2581 3239 2228 
Q 2838 1875 2053 1875 
L 1259 1875 
L 1259 0 
L 628 0 
L 628 4666 
z
" transform="scale(0.015625)"/>
       <path id="DejaVuSans-6f" d="M 1959 3097 
Q 1497 3097 1228 2736 
Q 959 2375 959 1747 
Q 959 1119 1226 758 
Q 1494 397 1959 397 
Q 2419 397 2687 759 
Q 2956 1122 2956 1747 
Q 2956 2369 2687 2733 
Q 2419 3097 1959 3097 
z
M 1959 3584 
Q 2709 3584 3137 3096 
Q 3566 2609 3566 1747 
Q 3566 888 3137 398 
Q 2709 -91 1959 -91 
Q 1206 -91 779 398 
Q 353 888 353 1747 
Q 353 2609 779 3096 
Q 1206 3584 1959 3584 
z
" transform="scale(0.015625)"/>
       <path id="DejaVuSans-73" d="M 2834 3397 
L 2834 2853 
Q 2591 2978 2328 3040 
Q 2066 3103 1784 3103 
Q 1356 3103 1142 2972 
Q 928 2841 928 2578 
Q 928 2378 1081 2264 
Q 1234 2150 1697 2047 
L 1894 2003 
Q 2506 1872 2764 1633 
Q 3022 1394 3022 966 
Q 3022 478 2636 193 
Q 2250 -91 1575 -91 
Q 1294 -91 989 -36 
Q 684 19 347 128 
L 347 722 
Q 666 556 975 473 
Q 1284 391 1588 391 
Q 1994 391 2212 530 
Q 2431 669 2431 922 
Q 2431 1156 2273 1281 
Q 2116 1406 1581 1522 
L 1381 1569 
Q 847 1681 609 1914 
Q 372 2147 372 2553 
Q 372 3047 722 3315 
Q 1072 3584 1716 3584 
Q 2034 3584 2315 3537 
Q 2597 3491 2834 3397 
z
" transform="scale(0.015625)"/>
       <path id="DejaVuSans-69" d="M 603 3500 
L 1178 3500 
L 1178 0 
L 603 0 
L 603 3500 
z
M 603 4863 
L 1178 4863 
L 1178 4134 
L 603 4134 
L 603 4863 
z
" transform="scale(0.015625)"/>
       <path id="DejaVuSans-74" d="M 1172 4494 
L 1172 3500 
L 2356 3500 
L 2356 3053 
L 1172 3053 
L 1172 1153 
Q 1172 725 1289 603 
Q 1406 481 1766 481 
L 2356 481 
L 2356 0 
L 1766 0 
Q 1100 0 847 248 
Q 594 497 594 1153 
L 594 3053 
L 172 3053 
L 172 3500 
L 594 3500 
L 594 4494 
L 1172 4494 
z
" transform="scale(0.015625)"/>
       <path id="DejaVuSans-6e" d="M 3513 2113 
L 3513 0 
L 2938 0 
L 2938 2094 
Q 2938 2591 2744 2837 
Q 2550 3084 2163 3084 
Q 1697 3084 1428 2787 
Q 1159 2491 1159 1978 
L 1159 0 
L 581 0 
L 581 3500 
L 1159 3500 
L 1159 2956 
Q 1366 3272 1645 3428 
Q 1925 3584 2291 3584 
Q 2894 3584 3203 3211 
Q 3513 2838 3513 2113 
z
" transform="scale(0.015625)"/>
       <path id="DejaVuSans-20" transform="scale(0.015625)"/>
       <path id="DejaVuSans-78" d="M 3513 3500 
L 2247 1797 
L 3578 0 
L 2900 0 
L 1881 1375 
L 863 0 
L 184 0 
L 1544 1831 
L 300 3500 
L 978 3500 
L 1906 2253 
L 2834 3500 
L 3513 3500 
z
" transform="scale(0.015625)"/>
      </defs>
      <use xlink:href="#DejaVuSans-50"/>
      <use xlink:href="#DejaVuSans-6f" transform="translate(56.677734 0)"/>
      <use xlink:href="#DejaVuSans-73" transform="translate(117.859375 0)"/>
      <use xlink:href="#DejaVuSans-69" transform="translate(169.958984 0)"/>
      <use xlink:href="#DejaVuSans-74" transform="translate(197.742188 0)"/>
      <use xlink:href="#DejaVuSans-69" transform="translate(236.951172 0)"/>
      <use xlink:href="#DejaVuSans-6f" transform="translate(264.734375 0)"/>
      <use xlink:href="#DejaVuSans-6e" transform="translate(325.916016 0)"/>
      <use xlink:href="#DejaVuSans-20" transform="translate(389.294922 0)"/>
      <use xlink:href="#DejaVuSans-78" transform="translate(421.082031 0)"/>
     </g>
    </g>
   </g>
   <g id="matplotlib.axis_2">
    <g id="ytick_1">
     <g id="line2d_6">
      <path d="M 90 384.48 
L 648 384.48 
" clip-path="url(#p021b54d5dc)" style="fill: none; stroke-dasharray: 2.96,1.28; stroke-dashoffset: 0; stroke: #b0b0b0; stroke-opacity: 0.5; stroke-width: 0.8"/>
     </g>
     <g id="line2d_7">
      <defs>
       <path id="m9daa1f0fcf" d="M 0 0 
L -3.5 0 
" style="stroke: #000000; stroke-width: 0.8"/>
      </defs>
      <g>
       <use xlink:href="#m9daa1f0fcf" x="90" y="384.48" style="stroke: #000000; stroke-width: 0.8"/>
      </g>
     </g>
     <g id="text_7">
      <!-- 0.00 -->
      <g transform="translate(60.734375 388.279219) scale(0.1 -0.1)">
       <defs>
        <path id="DejaVuSans-2e" d="M 684 794 
L 1344 794 
L 1344 0 
L 684 0 
L 684 794 
z
" transform="scale(0.015625)"/>
       </defs>
       <use xlink:href="#DejaVuSans-30"/>
       <use xlink:href="#DejaVuSans-2e" transform="translate(63.623047 0)"/>
       <use xlink:href="#DejaVuSans-30" transform="translate(95.410156 0)"/>
       <use xlink:href="#DejaVuSans-30" transform="translate(159.033203 0)"/>
      </g>
     </g>
    </g>
    <g id="ytick_2">
     <g id="line2d_8">
      <path d="M 90 340.287819 
L 648 340.287819 
" clip-path="url(#p021b54d5dc)" style="fill: none; stroke-dasharray: 2.96,1.28; stroke-dashoffset: 0; stroke: #b0b0b0; stroke-opacity: 0.5; stroke-width: 0.8"/>
     </g>
     <g id="line2d_9">
      <g>
       <use xlink:href="#m9daa1f0fcf" x="90" y="340.287819" style="stroke: #000000; stroke-width: 0.8"/>
      </g>
     </g>
     <g id="text_8">
      <!-- 0.05 -->
      <g transform="translate(60.734375 344.087038) scale(0.1 -0.1)">
       <defs>
        <path id="DejaVuSans-35" d="M 691 4666 
L 3169 4666 
L 3169 4134 
L 1269 4134 
L 1269 2991 
Q 1406 3038 1543 3061 
Q 1681 3084 1819 3084 
Q 2600 3084 3056 2656 
Q 3513 2228 3513 1497 
Q 3513 744 3044 326 
Q 2575 -91 1722 -91 
Q 1428 -91 1123 -41 
Q 819 9 494 109 
L 494 744 
Q 775 591 1075 516 
Q 1375 441 1709 441 
Q 2250 441 2565 725 
Q 2881 1009 2881 1497 
Q 2881 1984 2565 2268 
Q 2250 2553 1709 2553 
Q 1456 2553 1204 2497 
Q 953 2441 691 2322 
L 691 4666 
z
" transform="scale(0.015625)"/>
       </defs>
       <use xlink:href="#DejaVuSans-30"/>
       <use xlink:href="#DejaVuSans-2e" transform="translate(63.623047 0)"/>
       <use xlink:href="#DejaVuSans-30" transform="translate(95.410156 0)"/>
       <use xlink:href="#DejaVuSans-35" transform="translate(159.033203 0)"/>
      </g>
     </g>
    </g>
    <g id="ytick_3">
     <g id="line2d_10">
      <path d="M 90 296.095638 
L 648 296.095638 
" clip-path="url(#p021b54d5dc)" style="fill: none; stroke-dasharray: 2.96,1.28; stroke-dashoffset: 0; stroke: #b0b0b0; stroke-opacity: 0.5; stroke-width: 0.8"/>
     </g>
     <g id="line2d_11">
      <g>
       <use xlink:href="#m9daa1f0fcf" x="90" y="296.095638" style="stroke: #000000; stroke-width: 0.8"/>
      </g>
     </g>
     <g id="text_9">
      <!-- 0.10 -->
      <g transform="translate(60.734375 299.894857) scale(0.1 -0.1)">
       <defs>
        <path id="DejaVuSans-31" d="M 794 531 
L 1825 531 
L 1825 4091 
L 703 3866 
L 703 4441 
L 1819 4666 
L 2450 4666 
L 2450 531 
L 3481 531 
L 3481 0 
L 794 0 
L 794 531 
z
" transform="scale(0.015625)"/>
       </defs>
       <use xlink:href="#DejaVuSans-30"/>
       <use xlink:href="#DejaVuSans-2e" transform="translate(63.623047 0)"/>
       <use xlink:href="#DejaVuSans-31" transform="translate(95.410156 0)"/>
       <use xlink:href="#DejaVuSans-30" transform="translate(159.033203 0)"/>
      </g>
     </g>
    </g>
    <g id="ytick_4">
     <g id="line2d_12">
      <path d="M 90 251.903457 
L 648 251.903457 
" clip-path="url(#p021b54d5dc)" style="fill: none; stroke-dasharray: 2.96,1.28; stroke-dashoffset: 0; stroke: #b0b0b0; stroke-opacity: 0.5; stroke-width: 0.8"/>
     </g>
     <g id="line2d_13">
      <g>
       <use xlink:href="#m9daa1f0fcf" x="90" y="251.903457" style="stroke: #000000; stroke-width: 0.8"/>
      </g>
     </g>
     <g id="text_10">
      <!-- 0.15 -->
      <g transform="translate(60.734375 255.702675) scale(0.1 -0.1)">
       <use xlink:href="#DejaVuSans-30"/>
       <use xlink:href="#DejaVuSans-2e" transform="translate(63.623047 0)"/>
       <use xlink:href="#DejaVuSans-31" transform="translate(95.410156 0)"/>
       <use xlink:href="#DejaVuSans-35" transform="translate(159.033203 0)"/>
      </g>
     </g>
    </g>
    <g id="ytick_5">
     <g id="line2d_14">
      <path d="M 90 207.711276 
L 648 207.711276 
" clip-path="url(#p021b54d5dc)" style="fill: none; stroke-dasharray: 2.96,1.28; stroke-dashoffset: 0; stroke: #b0b0b0; stroke-opacity: 0.5; stroke-width: 0.8"/>
     </g>
     <g id="line2d_15">
      <g>
       <use xlink:href="#m9daa1f0fcf" x="90" y="207.711276" style="stroke: #000000; stroke-width: 0.8"/>
      </g>
     </g>
     <g id="text_11">
      <!-- 0.20 -->
      <g transform="translate(60.734375 211.510494) scale(0.1 -0.1)">
       <use xlink:href="#DejaVuSans-30"/>
       <use xlink:href="#DejaVuSans-2e" transform="translate(63.623047 0)"/>
       <use xlink:href="#DejaVuSans-32" transform="translate(95.410156 0)"/>
       <use xlink:href="#DejaVuSans-30" transform="translate(159.033203 0)"/>
      </g>
     </g>
    </g>
    <g id="ytick_6">
     <g id="line2d_16">
      <path d="M 90 163.519095 
L 648 163.519095 
" clip-path="url(#p021b54d5dc)" style="fill: none; stroke-dasharray: 2.96,1.28; stroke-dashoffset: 0; stroke: #b0b0b0; stroke-opacity: 0.5; stroke-width: 0.8"/>
     </g>
     <g id="line2d_17">
      <g>
       <use xlink:href="#m9daa1f0fcf" x="90" y="163.519095" style="stroke: #000000; stroke-width: 0.8"/>
      </g>
     </g>
     <g id="text_12">
      <!-- 0.25 -->
      <g transform="translate(60.734375 167.318313) scale(0.1 -0.1)">
       <use xlink:href="#DejaVuSans-30"/>
       <use xlink:href="#DejaVuSans-2e" transform="translate(63.623047 0)"/>
       <use xlink:href="#DejaVuSans-32" transform="translate(95.410156 0)"/>
       <use xlink:href="#DejaVuSans-35" transform="translate(159.033203 0)"/>
      </g>
     </g>
    </g>
    <g id="ytick_7">
     <g id="line2d_18">
      <path d="M 90 119.326913 
L 648 119.326913 
" clip-path="url(#p021b54d5dc)" style="fill: none; stroke-dasharray: 2.96,1.28; stroke-dashoffset: 0; stroke: #b0b0b0; stroke-opacity: 0.5; stroke-width: 0.8"/>
     </g>
     <g id="line2d_19">
      <g>
       <use xlink:href="#m9daa1f0fcf" x="90" y="119.326913" style="stroke: #000000; stroke-width: 0.8"/>
      </g>
     </g>
     <g id="text_13">
      <!-- 0.30 -->
      <g transform="translate(60.734375 123.126132) scale(0.1 -0.1)">
       <defs>
        <path id="DejaVuSans-33" d="M 2597 2516 
Q 3050 2419 3304 2112 
Q 3559 1806 3559 1356 
Q 3559 666 3084 287 
Q 2609 -91 1734 -91 
Q 1441 -91 1130 -33 
Q 819 25 488 141 
L 488 750 
Q 750 597 1062 519 
Q 1375 441 1716 441 
Q 2309 441 2620 675 
Q 2931 909 2931 1356 
Q 2931 1769 2642 2001 
Q 2353 2234 1838 2234 
L 1294 2234 
L 1294 2753 
L 1863 2753 
Q 2328 2753 2575 2939 
Q 2822 3125 2822 3475 
Q 2822 3834 2567 4026 
Q 2313 4219 1838 4219 
Q 1578 4219 1281 4162 
Q 984 4106 628 3988 
L 628 4550 
Q 988 4650 1302 4700 
Q 1616 4750 1894 4750 
Q 2613 4750 3031 4423 
Q 3450 4097 3450 3541 
Q 3450 3153 3228 2886 
Q 3006 2619 2597 2516 
z
" transform="scale(0.015625)"/>
       </defs>
       <use xlink:href="#DejaVuSans-30"/>
       <use xlink:href="#DejaVuSans-2e" transform="translate(63.623047 0)"/>
       <use xlink:href="#DejaVuSans-33" transform="translate(95.410156 0)"/>
       <use xlink:href="#DejaVuSans-30" transform="translate(159.033203 0)"/>
      </g>
     </g>
    </g>
    <g id="ytick_8">
     <g id="line2d_20">
      <path d="M 90 75.134732 
L 648 75.134732 
" clip-path="url(#p021b54d5dc)" style="fill: none; stroke-dasharray: 2.96,1.28; stroke-dashoffset: 0; stroke: #b0b0b0; stroke-opacity: 0.5; stroke-width: 0.8"/>
     </g>
     <g id="line2d_21">
      <g>
       <use xlink:href="#m9daa1f0fcf" x="90" y="75.134732" style="stroke: #000000; stroke-width: 0.8"/>
      </g>
     </g>
     <g id="text_14">
      <!-- 0.35 -->
      <g transform="translate(60.734375 78.933951) scale(0.1 -0.1)">
       <use xlink:href="#DejaVuSans-30"/>
       <use xlink:href="#DejaVuSans-2e" transform="translate(63.623047 0)"/>
       <use xlink:href="#DejaVuSans-33" transform="translate(95.410156 0)"/>
       <use xlink:href="#DejaVuSans-35" transform="translate(159.033203 0)"/>
      </g>
     </g>
    </g>
    <g id="text_15">
     <!-- Probability Density -->
     <g transform="translate(54.654687 265.186562) rotate(-90) scale(0.1 -0.1)">
      <defs>
       <path id="DejaVuSans-72" d="M 2631 2963 
Q 2534 3019 2420 3045 
Q 2306 3072 2169 3072 
Q 1681 3072 1420 2755 
Q 1159 2438 1159 1844 
L 1159 0 
L 581 0 
L 581 3500 
L 1159 3500 
L 1159 2956 
Q 1341 3275 1631 3429 
Q 1922 3584 2338 3584 
Q 2397 3584 2469 3576 
Q 2541 3569 2628 3553 
L 2631 2963 
z
" transform="scale(0.015625)"/>
       <path id="DejaVuSans-62" d="M 3116 1747 
Q 3116 2381 2855 2742 
Q 2594 3103 2138 3103 
Q 1681 3103 1420 2742 
Q 1159 2381 1159 1747 
Q 1159 1113 1420 752 
Q 1681 391 2138 391 
Q 2594 391 2855 752 
Q 3116 1113 3116 1747 
z
M 1159 2969 
Q 1341 3281 1617 3432 
Q 1894 3584 2278 3584 
Q 2916 3584 3314 3078 
Q 3713 2572 3713 1747 
Q 3713 922 3314 415 
Q 2916 -91 2278 -91 
Q 1894 -91 1617 61 
Q 1341 213 1159 525 
L 1159 0 
L 581 0 
L 581 4863 
L 1159 4863 
L 1159 2969 
z
" transform="scale(0.015625)"/>
       <path id="DejaVuSans-61" d="M 2194 1759 
Q 1497 1759 1228 1600 
Q 959 1441 959 1056 
Q 959 750 1161 570 
Q 1363 391 1709 391 
Q 2188 391 2477 730 
Q 2766 1069 2766 1631 
L 2766 1759 
L 2194 1759 
z
M 3341 1997 
L 3341 0 
L 2766 0 
L 2766 531 
Q 2569 213 2275 61 
Q 1981 -91 1556 -91 
Q 1019 -91 701 211 
Q 384 513 384 1019 
Q 384 1609 779 1909 
Q 1175 2209 1959 2209 
L 2766 2209 
L 2766 2266 
Q 2766 2663 2505 2880 
Q 2244 3097 1772 3097 
Q 1472 3097 1187 3025 
Q 903 2953 641 2809 
L 641 3341 
Q 956 3463 1253 3523 
Q 1550 3584 1831 3584 
Q 2591 3584 2966 3190 
Q 3341 2797 3341 1997 
z
" transform="scale(0.015625)"/>
       <path id="DejaVuSans-6c" d="M 603 4863 
L 1178 4863 
L 1178 0 
L 603 0 
L 603 4863 
z
" transform="scale(0.015625)"/>
       <path id="DejaVuSans-79" d="M 2059 -325 
Q 1816 -950 1584 -1140 
Q 1353 -1331 966 -1331 
L 506 -1331 
L 506 -850 
L 844 -850 
Q 1081 -850 1212 -737 
Q 1344 -625 1503 -206 
L 1606 56 
L 191 3500 
L 800 3500 
L 1894 763 
L 2988 3500 
L 3597 3500 
L 2059 -325 
z
" transform="scale(0.015625)"/>
       <path id="DejaVuSans-44" d="M 1259 4147 
L 1259 519 
L 2022 519 
Q 2988 519 3436 956 
Q 3884 1394 3884 2338 
Q 3884 3275 3436 3711 
Q 2988 4147 2022 4147 
L 1259 4147 
z
M 628 4666 
L 1925 4666 
Q 3281 4666 3915 4102 
Q 4550 3538 4550 2338 
Q 4550 1131 3912 565 
Q 3275 0 1925 0 
L 628 0 
L 628 4666 
z
" transform="scale(0.015625)"/>
       <path id="DejaVuSans-65" d="M 3597 1894 
L 3597 1613 
L 953 1613 
Q 991 1019 1311 708 
Q 1631 397 2203 397 
Q 2534 397 2845 478 
Q 3156 559 3463 722 
L 3463 178 
Q 3153 47 2828 -22 
Q 2503 -91 2169 -91 
Q 1331 -91 842 396 
Q 353 884 353 1716 
Q 353 2575 817 3079 
Q 1281 3584 2069 3584 
Q 2775 3584 3186 3129 
Q 3597 2675 3597 1894 
z
M 3022 2063 
Q 3016 2534 2758 2815 
Q 2500 3097 2075 3097 
Q 1594 3097 1305 2825 
Q 1016 2553 972 2059 
L 3022 2063 
z
" transform="scale(0.015625)"/>
      </defs>
      <use xlink:href="#DejaVuSans-50"/>
      <use xlink:href="#DejaVuSans-72" transform="translate(58.552734 0)"/>
      <use xlink:href="#DejaVuSans-6f" transform="translate(97.416016 0)"/>
      <use xlink:href="#DejaVuSans-62" transform="translate(158.597656 0)"/>
      <use xlink:href="#DejaVuSans-61" transform="translate(222.074219 0)"/>
      <use xlink:href="#DejaVuSans-62" transform="translate(283.353516 0)"/>
      <use xlink:href="#DejaVuSans-69" transform="translate(346.830078 0)"/>
      <use xlink:href="#DejaVuSans-6c" transform="translate(374.613281 0)"/>
      <use xlink:href="#DejaVuSans-69" transform="translate(402.396484 0)"/>
      <use xlink:href="#DejaVuSans-74" transform="translate(430.179688 0)"/>
      <use xlink:href="#DejaVuSans-79" transform="translate(469.388672 0)"/>
      <use xlink:href="#DejaVuSans-20" transform="translate(528.568359 0)"/>
      <use xlink:href="#DejaVuSans-44" transform="translate(560.355469 0)"/>
      <use xlink:href="#DejaVuSans-65" transform="translate(637.357422 0)"/>
      <use xlink:href="#DejaVuSans-6e" transform="translate(698.880859 0)"/>
      <use xlink:href="#DejaVuSans-73" transform="translate(762.259766 0)"/>
      <use xlink:href="#DejaVuSans-69" transform="translate(814.359375 0)"/>
      <use xlink:href="#DejaVuSans-74" transform="translate(842.142578 0)"/>
      <use xlink:href="#DejaVuSans-79" transform="translate(881.351562 0)"/>
     </g>
    </g>
   </g>
   <g id="line2d_22">
    <path d="M 115.363636 384.3637 
L 126.169626 384.11594 
L 133.272154 383.74083 
L 138.700516 383.238504 
L 143.164962 382.606441 
L 146.969888 381.847834 
L 150.318223 380.959144 
L 153.362163 379.924331 
L 156.152443 378.743534 
L 158.739792 377.411713 
L 161.225677 375.880564 
L 163.559365 374.184402 
L 165.842321 372.248761 
L 168.074544 370.058069 
L 170.256035 367.598698 
L 172.386793 364.859404 
L 174.517552 361.753248 
L 176.64831 358.245766 
L 178.779069 354.301928 
L 180.909827 349.886682 
L 183.091318 344.841989 
L 185.272809 339.231657 
L 187.505032 332.870992 
L 189.787988 325.684846 
L 192.121676 317.598658 
L 194.556828 308.339855 
L 197.093446 297.790389 
L 199.731528 285.842508 
L 202.521807 272.151334 
L 205.515015 256.333541 
L 208.86335 237.41191 
L 212.921938 213.121311 
L 225.858686 134.599834 
L 228.5475 120.272628 
L 230.779723 109.521289 
L 232.758285 101.054056 
L 234.483185 94.614923 
L 236.005155 89.747391 
L 237.374928 86.076901 
L 238.592505 83.418004 
L 239.657884 81.582713 
L 240.621799 80.33406 
L 241.484248 79.559667 
L 242.245234 79.152514 
L 242.955486 79.011163 
L 243.665739 79.104443 
L 244.375992 79.436071 
L 245.136977 80.05964 
L 245.948695 81.034528 
L 246.811145 82.424561 
L 247.775059 84.413914 
L 248.840439 87.151262 
L 250.007283 90.799886 
L 251.275591 95.535205 
L 252.645365 101.540901 
L 254.116603 109.003302 
L 255.740038 118.415987 
L 257.51567 130.058754 
L 259.494231 144.570972 
L 261.726454 162.679911 
L 264.313804 185.585644 
L 267.611407 216.901029 
L 276.743229 304.78029 
L 279.178381 325.479087 
L 281.258408 341.325888 
L 283.03404 353.235671 
L 284.606742 362.37108 
L 286.027248 369.375563 
L 287.295557 374.563995 
L 288.411668 378.259729 
L 289.426315 380.889699 
L 290.288765 382.566677 
L 291.04975 383.614007 
L 291.709271 384.190929 
L 292.318059 384.449502 
L 292.876115 384.454968 
L 293.434171 384.238923 
L 294.042959 383.751083 
L 294.702479 382.926905 
L 295.463465 381.596595 
L 296.325914 379.603276 
L 297.289829 376.775587 
L 298.355208 372.932376 
L 299.572785 367.650806 
L 300.942558 360.633676 
L 302.464528 351.598743 
L 304.189428 339.946424 
L 306.16799 325.009696 
L 308.653874 304.428407 
L 312.610997 269.472813 
L 316.720317 233.778211 
L 319.104738 214.960556 
L 321.032567 201.420618 
L 322.706734 191.181498 
L 324.177972 183.524462 
L 325.446281 178.029518 
L 326.562393 174.097311 
L 327.57704 171.28986 
L 328.439489 169.495917 
L 329.200475 168.374495 
L 329.859995 167.757178 
L 330.468783 167.481972 
L 331.026839 167.479284 
L 331.584895 167.715754 
L 332.193683 168.24631 
L 332.853204 169.141009 
L 333.614189 170.583988 
L 334.476639 172.745003 
L 335.440553 175.808924 
L 336.505932 179.970026 
L 337.723509 185.681729 
L 339.093282 193.256668 
L 340.615252 202.984072 
L 342.390885 215.870823 
L 344.470911 232.700688 
L 347.159725 256.411753 
L 355.124703 327.878763 
L 357.20473 343.926663 
L 358.980362 355.952098 
L 360.502332 364.804382 
L 361.821373 371.263824 
L 362.988217 375.968003 
L 364.053596 379.39239 
L 364.966778 381.64304 
L 365.778496 383.100954 
L 366.488749 383.951655 
L 367.097537 384.362502 
L 367.655593 384.479909 
L 368.162916 384.371237 
L 368.720972 384.015006 
L 369.32976 383.344566 
L 370.040013 382.193176 
L 370.851731 380.395864 
L 371.764913 377.770795 
L 372.77956 374.124496 
L 373.895671 369.2592 
L 375.16398 362.700135 
L 376.584486 354.146706 
L 378.207921 342.969484 
L 380.13575 328.04637 
L 382.469438 308.147314 
L 386.122167 274.798631 
L 390.434416 235.903086 
L 392.818836 216.419247 
L 394.746666 202.434733 
L 396.370101 192.181207 
L 397.841339 184.261844 
L 399.109647 178.577441 
L 400.225759 174.503137 
L 401.240406 171.583215 
L 402.153588 169.610517 
L 402.914573 168.448593 
L 403.574094 167.799335 
L 404.182882 167.496171 
L 404.740938 167.46831 
L 405.298994 167.679288 
L 405.907782 168.18081 
L 406.567302 169.041559 
L 407.328287 170.440658 
L 408.190737 172.543784 
L 409.154652 175.529997 
L 410.220031 179.585847 
L 411.437607 185.148227 
L 412.807381 192.513684 
L 414.329351 201.953169 
L 416.104983 214.430184 
L 418.185009 230.688092 
L 420.924556 253.999013 
L 429.193928 325.648844 
L 431.375419 341.958475 
L 433.201784 354.002551 
L 434.774487 362.986409 
L 436.194992 369.873328 
L 437.463301 374.964023 
L 438.579412 378.575692 
L 439.594059 381.129263 
L 440.456509 382.740831 
L 441.217494 383.730009 
L 441.877015 384.256254 
L 442.485803 384.467906 
L 443.043859 384.430325 
L 443.601915 384.171277 
L 444.210703 383.63666 
L 444.920956 382.682102 
L 445.681941 381.267054 
L 446.544391 379.178588 
L 447.508305 376.245491 
L 448.624417 372.079171 
L 449.841993 366.62425 
L 451.211767 359.406831 
L 452.733737 350.132037 
L 454.458637 338.163594 
L 456.386466 323.175998 
L 458.669421 303.606453 
L 461.510433 277.223883 
L 466.482203 228.52697 
L 470.845185 186.70838 
L 473.686196 161.56594 
L 476.070616 142.395448 
L 478.150642 127.417316 
L 480.027739 115.467068 
L 481.752639 105.895764 
L 483.325342 98.402172 
L 484.745847 92.673753 
L 486.064888 88.251813 
L 487.231732 85.064383 
L 488.297112 82.747201 
L 489.261026 81.13557 
L 490.174208 80.029605 
L 490.985926 79.386168 
L 491.746911 79.06927 
L 492.457164 79.019763 
L 493.167417 79.204156 
L 493.87767 79.618282 
L 494.689387 80.367054 
L 495.551837 81.476754 
L 496.515752 83.088641 
L 497.581131 85.310225 
L 498.798707 88.38977 
L 500.16848 92.50531 
L 501.690451 97.830498 
L 503.364618 104.523872 
L 505.292447 113.19713 
L 507.473938 124.082295 
L 510.061288 138.185803 
L 513.257426 156.907826 
L 518.229196 187.538447 
L 525.128795 229.834663 
L 528.933721 251.743075 
L 532.180591 269.181676 
L 535.123067 283.819101 
L 537.913346 296.594493 
L 540.551428 307.650684 
L 543.088045 317.339538 
L 545.523198 325.784382 
L 547.907618 333.264014 
L 550.241306 339.85911 
L 552.524262 345.651495 
L 554.756485 350.721517 
L 556.988708 355.243136 
L 559.170199 359.170289 
L 561.35169 362.649348 
L 563.533181 365.717794 
L 565.714671 368.412339 
L 567.946895 370.819505 
L 570.22985 372.952647 
L 572.563538 374.827381 
L 574.947958 376.461097 
L 577.433843 377.899359 
L 580.071925 379.170268 
L 582.912937 380.289002 
L 585.956878 381.247829 
L 589.355945 382.080052 
L 593.160871 382.77639 
L 597.523852 383.343867 
L 602.749284 383.792359 
L 609.344489 384.124505 
L 618.425579 384.343239 
L 622.636364 384.393764 
L 622.636364 384.393764 
" clip-path="url(#p021b54d5dc)" style="fill: none; stroke-dasharray: 5.55,2.4; stroke-dashoffset: 0; stroke: #ff0000; stroke-width: 1.5"/>
   </g>
   <g id="patch_103">
    <path d="M 90 384.48 
L 90 51.84 
" style="fill: none; stroke: #000000; stroke-width: 0.8; stroke-linejoin: miter; stroke-linecap: square"/>
   </g>
   <g id="patch_104">
    <path d="M 648 384.48 
L 648 51.84 
" style="fill: none; stroke: #000000; stroke-width: 0.8; stroke-linejoin: miter; stroke-linecap: square"/>
   </g>
   <g id="patch_105">
    <path d="M 90 384.48 
L 648 384.48 
" style="fill: none; stroke: #000000; stroke-width: 0.8; stroke-linejoin: miter; stroke-linecap: square"/>
   </g>
   <g id="patch_106">
    <path d="M 90 51.84 
L 648 51.84 
" style="fill: none; stroke: #000000; stroke-width: 0.8; stroke-linejoin: miter; stroke-linecap: square"/>
   </g>
   <g id="text_16">
    <!-- Histogram of Metropolis Samples -->
    <g transform="translate(269.58375 45.84) scale(0.12 -0.12)">
     <defs>
      <path id="DejaVuSans-48" d="M 628 4666 
L 1259 4666 
L 1259 2753 
L 3553 2753 
L 3553 4666 
L 4184 4666 
L 4184 0 
L 3553 0 
L 3553 2222 
L 1259 2222 
L 1259 0 
L 628 0 
L 628 4666 
z
" transform="scale(0.015625)"/>
      <path id="DejaVuSans-67" d="M 2906 1791 
Q 2906 2416 2648 2759 
Q 2391 3103 1925 3103 
Q 1463 3103 1205 2759 
Q 947 2416 947 1791 
Q 947 1169 1205 825 
Q 1463 481 1925 481 
Q 2391 481 2648 825 
Q 2906 1169 2906 1791 
z
M 3481 434 
Q 3481 -459 3084 -895 
Q 2688 -1331 1869 -1331 
Q 1566 -1331 1297 -1286 
Q 1028 -1241 775 -1147 
L 775 -588 
Q 1028 -725 1275 -790 
Q 1522 -856 1778 -856 
Q 2344 -856 2625 -561 
Q 2906 -266 2906 331 
L 2906 616 
Q 2728 306 2450 153 
Q 2172 0 1784 0 
Q 1141 0 747 490 
Q 353 981 353 1791 
Q 353 2603 747 3093 
Q 1141 3584 1784 3584 
Q 2172 3584 2450 3431 
Q 2728 3278 2906 2969 
L 2906 3500 
L 3481 3500 
L 3481 434 
z
" transform="scale(0.015625)"/>
      <path id="DejaVuSans-6d" d="M 3328 2828 
Q 3544 3216 3844 3400 
Q 4144 3584 4550 3584 
Q 5097 3584 5394 3201 
Q 5691 2819 5691 2113 
L 5691 0 
L 5113 0 
L 5113 2094 
Q 5113 2597 4934 2840 
Q 4756 3084 4391 3084 
Q 3944 3084 3684 2787 
Q 3425 2491 3425 1978 
L 3425 0 
L 2847 0 
L 2847 2094 
Q 2847 2600 2669 2842 
Q 2491 3084 2119 3084 
Q 1678 3084 1418 2786 
Q 1159 2488 1159 1978 
L 1159 0 
L 581 0 
L 581 3500 
L 1159 3500 
L 1159 2956 
Q 1356 3278 1631 3431 
Q 1906 3584 2284 3584 
Q 2666 3584 2933 3390 
Q 3200 3197 3328 2828 
z
" transform="scale(0.015625)"/>
      <path id="DejaVuSans-66" d="M 2375 4863 
L 2375 4384 
L 1825 4384 
Q 1516 4384 1395 4259 
Q 1275 4134 1275 3809 
L 1275 3500 
L 2222 3500 
L 2222 3053 
L 1275 3053 
L 1275 0 
L 697 0 
L 697 3053 
L 147 3053 
L 147 3500 
L 697 3500 
L 697 3744 
Q 697 4328 969 4595 
Q 1241 4863 1831 4863 
L 2375 4863 
z
" transform="scale(0.015625)"/>
      <path id="DejaVuSans-4d" d="M 628 4666 
L 1569 4666 
L 2759 1491 
L 3956 4666 
L 4897 4666 
L 4897 0 
L 4281 0 
L 4281 4097 
L 3078 897 
L 2444 897 
L 1241 4097 
L 1241 0 
L 628 0 
L 628 4666 
z
" transform="scale(0.015625)"/>
      <path id="DejaVuSans-70" d="M 1159 525 
L 1159 -1331 
L 581 -1331 
L 581 3500 
L 1159 3500 
L 1159 2969 
Q 1341 3281 1617 3432 
Q 1894 3584 2278 3584 
Q 2916 3584 3314 3078 
Q 3713 2572 3713 1747 
Q 3713 922 3314 415 
Q 2916 -91 2278 -91 
Q 1894 -91 1617 61 
Q 1341 213 1159 525 
z
M 3116 1747 
Q 3116 2381 2855 2742 
Q 2594 3103 2138 3103 
Q 1681 3103 1420 2742 
Q 1159 2381 1159 1747 
Q 1159 1113 1420 752 
Q 1681 391 2138 391 
Q 2594 391 2855 752 
Q 3116 1113 3116 1747 
z
" transform="scale(0.015625)"/>
      <path id="DejaVuSans-53" d="M 3425 4513 
L 3425 3897 
Q 3066 4069 2747 4153 
Q 2428 4238 2131 4238 
Q 1616 4238 1336 4038 
Q 1056 3838 1056 3469 
Q 1056 3159 1242 3001 
Q 1428 2844 1947 2747 
L 2328 2669 
Q 3034 2534 3370 2195 
Q 3706 1856 3706 1288 
Q 3706 609 3251 259 
Q 2797 -91 1919 -91 
Q 1588 -91 1214 -16 
Q 841 59 441 206 
L 441 856 
Q 825 641 1194 531 
Q 1563 422 1919 422 
Q 2459 422 2753 634 
Q 3047 847 3047 1241 
Q 3047 1584 2836 1778 
Q 2625 1972 2144 2069 
L 1759 2144 
Q 1053 2284 737 2584 
Q 422 2884 422 3419 
Q 422 4038 858 4394 
Q 1294 4750 2059 4750 
Q 2388 4750 2728 4690 
Q 3069 4631 3425 4513 
z
" transform="scale(0.015625)"/>
     </defs>
     <use xlink:href="#DejaVuSans-48"/>
     <use xlink:href="#DejaVuSans-69" transform="translate(75.195312 0)"/>
     <use xlink:href="#DejaVuSans-73" transform="translate(102.978516 0)"/>
     <use xlink:href="#DejaVuSans-74" transform="translate(155.078125 0)"/>
     <use xlink:href="#DejaVuSans-6f" transform="translate(194.287109 0)"/>
     <use xlink:href="#DejaVuSans-67" transform="translate(255.46875 0)"/>
     <use xlink:href="#DejaVuSans-72" transform="translate(318.945312 0)"/>
     <use xlink:href="#DejaVuSans-61" transform="translate(360.058594 0)"/>
     <use xlink:href="#DejaVuSans-6d" transform="translate(421.337891 0)"/>
     <use xlink:href="#DejaVuSans-20" transform="translate(518.75 0)"/>
     <use xlink:href="#DejaVuSans-6f" transform="translate(550.537109 0)"/>
     <use xlink:href="#DejaVuSans-66" transform="translate(611.71875 0)"/>
     <use xlink:href="#DejaVuSans-20" transform="translate(646.923828 0)"/>
     <use xlink:href="#DejaVuSans-4d" transform="translate(678.710938 0)"/>
     <use xlink:href="#DejaVuSans-65" transform="translate(764.990234 0)"/>
     <use xlink:href="#DejaVuSans-74" transform="translate(826.513672 0)"/>
     <use xlink:href="#DejaVuSans-72" transform="translate(865.722656 0)"/>
     <use xlink:href="#DejaVuSans-6f" transform="translate(904.585938 0)"/>
     <use xlink:href="#DejaVuSans-70" transform="translate(965.767578 0)"/>
     <use xlink:href="#DejaVuSans-6f" transform="translate(1029.244141 0)"/>
     <use xlink:href="#DejaVuSans-6c" transform="translate(1090.425781 0)"/>
     <use xlink:href="#DejaVuSans-69" transform="translate(1118.208984 0)"/>
     <use xlink:href="#DejaVuSans-73" transform="translate(1145.992188 0)"/>
     <use xlink:href="#DejaVuSans-20" transform="translate(1198.091797 0)"/>
     <use xlink:href="#DejaVuSans-53" transform="translate(1229.878906 0)"/>
     <use xlink:href="#DejaVuSans-61" transform="translate(1293.355469 0)"/>
     <use xlink:href="#DejaVuSans-6d" transform="translate(1354.634766 0)"/>
     <use xlink:href="#DejaVuSans-70" transform="translate(1452.046875 0)"/>
     <use xlink:href="#DejaVuSans-6c" transform="translate(1515.523438 0)"/>
     <use xlink:href="#DejaVuSans-65" transform="translate(1543.306641 0)"/>
     <use xlink:href="#DejaVuSans-73" transform="translate(1604.830078 0)"/>
    </g>
   </g>
   <g id="legend_1">
    <g id="patch_107">
     <path d="M 279.83125 89.19625 
L 458.16875 89.19625 
Q 460.16875 89.19625 460.16875 87.19625 
L 460.16875 58.84 
Q 460.16875 56.84 458.16875 56.84 
L 279.83125 56.84 
Q 277.83125 56.84 277.83125 58.84 
L 277.83125 87.19625 
Q 277.83125 89.19625 279.83125 89.19625 
z
" style="fill: #ffffff; opacity: 0.8; stroke: #cccccc; stroke-linejoin: miter"/>
    </g>
    <g id="line2d_23">
     <path d="M 281.83125 64.938437 
L 291.83125 64.938437 
L 301.83125 64.938437 
" style="fill: none; stroke-dasharray: 5.55,2.4; stroke-dashoffset: 0; stroke: #ff0000; stroke-width: 1.5"/>
    </g>
    <g id="text_17">
     <!-- Analytical Probability Density -->
     <g transform="translate(309.83125 68.438437) scale(0.1 -0.1)">
      <defs>
       <path id="DejaVuSans-41" d="M 2188 4044 
L 1331 1722 
L 3047 1722 
L 2188 4044 
z
M 1831 4666 
L 2547 4666 
L 4325 0 
L 3669 0 
L 3244 1197 
L 1141 1197 
L 716 0 
L 50 0 
L 1831 4666 
z
" transform="scale(0.015625)"/>
       <path id="DejaVuSans-63" d="M 3122 3366 
L 3122 2828 
Q 2878 2963 2633 3030 
Q 2388 3097 2138 3097 
Q 1578 3097 1268 2742 
Q 959 2388 959 1747 
Q 959 1106 1268 751 
Q 1578 397 2138 397 
Q 2388 397 2633 464 
Q 2878 531 3122 666 
L 3122 134 
Q 2881 22 2623 -34 
Q 2366 -91 2075 -91 
Q 1284 -91 818 406 
Q 353 903 353 1747 
Q 353 2603 823 3093 
Q 1294 3584 2113 3584 
Q 2378 3584 2631 3529 
Q 2884 3475 3122 3366 
z
" transform="scale(0.015625)"/>
      </defs>
      <use xlink:href="#DejaVuSans-41"/>
      <use xlink:href="#DejaVuSans-6e" transform="translate(68.408203 0)"/>
      <use xlink:href="#DejaVuSans-61" transform="translate(131.787109 0)"/>
      <use xlink:href="#DejaVuSans-6c" transform="translate(193.066406 0)"/>
      <use xlink:href="#DejaVuSans-79" transform="translate(220.849609 0)"/>
      <use xlink:href="#DejaVuSans-74" transform="translate(280.029297 0)"/>
      <use xlink:href="#DejaVuSans-69" transform="translate(319.238281 0)"/>
      <use xlink:href="#DejaVuSans-63" transform="translate(347.021484 0)"/>
      <use xlink:href="#DejaVuSans-61" transform="translate(402.001953 0)"/>
      <use xlink:href="#DejaVuSans-6c" transform="translate(463.28125 0)"/>
      <use xlink:href="#DejaVuSans-20" transform="translate(491.064453 0)"/>
      <use xlink:href="#DejaVuSans-50" transform="translate(522.851562 0)"/>
      <use xlink:href="#DejaVuSans-72" transform="translate(581.404297 0)"/>
      <use xlink:href="#DejaVuSans-6f" transform="translate(620.267578 0)"/>
      <use xlink:href="#DejaVuSans-62" transform="translate(681.449219 0)"/>
      <use xlink:href="#DejaVuSans-61" transform="translate(744.925781 0)"/>
      <use xlink:href="#DejaVuSans-62" transform="translate(806.205078 0)"/>
      <use xlink:href="#DejaVuSans-69" transform="translate(869.681641 0)"/>
      <use xlink:href="#DejaVuSans-6c" transform="translate(897.464844 0)"/>
      <use xlink:href="#DejaVuSans-69" transform="translate(925.248047 0)"/>
      <use xlink:href="#DejaVuSans-74" transform="translate(953.03125 0)"/>
      <use xlink:href="#DejaVuSans-79" transform="translate(992.240234 0)"/>
      <use xlink:href="#DejaVuSans-20" transform="translate(1051.419922 0)"/>
      <use xlink:href="#DejaVuSans-44" transform="translate(1083.207031 0)"/>
      <use xlink:href="#DejaVuSans-65" transform="translate(1160.208984 0)"/>
      <use xlink:href="#DejaVuSans-6e" transform="translate(1221.732422 0)"/>
      <use xlink:href="#DejaVuSans-73" transform="translate(1285.111328 0)"/>
      <use xlink:href="#DejaVuSans-69" transform="translate(1337.210938 0)"/>
      <use xlink:href="#DejaVuSans-74" transform="translate(1364.994141 0)"/>
      <use xlink:href="#DejaVuSans-79" transform="translate(1404.203125 0)"/>
     </g>
    </g>
    <g id="patch_108">
     <path d="M 281.83125 83.116562 
L 301.83125 83.116562 
L 301.83125 76.116562 
L 281.83125 76.116562 
z
" style="fill: #87ceeb; opacity: 0.7; stroke: #000000; stroke-linejoin: miter"/>
    </g>
    <g id="text_18">
     <!-- Metropolis Samples -->
     <g transform="translate(309.83125 83.116562) scale(0.1 -0.1)">
      <use xlink:href="#DejaVuSans-4d"/>
      <use xlink:href="#DejaVuSans-65" transform="translate(86.279297 0)"/>
      <use xlink:href="#DejaVuSans-74" transform="translate(147.802734 0)"/>
      <use xlink:href="#DejaVuSans-72" transform="translate(187.011719 0)"/>
      <use xlink:href="#DejaVuSans-6f" transform="translate(225.875 0)"/>
      <use xlink:href="#DejaVuSans-70" transform="translate(287.056641 0)"/>
      <use xlink:href="#DejaVuSans-6f" transform="translate(350.533203 0)"/>
      <use xlink:href="#DejaVuSans-6c" transform="translate(411.714844 0)"/>
      <use xlink:href="#DejaVuSans-69" transform="translate(439.498047 0)"/>
      <use xlink:href="#DejaVuSans-73" transform="translate(467.28125 0)"/>
      <use xlink:href="#DejaVuSans-20" transform="translate(519.380859 0)"/>
      <use xlink:href="#DejaVuSans-53" transform="translate(551.167969 0)"/>
      <use xlink:href="#DejaVuSans-61" transform="translate(614.644531 0)"/>
      <use xlink:href="#DejaVuSans-6d" transform="translate(675.923828 0)"/>
      <use xlink:href="#DejaVuSans-70" transform="translate(773.335938 0)"/>
      <use xlink:href="#DejaVuSans-6c" transform="translate(836.8125 0)"/>
      <use xlink:href="#DejaVuSans-65" transform="translate(864.595703 0)"/>
      <use xlink:href="#DejaVuSans-73" transform="translate(926.119141 0)"/>
     </g>
    </g>
   </g>
  </g>
 </g>
 <defs>
  <clipPath id="p021b54d5dc">
   <rect x="90" y="51.84" width="558" height="332.64"/>
  </clipPath>
 </defs>
</svg>
