<?xml version="1.0" encoding="utf-8" standalone="no"?>
<!DOCTYPE svg PUBLIC "-//W3C//DTD SVG 1.1//EN"
  "http://www.w3.org/Graphics/SVG/1.1/DTD/svg11.dtd">
<svg xmlns:xlink="http://www.w3.org/1999/xlink" width="460.8pt" height="345.6pt" viewBox="0 0 460.8 345.6" xmlns="http://www.w3.org/2000/svg" version="1.1">
 <metadata>
  <rdf:RDF xmlns:dc="http://purl.org/dc/elements/1.1/" xmlns:cc="http://creativecommons.org/ns#" xmlns:rdf="http://www.w3.org/1999/02/22-rdf-syntax-ns#">
   <cc:Work>
    <dc:type rdf:resource="http://purl.org/dc/dcmitype/StillImage"/>
    <dc:date>2025-12-10T01:07:45.675485</dc:date>
    <dc:format>image/svg+xml</dc:format>
    <dc:creator>
     <cc:Agent>
      <dc:title>Matplotlib v3.10.7, https://matplotlib.org/</dc:title>
     </cc:Agent>
    </dc:creator>
   </cc:Work>
  </rdf:RDF>
 </metadata>
 <defs>
  <style type="text/css">*{stroke-linejoin: round; stroke-linecap: butt}</style>
 </defs>
 <g id="figure_1">
  <g id="patch_1">
   <path d="M 0 345.6 
L 460.8 345.6 
L 460.8 0 
L 0 0 
z
" style="fill: #ffffff"/>
  </g>
  <g id="axes_1">
   <g id="patch_2">
    <path d="M 57.6 307.584 
L 414.72 307.584 
L 414.72 41.472 
L 57.6 41.472 
z
" style="fill: #ffffff"/>
   </g>
   <g id="matplotlib.axis_1">
    <g id="xtick_1">
     <g id="line2d_1">
      <path d="M 73.832727 307.584 
L 73.832727 41.472 
" clip-path="url(#p7c7d8c7a4e)" style="fill: none; stroke: #b0b0b0; stroke-width: 0.8; stroke-linecap: square"/>
     </g>
     <g id="line2d_2">
      <defs>
       <path id="mcb9fcbdc97" d="M 0 0 
L 0 3.5 
" style="stroke: #000000; stroke-width: 0.8"/>
      </defs>
      <g>
       <use xlink:href="#mcb9fcbdc97" x="73.832727" y="307.584" style="stroke: #000000; stroke-width: 0.8"/>
      </g>
     </g>
     <g id="text_1">
      <!-- 0 -->
      <g transform="translate(70.651477 322.182437) scale(0.1 -0.1)">
       <defs>
        <path id="DejaVuSans-30" d="M 2034 4250 
Q 1547 4250 1301 3770 
Q 1056 3291 1056 2328 
Q 1056 1369 1301 889 
Q 1547 409 2034 409 
Q 2525 409 2770 889 
Q 3016 1369 3016 2328 
Q 3016 3291 2770 3770 
Q 2525 4250 2034 4250 
z
M 2034 4750 
Q 2819 4750 3233 4129 
Q 3647 3509 3647 2328 
Q 3647 1150 3233 529 
Q 2819 -91 2034 -91 
Q 1250 -91 836 529 
Q 422 1150 422 2328 
Q 422 3509 836 4129 
Q 1250 4750 2034 4750 
z
" transform="scale(0.015625)"/>
       </defs>
       <use xlink:href="#DejaVuSans-30"/>
      </g>
     </g>
    </g>
    <g id="xtick_2">
     <g id="line2d_3">
      <path d="M 126.622084 307.584 
L 126.622084 41.472 
" clip-path="url(#p7c7d8c7a4e)" style="fill: none; stroke: #b0b0b0; stroke-width: 0.8; stroke-linecap: square"/>
     </g>
     <g id="line2d_4">
      <g>
       <use xlink:href="#mcb9fcbdc97" x="126.622084" y="307.584" style="stroke: #000000; stroke-width: 0.8"/>
      </g>
     </g>
     <g id="text_2">
      <!-- 20 -->
      <g transform="translate(120.259584 322.182437) scale(0.1 -0.1)">
       <defs>
        <path id="DejaVuSans-32" d="M 1228 531 
L 3431 531 
L 3431 0 
L 469 0 
L 469 531 
Q 828 903 1448 1529 
Q 2069 2156 2228 2338 
Q 2531 2678 2651 2914 
Q 2772 3150 2772 3378 
Q 2772 3750 2511 3984 
Q 2250 4219 1831 4219 
Q 1534 4219 1204 4116 
Q 875 4013 500 3803 
L 500 4441 
Q 881 4594 1212 4672 
Q 1544 4750 1819 4750 
Q 2544 4750 2975 4387 
Q 3406 4025 3406 3419 
Q 3406 3131 3298 2873 
Q 3191 2616 2906 2266 
Q 2828 2175 2409 1742 
Q 1991 1309 1228 531 
z
" transform="scale(0.015625)"/>
       </defs>
       <use xlink:href="#DejaVuSans-32"/>
       <use xlink:href="#DejaVuSans-30" transform="translate(63.623047 0)"/>
      </g>
     </g>
    </g>
    <g id="xtick_3">
     <g id="line2d_5">
      <path d="M 179.411441 307.584 
L 179.411441 41.472 
" clip-path="url(#p7c7d8c7a4e)" style="fill: none; stroke: #b0b0b0; stroke-width: 0.8; stroke-linecap: square"/>
     </g>
     <g id="line2d_6">
      <g>
       <use xlink:href="#mcb9fcbdc97" x="179.411441" y="307.584" style="stroke: #000000; stroke-width: 0.8"/>
      </g>
     </g>
     <g id="text_3">
      <!-- 40 -->
      <g transform="translate(173.048941 322.182437) scale(0.1 -0.1)">
       <defs>
        <path id="DejaVuSans-34" d="M 2419 4116 
L 825 1625 
L 2419 1625 
L 2419 4116 
z
M 2253 4666 
L 3047 4666 
L 3047 1625 
L 3713 1625 
L 3713 1100 
L 3047 1100 
L 3047 0 
L 2419 0 
L 2419 1100 
L 313 1100 
L 313 1709 
L 2253 4666 
z
" transform="scale(0.015625)"/>
       </defs>
       <use xlink:href="#DejaVuSans-34"/>
       <use xlink:href="#DejaVuSans-30" transform="translate(63.623047 0)"/>
      </g>
     </g>
    </g>
    <g id="xtick_4">
     <g id="line2d_7">
      <path d="M 232.200798 307.584 
L 232.200798 41.472 
" clip-path="url(#p7c7d8c7a4e)" style="fill: none; stroke: #b0b0b0; stroke-width: 0.8; stroke-linecap: square"/>
     </g>
     <g id="line2d_8">
      <g>
       <use xlink:href="#mcb9fcbdc97" x="232.200798" y="307.584" style="stroke: #000000; stroke-width: 0.8"/>
      </g>
     </g>
     <g id="text_4">
      <!-- 60 -->
      <g transform="translate(225.838298 322.182437) scale(0.1 -0.1)">
       <defs>
        <path id="DejaVuSans-36" d="M 2113 2584 
Q 1688 2584 1439 2293 
Q 1191 2003 1191 1497 
Q 1191 994 1439 701 
Q 1688 409 2113 409 
Q 2538 409 2786 701 
Q 3034 994 3034 1497 
Q 3034 2003 2786 2293 
Q 2538 2584 2113 2584 
z
M 3366 4563 
L 3366 3988 
Q 3128 4100 2886 4159 
Q 2644 4219 2406 4219 
Q 1781 4219 1451 3797 
Q 1122 3375 1075 2522 
Q 1259 2794 1537 2939 
Q 1816 3084 2150 3084 
Q 2853 3084 3261 2657 
Q 3669 2231 3669 1497 
Q 3669 778 3244 343 
Q 2819 -91 2113 -91 
Q 1303 -91 875 529 
Q 447 1150 447 2328 
Q 447 3434 972 4092 
Q 1497 4750 2381 4750 
Q 2619 4750 2861 4703 
Q 3103 4656 3366 4563 
z
" transform="scale(0.015625)"/>
       </defs>
       <use xlink:href="#DejaVuSans-36"/>
       <use xlink:href="#DejaVuSans-30" transform="translate(63.623047 0)"/>
      </g>
     </g>
    </g>
    <g id="xtick_5">
     <g id="line2d_9">
      <path d="M 284.990155 307.584 
L 284.990155 41.472 
" clip-path="url(#p7c7d8c7a4e)" style="fill: none; stroke: #b0b0b0; stroke-width: 0.8; stroke-linecap: square"/>
     </g>
     <g id="line2d_10">
      <g>
       <use xlink:href="#mcb9fcbdc97" x="284.990155" y="307.584" style="stroke: #000000; stroke-width: 0.8"/>
      </g>
     </g>
     <g id="text_5">
      <!-- 80 -->
      <g transform="translate(278.627655 322.182437) scale(0.1 -0.1)">
       <defs>
        <path id="DejaVuSans-38" d="M 2034 2216 
Q 1584 2216 1326 1975 
Q 1069 1734 1069 1313 
Q 1069 891 1326 650 
Q 1584 409 2034 409 
Q 2484 409 2743 651 
Q 3003 894 3003 1313 
Q 3003 1734 2745 1975 
Q 2488 2216 2034 2216 
z
M 1403 2484 
Q 997 2584 770 2862 
Q 544 3141 544 3541 
Q 544 4100 942 4425 
Q 1341 4750 2034 4750 
Q 2731 4750 3128 4425 
Q 3525 4100 3525 3541 
Q 3525 3141 3298 2862 
Q 3072 2584 2669 2484 
Q 3125 2378 3379 2068 
Q 3634 1759 3634 1313 
Q 3634 634 3220 271 
Q 2806 -91 2034 -91 
Q 1263 -91 848 271 
Q 434 634 434 1313 
Q 434 1759 690 2068 
Q 947 2378 1403 2484 
z
M 1172 3481 
Q 1172 3119 1398 2916 
Q 1625 2713 2034 2713 
Q 2441 2713 2670 2916 
Q 2900 3119 2900 3481 
Q 2900 3844 2670 4047 
Q 2441 4250 2034 4250 
Q 1625 4250 1398 4047 
Q 1172 3844 1172 3481 
z
" transform="scale(0.015625)"/>
       </defs>
       <use xlink:href="#DejaVuSans-38"/>
       <use xlink:href="#DejaVuSans-30" transform="translate(63.623047 0)"/>
      </g>
     </g>
    </g>
    <g id="xtick_6">
     <g id="line2d_11">
      <path d="M 337.779512 307.584 
L 337.779512 41.472 
" clip-path="url(#p7c7d8c7a4e)" style="fill: none; stroke: #b0b0b0; stroke-width: 0.8; stroke-linecap: square"/>
     </g>
     <g id="line2d_12">
      <g>
       <use xlink:href="#mcb9fcbdc97" x="337.779512" y="307.584" style="stroke: #000000; stroke-width: 0.8"/>
      </g>
     </g>
     <g id="text_6">
      <!-- 100 -->
      <g transform="translate(328.235762 322.182437) scale(0.1 -0.1)">
       <defs>
        <path id="DejaVuSans-31" d="M 794 531 
L 1825 531 
L 1825 4091 
L 703 3866 
L 703 4441 
L 1819 4666 
L 2450 4666 
L 2450 531 
L 3481 531 
L 3481 0 
L 794 0 
L 794 531 
z
" transform="scale(0.015625)"/>
       </defs>
       <use xlink:href="#DejaVuSans-31"/>
       <use xlink:href="#DejaVuSans-30" transform="translate(63.623047 0)"/>
       <use xlink:href="#DejaVuSans-30" transform="translate(127.246094 0)"/>
      </g>
     </g>
    </g>
    <g id="xtick_7">
     <g id="line2d_13">
      <path d="M 390.568869 307.584 
L 390.568869 41.472 
" clip-path="url(#p7c7d8c7a4e)" style="fill: none; stroke: #b0b0b0; stroke-width: 0.8; stroke-linecap: square"/>
     </g>
     <g id="line2d_14">
      <g>
       <use xlink:href="#mcb9fcbdc97" x="390.568869" y="307.584" style="stroke: #000000; stroke-width: 0.8"/>
      </g>
     </g>
     <g id="text_7">
      <!-- 120 -->
      <g transform="translate(381.025119 322.182437) scale(0.1 -0.1)">
       <use xlink:href="#DejaVuSans-31"/>
       <use xlink:href="#DejaVuSans-32" transform="translate(63.623047 0)"/>
       <use xlink:href="#DejaVuSans-30" transform="translate(127.246094 0)"/>
      </g>
     </g>
    </g>
    <g id="text_8">
     <!-- Iteration -->
     <g transform="translate(214.951406 335.860562) scale(0.1 -0.1)">
      <defs>
       <path id="DejaVuSans-49" d="M 628 4666 
L 1259 4666 
L 1259 0 
L 628 0 
L 628 4666 
z
" transform="scale(0.015625)"/>
       <path id="DejaVuSans-74" d="M 1172 4494 
L 1172 3500 
L 2356 3500 
L 2356 3053 
L 1172 3053 
L 1172 1153 
Q 1172 725 1289 603 
Q 1406 481 1766 481 
L 2356 481 
L 2356 0 
L 1766 0 
Q 1100 0 847 248 
Q 594 497 594 1153 
L 594 3053 
L 172 3053 
L 172 3500 
L 594 3500 
L 594 4494 
L 1172 4494 
z
" transform="scale(0.015625)"/>
       <path id="DejaVuSans-65" d="M 3597 1894 
L 3597 1613 
L 953 1613 
Q 991 1019 1311 708 
Q 1631 397 2203 397 
Q 2534 397 2845 478 
Q 3156 559 3463 722 
L 3463 178 
Q 3153 47 2828 -22 
Q 2503 -91 2169 -91 
Q 1331 -91 842 396 
Q 353 884 353 1716 
Q 353 2575 817 3079 
Q 1281 3584 2069 3584 
Q 2775 3584 3186 3129 
Q 3597 2675 3597 1894 
z
M 3022 2063 
Q 3016 2534 2758 2815 
Q 2500 3097 2075 3097 
Q 1594 3097 1305 2825 
Q 1016 2553 972 2059 
L 3022 2063 
z
" transform="scale(0.015625)"/>
       <path id="DejaVuSans-72" d="M 2631 2963 
Q 2534 3019 2420 3045 
Q 2306 3072 2169 3072 
Q 1681 3072 1420 2755 
Q 1159 2438 1159 1844 
L 1159 0 
L 581 0 
L 581 3500 
L 1159 3500 
L 1159 2956 
Q 1341 3275 1631 3429 
Q 1922 3584 2338 3584 
Q 2397 3584 2469 3576 
Q 2541 3569 2628 3553 
L 2631 2963 
z
" transform="scale(0.015625)"/>
       <path id="DejaVuSans-61" d="M 2194 1759 
Q 1497 1759 1228 1600 
Q 959 1441 959 1056 
Q 959 750 1161 570 
Q 1363 391 1709 391 
Q 2188 391 2477 730 
Q 2766 1069 2766 1631 
L 2766 1759 
L 2194 1759 
z
M 3341 1997 
L 3341 0 
L 2766 0 
L 2766 531 
Q 2569 213 2275 61 
Q 1981 -91 1556 -91 
Q 1019 -91 701 211 
Q 384 513 384 1019 
Q 384 1609 779 1909 
Q 1175 2209 1959 2209 
L 2766 2209 
L 2766 2266 
Q 2766 2663 2505 2880 
Q 2244 3097 1772 3097 
Q 1472 3097 1187 3025 
Q 903 2953 641 2809 
L 641 3341 
Q 956 3463 1253 3523 
Q 1550 3584 1831 3584 
Q 2591 3584 2966 3190 
Q 3341 2797 3341 1997 
z
" transform="scale(0.015625)"/>
       <path id="DejaVuSans-69" d="M 603 3500 
L 1178 3500 
L 1178 0 
L 603 0 
L 603 3500 
z
M 603 4863 
L 1178 4863 
L 1178 4134 
L 603 4134 
L 603 4863 
z
" transform="scale(0.015625)"/>
       <path id="DejaVuSans-6f" d="M 1959 3097 
Q 1497 3097 1228 2736 
Q 959 2375 959 1747 
Q 959 1119 1226 758 
Q 1494 397 1959 397 
Q 2419 397 2687 759 
Q 2956 1122 2956 1747 
Q 2956 2369 2687 2733 
Q 2419 3097 1959 3097 
z
M 1959 3584 
Q 2709 3584 3137 3096 
Q 3566 2609 3566 1747 
Q 3566 888 3137 398 
Q 2709 -91 1959 -91 
Q 1206 -91 779 398 
Q 353 888 353 1747 
Q 353 2609 779 3096 
Q 1206 3584 1959 3584 
z
" transform="scale(0.015625)"/>
       <path id="DejaVuSans-6e" d="M 3513 2113 
L 3513 0 
L 2938 0 
L 2938 2094 
Q 2938 2591 2744 2837 
Q 2550 3084 2163 3084 
Q 1697 3084 1428 2787 
Q 1159 2491 1159 1978 
L 1159 0 
L 581 0 
L 581 3500 
L 1159 3500 
L 1159 2956 
Q 1366 3272 1645 3428 
Q 1925 3584 2291 3584 
Q 2894 3584 3203 3211 
Q 3513 2838 3513 2113 
z
" transform="scale(0.015625)"/>
      </defs>
      <use xlink:href="#DejaVuSans-49"/>
      <use xlink:href="#DejaVuSans-74" transform="translate(29.492188 0)"/>
      <use xlink:href="#DejaVuSans-65" transform="translate(68.701172 0)"/>
      <use xlink:href="#DejaVuSans-72" transform="translate(130.224609 0)"/>
      <use xlink:href="#DejaVuSans-61" transform="translate(171.337891 0)"/>
      <use xlink:href="#DejaVuSans-74" transform="translate(232.617188 0)"/>
      <use xlink:href="#DejaVuSans-69" transform="translate(271.826172 0)"/>
      <use xlink:href="#DejaVuSans-6f" transform="translate(299.609375 0)"/>
      <use xlink:href="#DejaVuSans-6e" transform="translate(360.791016 0)"/>
     </g>
    </g>
   </g>
   <g id="matplotlib.axis_2">
    <g id="ytick_1">
     <g id="line2d_15">
      <path d="M 57.6 295.488405 
L 414.72 295.488405 
" clip-path="url(#p7c7d8c7a4e)" style="fill: none; stroke: #b0b0b0; stroke-width: 0.8; stroke-linecap: square"/>
     </g>
     <g id="line2d_16">
      <defs>
       <path id="m140f456555" d="M 0 0 
L -3.5 0 
" style="stroke: #000000; stroke-width: 0.8"/>
      </defs>
      <g>
       <use xlink:href="#m140f456555" x="57.6" y="295.488405" style="stroke: #000000; stroke-width: 0.8"/>
      </g>
     </g>
     <g id="text_9">
      <!-- 1.0 -->
      <g transform="translate(34.696875 299.287624) scale(0.1 -0.1)">
       <defs>
        <path id="DejaVuSans-2e" d="M 684 794 
L 1344 794 
L 1344 0 
L 684 0 
L 684 794 
z
" transform="scale(0.015625)"/>
       </defs>
       <use xlink:href="#DejaVuSans-31"/>
       <use xlink:href="#DejaVuSans-2e" transform="translate(63.623047 0)"/>
       <use xlink:href="#DejaVuSans-30" transform="translate(95.410156 0)"/>
      </g>
     </g>
    </g>
    <g id="ytick_2">
     <g id="line2d_17">
      <path d="M 57.6 241.964102 
L 414.72 241.964102 
" clip-path="url(#p7c7d8c7a4e)" style="fill: none; stroke: #b0b0b0; stroke-width: 0.8; stroke-linecap: square"/>
     </g>
     <g id="line2d_18">
      <g>
       <use xlink:href="#m140f456555" x="57.6" y="241.964102" style="stroke: #000000; stroke-width: 0.8"/>
      </g>
     </g>
     <g id="text_10">
      <!-- 1.2 -->
      <g transform="translate(34.696875 245.763321) scale(0.1 -0.1)">
       <use xlink:href="#DejaVuSans-31"/>
       <use xlink:href="#DejaVuSans-2e" transform="translate(63.623047 0)"/>
       <use xlink:href="#DejaVuSans-32" transform="translate(95.410156 0)"/>
      </g>
     </g>
    </g>
    <g id="ytick_3">
     <g id="line2d_19">
      <path d="M 57.6 188.439798 
L 414.72 188.439798 
" clip-path="url(#p7c7d8c7a4e)" style="fill: none; stroke: #b0b0b0; stroke-width: 0.8; stroke-linecap: square"/>
     </g>
     <g id="line2d_20">
      <g>
       <use xlink:href="#m140f456555" x="57.6" y="188.439798" style="stroke: #000000; stroke-width: 0.8"/>
      </g>
     </g>
     <g id="text_11">
      <!-- 1.4 -->
      <g transform="translate(34.696875 192.239017) scale(0.1 -0.1)">
       <use xlink:href="#DejaVuSans-31"/>
       <use xlink:href="#DejaVuSans-2e" transform="translate(63.623047 0)"/>
       <use xlink:href="#DejaVuSans-34" transform="translate(95.410156 0)"/>
      </g>
     </g>
    </g>
    <g id="ytick_4">
     <g id="line2d_21">
      <path d="M 57.6 134.915495 
L 414.72 134.915495 
" clip-path="url(#p7c7d8c7a4e)" style="fill: none; stroke: #b0b0b0; stroke-width: 0.8; stroke-linecap: square"/>
     </g>
     <g id="line2d_22">
      <g>
       <use xlink:href="#m140f456555" x="57.6" y="134.915495" style="stroke: #000000; stroke-width: 0.8"/>
      </g>
     </g>
     <g id="text_12">
      <!-- 1.6 -->
      <g transform="translate(34.696875 138.714714) scale(0.1 -0.1)">
       <use xlink:href="#DejaVuSans-31"/>
       <use xlink:href="#DejaVuSans-2e" transform="translate(63.623047 0)"/>
       <use xlink:href="#DejaVuSans-36" transform="translate(95.410156 0)"/>
      </g>
     </g>
    </g>
    <g id="ytick_5">
     <g id="line2d_23">
      <path d="M 57.6 81.391191 
L 414.72 81.391191 
" clip-path="url(#p7c7d8c7a4e)" style="fill: none; stroke: #b0b0b0; stroke-width: 0.8; stroke-linecap: square"/>
     </g>
     <g id="line2d_24">
      <g>
       <use xlink:href="#m140f456555" x="57.6" y="81.391191" style="stroke: #000000; stroke-width: 0.8"/>
      </g>
     </g>
     <g id="text_13">
      <!-- 1.8 -->
      <g transform="translate(34.696875 85.19041) scale(0.1 -0.1)">
       <use xlink:href="#DejaVuSans-31"/>
       <use xlink:href="#DejaVuSans-2e" transform="translate(63.623047 0)"/>
       <use xlink:href="#DejaVuSans-38" transform="translate(95.410156 0)"/>
      </g>
     </g>
    </g>
    <g id="text_14">
     <!-- Theta value -->
     <g transform="translate(28.617187 204.098312) rotate(-90) scale(0.1 -0.1)">
      <defs>
       <path id="DejaVuSans-54" d="M -19 4666 
L 3928 4666 
L 3928 4134 
L 2272 4134 
L 2272 0 
L 1638 0 
L 1638 4134 
L -19 4134 
L -19 4666 
z
" transform="scale(0.015625)"/>
       <path id="DejaVuSans-68" d="M 3513 2113 
L 3513 0 
L 2938 0 
L 2938 2094 
Q 2938 2591 2744 2837 
Q 2550 3084 2163 3084 
Q 1697 3084 1428 2787 
Q 1159 2491 1159 1978 
L 1159 0 
L 581 0 
L 581 4863 
L 1159 4863 
L 1159 2956 
Q 1366 3272 1645 3428 
Q 1925 3584 2291 3584 
Q 2894 3584 3203 3211 
Q 3513 2838 3513 2113 
z
" transform="scale(0.015625)"/>
       <path id="DejaVuSans-20" transform="scale(0.015625)"/>
       <path id="DejaVuSans-76" d="M 191 3500 
L 800 3500 
L 1894 563 
L 2988 3500 
L 3597 3500 
L 2284 0 
L 1503 0 
L 191 3500 
z
" transform="scale(0.015625)"/>
       <path id="DejaVuSans-6c" d="M 603 4863 
L 1178 4863 
L 1178 0 
L 603 0 
L 603 4863 
z
" transform="scale(0.015625)"/>
       <path id="DejaVuSans-75" d="M 544 1381 
L 544 3500 
L 1119 3500 
L 1119 1403 
Q 1119 906 1312 657 
Q 1506 409 1894 409 
Q 2359 409 2629 706 
Q 2900 1003 2900 1516 
L 2900 3500 
L 3475 3500 
L 3475 0 
L 2900 0 
L 2900 538 
Q 2691 219 2414 64 
Q 2138 -91 1772 -91 
Q 1169 -91 856 284 
Q 544 659 544 1381 
z
M 1991 3584 
L 1991 3584 
z
" transform="scale(0.015625)"/>
      </defs>
      <use xlink:href="#DejaVuSans-54"/>
      <use xlink:href="#DejaVuSans-68" transform="translate(61.083984 0)"/>
      <use xlink:href="#DejaVuSans-65" transform="translate(124.462891 0)"/>
      <use xlink:href="#DejaVuSans-74" transform="translate(185.986328 0)"/>
      <use xlink:href="#DejaVuSans-61" transform="translate(225.195312 0)"/>
      <use xlink:href="#DejaVuSans-20" transform="translate(286.474609 0)"/>
      <use xlink:href="#DejaVuSans-76" transform="translate(318.261719 0)"/>
      <use xlink:href="#DejaVuSans-61" transform="translate(377.441406 0)"/>
      <use xlink:href="#DejaVuSans-6c" transform="translate(438.720703 0)"/>
      <use xlink:href="#DejaVuSans-75" transform="translate(466.503906 0)"/>
      <use xlink:href="#DejaVuSans-65" transform="translate(529.882812 0)"/>
     </g>
    </g>
   </g>
   <g id="line2d_25">
    <path d="M 73.832727 53.568 
L 76.472195 77.312043 
L 79.111663 99.097646 
L 81.751131 118.341908 
L 84.390599 135.511917 
L 87.030067 151.558014 
L 89.669534 165.472909 
L 92.309002 177.974072 
L 94.94847 189.747373 
L 97.587938 200.385515 
L 100.227406 210.099598 
L 102.866874 218.822419 
L 105.506341 226.329613 
L 108.145809 233.3029 
L 110.785277 239.544143 
L 113.424745 244.978435 
L 116.064213 250.05376 
L 118.703681 254.530515 
L 121.343149 258.436716 
L 123.982616 262.071706 
L 126.622084 265.328331 
L 129.261552 268.425413 
L 131.90102 271.234218 
L 134.540488 273.613131 
L 137.179956 275.838515 
L 139.819424 277.725163 
L 142.458891 279.494766 
L 145.098359 281.106956 
L 147.737827 282.52095 
L 150.377295 283.862663 
L 153.016763 285.0068 
L 155.656231 286.042984 
L 158.295698 287.013439 
L 160.935166 287.861238 
L 163.574634 288.62168 
L 166.214102 289.293517 
L 168.85357 289.898685 
L 171.493038 290.492734 
L 174.132506 290.989562 
L 176.771973 291.447857 
L 179.411441 291.869913 
L 182.050909 292.23045 
L 184.690377 292.54727 
L 187.329845 292.834096 
L 189.969313 293.097548 
L 192.60878 293.331622 
L 195.248248 293.543937 
L 197.887716 293.732145 
L 200.527184 293.902189 
L 203.166652 294.065548 
L 205.80612 294.212731 
L 208.445588 294.341387 
L 211.085055 294.453052 
L 213.724523 294.558363 
L 216.363991 294.65009 
L 219.003459 294.736911 
L 221.642927 294.811521 
L 224.282395 294.879644 
L 226.921863 294.939783 
L 229.56133 294.99316 
L 232.200798 295.043638 
L 234.840266 295.08812 
L 237.479734 295.128149 
L 240.119202 295.163318 
L 242.75867 295.195681 
L 245.398137 295.22445 
L 248.037605 295.249816 
L 250.677073 295.274014 
L 253.316541 295.287496 
L 255.956009 295.307736 
L 258.595477 295.325362 
L 261.234945 295.3418 
L 263.874412 295.356244 
L 266.51388 295.369706 
L 269.153348 295.429927 
L 271.792816 295.435893 
L 274.432284 295.441278 
L 277.071752 295.446027 
L 279.71122 295.450123 
L 282.350687 295.454025 
L 284.990155 295.457545 
L 287.629623 295.460629 
L 290.269091 295.463295 
L 292.908559 295.465708 
L 295.548027 295.467908 
L 298.187494 295.469967 
L 300.826962 295.471803 
L 303.46643 295.473529 
L 306.105898 295.475002 
L 308.745366 295.476415 
L 311.384834 295.477585 
L 314.024302 295.478559 
L 316.663769 295.479544 
L 319.303237 295.480443 
L 321.942705 295.481261 
L 324.582173 295.481979 
L 327.221641 295.482605 
L 329.861109 295.483168 
L 332.500576 295.483707 
L 335.140044 295.484161 
L 337.779512 295.484575 
L 340.41898 295.484949 
L 343.058448 295.485299 
L 345.697916 295.485643 
L 348.337384 295.485918 
L 350.976851 295.486163 
L 353.616319 295.486298 
L 356.255787 295.486507 
L 358.895255 295.486693 
L 361.534723 295.486869 
L 364.174191 295.48703 
L 366.813659 295.487155 
L 369.453126 295.487274 
L 372.092594 295.487384 
L 374.732062 295.487586 
L 377.37153 295.487668 
L 380.010998 295.48772 
L 382.650466 295.487787 
L 385.289933 295.48785 
L 387.929401 295.48782 
L 390.568869 295.487904 
L 393.208337 295.487951 
L 395.847805 295.487995 
L 398.487273 295.488 
" clip-path="url(#p7c7d8c7a4e)" style="fill: none; stroke: #1f77b4; stroke-width: 1.5; stroke-linecap: square"/>
    <defs>
     <path id="m42e575be4d" d="M 0 2 
C 0.530406 2 1.03916 1.789267 1.414214 1.414214 
C 1.789267 1.03916 2 0.530406 2 0 
C 2 -0.530406 1.789267 -1.03916 1.414214 -1.414214 
C 1.03916 -1.789267 0.530406 -2 0 -2 
C -0.530406 -2 -1.03916 -1.789267 -1.414214 -1.414214 
C -1.789267 -1.03916 -2 -0.530406 -2 0 
C -2 0.530406 -1.789267 1.03916 -1.414214 1.414214 
C -1.03916 1.789267 -0.530406 2 0 2 
z
" style="stroke: #1f77b4"/>
    </defs>
    <g clip-path="url(#p7c7d8c7a4e)">
     <use xlink:href="#m42e575be4d" x="73.832727" y="53.568" style="fill: #1f77b4; stroke: #1f77b4"/>
     <use xlink:href="#m42e575be4d" x="76.472195" y="77.312043" style="fill: #1f77b4; stroke: #1f77b4"/>
     <use xlink:href="#m42e575be4d" x="79.111663" y="99.097646" style="fill: #1f77b4; stroke: #1f77b4"/>
     <use xlink:href="#m42e575be4d" x="81.751131" y="118.341908" style="fill: #1f77b4; stroke: #1f77b4"/>
     <use xlink:href="#m42e575be4d" x="84.390599" y="135.511917" style="fill: #1f77b4; stroke: #1f77b4"/>
     <use xlink:href="#m42e575be4d" x="87.030067" y="151.558014" style="fill: #1f77b4; stroke: #1f77b4"/>
     <use xlink:href="#m42e575be4d" x="89.669534" y="165.472909" style="fill: #1f77b4; stroke: #1f77b4"/>
     <use xlink:href="#m42e575be4d" x="92.309002" y="177.974072" style="fill: #1f77b4; stroke: #1f77b4"/>
     <use xlink:href="#m42e575be4d" x="94.94847" y="189.747373" style="fill: #1f77b4; stroke: #1f77b4"/>
     <use xlink:href="#m42e575be4d" x="97.587938" y="200.385515" style="fill: #1f77b4; stroke: #1f77b4"/>
     <use xlink:href="#m42e575be4d" x="100.227406" y="210.099598" style="fill: #1f77b4; stroke: #1f77b4"/>
     <use xlink:href="#m42e575be4d" x="102.866874" y="218.822419" style="fill: #1f77b4; stroke: #1f77b4"/>
     <use xlink:href="#m42e575be4d" x="105.506341" y="226.329613" style="fill: #1f77b4; stroke: #1f77b4"/>
     <use xlink:href="#m42e575be4d" x="108.145809" y="233.3029" style="fill: #1f77b4; stroke: #1f77b4"/>
     <use xlink:href="#m42e575be4d" x="110.785277" y="239.544143" style="fill: #1f77b4; stroke: #1f77b4"/>
     <use xlink:href="#m42e575be4d" x="113.424745" y="244.978435" style="fill: #1f77b4; stroke: #1f77b4"/>
     <use xlink:href="#m42e575be4d" x="116.064213" y="250.05376" style="fill: #1f77b4; stroke: #1f77b4"/>
     <use xlink:href="#m42e575be4d" x="118.703681" y="254.530515" style="fill: #1f77b4; stroke: #1f77b4"/>
     <use xlink:href="#m42e575be4d" x="121.343149" y="258.436716" style="fill: #1f77b4; stroke: #1f77b4"/>
     <use xlink:href="#m42e575be4d" x="123.982616" y="262.071706" style="fill: #1f77b4; stroke: #1f77b4"/>
     <use xlink:href="#m42e575be4d" x="126.622084" y="265.328331" style="fill: #1f77b4; stroke: #1f77b4"/>
     <use xlink:href="#m42e575be4d" x="129.261552" y="268.425413" style="fill: #1f77b4; stroke: #1f77b4"/>
     <use xlink:href="#m42e575be4d" x="131.90102" y="271.234218" style="fill: #1f77b4; stroke: #1f77b4"/>
     <use xlink:href="#m42e575be4d" x="134.540488" y="273.613131" style="fill: #1f77b4; stroke: #1f77b4"/>
     <use xlink:href="#m42e575be4d" x="137.179956" y="275.838515" style="fill: #1f77b4; stroke: #1f77b4"/>
     <use xlink:href="#m42e575be4d" x="139.819424" y="277.725163" style="fill: #1f77b4; stroke: #1f77b4"/>
     <use xlink:href="#m42e575be4d" x="142.458891" y="279.494766" style="fill: #1f77b4; stroke: #1f77b4"/>
     <use xlink:href="#m42e575be4d" x="145.098359" y="281.106956" style="fill: #1f77b4; stroke: #1f77b4"/>
     <use xlink:href="#m42e575be4d" x="147.737827" y="282.52095" style="fill: #1f77b4; stroke: #1f77b4"/>
     <use xlink:href="#m42e575be4d" x="150.377295" y="283.862663" style="fill: #1f77b4; stroke: #1f77b4"/>
     <use xlink:href="#m42e575be4d" x="153.016763" y="285.0068" style="fill: #1f77b4; stroke: #1f77b4"/>
     <use xlink:href="#m42e575be4d" x="155.656231" y="286.042984" style="fill: #1f77b4; stroke: #1f77b4"/>
     <use xlink:href="#m42e575be4d" x="158.295698" y="287.013439" style="fill: #1f77b4; stroke: #1f77b4"/>
     <use xlink:href="#m42e575be4d" x="160.935166" y="287.861238" style="fill: #1f77b4; stroke: #1f77b4"/>
     <use xlink:href="#m42e575be4d" x="163.574634" y="288.62168" style="fill: #1f77b4; stroke: #1f77b4"/>
     <use xlink:href="#m42e575be4d" x="166.214102" y="289.293517" style="fill: #1f77b4; stroke: #1f77b4"/>
     <use xlink:href="#m42e575be4d" x="168.85357" y="289.898685" style="fill: #1f77b4; stroke: #1f77b4"/>
     <use xlink:href="#m42e575be4d" x="171.493038" y="290.492734" style="fill: #1f77b4; stroke: #1f77b4"/>
     <use xlink:href="#m42e575be4d" x="174.132506" y="290.989562" style="fill: #1f77b4; stroke: #1f77b4"/>
     <use xlink:href="#m42e575be4d" x="176.771973" y="291.447857" style="fill: #1f77b4; stroke: #1f77b4"/>
     <use xlink:href="#m42e575be4d" x="179.411441" y="291.869913" style="fill: #1f77b4; stroke: #1f77b4"/>
     <use xlink:href="#m42e575be4d" x="182.050909" y="292.23045" style="fill: #1f77b4; stroke: #1f77b4"/>
     <use xlink:href="#m42e575be4d" x="184.690377" y="292.54727" style="fill: #1f77b4; stroke: #1f77b4"/>
     <use xlink:href="#m42e575be4d" x="187.329845" y="292.834096" style="fill: #1f77b4; stroke: #1f77b4"/>
     <use xlink:href="#m42e575be4d" x="189.969313" y="293.097548" style="fill: #1f77b4; stroke: #1f77b4"/>
     <use xlink:href="#m42e575be4d" x="192.60878" y="293.331622" style="fill: #1f77b4; stroke: #1f77b4"/>
     <use xlink:href="#m42e575be4d" x="195.248248" y="293.543937" style="fill: #1f77b4; stroke: #1f77b4"/>
     <use xlink:href="#m42e575be4d" x="197.887716" y="293.732145" style="fill: #1f77b4; stroke: #1f77b4"/>
     <use xlink:href="#m42e575be4d" x="200.527184" y="293.902189" style="fill: #1f77b4; stroke: #1f77b4"/>
     <use xlink:href="#m42e575be4d" x="203.166652" y="294.065548" style="fill: #1f77b4; stroke: #1f77b4"/>
     <use xlink:href="#m42e575be4d" x="205.80612" y="294.212731" style="fill: #1f77b4; stroke: #1f77b4"/>
     <use xlink:href="#m42e575be4d" x="208.445588" y="294.341387" style="fill: #1f77b4; stroke: #1f77b4"/>
     <use xlink:href="#m42e575be4d" x="211.085055" y="294.453052" style="fill: #1f77b4; stroke: #1f77b4"/>
     <use xlink:href="#m42e575be4d" x="213.724523" y="294.558363" style="fill: #1f77b4; stroke: #1f77b4"/>
     <use xlink:href="#m42e575be4d" x="216.363991" y="294.65009" style="fill: #1f77b4; stroke: #1f77b4"/>
     <use xlink:href="#m42e575be4d" x="219.003459" y="294.736911" style="fill: #1f77b4; stroke: #1f77b4"/>
     <use xlink:href="#m42e575be4d" x="221.642927" y="294.811521" style="fill: #1f77b4; stroke: #1f77b4"/>
     <use xlink:href="#m42e575be4d" x="224.282395" y="294.879644" style="fill: #1f77b4; stroke: #1f77b4"/>
     <use xlink:href="#m42e575be4d" x="226.921863" y="294.939783" style="fill: #1f77b4; stroke: #1f77b4"/>
     <use xlink:href="#m42e575be4d" x="229.56133" y="294.99316" style="fill: #1f77b4; stroke: #1f77b4"/>
     <use xlink:href="#m42e575be4d" x="232.200798" y="295.043638" style="fill: #1f77b4; stroke: #1f77b4"/>
     <use xlink:href="#m42e575be4d" x="234.840266" y="295.08812" style="fill: #1f77b4; stroke: #1f77b4"/>
     <use xlink:href="#m42e575be4d" x="237.479734" y="295.128149" style="fill: #1f77b4; stroke: #1f77b4"/>
     <use xlink:href="#m42e575be4d" x="240.119202" y="295.163318" style="fill: #1f77b4; stroke: #1f77b4"/>
     <use xlink:href="#m42e575be4d" x="242.75867" y="295.195681" style="fill: #1f77b4; stroke: #1f77b4"/>
     <use xlink:href="#m42e575be4d" x="245.398137" y="295.22445" style="fill: #1f77b4; stroke: #1f77b4"/>
     <use xlink:href="#m42e575be4d" x="248.037605" y="295.249816" style="fill: #1f77b4; stroke: #1f77b4"/>
     <use xlink:href="#m42e575be4d" x="250.677073" y="295.274014" style="fill: #1f77b4; stroke: #1f77b4"/>
     <use xlink:href="#m42e575be4d" x="253.316541" y="295.287496" style="fill: #1f77b4; stroke: #1f77b4"/>
     <use xlink:href="#m42e575be4d" x="255.956009" y="295.307736" style="fill: #1f77b4; stroke: #1f77b4"/>
     <use xlink:href="#m42e575be4d" x="258.595477" y="295.325362" style="fill: #1f77b4; stroke: #1f77b4"/>
     <use xlink:href="#m42e575be4d" x="261.234945" y="295.3418" style="fill: #1f77b4; stroke: #1f77b4"/>
     <use xlink:href="#m42e575be4d" x="263.874412" y="295.356244" style="fill: #1f77b4; stroke: #1f77b4"/>
     <use xlink:href="#m42e575be4d" x="266.51388" y="295.369706" style="fill: #1f77b4; stroke: #1f77b4"/>
     <use xlink:href="#m42e575be4d" x="269.153348" y="295.429927" style="fill: #1f77b4; stroke: #1f77b4"/>
     <use xlink:href="#m42e575be4d" x="271.792816" y="295.435893" style="fill: #1f77b4; stroke: #1f77b4"/>
     <use xlink:href="#m42e575be4d" x="274.432284" y="295.441278" style="fill: #1f77b4; stroke: #1f77b4"/>
     <use xlink:href="#m42e575be4d" x="277.071752" y="295.446027" style="fill: #1f77b4; stroke: #1f77b4"/>
     <use xlink:href="#m42e575be4d" x="279.71122" y="295.450123" style="fill: #1f77b4; stroke: #1f77b4"/>
     <use xlink:href="#m42e575be4d" x="282.350687" y="295.454025" style="fill: #1f77b4; stroke: #1f77b4"/>
     <use xlink:href="#m42e575be4d" x="284.990155" y="295.457545" style="fill: #1f77b4; stroke: #1f77b4"/>
     <use xlink:href="#m42e575be4d" x="287.629623" y="295.460629" style="fill: #1f77b4; stroke: #1f77b4"/>
     <use xlink:href="#m42e575be4d" x="290.269091" y="295.463295" style="fill: #1f77b4; stroke: #1f77b4"/>
     <use xlink:href="#m42e575be4d" x="292.908559" y="295.465708" style="fill: #1f77b4; stroke: #1f77b4"/>
     <use xlink:href="#m42e575be4d" x="295.548027" y="295.467908" style="fill: #1f77b4; stroke: #1f77b4"/>
     <use xlink:href="#m42e575be4d" x="298.187494" y="295.469967" style="fill: #1f77b4; stroke: #1f77b4"/>
     <use xlink:href="#m42e575be4d" x="300.826962" y="295.471803" style="fill: #1f77b4; stroke: #1f77b4"/>
     <use xlink:href="#m42e575be4d" x="303.46643" y="295.473529" style="fill: #1f77b4; stroke: #1f77b4"/>
     <use xlink:href="#m42e575be4d" x="306.105898" y="295.475002" style="fill: #1f77b4; stroke: #1f77b4"/>
     <use xlink:href="#m42e575be4d" x="308.745366" y="295.476415" style="fill: #1f77b4; stroke: #1f77b4"/>
     <use xlink:href="#m42e575be4d" x="311.384834" y="295.477585" style="fill: #1f77b4; stroke: #1f77b4"/>
     <use xlink:href="#m42e575be4d" x="314.024302" y="295.478559" style="fill: #1f77b4; stroke: #1f77b4"/>
     <use xlink:href="#m42e575be4d" x="316.663769" y="295.479544" style="fill: #1f77b4; stroke: #1f77b4"/>
     <use xlink:href="#m42e575be4d" x="319.303237" y="295.480443" style="fill: #1f77b4; stroke: #1f77b4"/>
     <use xlink:href="#m42e575be4d" x="321.942705" y="295.481261" style="fill: #1f77b4; stroke: #1f77b4"/>
     <use xlink:href="#m42e575be4d" x="324.582173" y="295.481979" style="fill: #1f77b4; stroke: #1f77b4"/>
     <use xlink:href="#m42e575be4d" x="327.221641" y="295.482605" style="fill: #1f77b4; stroke: #1f77b4"/>
     <use xlink:href="#m42e575be4d" x="329.861109" y="295.483168" style="fill: #1f77b4; stroke: #1f77b4"/>
     <use xlink:href="#m42e575be4d" x="332.500576" y="295.483707" style="fill: #1f77b4; stroke: #1f77b4"/>
     <use xlink:href="#m42e575be4d" x="335.140044" y="295.484161" style="fill: #1f77b4; stroke: #1f77b4"/>
     <use xlink:href="#m42e575be4d" x="337.779512" y="295.484575" style="fill: #1f77b4; stroke: #1f77b4"/>
     <use xlink:href="#m42e575be4d" x="340.41898" y="295.484949" style="fill: #1f77b4; stroke: #1f77b4"/>
     <use xlink:href="#m42e575be4d" x="343.058448" y="295.485299" style="fill: #1f77b4; stroke: #1f77b4"/>
     <use xlink:href="#m42e575be4d" x="345.697916" y="295.485643" style="fill: #1f77b4; stroke: #1f77b4"/>
     <use xlink:href="#m42e575be4d" x="348.337384" y="295.485918" style="fill: #1f77b4; stroke: #1f77b4"/>
     <use xlink:href="#m42e575be4d" x="350.976851" y="295.486163" style="fill: #1f77b4; stroke: #1f77b4"/>
     <use xlink:href="#m42e575be4d" x="353.616319" y="295.486298" style="fill: #1f77b4; stroke: #1f77b4"/>
     <use xlink:href="#m42e575be4d" x="356.255787" y="295.486507" style="fill: #1f77b4; stroke: #1f77b4"/>
     <use xlink:href="#m42e575be4d" x="358.895255" y="295.486693" style="fill: #1f77b4; stroke: #1f77b4"/>
     <use xlink:href="#m42e575be4d" x="361.534723" y="295.486869" style="fill: #1f77b4; stroke: #1f77b4"/>
     <use xlink:href="#m42e575be4d" x="364.174191" y="295.48703" style="fill: #1f77b4; stroke: #1f77b4"/>
     <use xlink:href="#m42e575be4d" x="366.813659" y="295.487155" style="fill: #1f77b4; stroke: #1f77b4"/>
     <use xlink:href="#m42e575be4d" x="369.453126" y="295.487274" style="fill: #1f77b4; stroke: #1f77b4"/>
     <use xlink:href="#m42e575be4d" x="372.092594" y="295.487384" style="fill: #1f77b4; stroke: #1f77b4"/>
     <use xlink:href="#m42e575be4d" x="374.732062" y="295.487586" style="fill: #1f77b4; stroke: #1f77b4"/>
     <use xlink:href="#m42e575be4d" x="377.37153" y="295.487668" style="fill: #1f77b4; stroke: #1f77b4"/>
     <use xlink:href="#m42e575be4d" x="380.010998" y="295.48772" style="fill: #1f77b4; stroke: #1f77b4"/>
     <use xlink:href="#m42e575be4d" x="382.650466" y="295.487787" style="fill: #1f77b4; stroke: #1f77b4"/>
     <use xlink:href="#m42e575be4d" x="385.289933" y="295.48785" style="fill: #1f77b4; stroke: #1f77b4"/>
     <use xlink:href="#m42e575be4d" x="387.929401" y="295.48782" style="fill: #1f77b4; stroke: #1f77b4"/>
     <use xlink:href="#m42e575be4d" x="390.568869" y="295.487904" style="fill: #1f77b4; stroke: #1f77b4"/>
     <use xlink:href="#m42e575be4d" x="393.208337" y="295.487951" style="fill: #1f77b4; stroke: #1f77b4"/>
     <use xlink:href="#m42e575be4d" x="395.847805" y="295.487995" style="fill: #1f77b4; stroke: #1f77b4"/>
     <use xlink:href="#m42e575be4d" x="398.487273" y="295.488" style="fill: #1f77b4; stroke: #1f77b4"/>
    </g>
   </g>
   <g id="patch_3">
    <path d="M 57.6 307.584 
L 57.6 41.472 
" style="fill: none; stroke: #000000; stroke-width: 0.8; stroke-linejoin: miter; stroke-linecap: square"/>
   </g>
   <g id="patch_4">
    <path d="M 414.72 307.584 
L 414.72 41.472 
" style="fill: none; stroke: #000000; stroke-width: 0.8; stroke-linejoin: miter; stroke-linecap: square"/>
   </g>
   <g id="patch_5">
    <path d="M 57.6 307.584 
L 414.72 307.584 
" style="fill: none; stroke: #000000; stroke-width: 0.8; stroke-linejoin: miter; stroke-linecap: square"/>
   </g>
   <g id="patch_6">
    <path d="M 57.6 41.472 
L 414.72 41.472 
" style="fill: none; stroke: #000000; stroke-width: 0.8; stroke-linejoin: miter; stroke-linecap: square"/>
   </g>
   <g id="text_15">
    <!-- Theta Optimization Progression -->
    <g transform="translate(142.036875 35.472) scale(0.12 -0.12)">
     <defs>
      <path id="DejaVuSans-4f" d="M 2522 4238 
Q 1834 4238 1429 3725 
Q 1025 3213 1025 2328 
Q 1025 1447 1429 934 
Q 1834 422 2522 422 
Q 3209 422 3611 934 
Q 4013 1447 4013 2328 
Q 4013 3213 3611 3725 
Q 3209 4238 2522 4238 
z
M 2522 4750 
Q 3503 4750 4090 4092 
Q 4678 3434 4678 2328 
Q 4678 1225 4090 567 
Q 3503 -91 2522 -91 
Q 1538 -91 948 565 
Q 359 1222 359 2328 
Q 359 3434 948 4092 
Q 1538 4750 2522 4750 
z
" transform="scale(0.015625)"/>
      <path id="DejaVuSans-70" d="M 1159 525 
L 1159 -1331 
L 581 -1331 
L 581 3500 
L 1159 3500 
L 1159 2969 
Q 1341 3281 1617 3432 
Q 1894 3584 2278 3584 
Q 2916 3584 3314 3078 
Q 3713 2572 3713 1747 
Q 3713 922 3314 415 
Q 2916 -91 2278 -91 
Q 1894 -91 1617 61 
Q 1341 213 1159 525 
z
M 3116 1747 
Q 3116 2381 2855 2742 
Q 2594 3103 2138 3103 
Q 1681 3103 1420 2742 
Q 1159 2381 1159 1747 
Q 1159 1113 1420 752 
Q 1681 391 2138 391 
Q 2594 391 2855 752 
Q 3116 1113 3116 1747 
z
" transform="scale(0.015625)"/>
      <path id="DejaVuSans-6d" d="M 3328 2828 
Q 3544 3216 3844 3400 
Q 4144 3584 4550 3584 
Q 5097 3584 5394 3201 
Q 5691 2819 5691 2113 
L 5691 0 
L 5113 0 
L 5113 2094 
Q 5113 2597 4934 2840 
Q 4756 3084 4391 3084 
Q 3944 3084 3684 2787 
Q 3425 2491 3425 1978 
L 3425 0 
L 2847 0 
L 2847 2094 
Q 2847 2600 2669 2842 
Q 2491 3084 2119 3084 
Q 1678 3084 1418 2786 
Q 1159 2488 1159 1978 
L 1159 0 
L 581 0 
L 581 3500 
L 1159 3500 
L 1159 2956 
Q 1356 3278 1631 3431 
Q 1906 3584 2284 3584 
Q 2666 3584 2933 3390 
Q 3200 3197 3328 2828 
z
" transform="scale(0.015625)"/>
      <path id="DejaVuSans-7a" d="M 353 3500 
L 3084 3500 
L 3084 2975 
L 922 459 
L 3084 459 
L 3084 0 
L 275 0 
L 275 525 
L 2438 3041 
L 353 3041 
L 353 3500 
z
" transform="scale(0.015625)"/>
      <path id="DejaVuSans-50" d="M 1259 4147 
L 1259 2394 
L 2053 2394 
Q 2494 2394 2734 2622 
Q 2975 2850 2975 3272 
Q 2975 3691 2734 3919 
Q 2494 4147 2053 4147 
L 1259 4147 
z
M 628 4666 
L 2053 4666 
Q 2838 4666 3239 4311 
Q 3641 3956 3641 3272 
Q 3641 2581 3239 2228 
Q 2838 1875 2053 1875 
L 1259 1875 
L 1259 0 
L 628 0 
L 628 4666 
z
" transform="scale(0.015625)"/>
      <path id="DejaVuSans-67" d="M 2906 1791 
Q 2906 2416 2648 2759 
Q 2391 3103 1925 3103 
Q 1463 3103 1205 2759 
Q 947 2416 947 1791 
Q 947 1169 1205 825 
Q 1463 481 1925 481 
Q 2391 481 2648 825 
Q 2906 1169 2906 1791 
z
M 3481 434 
Q 3481 -459 3084 -895 
Q 2688 -1331 1869 -1331 
Q 1566 -1331 1297 -1286 
Q 1028 -1241 775 -1147 
L 775 -588 
Q 1028 -725 1275 -790 
Q 1522 -856 1778 -856 
Q 2344 -856 2625 -561 
Q 2906 -266 2906 331 
L 2906 616 
Q 2728 306 2450 153 
Q 2172 0 1784 0 
Q 1141 0 747 490 
Q 353 981 353 1791 
Q 353 2603 747 3093 
Q 1141 3584 1784 3584 
Q 2172 3584 2450 3431 
Q 2728 3278 2906 2969 
L 2906 3500 
L 3481 3500 
L 3481 434 
z
" transform="scale(0.015625)"/>
      <path id="DejaVuSans-73" d="M 2834 3397 
L 2834 2853 
Q 2591 2978 2328 3040 
Q 2066 3103 1784 3103 
Q 1356 3103 1142 2972 
Q 928 2841 928 2578 
Q 928 2378 1081 2264 
Q 1234 2150 1697 2047 
L 1894 2003 
Q 2506 1872 2764 1633 
Q 3022 1394 3022 966 
Q 3022 478 2636 193 
Q 2250 -91 1575 -91 
Q 1294 -91 989 -36 
Q 684 19 347 128 
L 347 722 
Q 666 556 975 473 
Q 1284 391 1588 391 
Q 1994 391 2212 530 
Q 2431 669 2431 922 
Q 2431 1156 2273 1281 
Q 2116 1406 1581 1522 
L 1381 1569 
Q 847 1681 609 1914 
Q 372 2147 372 2553 
Q 372 3047 722 3315 
Q 1072 3584 1716 3584 
Q 2034 3584 2315 3537 
Q 2597 3491 2834 3397 
z
" transform="scale(0.015625)"/>
     </defs>
     <use xlink:href="#DejaVuSans-54"/>
     <use xlink:href="#DejaVuSans-68" transform="translate(61.083984 0)"/>
     <use xlink:href="#DejaVuSans-65" transform="translate(124.462891 0)"/>
     <use xlink:href="#DejaVuSans-74" transform="translate(185.986328 0)"/>
     <use xlink:href="#DejaVuSans-61" transform="translate(225.195312 0)"/>
     <use xlink:href="#DejaVuSans-20" transform="translate(286.474609 0)"/>
     <use xlink:href="#DejaVuSans-4f" transform="translate(318.261719 0)"/>
     <use xlink:href="#DejaVuSans-70" transform="translate(396.972656 0)"/>
     <use xlink:href="#DejaVuSans-74" transform="translate(460.449219 0)"/>
     <use xlink:href="#DejaVuSans-69" transform="translate(499.658203 0)"/>
     <use xlink:href="#DejaVuSans-6d" transform="translate(527.441406 0)"/>
     <use xlink:href="#DejaVuSans-69" transform="translate(624.853516 0)"/>
     <use xlink:href="#DejaVuSans-7a" transform="translate(652.636719 0)"/>
     <use xlink:href="#DejaVuSans-61" transform="translate(705.126953 0)"/>
     <use xlink:href="#DejaVuSans-74" transform="translate(766.40625 0)"/>
     <use xlink:href="#DejaVuSans-69" transform="translate(805.615234 0)"/>
     <use xlink:href="#DejaVuSans-6f" transform="translate(833.398438 0)"/>
     <use xlink:href="#DejaVuSans-6e" transform="translate(894.580078 0)"/>
     <use xlink:href="#DejaVuSans-20" transform="translate(957.958984 0)"/>
     <use xlink:href="#DejaVuSans-50" transform="translate(989.746094 0)"/>
     <use xlink:href="#DejaVuSans-72" transform="translate(1048.298828 0)"/>
     <use xlink:href="#DejaVuSans-6f" transform="translate(1087.162109 0)"/>
     <use xlink:href="#DejaVuSans-67" transform="translate(1148.34375 0)"/>
     <use xlink:href="#DejaVuSans-72" transform="translate(1211.820312 0)"/>
     <use xlink:href="#DejaVuSans-65" transform="translate(1250.683594 0)"/>
     <use xlink:href="#DejaVuSans-73" transform="translate(1312.207031 0)"/>
     <use xlink:href="#DejaVuSans-73" transform="translate(1364.306641 0)"/>
     <use xlink:href="#DejaVuSans-69" transform="translate(1416.40625 0)"/>
     <use xlink:href="#DejaVuSans-6f" transform="translate(1444.189453 0)"/>
     <use xlink:href="#DejaVuSans-6e" transform="translate(1505.371094 0)"/>
    </g>
   </g>
  </g>
 </g>
 <defs>
  <clipPath id="p7c7d8c7a4e">
   <rect x="57.6" y="41.472" width="357.12" height="266.112"/>
  </clipPath>
 </defs>
</svg>
