<?xml version="1.0" encoding="utf-8" standalone="no"?>
<!DOCTYPE svg PUBLIC "-//W3C//DTD SVG 1.1//EN"
  "http://www.w3.org/Graphics/SVG/1.1/DTD/svg11.dtd">
<svg xmlns:xlink="http://www.w3.org/1999/xlink" width="720pt" height="432pt" viewBox="0 0 720 432" xmlns="http://www.w3.org/2000/svg" version="1.1">
 <metadata>
  <rdf:RDF xmlns:dc="http://purl.org/dc/elements/1.1/" xmlns:cc="http://creativecommons.org/ns#" xmlns:rdf="http://www.w3.org/1999/02/22-rdf-syntax-ns#">
   <cc:Work>
    <dc:type rdf:resource="http://purl.org/dc/dcmitype/StillImage"/>
    <dc:date>2025-12-10T00:56:31.525103</dc:date>
    <dc:format>image/svg+xml</dc:format>
    <dc:creator>
     <cc:Agent>
      <dc:title>Matplotlib v3.10.7, https://matplotlib.org/</dc:title>
     </cc:Agent>
    </dc:creator>
   </cc:Work>
  </rdf:RDF>
 </metadata>
 <defs>
  <style type="text/css">*{stroke-linejoin: round; stroke-linecap: butt}</style>
 </defs>
 <g id="figure_1">
  <g id="patch_1">
   <path d="M 0 432 
L 720 432 
L 720 0 
L 0 0 
z
" style="fill: #ffffff"/>
  </g>
  <g id="axes_1">
   <g id="patch_2">
    <path d="M 90 384.48 
L 648 384.48 
L 648 51.84 
L 90 51.84 
z
" style="fill: #ffffff"/>
   </g>
   <g id="patch_3">
    <path d="M 115.366592 384.48 
L 117.902941 384.48 
L 117.902941 375.279148 
L 115.366592 375.279148 
z
" clip-path="url(#pac44b3d7e5)" style="fill: #87ceeb; opacity: 0.6; stroke: #000000; stroke-linejoin: miter"/>
   </g>
   <g id="patch_4">
    <path d="M 117.902941 384.48 
L 120.43929 384.48 
L 120.43929 376.823438 
L 117.902941 376.823438 
z
" clip-path="url(#pac44b3d7e5)" style="fill: #87ceeb; opacity: 0.6; stroke: #000000; stroke-linejoin: miter"/>
   </g>
   <g id="patch_5">
    <path d="M 120.43929 384.48 
L 122.975638 384.48 
L 122.975638 358.058371 
L 120.43929 358.058371 
z
" clip-path="url(#pac44b3d7e5)" style="fill: #87ceeb; opacity: 0.6; stroke: #000000; stroke-linejoin: miter"/>
   </g>
   <g id="patch_6">
    <path d="M 122.975638 384.48 
L 125.511987 384.48 
L 125.511987 347.196435 
L 122.975638 347.196435 
z
" clip-path="url(#pac44b3d7e5)" style="fill: #87ceeb; opacity: 0.6; stroke: #000000; stroke-linejoin: miter"/>
   </g>
   <g id="patch_7">
    <path d="M 125.511987 384.48 
L 128.048336 384.48 
L 128.048336 323.772545 
L 125.511987 323.772545 
z
" clip-path="url(#pac44b3d7e5)" style="fill: #87ceeb; opacity: 0.6; stroke: #000000; stroke-linejoin: miter"/>
   </g>
   <g id="patch_8">
    <path d="M 128.048336 384.48 
L 130.584685 384.48 
L 130.584685 297.091371 
L 128.048336 297.091371 
z
" clip-path="url(#pac44b3d7e5)" style="fill: #87ceeb; opacity: 0.6; stroke: #000000; stroke-linejoin: miter"/>
   </g>
   <g id="patch_9">
    <path d="M 130.584685 384.48 
L 133.121034 384.48 
L 133.121034 291.329484 
L 130.584685 291.329484 
z
" clip-path="url(#pac44b3d7e5)" style="fill: #87ceeb; opacity: 0.6; stroke: #000000; stroke-linejoin: miter"/>
   </g>
   <g id="patch_10">
    <path d="M 133.121034 384.48 
L 135.657383 384.48 
L 135.657383 253.371103 
L 133.121034 253.371103 
z
" clip-path="url(#pac44b3d7e5)" style="fill: #87ceeb; opacity: 0.6; stroke: #000000; stroke-linejoin: miter"/>
   </g>
   <g id="patch_11">
    <path d="M 135.657383 384.48 
L 138.193732 384.48 
L 138.193732 234.398401 
L 135.657383 234.398401 
z
" clip-path="url(#pac44b3d7e5)" style="fill: #87ceeb; opacity: 0.6; stroke: #000000; stroke-linejoin: miter"/>
   </g>
   <g id="patch_12">
    <path d="M 138.193732 384.48 
L 140.73008 384.48 
L 140.73008 213.258502 
L 138.193732 213.258502 
z
" clip-path="url(#pac44b3d7e5)" style="fill: #87ceeb; opacity: 0.6; stroke: #000000; stroke-linejoin: miter"/>
   </g>
   <g id="patch_13">
    <path d="M 140.73008 384.48 
L 143.266429 384.48 
L 143.266429 193.234645 
L 140.73008 193.234645 
z
" clip-path="url(#pac44b3d7e5)" style="fill: #87ceeb; opacity: 0.6; stroke: #000000; stroke-linejoin: miter"/>
   </g>
   <g id="patch_14">
    <path d="M 143.266429 384.48 
L 145.802778 384.48 
L 145.802778 163.529779 
L 143.266429 163.529779 
z
" clip-path="url(#pac44b3d7e5)" style="fill: #87ceeb; opacity: 0.6; stroke: #000000; stroke-linejoin: miter"/>
   </g>
   <g id="patch_15">
    <path d="M 145.802778 384.48 
L 148.339127 384.48 
L 148.339127 150.773167 
L 145.802778 150.773167 
z
" clip-path="url(#pac44b3d7e5)" style="fill: #87ceeb; opacity: 0.6; stroke: #000000; stroke-linejoin: miter"/>
   </g>
   <g id="patch_16">
    <path d="M 148.339127 384.48 
L 150.875476 384.48 
L 150.875476 139.080688 
L 148.339127 139.080688 
z
" clip-path="url(#pac44b3d7e5)" style="fill: #87ceeb; opacity: 0.6; stroke: #000000; stroke-linejoin: miter"/>
   </g>
   <g id="patch_17">
    <path d="M 150.875476 384.48 
L 153.411825 384.48 
L 153.411825 108.181917 
L 150.875476 108.181917 
z
" clip-path="url(#pac44b3d7e5)" style="fill: #87ceeb; opacity: 0.6; stroke: #000000; stroke-linejoin: miter"/>
   </g>
   <g id="patch_18">
    <path d="M 153.411825 384.48 
L 155.948174 384.48 
L 155.948174 105.313951 
L 153.411825 105.313951 
z
" clip-path="url(#pac44b3d7e5)" style="fill: #87ceeb; opacity: 0.6; stroke: #000000; stroke-linejoin: miter"/>
   </g>
   <g id="patch_19">
    <path d="M 155.948174 384.48 
L 158.484522 384.48 
L 158.484522 100.447491 
L 155.948174 100.447491 
z
" clip-path="url(#pac44b3d7e5)" style="fill: #87ceeb; opacity: 0.6; stroke: #000000; stroke-linejoin: miter"/>
   </g>
   <g id="patch_20">
    <path d="M 158.484522 384.48 
L 161.020871 384.48 
L 161.020871 93.660403 
L 158.484522 93.660403 
z
" clip-path="url(#pac44b3d7e5)" style="fill: #87ceeb; opacity: 0.6; stroke: #000000; stroke-linejoin: miter"/>
   </g>
   <g id="patch_21">
    <path d="M 161.020871 384.48 
L 163.55722 384.48 
L 163.55722 86.496975 
L 161.020871 86.496975 
z
" clip-path="url(#pac44b3d7e5)" style="fill: #87ceeb; opacity: 0.6; stroke: #000000; stroke-linejoin: miter"/>
   </g>
   <g id="patch_22">
    <path d="M 163.55722 384.48 
L 166.093569 384.48 
L 166.093569 73.947999 
L 163.55722 73.947999 
z
" clip-path="url(#pac44b3d7e5)" style="fill: #87ceeb; opacity: 0.6; stroke: #000000; stroke-linejoin: miter"/>
   </g>
   <g id="patch_23">
    <path d="M 166.093569 384.48 
L 168.629918 384.48 
L 168.629918 68.199089 
L 166.093569 68.199089 
z
" clip-path="url(#pac44b3d7e5)" style="fill: #87ceeb; opacity: 0.6; stroke: #000000; stroke-linejoin: miter"/>
   </g>
   <g id="patch_24">
    <path d="M 168.629918 384.48 
L 171.166267 384.48 
L 171.166267 76.244968 
L 168.629918 76.244968 
z
" clip-path="url(#pac44b3d7e5)" style="fill: #87ceeb; opacity: 0.6; stroke: #000000; stroke-linejoin: miter"/>
   </g>
   <g id="patch_25">
    <path d="M 171.166267 384.48 
L 173.702616 384.48 
L 173.702616 67.68 
L 171.166267 67.68 
z
" clip-path="url(#pac44b3d7e5)" style="fill: #87ceeb; opacity: 0.6; stroke: #000000; stroke-linejoin: miter"/>
   </g>
   <g id="patch_26">
    <path d="M 173.702616 384.48 
L 176.238964 384.48 
L 176.238964 68.445656 
L 173.702616 68.445656 
z
" clip-path="url(#pac44b3d7e5)" style="fill: #87ceeb; opacity: 0.6; stroke: #000000; stroke-linejoin: miter"/>
   </g>
   <g id="patch_27">
    <path d="M 176.238964 384.48 
L 178.775313 384.48 
L 178.775313 79.125912 
L 176.238964 79.125912 
z
" clip-path="url(#pac44b3d7e5)" style="fill: #87ceeb; opacity: 0.6; stroke: #000000; stroke-linejoin: miter"/>
   </g>
   <g id="patch_28">
    <path d="M 178.775313 384.48 
L 181.311662 384.48 
L 181.311662 80.644247 
L 178.775313 80.644247 
z
" clip-path="url(#pac44b3d7e5)" style="fill: #87ceeb; opacity: 0.6; stroke: #000000; stroke-linejoin: miter"/>
   </g>
   <g id="patch_29">
    <path d="M 181.311662 384.48 
L 183.848011 384.48 
L 183.848011 83.34351 
L 181.311662 83.34351 
z
" clip-path="url(#pac44b3d7e5)" style="fill: #87ceeb; opacity: 0.6; stroke: #000000; stroke-linejoin: miter"/>
   </g>
   <g id="patch_30">
    <path d="M 183.848011 384.48 
L 186.38436 384.48 
L 186.38436 83.213738 
L 183.848011 83.213738 
z
" clip-path="url(#pac44b3d7e5)" style="fill: #87ceeb; opacity: 0.6; stroke: #000000; stroke-linejoin: miter"/>
   </g>
   <g id="patch_31">
    <path d="M 186.38436 384.48 
L 188.920709 384.48 
L 188.920709 86.626748 
L 186.38436 86.626748 
z
" clip-path="url(#pac44b3d7e5)" style="fill: #87ceeb; opacity: 0.6; stroke: #000000; stroke-linejoin: miter"/>
   </g>
   <g id="patch_32">
    <path d="M 188.920709 384.48 
L 191.457058 384.48 
L 191.457058 94.60774 
L 188.920709 94.60774 
z
" clip-path="url(#pac44b3d7e5)" style="fill: #87ceeb; opacity: 0.6; stroke: #000000; stroke-linejoin: miter"/>
   </g>
   <g id="patch_33">
    <path d="M 191.457058 384.48 
L 193.993406 384.48 
L 193.993406 101.862009 
L 191.457058 101.862009 
z
" clip-path="url(#pac44b3d7e5)" style="fill: #87ceeb; opacity: 0.6; stroke: #000000; stroke-linejoin: miter"/>
   </g>
   <g id="patch_34">
    <path d="M 193.993406 384.48 
L 196.529755 384.48 
L 196.529755 98.241363 
L 193.993406 98.241363 
z
" clip-path="url(#pac44b3d7e5)" style="fill: #87ceeb; opacity: 0.6; stroke: #000000; stroke-linejoin: miter"/>
   </g>
   <g id="patch_35">
    <path d="M 196.529755 384.48 
L 199.066104 384.48 
L 199.066104 110.634612 
L 196.529755 110.634612 
z
" clip-path="url(#pac44b3d7e5)" style="fill: #87ceeb; opacity: 0.6; stroke: #000000; stroke-linejoin: miter"/>
   </g>
   <g id="patch_36">
    <path d="M 199.066104 384.48 
L 201.602453 384.48 
L 201.602453 121.976707 
L 199.066104 121.976707 
z
" clip-path="url(#pac44b3d7e5)" style="fill: #87ceeb; opacity: 0.6; stroke: #000000; stroke-linejoin: miter"/>
   </g>
   <g id="patch_37">
    <path d="M 201.602453 384.48 
L 204.138802 384.48 
L 204.138802 135.693633 
L 201.602453 135.693633 
z
" clip-path="url(#pac44b3d7e5)" style="fill: #87ceeb; opacity: 0.6; stroke: #000000; stroke-linejoin: miter"/>
   </g>
   <g id="patch_38">
    <path d="M 204.138802 384.48 
L 206.675151 384.48 
L 206.675151 140.975363 
L 204.138802 140.975363 
z
" clip-path="url(#pac44b3d7e5)" style="fill: #87ceeb; opacity: 0.6; stroke: #000000; stroke-linejoin: miter"/>
   </g>
   <g id="patch_39">
    <path d="M 206.675151 384.48 
L 209.2115 384.48 
L 209.2115 151.435006 
L 206.675151 151.435006 
z
" clip-path="url(#pac44b3d7e5)" style="fill: #87ceeb; opacity: 0.6; stroke: #000000; stroke-linejoin: miter"/>
   </g>
   <g id="patch_40">
    <path d="M 209.2115 384.48 
L 211.747848 384.48 
L 211.747848 156.703759 
L 209.2115 156.703759 
z
" clip-path="url(#pac44b3d7e5)" style="fill: #87ceeb; opacity: 0.6; stroke: #000000; stroke-linejoin: miter"/>
   </g>
   <g id="patch_41">
    <path d="M 211.747848 384.48 
L 214.284197 384.48 
L 214.284197 163.906118 
L 211.747848 163.906118 
z
" clip-path="url(#pac44b3d7e5)" style="fill: #87ceeb; opacity: 0.6; stroke: #000000; stroke-linejoin: miter"/>
   </g>
   <g id="patch_42">
    <path d="M 214.284197 384.48 
L 216.820546 384.48 
L 216.820546 170.615343 
L 214.284197 170.615343 
z
" clip-path="url(#pac44b3d7e5)" style="fill: #87ceeb; opacity: 0.6; stroke: #000000; stroke-linejoin: miter"/>
   </g>
   <g id="patch_43">
    <path d="M 216.820546 384.48 
L 219.356895 384.48 
L 219.356895 181.723847 
L 216.820546 181.723847 
z
" clip-path="url(#pac44b3d7e5)" style="fill: #87ceeb; opacity: 0.6; stroke: #000000; stroke-linejoin: miter"/>
   </g>
   <g id="patch_44">
    <path d="M 219.356895 384.48 
L 221.893244 384.48 
L 221.893244 189.043002 
L 219.356895 189.043002 
z
" clip-path="url(#pac44b3d7e5)" style="fill: #87ceeb; opacity: 0.6; stroke: #000000; stroke-linejoin: miter"/>
   </g>
   <g id="patch_45">
    <path d="M 221.893244 384.48 
L 224.429593 384.48 
L 224.429593 195.5965 
L 221.893244 195.5965 
z
" clip-path="url(#pac44b3d7e5)" style="fill: #87ceeb; opacity: 0.6; stroke: #000000; stroke-linejoin: miter"/>
   </g>
   <g id="patch_46">
    <path d="M 224.429593 384.48 
L 226.965942 384.48 
L 226.965942 200.359141 
L 224.429593 200.359141 
z
" clip-path="url(#pac44b3d7e5)" style="fill: #87ceeb; opacity: 0.6; stroke: #000000; stroke-linejoin: miter"/>
   </g>
   <g id="patch_47">
    <path d="M 226.965942 384.48 
L 229.50229 384.48 
L 229.50229 211.610395 
L 226.965942 211.610395 
z
" clip-path="url(#pac44b3d7e5)" style="fill: #87ceeb; opacity: 0.6; stroke: #000000; stroke-linejoin: miter"/>
   </g>
   <g id="patch_48">
    <path d="M 229.50229 384.48 
L 232.038639 384.48 
L 232.038639 219.72116 
L 229.50229 219.72116 
z
" clip-path="url(#pac44b3d7e5)" style="fill: #87ceeb; opacity: 0.6; stroke: #000000; stroke-linejoin: miter"/>
   </g>
   <g id="patch_49">
    <path d="M 232.038639 384.48 
L 234.574988 384.48 
L 234.574988 229.986145 
L 232.038639 229.986145 
z
" clip-path="url(#pac44b3d7e5)" style="fill: #87ceeb; opacity: 0.6; stroke: #000000; stroke-linejoin: miter"/>
   </g>
   <g id="patch_50">
    <path d="M 234.574988 384.48 
L 237.111337 384.48 
L 237.111337 231.569366 
L 234.574988 231.569366 
z
" clip-path="url(#pac44b3d7e5)" style="fill: #87ceeb; opacity: 0.6; stroke: #000000; stroke-linejoin: miter"/>
   </g>
   <g id="patch_51">
    <path d="M 237.111337 384.48 
L 239.647686 384.48 
L 239.647686 235.864827 
L 237.111337 235.864827 
z
" clip-path="url(#pac44b3d7e5)" style="fill: #87ceeb; opacity: 0.6; stroke: #000000; stroke-linejoin: miter"/>
   </g>
   <g id="patch_52">
    <path d="M 239.647686 384.48 
L 242.184035 384.48 
L 242.184035 245.766449 
L 239.647686 245.766449 
z
" clip-path="url(#pac44b3d7e5)" style="fill: #87ceeb; opacity: 0.6; stroke: #000000; stroke-linejoin: miter"/>
   </g>
   <g id="patch_53">
    <path d="M 242.184035 384.48 
L 244.720384 384.48 
L 244.720384 246.973331 
L 242.184035 246.973331 
z
" clip-path="url(#pac44b3d7e5)" style="fill: #87ceeb; opacity: 0.6; stroke: #000000; stroke-linejoin: miter"/>
   </g>
   <g id="patch_54">
    <path d="M 244.720384 384.48 
L 247.256732 384.48 
L 247.256732 262.31241 
L 244.720384 262.31241 
z
" clip-path="url(#pac44b3d7e5)" style="fill: #87ceeb; opacity: 0.6; stroke: #000000; stroke-linejoin: miter"/>
   </g>
   <g id="patch_55">
    <path d="M 247.256732 384.48 
L 249.793081 384.48 
L 249.793081 262.091797 
L 247.256732 262.091797 
z
" clip-path="url(#pac44b3d7e5)" style="fill: #87ceeb; opacity: 0.6; stroke: #000000; stroke-linejoin: miter"/>
   </g>
   <g id="patch_56">
    <path d="M 249.793081 384.48 
L 252.32943 384.48 
L 252.32943 268.359797 
L 249.793081 268.359797 
z
" clip-path="url(#pac44b3d7e5)" style="fill: #87ceeb; opacity: 0.6; stroke: #000000; stroke-linejoin: miter"/>
   </g>
   <g id="patch_57">
    <path d="M 252.32943 384.48 
L 254.865779 384.48 
L 254.865779 274.93925 
L 252.32943 274.93925 
z
" clip-path="url(#pac44b3d7e5)" style="fill: #87ceeb; opacity: 0.6; stroke: #000000; stroke-linejoin: miter"/>
   </g>
   <g id="patch_58">
    <path d="M 254.865779 384.48 
L 257.402128 384.48 
L 257.402128 286.11264 
L 254.865779 286.11264 
z
" clip-path="url(#pac44b3d7e5)" style="fill: #87ceeb; opacity: 0.6; stroke: #000000; stroke-linejoin: miter"/>
   </g>
   <g id="patch_59">
    <path d="M 257.402128 384.48 
L 259.938477 384.48 
L 259.938477 288.150064 
L 257.402128 288.150064 
z
" clip-path="url(#pac44b3d7e5)" style="fill: #87ceeb; opacity: 0.6; stroke: #000000; stroke-linejoin: miter"/>
   </g>
   <g id="patch_60">
    <path d="M 259.938477 384.48 
L 262.474826 384.48 
L 262.474826 297.415802 
L 259.938477 297.415802 
z
" clip-path="url(#pac44b3d7e5)" style="fill: #87ceeb; opacity: 0.6; stroke: #000000; stroke-linejoin: miter"/>
   </g>
   <g id="patch_61">
    <path d="M 262.474826 384.48 
L 265.011175 384.48 
L 265.011175 300.491404 
L 262.474826 300.491404 
z
" clip-path="url(#pac44b3d7e5)" style="fill: #87ceeb; opacity: 0.6; stroke: #000000; stroke-linejoin: miter"/>
   </g>
   <g id="patch_62">
    <path d="M 265.011175 384.48 
L 267.547523 384.48 
L 267.547523 302.892191 
L 265.011175 302.892191 
z
" clip-path="url(#pac44b3d7e5)" style="fill: #87ceeb; opacity: 0.6; stroke: #000000; stroke-linejoin: miter"/>
   </g>
   <g id="patch_63">
    <path d="M 267.547523 384.48 
L 270.083872 384.48 
L 270.083872 308.563238 
L 267.547523 308.563238 
z
" clip-path="url(#pac44b3d7e5)" style="fill: #87ceeb; opacity: 0.6; stroke: #000000; stroke-linejoin: miter"/>
   </g>
   <g id="patch_64">
    <path d="M 270.083872 384.48 
L 272.620221 384.48 
L 272.620221 314.182376 
L 270.083872 314.182376 
z
" clip-path="url(#pac44b3d7e5)" style="fill: #87ceeb; opacity: 0.6; stroke: #000000; stroke-linejoin: miter"/>
   </g>
   <g id="patch_65">
    <path d="M 272.620221 384.48 
L 275.15657 384.48 
L 275.15657 317.141183 
L 272.620221 317.141183 
z
" clip-path="url(#pac44b3d7e5)" style="fill: #87ceeb; opacity: 0.6; stroke: #000000; stroke-linejoin: miter"/>
   </g>
   <g id="patch_66">
    <path d="M 275.15657 384.48 
L 277.692919 384.48 
L 277.692919 319.373266 
L 275.15657 319.373266 
z
" clip-path="url(#pac44b3d7e5)" style="fill: #87ceeb; opacity: 0.6; stroke: #000000; stroke-linejoin: miter"/>
   </g>
   <g id="patch_67">
    <path d="M 277.692919 384.48 
L 280.229268 384.48 
L 280.229268 321.903824 
L 277.692919 321.903824 
z
" clip-path="url(#pac44b3d7e5)" style="fill: #87ceeb; opacity: 0.6; stroke: #000000; stroke-linejoin: miter"/>
   </g>
   <g id="patch_68">
    <path d="M 280.229268 384.48 
L 282.765617 384.48 
L 282.765617 326.964942 
L 280.229268 326.964942 
z
" clip-path="url(#pac44b3d7e5)" style="fill: #87ceeb; opacity: 0.6; stroke: #000000; stroke-linejoin: miter"/>
   </g>
   <g id="patch_69">
    <path d="M 282.765617 384.48 
L 285.301965 384.48 
L 285.301965 329.63825 
L 282.765617 329.63825 
z
" clip-path="url(#pac44b3d7e5)" style="fill: #87ceeb; opacity: 0.6; stroke: #000000; stroke-linejoin: miter"/>
   </g>
   <g id="patch_70">
    <path d="M 285.301965 384.48 
L 287.838314 384.48 
L 287.838314 334.141347 
L 285.301965 334.141347 
z
" clip-path="url(#pac44b3d7e5)" style="fill: #87ceeb; opacity: 0.6; stroke: #000000; stroke-linejoin: miter"/>
   </g>
   <g id="patch_71">
    <path d="M 287.838314 384.48 
L 290.374663 384.48 
L 290.374663 338.307036 
L 287.838314 338.307036 
z
" clip-path="url(#pac44b3d7e5)" style="fill: #87ceeb; opacity: 0.6; stroke: #000000; stroke-linejoin: miter"/>
   </g>
   <g id="patch_72">
    <path d="M 290.374663 384.48 
L 292.911012 384.48 
L 292.911012 340.552096 
L 290.374663 340.552096 
z
" clip-path="url(#pac44b3d7e5)" style="fill: #87ceeb; opacity: 0.6; stroke: #000000; stroke-linejoin: miter"/>
   </g>
   <g id="patch_73">
    <path d="M 292.911012 384.48 
L 295.447361 384.48 
L 295.447361 344.782671 
L 292.911012 344.782671 
z
" clip-path="url(#pac44b3d7e5)" style="fill: #87ceeb; opacity: 0.6; stroke: #000000; stroke-linejoin: miter"/>
   </g>
   <g id="patch_74">
    <path d="M 295.447361 384.48 
L 297.98371 384.48 
L 297.98371 344.860534 
L 295.447361 344.860534 
z
" clip-path="url(#pac44b3d7e5)" style="fill: #87ceeb; opacity: 0.6; stroke: #000000; stroke-linejoin: miter"/>
   </g>
   <g id="patch_75">
    <path d="M 297.98371 384.48 
L 300.520059 384.48 
L 300.520059 348.546066 
L 297.98371 348.546066 
z
" clip-path="url(#pac44b3d7e5)" style="fill: #87ceeb; opacity: 0.6; stroke: #000000; stroke-linejoin: miter"/>
   </g>
   <g id="patch_76">
    <path d="M 300.520059 384.48 
L 303.056407 384.48 
L 303.056407 349.817834 
L 300.520059 349.817834 
z
" clip-path="url(#pac44b3d7e5)" style="fill: #87ceeb; opacity: 0.6; stroke: #000000; stroke-linejoin: miter"/>
   </g>
   <g id="patch_77">
    <path d="M 303.056407 384.48 
L 305.592756 384.48 
L 305.592756 350.544558 
L 303.056407 350.544558 
z
" clip-path="url(#pac44b3d7e5)" style="fill: #87ceeb; opacity: 0.6; stroke: #000000; stroke-linejoin: miter"/>
   </g>
   <g id="patch_78">
    <path d="M 305.592756 384.48 
L 308.129105 384.48 
L 308.129105 351.180442 
L 305.592756 351.180442 
z
" clip-path="url(#pac44b3d7e5)" style="fill: #87ceeb; opacity: 0.6; stroke: #000000; stroke-linejoin: miter"/>
   </g>
   <g id="patch_79">
    <path d="M 308.129105 384.48 
L 310.665454 384.48 
L 310.665454 356.669808 
L 308.129105 356.669808 
z
" clip-path="url(#pac44b3d7e5)" style="fill: #87ceeb; opacity: 0.6; stroke: #000000; stroke-linejoin: miter"/>
   </g>
   <g id="patch_80">
    <path d="M 310.665454 384.48 
L 313.201803 384.48 
L 313.201803 358.512574 
L 310.665454 358.512574 
z
" clip-path="url(#pac44b3d7e5)" style="fill: #87ceeb; opacity: 0.6; stroke: #000000; stroke-linejoin: miter"/>
   </g>
   <g id="patch_81">
    <path d="M 313.201803 384.48 
L 315.738152 384.48 
L 315.738152 359.42098 
L 313.201803 359.42098 
z
" clip-path="url(#pac44b3d7e5)" style="fill: #87ceeb; opacity: 0.6; stroke: #000000; stroke-linejoin: miter"/>
   </g>
   <g id="patch_82">
    <path d="M 315.738152 384.48 
L 318.274501 384.48 
L 318.274501 359.719456 
L 315.738152 359.719456 
z
" clip-path="url(#pac44b3d7e5)" style="fill: #87ceeb; opacity: 0.6; stroke: #000000; stroke-linejoin: miter"/>
   </g>
   <g id="patch_83">
    <path d="M 318.274501 384.48 
L 320.810849 384.48 
L 320.810849 360.095796 
L 318.274501 360.095796 
z
" clip-path="url(#pac44b3d7e5)" style="fill: #87ceeb; opacity: 0.6; stroke: #000000; stroke-linejoin: miter"/>
   </g>
   <g id="patch_84">
    <path d="M 320.810849 384.48 
L 323.347198 384.48 
L 323.347198 363.521783 
L 320.810849 363.521783 
z
" clip-path="url(#pac44b3d7e5)" style="fill: #87ceeb; opacity: 0.6; stroke: #000000; stroke-linejoin: miter"/>
   </g>
   <g id="patch_85">
    <path d="M 323.347198 384.48 
L 325.883547 384.48 
L 325.883547 364.144689 
L 323.347198 364.144689 
z
" clip-path="url(#pac44b3d7e5)" style="fill: #87ceeb; opacity: 0.6; stroke: #000000; stroke-linejoin: miter"/>
   </g>
   <g id="patch_86">
    <path d="M 325.883547 384.48 
L 328.419896 384.48 
L 328.419896 364.495075 
L 325.883547 364.495075 
z
" clip-path="url(#pac44b3d7e5)" style="fill: #87ceeb; opacity: 0.6; stroke: #000000; stroke-linejoin: miter"/>
   </g>
   <g id="patch_87">
    <path d="M 328.419896 384.48 
L 330.956245 384.48 
L 330.956245 367.856176 
L 328.419896 367.856176 
z
" clip-path="url(#pac44b3d7e5)" style="fill: #87ceeb; opacity: 0.6; stroke: #000000; stroke-linejoin: miter"/>
   </g>
   <g id="patch_88">
    <path d="M 330.956245 384.48 
L 333.492594 384.48 
L 333.492594 367.103497 
L 330.956245 367.103497 
z
" clip-path="url(#pac44b3d7e5)" style="fill: #87ceeb; opacity: 0.6; stroke: #000000; stroke-linejoin: miter"/>
   </g>
   <g id="patch_89">
    <path d="M 333.492594 384.48 
L 336.028943 384.48 
L 336.028943 368.011902 
L 333.492594 368.011902 
z
" clip-path="url(#pac44b3d7e5)" style="fill: #87ceeb; opacity: 0.6; stroke: #000000; stroke-linejoin: miter"/>
   </g>
   <g id="patch_90">
    <path d="M 336.028943 384.48 
L 338.565291 384.48 
L 338.565291 370.114213 
L 336.028943 370.114213 
z
" clip-path="url(#pac44b3d7e5)" style="fill: #87ceeb; opacity: 0.6; stroke: #000000; stroke-linejoin: miter"/>
   </g>
   <g id="patch_91">
    <path d="M 338.565291 384.48 
L 341.10164 384.48 
L 341.10164 370.088258 
L 338.565291 370.088258 
z
" clip-path="url(#pac44b3d7e5)" style="fill: #87ceeb; opacity: 0.6; stroke: #000000; stroke-linejoin: miter"/>
   </g>
   <g id="patch_92">
    <path d="M 341.10164 384.48 
L 343.637989 384.48 
L 343.637989 371.788275 
L 341.10164 371.788275 
z
" clip-path="url(#pac44b3d7e5)" style="fill: #87ceeb; opacity: 0.6; stroke: #000000; stroke-linejoin: miter"/>
   </g>
   <g id="patch_93">
    <path d="M 343.637989 384.48 
L 346.174338 384.48 
L 346.174338 372.618817 
L 343.637989 372.618817 
z
" clip-path="url(#pac44b3d7e5)" style="fill: #87ceeb; opacity: 0.6; stroke: #000000; stroke-linejoin: miter"/>
   </g>
   <g id="patch_94">
    <path d="M 346.174338 384.48 
L 348.710687 384.48 
L 348.710687 373.254701 
L 346.174338 373.254701 
z
" clip-path="url(#pac44b3d7e5)" style="fill: #87ceeb; opacity: 0.6; stroke: #000000; stroke-linejoin: miter"/>
   </g>
   <g id="patch_95">
    <path d="M 348.710687 384.48 
L 351.247036 384.48 
L 351.247036 374.370742 
L 348.710687 374.370742 
z
" clip-path="url(#pac44b3d7e5)" style="fill: #87ceeb; opacity: 0.6; stroke: #000000; stroke-linejoin: miter"/>
   </g>
   <g id="patch_96">
    <path d="M 351.247036 384.48 
L 353.783385 384.48 
L 353.783385 375.681442 
L 351.247036 375.681442 
z
" clip-path="url(#pac44b3d7e5)" style="fill: #87ceeb; opacity: 0.6; stroke: #000000; stroke-linejoin: miter"/>
   </g>
   <g id="patch_97">
    <path d="M 353.783385 384.48 
L 356.319733 384.48 
L 356.319733 374.786013 
L 353.783385 374.786013 
z
" clip-path="url(#pac44b3d7e5)" style="fill: #87ceeb; opacity: 0.6; stroke: #000000; stroke-linejoin: miter"/>
   </g>
   <g id="patch_98">
    <path d="M 356.319733 384.48 
L 358.856082 384.48 
L 358.856082 376.641757 
L 356.319733 376.641757 
z
" clip-path="url(#pac44b3d7e5)" style="fill: #87ceeb; opacity: 0.6; stroke: #000000; stroke-linejoin: miter"/>
   </g>
   <g id="patch_99">
    <path d="M 358.856082 384.48 
L 361.392431 384.48 
L 361.392431 376.602825 
L 358.856082 376.602825 
z
" clip-path="url(#pac44b3d7e5)" style="fill: #87ceeb; opacity: 0.6; stroke: #000000; stroke-linejoin: miter"/>
   </g>
   <g id="patch_100">
    <path d="M 361.392431 384.48 
L 363.92878 384.48 
L 363.92878 378.004365 
L 361.392431 378.004365 
z
" clip-path="url(#pac44b3d7e5)" style="fill: #87ceeb; opacity: 0.6; stroke: #000000; stroke-linejoin: miter"/>
   </g>
   <g id="patch_101">
    <path d="M 363.92878 384.48 
L 366.465129 384.48 
L 366.465129 378.289864 
L 363.92878 378.289864 
z
" clip-path="url(#pac44b3d7e5)" style="fill: #87ceeb; opacity: 0.6; stroke: #000000; stroke-linejoin: miter"/>
   </g>
   <g id="patch_102">
    <path d="M 366.465129 384.48 
L 369.001478 384.48 
L 369.001478 377.913524 
L 366.465129 377.913524 
z
" clip-path="url(#pac44b3d7e5)" style="fill: #87ceeb; opacity: 0.6; stroke: #000000; stroke-linejoin: miter"/>
   </g>
   <g id="patch_103">
    <path d="M 369.001478 384.48 
L 371.537827 384.48 
L 371.537827 378.757044 
L 369.001478 378.757044 
z
" clip-path="url(#pac44b3d7e5)" style="fill: #87ceeb; opacity: 0.6; stroke: #000000; stroke-linejoin: miter"/>
   </g>
   <g id="patch_104">
    <path d="M 371.537827 384.48 
L 374.074175 384.48 
L 374.074175 379.444837 
L 371.537827 379.444837 
z
" clip-path="url(#pac44b3d7e5)" style="fill: #87ceeb; opacity: 0.6; stroke: #000000; stroke-linejoin: miter"/>
   </g>
   <g id="patch_105">
    <path d="M 374.074175 384.48 
L 376.610524 384.48 
L 376.610524 378.96468 
L 374.074175 378.96468 
z
" clip-path="url(#pac44b3d7e5)" style="fill: #87ceeb; opacity: 0.6; stroke: #000000; stroke-linejoin: miter"/>
   </g>
   <g id="patch_106">
    <path d="M 376.610524 384.48 
L 379.146873 384.48 
L 379.146873 379.509723 
L 376.610524 379.509723 
z
" clip-path="url(#pac44b3d7e5)" style="fill: #87ceeb; opacity: 0.6; stroke: #000000; stroke-linejoin: miter"/>
   </g>
   <g id="patch_107">
    <path d="M 379.146873 384.48 
L 381.683222 384.48 
L 381.683222 379.678427 
L 379.146873 379.678427 
z
" clip-path="url(#pac44b3d7e5)" style="fill: #87ceeb; opacity: 0.6; stroke: #000000; stroke-linejoin: miter"/>
   </g>
   <g id="patch_108">
    <path d="M 381.683222 384.48 
L 384.219571 384.48 
L 384.219571 380.444083 
L 381.683222 380.444083 
z
" clip-path="url(#pac44b3d7e5)" style="fill: #87ceeb; opacity: 0.6; stroke: #000000; stroke-linejoin: miter"/>
   </g>
   <g id="patch_109">
    <path d="M 384.219571 384.48 
L 386.75592 384.48 
L 386.75592 380.45706 
L 384.219571 380.45706 
z
" clip-path="url(#pac44b3d7e5)" style="fill: #87ceeb; opacity: 0.6; stroke: #000000; stroke-linejoin: miter"/>
   </g>
   <g id="patch_110">
    <path d="M 386.75592 384.48 
L 389.292269 384.48 
L 389.292269 381.326534 
L 386.75592 381.326534 
z
" clip-path="url(#pac44b3d7e5)" style="fill: #87ceeb; opacity: 0.6; stroke: #000000; stroke-linejoin: miter"/>
   </g>
   <g id="patch_111">
    <path d="M 389.292269 384.48 
L 391.828617 384.48 
L 391.828617 381.456307 
L 389.292269 381.456307 
z
" clip-path="url(#pac44b3d7e5)" style="fill: #87ceeb; opacity: 0.6; stroke: #000000; stroke-linejoin: miter"/>
   </g>
   <g id="patch_112">
    <path d="M 391.828617 384.48 
L 394.364966 384.48 
L 394.364966 380.963172 
L 391.828617 380.963172 
z
" clip-path="url(#pac44b3d7e5)" style="fill: #87ceeb; opacity: 0.6; stroke: #000000; stroke-linejoin: miter"/>
   </g>
   <g id="patch_113">
    <path d="M 394.364966 384.48 
L 396.901315 384.48 
L 396.901315 381.962418 
L 394.364966 381.962418 
z
" clip-path="url(#pac44b3d7e5)" style="fill: #87ceeb; opacity: 0.6; stroke: #000000; stroke-linejoin: miter"/>
   </g>
   <g id="patch_114">
    <path d="M 396.901315 384.48 
L 399.437664 384.48 
L 399.437664 381.936464 
L 396.901315 381.936464 
z
" clip-path="url(#pac44b3d7e5)" style="fill: #87ceeb; opacity: 0.6; stroke: #000000; stroke-linejoin: miter"/>
   </g>
   <g id="patch_115">
    <path d="M 399.437664 384.48 
L 401.974013 384.48 
L 401.974013 382.286849 
L 399.437664 382.286849 
z
" clip-path="url(#pac44b3d7e5)" style="fill: #87ceeb; opacity: 0.6; stroke: #000000; stroke-linejoin: miter"/>
   </g>
   <g id="patch_116">
    <path d="M 401.974013 384.48 
L 404.510362 384.48 
L 404.510362 381.806692 
L 401.974013 381.806692 
z
" clip-path="url(#pac44b3d7e5)" style="fill: #87ceeb; opacity: 0.6; stroke: #000000; stroke-linejoin: miter"/>
   </g>
   <g id="patch_117">
    <path d="M 404.510362 384.48 
L 407.046711 384.48 
L 407.046711 382.351735 
L 404.510362 382.351735 
z
" clip-path="url(#pac44b3d7e5)" style="fill: #87ceeb; opacity: 0.6; stroke: #000000; stroke-linejoin: miter"/>
   </g>
   <g id="patch_118">
    <path d="M 407.046711 384.48 
L 409.583059 384.48 
L 409.583059 382.312804 
L 407.046711 382.312804 
z
" clip-path="url(#pac44b3d7e5)" style="fill: #87ceeb; opacity: 0.6; stroke: #000000; stroke-linejoin: miter"/>
   </g>
   <g id="patch_119">
    <path d="M 409.583059 384.48 
L 412.119408 384.48 
L 412.119408 382.286849 
L 409.583059 382.286849 
z
" clip-path="url(#pac44b3d7e5)" style="fill: #87ceeb; opacity: 0.6; stroke: #000000; stroke-linejoin: miter"/>
   </g>
   <g id="patch_120">
    <path d="M 412.119408 384.48 
L 414.655757 384.48 
L 414.655757 382.728075 
L 412.119408 382.728075 
z
" clip-path="url(#pac44b3d7e5)" style="fill: #87ceeb; opacity: 0.6; stroke: #000000; stroke-linejoin: miter"/>
   </g>
   <g id="patch_121">
    <path d="M 414.655757 384.48 
L 417.192106 384.48 
L 417.192106 382.416621 
L 414.655757 382.416621 
z
" clip-path="url(#pac44b3d7e5)" style="fill: #87ceeb; opacity: 0.6; stroke: #000000; stroke-linejoin: miter"/>
   </g>
   <g id="patch_122">
    <path d="M 417.192106 384.48 
L 419.728455 384.48 
L 419.728455 382.831893 
L 417.192106 382.831893 
z
" clip-path="url(#pac44b3d7e5)" style="fill: #87ceeb; opacity: 0.6; stroke: #000000; stroke-linejoin: miter"/>
   </g>
   <g id="patch_123">
    <path d="M 419.728455 384.48 
L 422.264804 384.48 
L 422.264804 382.93571 
L 419.728455 382.93571 
z
" clip-path="url(#pac44b3d7e5)" style="fill: #87ceeb; opacity: 0.6; stroke: #000000; stroke-linejoin: miter"/>
   </g>
   <g id="patch_124">
    <path d="M 422.264804 384.48 
L 424.801153 384.48 
L 424.801153 383.221209 
L 422.264804 383.221209 
z
" clip-path="url(#pac44b3d7e5)" style="fill: #87ceeb; opacity: 0.6; stroke: #000000; stroke-linejoin: miter"/>
   </g>
   <g id="patch_125">
    <path d="M 424.801153 384.48 
L 427.337501 384.48 
L 427.337501 383.428845 
L 424.801153 383.428845 
z
" clip-path="url(#pac44b3d7e5)" style="fill: #87ceeb; opacity: 0.6; stroke: #000000; stroke-linejoin: miter"/>
   </g>
   <g id="patch_126">
    <path d="M 427.337501 384.48 
L 429.87385 384.48 
L 429.87385 383.247164 
L 427.337501 383.247164 
z
" clip-path="url(#pac44b3d7e5)" style="fill: #87ceeb; opacity: 0.6; stroke: #000000; stroke-linejoin: miter"/>
   </g>
   <g id="patch_127">
    <path d="M 429.87385 384.48 
L 432.410199 384.48 
L 432.410199 383.299073 
L 429.87385 383.299073 
z
" clip-path="url(#pac44b3d7e5)" style="fill: #87ceeb; opacity: 0.6; stroke: #000000; stroke-linejoin: miter"/>
   </g>
   <g id="patch_128">
    <path d="M 432.410199 384.48 
L 434.946548 384.48 
L 434.946548 383.623503 
L 432.410199 383.623503 
z
" clip-path="url(#pac44b3d7e5)" style="fill: #87ceeb; opacity: 0.6; stroke: #000000; stroke-linejoin: miter"/>
   </g>
   <g id="patch_129">
    <path d="M 434.946548 384.48 
L 437.482897 384.48 
L 437.482897 383.376936 
L 434.946548 383.376936 
z
" clip-path="url(#pac44b3d7e5)" style="fill: #87ceeb; opacity: 0.6; stroke: #000000; stroke-linejoin: miter"/>
   </g>
   <g id="patch_130">
    <path d="M 437.482897 384.48 
L 440.019246 384.48 
L 440.019246 383.727321 
L 437.482897 383.727321 
z
" clip-path="url(#pac44b3d7e5)" style="fill: #87ceeb; opacity: 0.6; stroke: #000000; stroke-linejoin: miter"/>
   </g>
   <g id="patch_131">
    <path d="M 440.019246 384.48 
L 442.555595 384.48 
L 442.555595 383.831139 
L 440.019246 383.831139 
z
" clip-path="url(#pac44b3d7e5)" style="fill: #87ceeb; opacity: 0.6; stroke: #000000; stroke-linejoin: miter"/>
   </g>
   <g id="patch_132">
    <path d="M 442.555595 384.48 
L 445.091944 384.48 
L 445.091944 383.740298 
L 442.555595 383.740298 
z
" clip-path="url(#pac44b3d7e5)" style="fill: #87ceeb; opacity: 0.6; stroke: #000000; stroke-linejoin: miter"/>
   </g>
   <g id="patch_133">
    <path d="M 445.091944 384.48 
L 447.628292 384.48 
L 447.628292 383.597549 
L 445.091944 383.597549 
z
" clip-path="url(#pac44b3d7e5)" style="fill: #87ceeb; opacity: 0.6; stroke: #000000; stroke-linejoin: miter"/>
   </g>
   <g id="patch_134">
    <path d="M 447.628292 384.48 
L 450.164641 384.48 
L 450.164641 383.766253 
L 447.628292 383.766253 
z
" clip-path="url(#pac44b3d7e5)" style="fill: #87ceeb; opacity: 0.6; stroke: #000000; stroke-linejoin: miter"/>
   </g>
   <g id="patch_135">
    <path d="M 450.164641 384.48 
L 452.70099 384.48 
L 452.70099 383.973888 
L 450.164641 383.973888 
z
" clip-path="url(#pac44b3d7e5)" style="fill: #87ceeb; opacity: 0.6; stroke: #000000; stroke-linejoin: miter"/>
   </g>
   <g id="patch_136">
    <path d="M 452.70099 384.48 
L 455.237339 384.48 
L 455.237339 383.753275 
L 452.70099 383.753275 
z
" clip-path="url(#pac44b3d7e5)" style="fill: #87ceeb; opacity: 0.6; stroke: #000000; stroke-linejoin: miter"/>
   </g>
   <g id="patch_137">
    <path d="M 455.237339 384.48 
L 457.773688 384.48 
L 457.773688 383.947934 
L 455.237339 383.947934 
z
" clip-path="url(#pac44b3d7e5)" style="fill: #87ceeb; opacity: 0.6; stroke: #000000; stroke-linejoin: miter"/>
   </g>
   <g id="patch_138">
    <path d="M 457.773688 384.48 
L 460.310037 384.48 
L 460.310037 383.934957 
L 457.773688 383.934957 
z
" clip-path="url(#pac44b3d7e5)" style="fill: #87ceeb; opacity: 0.6; stroke: #000000; stroke-linejoin: miter"/>
   </g>
   <g id="patch_139">
    <path d="M 460.310037 384.48 
L 462.846386 384.48 
L 462.846386 384.142592 
L 460.310037 384.142592 
z
" clip-path="url(#pac44b3d7e5)" style="fill: #87ceeb; opacity: 0.6; stroke: #000000; stroke-linejoin: miter"/>
   </g>
   <g id="patch_140">
    <path d="M 462.846386 384.48 
L 465.382734 384.48 
L 465.382734 384.01282 
L 462.846386 384.01282 
z
" clip-path="url(#pac44b3d7e5)" style="fill: #87ceeb; opacity: 0.6; stroke: #000000; stroke-linejoin: miter"/>
   </g>
   <g id="patch_141">
    <path d="M 465.382734 384.48 
L 467.919083 384.48 
L 467.919083 384.077706 
L 465.382734 384.077706 
z
" clip-path="url(#pac44b3d7e5)" style="fill: #87ceeb; opacity: 0.6; stroke: #000000; stroke-linejoin: miter"/>
   </g>
   <g id="patch_142">
    <path d="M 467.919083 384.48 
L 470.455432 384.48 
L 470.455432 384.194501 
L 467.919083 384.194501 
z
" clip-path="url(#pac44b3d7e5)" style="fill: #87ceeb; opacity: 0.6; stroke: #000000; stroke-linejoin: miter"/>
   </g>
   <g id="patch_143">
    <path d="M 470.455432 384.48 
L 472.991781 384.48 
L 472.991781 384.181524 
L 470.455432 384.181524 
z
" clip-path="url(#pac44b3d7e5)" style="fill: #87ceeb; opacity: 0.6; stroke: #000000; stroke-linejoin: miter"/>
   </g>
   <g id="patch_144">
    <path d="M 472.991781 384.48 
L 475.52813 384.48 
L 475.52813 384.311296 
L 472.991781 384.311296 
z
" clip-path="url(#pac44b3d7e5)" style="fill: #87ceeb; opacity: 0.6; stroke: #000000; stroke-linejoin: miter"/>
   </g>
   <g id="patch_145">
    <path d="M 475.52813 384.48 
L 478.064479 384.48 
L 478.064479 384.259387 
L 475.52813 384.259387 
z
" clip-path="url(#pac44b3d7e5)" style="fill: #87ceeb; opacity: 0.6; stroke: #000000; stroke-linejoin: miter"/>
   </g>
   <g id="patch_146">
    <path d="M 478.064479 384.48 
L 480.600828 384.48 
L 480.600828 384.116638 
L 478.064479 384.116638 
z
" clip-path="url(#pac44b3d7e5)" style="fill: #87ceeb; opacity: 0.6; stroke: #000000; stroke-linejoin: miter"/>
   </g>
   <g id="patch_147">
    <path d="M 480.600828 384.48 
L 483.137176 384.48 
L 483.137176 384.337251 
L 480.600828 384.337251 
z
" clip-path="url(#pac44b3d7e5)" style="fill: #87ceeb; opacity: 0.6; stroke: #000000; stroke-linejoin: miter"/>
   </g>
   <g id="patch_148">
    <path d="M 483.137176 384.48 
L 485.673525 384.48 
L 485.673525 384.337251 
L 483.137176 384.337251 
z
" clip-path="url(#pac44b3d7e5)" style="fill: #87ceeb; opacity: 0.6; stroke: #000000; stroke-linejoin: miter"/>
   </g>
   <g id="patch_149">
    <path d="M 485.673525 384.48 
L 488.209874 384.48 
L 488.209874 384.220456 
L 485.673525 384.220456 
z
" clip-path="url(#pac44b3d7e5)" style="fill: #87ceeb; opacity: 0.6; stroke: #000000; stroke-linejoin: miter"/>
   </g>
   <g id="patch_150">
    <path d="M 488.209874 384.48 
L 490.746223 384.48 
L 490.746223 384.337251 
L 488.209874 384.337251 
z
" clip-path="url(#pac44b3d7e5)" style="fill: #87ceeb; opacity: 0.6; stroke: #000000; stroke-linejoin: miter"/>
   </g>
   <g id="patch_151">
    <path d="M 490.746223 384.48 
L 493.282572 384.48 
L 493.282572 384.350228 
L 490.746223 384.350228 
z
" clip-path="url(#pac44b3d7e5)" style="fill: #87ceeb; opacity: 0.6; stroke: #000000; stroke-linejoin: miter"/>
   </g>
   <g id="patch_152">
    <path d="M 493.282572 384.48 
L 495.818921 384.48 
L 495.818921 384.402137 
L 493.282572 384.402137 
z
" clip-path="url(#pac44b3d7e5)" style="fill: #87ceeb; opacity: 0.6; stroke: #000000; stroke-linejoin: miter"/>
   </g>
   <g id="patch_153">
    <path d="M 495.818921 384.48 
L 498.35527 384.48 
L 498.35527 384.389159 
L 495.818921 384.389159 
z
" clip-path="url(#pac44b3d7e5)" style="fill: #87ceeb; opacity: 0.6; stroke: #000000; stroke-linejoin: miter"/>
   </g>
   <g id="patch_154">
    <path d="M 498.35527 384.48 
L 500.891618 384.48 
L 500.891618 384.129615 
L 498.35527 384.129615 
z
" clip-path="url(#pac44b3d7e5)" style="fill: #87ceeb; opacity: 0.6; stroke: #000000; stroke-linejoin: miter"/>
   </g>
   <g id="patch_155">
    <path d="M 500.891618 384.48 
L 503.427967 384.48 
L 503.427967 384.233433 
L 500.891618 384.233433 
z
" clip-path="url(#pac44b3d7e5)" style="fill: #87ceeb; opacity: 0.6; stroke: #000000; stroke-linejoin: miter"/>
   </g>
   <g id="patch_156">
    <path d="M 503.427967 384.48 
L 505.964316 384.48 
L 505.964316 384.363205 
L 503.427967 384.363205 
z
" clip-path="url(#pac44b3d7e5)" style="fill: #87ceeb; opacity: 0.6; stroke: #000000; stroke-linejoin: miter"/>
   </g>
   <g id="patch_157">
    <path d="M 505.964316 384.48 
L 508.500665 384.48 
L 508.500665 384.389159 
L 505.964316 384.389159 
z
" clip-path="url(#pac44b3d7e5)" style="fill: #87ceeb; opacity: 0.6; stroke: #000000; stroke-linejoin: miter"/>
   </g>
   <g id="patch_158">
    <path d="M 508.500665 384.48 
L 511.037014 384.48 
L 511.037014 384.467023 
L 508.500665 384.467023 
z
" clip-path="url(#pac44b3d7e5)" style="fill: #87ceeb; opacity: 0.6; stroke: #000000; stroke-linejoin: miter"/>
   </g>
   <g id="patch_159">
    <path d="M 511.037014 384.48 
L 513.573363 384.48 
L 513.573363 384.311296 
L 511.037014 384.311296 
z
" clip-path="url(#pac44b3d7e5)" style="fill: #87ceeb; opacity: 0.6; stroke: #000000; stroke-linejoin: miter"/>
   </g>
   <g id="patch_160">
    <path d="M 513.573363 384.48 
L 516.109712 384.48 
L 516.109712 384.389159 
L 513.573363 384.389159 
z
" clip-path="url(#pac44b3d7e5)" style="fill: #87ceeb; opacity: 0.6; stroke: #000000; stroke-linejoin: miter"/>
   </g>
   <g id="patch_161">
    <path d="M 516.109712 384.48 
L 518.64606 384.48 
L 518.64606 384.441068 
L 516.109712 384.441068 
z
" clip-path="url(#pac44b3d7e5)" style="fill: #87ceeb; opacity: 0.6; stroke: #000000; stroke-linejoin: miter"/>
   </g>
   <g id="patch_162">
    <path d="M 518.64606 384.48 
L 521.182409 384.48 
L 521.182409 384.285342 
L 518.64606 384.285342 
z
" clip-path="url(#pac44b3d7e5)" style="fill: #87ceeb; opacity: 0.6; stroke: #000000; stroke-linejoin: miter"/>
   </g>
   <g id="patch_163">
    <path d="M 521.182409 384.48 
L 523.718758 384.48 
L 523.718758 384.389159 
L 521.182409 384.389159 
z
" clip-path="url(#pac44b3d7e5)" style="fill: #87ceeb; opacity: 0.6; stroke: #000000; stroke-linejoin: miter"/>
   </g>
   <g id="patch_164">
    <path d="M 523.718758 384.48 
L 526.255107 384.48 
L 526.255107 384.363205 
L 523.718758 384.363205 
z
" clip-path="url(#pac44b3d7e5)" style="fill: #87ceeb; opacity: 0.6; stroke: #000000; stroke-linejoin: miter"/>
   </g>
   <g id="patch_165">
    <path d="M 526.255107 384.48 
L 528.791456 384.48 
L 528.791456 384.415114 
L 526.255107 384.415114 
z
" clip-path="url(#pac44b3d7e5)" style="fill: #87ceeb; opacity: 0.6; stroke: #000000; stroke-linejoin: miter"/>
   </g>
   <g id="patch_166">
    <path d="M 528.791456 384.48 
L 531.327805 384.48 
L 531.327805 384.467023 
L 528.791456 384.467023 
z
" clip-path="url(#pac44b3d7e5)" style="fill: #87ceeb; opacity: 0.6; stroke: #000000; stroke-linejoin: miter"/>
   </g>
   <g id="patch_167">
    <path d="M 531.327805 384.48 
L 533.864154 384.48 
L 533.864154 384.467023 
L 531.327805 384.467023 
z
" clip-path="url(#pac44b3d7e5)" style="fill: #87ceeb; opacity: 0.6; stroke: #000000; stroke-linejoin: miter"/>
   </g>
   <g id="patch_168">
    <path d="M 533.864154 384.48 
L 536.400502 384.48 
L 536.400502 384.454046 
L 533.864154 384.454046 
z
" clip-path="url(#pac44b3d7e5)" style="fill: #87ceeb; opacity: 0.6; stroke: #000000; stroke-linejoin: miter"/>
   </g>
   <g id="patch_169">
    <path d="M 536.400502 384.48 
L 538.936851 384.48 
L 538.936851 384.441068 
L 536.400502 384.441068 
z
" clip-path="url(#pac44b3d7e5)" style="fill: #87ceeb; opacity: 0.6; stroke: #000000; stroke-linejoin: miter"/>
   </g>
   <g id="patch_170">
    <path d="M 538.936851 384.48 
L 541.4732 384.48 
L 541.4732 384.428091 
L 538.936851 384.428091 
z
" clip-path="url(#pac44b3d7e5)" style="fill: #87ceeb; opacity: 0.6; stroke: #000000; stroke-linejoin: miter"/>
   </g>
   <g id="patch_171">
    <path d="M 541.4732 384.48 
L 544.009549 384.48 
L 544.009549 384.467023 
L 541.4732 384.467023 
z
" clip-path="url(#pac44b3d7e5)" style="fill: #87ceeb; opacity: 0.6; stroke: #000000; stroke-linejoin: miter"/>
   </g>
   <g id="patch_172">
    <path d="M 544.009549 384.48 
L 546.545898 384.48 
L 546.545898 384.428091 
L 544.009549 384.428091 
z
" clip-path="url(#pac44b3d7e5)" style="fill: #87ceeb; opacity: 0.6; stroke: #000000; stroke-linejoin: miter"/>
   </g>
   <g id="patch_173">
    <path d="M 546.545898 384.48 
L 549.082247 384.48 
L 549.082247 384.48 
L 546.545898 384.48 
z
" clip-path="url(#pac44b3d7e5)" style="fill: #87ceeb; opacity: 0.6; stroke: #000000; stroke-linejoin: miter"/>
   </g>
   <g id="patch_174">
    <path d="M 549.082247 384.48 
L 551.618596 384.48 
L 551.618596 384.454046 
L 549.082247 384.454046 
z
" clip-path="url(#pac44b3d7e5)" style="fill: #87ceeb; opacity: 0.6; stroke: #000000; stroke-linejoin: miter"/>
   </g>
   <g id="patch_175">
    <path d="M 551.618596 384.48 
L 554.154944 384.48 
L 554.154944 384.467023 
L 551.618596 384.467023 
z
" clip-path="url(#pac44b3d7e5)" style="fill: #87ceeb; opacity: 0.6; stroke: #000000; stroke-linejoin: miter"/>
   </g>
   <g id="patch_176">
    <path d="M 554.154944 384.48 
L 556.691293 384.48 
L 556.691293 384.48 
L 554.154944 384.48 
z
" clip-path="url(#pac44b3d7e5)" style="fill: #87ceeb; opacity: 0.6; stroke: #000000; stroke-linejoin: miter"/>
   </g>
   <g id="patch_177">
    <path d="M 556.691293 384.48 
L 559.227642 384.48 
L 559.227642 384.441068 
L 556.691293 384.441068 
z
" clip-path="url(#pac44b3d7e5)" style="fill: #87ceeb; opacity: 0.6; stroke: #000000; stroke-linejoin: miter"/>
   </g>
   <g id="patch_178">
    <path d="M 559.227642 384.48 
L 561.763991 384.48 
L 561.763991 384.441068 
L 559.227642 384.441068 
z
" clip-path="url(#pac44b3d7e5)" style="fill: #87ceeb; opacity: 0.6; stroke: #000000; stroke-linejoin: miter"/>
   </g>
   <g id="patch_179">
    <path d="M 561.763991 384.48 
L 564.30034 384.48 
L 564.30034 384.402137 
L 561.763991 384.402137 
z
" clip-path="url(#pac44b3d7e5)" style="fill: #87ceeb; opacity: 0.6; stroke: #000000; stroke-linejoin: miter"/>
   </g>
   <g id="patch_180">
    <path d="M 564.30034 384.48 
L 566.836689 384.48 
L 566.836689 384.467023 
L 564.30034 384.467023 
z
" clip-path="url(#pac44b3d7e5)" style="fill: #87ceeb; opacity: 0.6; stroke: #000000; stroke-linejoin: miter"/>
   </g>
   <g id="patch_181">
    <path d="M 566.836689 384.48 
L 569.373038 384.48 
L 569.373038 384.467023 
L 566.836689 384.467023 
z
" clip-path="url(#pac44b3d7e5)" style="fill: #87ceeb; opacity: 0.6; stroke: #000000; stroke-linejoin: miter"/>
   </g>
   <g id="patch_182">
    <path d="M 569.373038 384.48 
L 571.909386 384.48 
L 571.909386 384.48 
L 569.373038 384.48 
z
" clip-path="url(#pac44b3d7e5)" style="fill: #87ceeb; opacity: 0.6; stroke: #000000; stroke-linejoin: miter"/>
   </g>
   <g id="patch_183">
    <path d="M 571.909386 384.48 
L 574.445735 384.48 
L 574.445735 384.428091 
L 571.909386 384.428091 
z
" clip-path="url(#pac44b3d7e5)" style="fill: #87ceeb; opacity: 0.6; stroke: #000000; stroke-linejoin: miter"/>
   </g>
   <g id="patch_184">
    <path d="M 574.445735 384.48 
L 576.982084 384.48 
L 576.982084 384.48 
L 574.445735 384.48 
z
" clip-path="url(#pac44b3d7e5)" style="fill: #87ceeb; opacity: 0.6; stroke: #000000; stroke-linejoin: miter"/>
   </g>
   <g id="patch_185">
    <path d="M 576.982084 384.48 
L 579.518433 384.48 
L 579.518433 384.48 
L 576.982084 384.48 
z
" clip-path="url(#pac44b3d7e5)" style="fill: #87ceeb; opacity: 0.6; stroke: #000000; stroke-linejoin: miter"/>
   </g>
   <g id="patch_186">
    <path d="M 579.518433 384.48 
L 582.054782 384.48 
L 582.054782 384.454046 
L 579.518433 384.454046 
z
" clip-path="url(#pac44b3d7e5)" style="fill: #87ceeb; opacity: 0.6; stroke: #000000; stroke-linejoin: miter"/>
   </g>
   <g id="patch_187">
    <path d="M 582.054782 384.48 
L 584.591131 384.48 
L 584.591131 384.454046 
L 582.054782 384.454046 
z
" clip-path="url(#pac44b3d7e5)" style="fill: #87ceeb; opacity: 0.6; stroke: #000000; stroke-linejoin: miter"/>
   </g>
   <g id="patch_188">
    <path d="M 584.591131 384.48 
L 587.12748 384.48 
L 587.12748 384.48 
L 584.591131 384.48 
z
" clip-path="url(#pac44b3d7e5)" style="fill: #87ceeb; opacity: 0.6; stroke: #000000; stroke-linejoin: miter"/>
   </g>
   <g id="patch_189">
    <path d="M 587.12748 384.48 
L 589.663828 384.48 
L 589.663828 384.467023 
L 587.12748 384.467023 
z
" clip-path="url(#pac44b3d7e5)" style="fill: #87ceeb; opacity: 0.6; stroke: #000000; stroke-linejoin: miter"/>
   </g>
   <g id="patch_190">
    <path d="M 589.663828 384.48 
L 592.200177 384.48 
L 592.200177 384.467023 
L 589.663828 384.467023 
z
" clip-path="url(#pac44b3d7e5)" style="fill: #87ceeb; opacity: 0.6; stroke: #000000; stroke-linejoin: miter"/>
   </g>
   <g id="patch_191">
    <path d="M 592.200177 384.48 
L 594.736526 384.48 
L 594.736526 384.454046 
L 592.200177 384.454046 
z
" clip-path="url(#pac44b3d7e5)" style="fill: #87ceeb; opacity: 0.6; stroke: #000000; stroke-linejoin: miter"/>
   </g>
   <g id="patch_192">
    <path d="M 594.736526 384.48 
L 597.272875 384.48 
L 597.272875 384.48 
L 594.736526 384.48 
z
" clip-path="url(#pac44b3d7e5)" style="fill: #87ceeb; opacity: 0.6; stroke: #000000; stroke-linejoin: miter"/>
   </g>
   <g id="patch_193">
    <path d="M 597.272875 384.48 
L 599.809224 384.48 
L 599.809224 384.467023 
L 597.272875 384.467023 
z
" clip-path="url(#pac44b3d7e5)" style="fill: #87ceeb; opacity: 0.6; stroke: #000000; stroke-linejoin: miter"/>
   </g>
   <g id="patch_194">
    <path d="M 599.809224 384.48 
L 602.345573 384.48 
L 602.345573 384.467023 
L 599.809224 384.467023 
z
" clip-path="url(#pac44b3d7e5)" style="fill: #87ceeb; opacity: 0.6; stroke: #000000; stroke-linejoin: miter"/>
   </g>
   <g id="patch_195">
    <path d="M 602.345573 384.48 
L 604.881922 384.48 
L 604.881922 384.428091 
L 602.345573 384.428091 
z
" clip-path="url(#pac44b3d7e5)" style="fill: #87ceeb; opacity: 0.6; stroke: #000000; stroke-linejoin: miter"/>
   </g>
   <g id="patch_196">
    <path d="M 604.881922 384.48 
L 607.41827 384.48 
L 607.41827 384.428091 
L 604.881922 384.428091 
z
" clip-path="url(#pac44b3d7e5)" style="fill: #87ceeb; opacity: 0.6; stroke: #000000; stroke-linejoin: miter"/>
   </g>
   <g id="patch_197">
    <path d="M 607.41827 384.48 
L 609.954619 384.48 
L 609.954619 384.467023 
L 607.41827 384.467023 
z
" clip-path="url(#pac44b3d7e5)" style="fill: #87ceeb; opacity: 0.6; stroke: #000000; stroke-linejoin: miter"/>
   </g>
   <g id="patch_198">
    <path d="M 609.954619 384.48 
L 612.490968 384.48 
L 612.490968 384.48 
L 609.954619 384.48 
z
" clip-path="url(#pac44b3d7e5)" style="fill: #87ceeb; opacity: 0.6; stroke: #000000; stroke-linejoin: miter"/>
   </g>
   <g id="patch_199">
    <path d="M 612.490968 384.48 
L 615.027317 384.48 
L 615.027317 384.48 
L 612.490968 384.48 
z
" clip-path="url(#pac44b3d7e5)" style="fill: #87ceeb; opacity: 0.6; stroke: #000000; stroke-linejoin: miter"/>
   </g>
   <g id="patch_200">
    <path d="M 615.027317 384.48 
L 617.563666 384.48 
L 617.563666 384.48 
L 615.027317 384.48 
z
" clip-path="url(#pac44b3d7e5)" style="fill: #87ceeb; opacity: 0.6; stroke: #000000; stroke-linejoin: miter"/>
   </g>
   <g id="patch_201">
    <path d="M 617.563666 384.48 
L 620.100015 384.48 
L 620.100015 384.48 
L 617.563666 384.48 
z
" clip-path="url(#pac44b3d7e5)" style="fill: #87ceeb; opacity: 0.6; stroke: #000000; stroke-linejoin: miter"/>
   </g>
   <g id="patch_202">
    <path d="M 620.100015 384.48 
L 622.636364 384.48 
L 622.636364 384.441068 
L 620.100015 384.441068 
z
" clip-path="url(#pac44b3d7e5)" style="fill: #87ceeb; opacity: 0.6; stroke: #000000; stroke-linejoin: miter"/>
   </g>
   <g id="matplotlib.axis_1">
    <g id="xtick_1">
     <g id="line2d_1">
      <defs>
       <path id="mec3170fad2" d="M 0 0 
L 0 3.5 
" style="stroke: #000000; stroke-width: 0.8"/>
      </defs>
      <g>
       <use xlink:href="#mec3170fad2" x="115.363636" y="384.48" style="stroke: #000000; stroke-width: 0.8"/>
      </g>
     </g>
     <g id="text_1">
      <!-- 0.0 -->
      <g transform="translate(107.412074 399.078438) scale(0.1 -0.1)">
       <defs>
        <path id="DejaVuSans-30" d="M 2034 4250 
Q 1547 4250 1301 3770 
Q 1056 3291 1056 2328 
Q 1056 1369 1301 889 
Q 1547 409 2034 409 
Q 2525 409 2770 889 
Q 3016 1369 3016 2328 
Q 3016 3291 2770 3770 
Q 2525 4250 2034 4250 
z
M 2034 4750 
Q 2819 4750 3233 4129 
Q 3647 3509 3647 2328 
Q 3647 1150 3233 529 
Q 2819 -91 2034 -91 
Q 1250 -91 836 529 
Q 422 1150 422 2328 
Q 422 3509 836 4129 
Q 1250 4750 2034 4750 
z
" transform="scale(0.015625)"/>
        <path id="DejaVuSans-2e" d="M 684 794 
L 1344 794 
L 1344 0 
L 684 0 
L 684 794 
z
" transform="scale(0.015625)"/>
       </defs>
       <use xlink:href="#DejaVuSans-30"/>
       <use xlink:href="#DejaVuSans-2e" transform="translate(63.623047 0)"/>
       <use xlink:href="#DejaVuSans-30" transform="translate(95.410156 0)"/>
      </g>
     </g>
    </g>
    <g id="xtick_2">
     <g id="line2d_2">
      <g>
       <use xlink:href="#mec3170fad2" x="200.680427" y="384.48" style="stroke: #000000; stroke-width: 0.8"/>
      </g>
     </g>
     <g id="text_2">
      <!-- 0.5 -->
      <g transform="translate(192.728864 399.078438) scale(0.1 -0.1)">
       <defs>
        <path id="DejaVuSans-35" d="M 691 4666 
L 3169 4666 
L 3169 4134 
L 1269 4134 
L 1269 2991 
Q 1406 3038 1543 3061 
Q 1681 3084 1819 3084 
Q 2600 3084 3056 2656 
Q 3513 2228 3513 1497 
Q 3513 744 3044 326 
Q 2575 -91 1722 -91 
Q 1428 -91 1123 -41 
Q 819 9 494 109 
L 494 744 
Q 775 591 1075 516 
Q 1375 441 1709 441 
Q 2250 441 2565 725 
Q 2881 1009 2881 1497 
Q 2881 1984 2565 2268 
Q 2250 2553 1709 2553 
Q 1456 2553 1204 2497 
Q 953 2441 691 2322 
L 691 4666 
z
" transform="scale(0.015625)"/>
       </defs>
       <use xlink:href="#DejaVuSans-30"/>
       <use xlink:href="#DejaVuSans-2e" transform="translate(63.623047 0)"/>
       <use xlink:href="#DejaVuSans-35" transform="translate(95.410156 0)"/>
      </g>
     </g>
    </g>
    <g id="xtick_3">
     <g id="line2d_3">
      <g>
       <use xlink:href="#mec3170fad2" x="285.997217" y="384.48" style="stroke: #000000; stroke-width: 0.8"/>
      </g>
     </g>
     <g id="text_3">
      <!-- 1.0 -->
      <g transform="translate(278.045654 399.078438) scale(0.1 -0.1)">
       <defs>
        <path id="DejaVuSans-31" d="M 794 531 
L 1825 531 
L 1825 4091 
L 703 3866 
L 703 4441 
L 1819 4666 
L 2450 4666 
L 2450 531 
L 3481 531 
L 3481 0 
L 794 0 
L 794 531 
z
" transform="scale(0.015625)"/>
       </defs>
       <use xlink:href="#DejaVuSans-31"/>
       <use xlink:href="#DejaVuSans-2e" transform="translate(63.623047 0)"/>
       <use xlink:href="#DejaVuSans-30" transform="translate(95.410156 0)"/>
      </g>
     </g>
    </g>
    <g id="xtick_4">
     <g id="line2d_4">
      <g>
       <use xlink:href="#mec3170fad2" x="371.314007" y="384.48" style="stroke: #000000; stroke-width: 0.8"/>
      </g>
     </g>
     <g id="text_4">
      <!-- 1.5 -->
      <g transform="translate(363.362445 399.078438) scale(0.1 -0.1)">
       <use xlink:href="#DejaVuSans-31"/>
       <use xlink:href="#DejaVuSans-2e" transform="translate(63.623047 0)"/>
       <use xlink:href="#DejaVuSans-35" transform="translate(95.410156 0)"/>
      </g>
     </g>
    </g>
    <g id="xtick_5">
     <g id="line2d_5">
      <g>
       <use xlink:href="#mec3170fad2" x="456.630797" y="384.48" style="stroke: #000000; stroke-width: 0.8"/>
      </g>
     </g>
     <g id="text_5">
      <!-- 2.0 -->
      <g transform="translate(448.679235 399.078438) scale(0.1 -0.1)">
       <defs>
        <path id="DejaVuSans-32" d="M 1228 531 
L 3431 531 
L 3431 0 
L 469 0 
L 469 531 
Q 828 903 1448 1529 
Q 2069 2156 2228 2338 
Q 2531 2678 2651 2914 
Q 2772 3150 2772 3378 
Q 2772 3750 2511 3984 
Q 2250 4219 1831 4219 
Q 1534 4219 1204 4116 
Q 875 4013 500 3803 
L 500 4441 
Q 881 4594 1212 4672 
Q 1544 4750 1819 4750 
Q 2544 4750 2975 4387 
Q 3406 4025 3406 3419 
Q 3406 3131 3298 2873 
Q 3191 2616 2906 2266 
Q 2828 2175 2409 1742 
Q 1991 1309 1228 531 
z
" transform="scale(0.015625)"/>
       </defs>
       <use xlink:href="#DejaVuSans-32"/>
       <use xlink:href="#DejaVuSans-2e" transform="translate(63.623047 0)"/>
       <use xlink:href="#DejaVuSans-30" transform="translate(95.410156 0)"/>
      </g>
     </g>
    </g>
    <g id="xtick_6">
     <g id="line2d_6">
      <g>
       <use xlink:href="#mec3170fad2" x="541.947588" y="384.48" style="stroke: #000000; stroke-width: 0.8"/>
      </g>
     </g>
     <g id="text_6">
      <!-- 2.5 -->
      <g transform="translate(533.996025 399.078438) scale(0.1 -0.1)">
       <use xlink:href="#DejaVuSans-32"/>
       <use xlink:href="#DejaVuSans-2e" transform="translate(63.623047 0)"/>
       <use xlink:href="#DejaVuSans-35" transform="translate(95.410156 0)"/>
      </g>
     </g>
    </g>
    <g id="xtick_7">
     <g id="line2d_7">
      <g>
       <use xlink:href="#mec3170fad2" x="627.264378" y="384.48" style="stroke: #000000; stroke-width: 0.8"/>
      </g>
     </g>
     <g id="text_7">
      <!-- 3.0 -->
      <g transform="translate(619.312815 399.078438) scale(0.1 -0.1)">
       <defs>
        <path id="DejaVuSans-33" d="M 2597 2516 
Q 3050 2419 3304 2112 
Q 3559 1806 3559 1356 
Q 3559 666 3084 287 
Q 2609 -91 1734 -91 
Q 1441 -91 1130 -33 
Q 819 25 488 141 
L 488 750 
Q 750 597 1062 519 
Q 1375 441 1716 441 
Q 2309 441 2620 675 
Q 2931 909 2931 1356 
Q 2931 1769 2642 2001 
Q 2353 2234 1838 2234 
L 1294 2234 
L 1294 2753 
L 1863 2753 
Q 2328 2753 2575 2939 
Q 2822 3125 2822 3475 
Q 2822 3834 2567 4026 
Q 2313 4219 1838 4219 
Q 1578 4219 1281 4162 
Q 984 4106 628 3988 
L 628 4550 
Q 988 4650 1302 4700 
Q 1616 4750 1894 4750 
Q 2613 4750 3031 4423 
Q 3450 4097 3450 3541 
Q 3450 3153 3228 2886 
Q 3006 2619 2597 2516 
z
" transform="scale(0.015625)"/>
       </defs>
       <use xlink:href="#DejaVuSans-33"/>
       <use xlink:href="#DejaVuSans-2e" transform="translate(63.623047 0)"/>
       <use xlink:href="#DejaVuSans-30" transform="translate(95.410156 0)"/>
      </g>
     </g>
    </g>
    <g id="text_8">
     <!-- Radius $r$ -->
     <g transform="translate(348.45 412.756563) scale(0.1 -0.1)">
      <defs>
       <path id="DejaVuSans-52" d="M 2841 2188 
Q 3044 2119 3236 1894 
Q 3428 1669 3622 1275 
L 4263 0 
L 3584 0 
L 2988 1197 
Q 2756 1666 2539 1819 
Q 2322 1972 1947 1972 
L 1259 1972 
L 1259 0 
L 628 0 
L 628 4666 
L 2053 4666 
Q 2853 4666 3247 4331 
Q 3641 3997 3641 3322 
Q 3641 2881 3436 2590 
Q 3231 2300 2841 2188 
z
M 1259 4147 
L 1259 2491 
L 2053 2491 
Q 2509 2491 2742 2702 
Q 2975 2913 2975 3322 
Q 2975 3731 2742 3939 
Q 2509 4147 2053 4147 
L 1259 4147 
z
" transform="scale(0.015625)"/>
       <path id="DejaVuSans-61" d="M 2194 1759 
Q 1497 1759 1228 1600 
Q 959 1441 959 1056 
Q 959 750 1161 570 
Q 1363 391 1709 391 
Q 2188 391 2477 730 
Q 2766 1069 2766 1631 
L 2766 1759 
L 2194 1759 
z
M 3341 1997 
L 3341 0 
L 2766 0 
L 2766 531 
Q 2569 213 2275 61 
Q 1981 -91 1556 -91 
Q 1019 -91 701 211 
Q 384 513 384 1019 
Q 384 1609 779 1909 
Q 1175 2209 1959 2209 
L 2766 2209 
L 2766 2266 
Q 2766 2663 2505 2880 
Q 2244 3097 1772 3097 
Q 1472 3097 1187 3025 
Q 903 2953 641 2809 
L 641 3341 
Q 956 3463 1253 3523 
Q 1550 3584 1831 3584 
Q 2591 3584 2966 3190 
Q 3341 2797 3341 1997 
z
" transform="scale(0.015625)"/>
       <path id="DejaVuSans-64" d="M 2906 2969 
L 2906 4863 
L 3481 4863 
L 3481 0 
L 2906 0 
L 2906 525 
Q 2725 213 2448 61 
Q 2172 -91 1784 -91 
Q 1150 -91 751 415 
Q 353 922 353 1747 
Q 353 2572 751 3078 
Q 1150 3584 1784 3584 
Q 2172 3584 2448 3432 
Q 2725 3281 2906 2969 
z
M 947 1747 
Q 947 1113 1208 752 
Q 1469 391 1925 391 
Q 2381 391 2643 752 
Q 2906 1113 2906 1747 
Q 2906 2381 2643 2742 
Q 2381 3103 1925 3103 
Q 1469 3103 1208 2742 
Q 947 2381 947 1747 
z
" transform="scale(0.015625)"/>
       <path id="DejaVuSans-69" d="M 603 3500 
L 1178 3500 
L 1178 0 
L 603 0 
L 603 3500 
z
M 603 4863 
L 1178 4863 
L 1178 4134 
L 603 4134 
L 603 4863 
z
" transform="scale(0.015625)"/>
       <path id="DejaVuSans-75" d="M 544 1381 
L 544 3500 
L 1119 3500 
L 1119 1403 
Q 1119 906 1312 657 
Q 1506 409 1894 409 
Q 2359 409 2629 706 
Q 2900 1003 2900 1516 
L 2900 3500 
L 3475 3500 
L 3475 0 
L 2900 0 
L 2900 538 
Q 2691 219 2414 64 
Q 2138 -91 1772 -91 
Q 1169 -91 856 284 
Q 544 659 544 1381 
z
M 1991 3584 
L 1991 3584 
z
" transform="scale(0.015625)"/>
       <path id="DejaVuSans-73" d="M 2834 3397 
L 2834 2853 
Q 2591 2978 2328 3040 
Q 2066 3103 1784 3103 
Q 1356 3103 1142 2972 
Q 928 2841 928 2578 
Q 928 2378 1081 2264 
Q 1234 2150 1697 2047 
L 1894 2003 
Q 2506 1872 2764 1633 
Q 3022 1394 3022 966 
Q 3022 478 2636 193 
Q 2250 -91 1575 -91 
Q 1294 -91 989 -36 
Q 684 19 347 128 
L 347 722 
Q 666 556 975 473 
Q 1284 391 1588 391 
Q 1994 391 2212 530 
Q 2431 669 2431 922 
Q 2431 1156 2273 1281 
Q 2116 1406 1581 1522 
L 1381 1569 
Q 847 1681 609 1914 
Q 372 2147 372 2553 
Q 372 3047 722 3315 
Q 1072 3584 1716 3584 
Q 2034 3584 2315 3537 
Q 2597 3491 2834 3397 
z
" transform="scale(0.015625)"/>
       <path id="DejaVuSans-20" transform="scale(0.015625)"/>
       <path id="DejaVuSans-Oblique-72" d="M 2853 2969 
Q 2766 3016 2653 3041 
Q 2541 3066 2413 3066 
Q 1953 3066 1609 2717 
Q 1266 2369 1153 1784 
L 800 0 
L 225 0 
L 909 3500 
L 1484 3500 
L 1375 2956 
Q 1603 3259 1920 3421 
Q 2238 3584 2597 3584 
Q 2691 3584 2781 3573 
Q 2872 3563 2963 3538 
L 2853 2969 
z
" transform="scale(0.015625)"/>
      </defs>
      <use xlink:href="#DejaVuSans-52" transform="translate(0 0.015625)"/>
      <use xlink:href="#DejaVuSans-61" transform="translate(69.482422 0.015625)"/>
      <use xlink:href="#DejaVuSans-64" transform="translate(130.761719 0.015625)"/>
      <use xlink:href="#DejaVuSans-69" transform="translate(194.238281 0.015625)"/>
      <use xlink:href="#DejaVuSans-75" transform="translate(222.021484 0.015625)"/>
      <use xlink:href="#DejaVuSans-73" transform="translate(285.400391 0.015625)"/>
      <use xlink:href="#DejaVuSans-20" transform="translate(337.5 0.015625)"/>
      <use xlink:href="#DejaVuSans-Oblique-72" transform="translate(369.287109 0.015625)"/>
     </g>
    </g>
   </g>
   <g id="matplotlib.axis_2">
    <g id="ytick_1">
     <g id="line2d_8">
      <path d="M 90 384.48 
L 648 384.48 
" clip-path="url(#pac44b3d7e5)" style="fill: none; stroke-dasharray: 2.96,1.28; stroke-dashoffset: 0; stroke: #b0b0b0; stroke-opacity: 0.5; stroke-width: 0.8"/>
     </g>
     <g id="line2d_9">
      <defs>
       <path id="m14202245d0" d="M 0 0 
L -3.5 0 
" style="stroke: #000000; stroke-width: 0.8"/>
      </defs>
      <g>
       <use xlink:href="#m14202245d0" x="90" y="384.48" style="stroke: #000000; stroke-width: 0.8"/>
      </g>
     </g>
     <g id="text_9">
      <!-- 0.0 -->
      <g transform="translate(67.096875 388.279219) scale(0.1 -0.1)">
       <use xlink:href="#DejaVuSans-30"/>
       <use xlink:href="#DejaVuSans-2e" transform="translate(63.623047 0)"/>
       <use xlink:href="#DejaVuSans-30" transform="translate(95.410156 0)"/>
      </g>
     </g>
    </g>
    <g id="ytick_2">
     <g id="line2d_10">
      <path d="M 90 345.900527 
L 648 345.900527 
" clip-path="url(#pac44b3d7e5)" style="fill: none; stroke-dasharray: 2.96,1.28; stroke-dashoffset: 0; stroke: #b0b0b0; stroke-opacity: 0.5; stroke-width: 0.8"/>
     </g>
     <g id="line2d_11">
      <g>
       <use xlink:href="#m14202245d0" x="90" y="345.900527" style="stroke: #000000; stroke-width: 0.8"/>
      </g>
     </g>
     <g id="text_10">
      <!-- 0.2 -->
      <g transform="translate(67.096875 349.699746) scale(0.1 -0.1)">
       <use xlink:href="#DejaVuSans-30"/>
       <use xlink:href="#DejaVuSans-2e" transform="translate(63.623047 0)"/>
       <use xlink:href="#DejaVuSans-32" transform="translate(95.410156 0)"/>
      </g>
     </g>
    </g>
    <g id="ytick_3">
     <g id="line2d_12">
      <path d="M 90 307.321054 
L 648 307.321054 
" clip-path="url(#pac44b3d7e5)" style="fill: none; stroke-dasharray: 2.96,1.28; stroke-dashoffset: 0; stroke: #b0b0b0; stroke-opacity: 0.5; stroke-width: 0.8"/>
     </g>
     <g id="line2d_13">
      <g>
       <use xlink:href="#m14202245d0" x="90" y="307.321054" style="stroke: #000000; stroke-width: 0.8"/>
      </g>
     </g>
     <g id="text_11">
      <!-- 0.4 -->
      <g transform="translate(67.096875 311.120273) scale(0.1 -0.1)">
       <defs>
        <path id="DejaVuSans-34" d="M 2419 4116 
L 825 1625 
L 2419 1625 
L 2419 4116 
z
M 2253 4666 
L 3047 4666 
L 3047 1625 
L 3713 1625 
L 3713 1100 
L 3047 1100 
L 3047 0 
L 2419 0 
L 2419 1100 
L 313 1100 
L 313 1709 
L 2253 4666 
z
" transform="scale(0.015625)"/>
       </defs>
       <use xlink:href="#DejaVuSans-30"/>
       <use xlink:href="#DejaVuSans-2e" transform="translate(63.623047 0)"/>
       <use xlink:href="#DejaVuSans-34" transform="translate(95.410156 0)"/>
      </g>
     </g>
    </g>
    <g id="ytick_4">
     <g id="line2d_14">
      <path d="M 90 268.741581 
L 648 268.741581 
" clip-path="url(#pac44b3d7e5)" style="fill: none; stroke-dasharray: 2.96,1.28; stroke-dashoffset: 0; stroke: #b0b0b0; stroke-opacity: 0.5; stroke-width: 0.8"/>
     </g>
     <g id="line2d_15">
      <g>
       <use xlink:href="#m14202245d0" x="90" y="268.741581" style="stroke: #000000; stroke-width: 0.8"/>
      </g>
     </g>
     <g id="text_12">
      <!-- 0.6 -->
      <g transform="translate(67.096875 272.5408) scale(0.1 -0.1)">
       <defs>
        <path id="DejaVuSans-36" d="M 2113 2584 
Q 1688 2584 1439 2293 
Q 1191 2003 1191 1497 
Q 1191 994 1439 701 
Q 1688 409 2113 409 
Q 2538 409 2786 701 
Q 3034 994 3034 1497 
Q 3034 2003 2786 2293 
Q 2538 2584 2113 2584 
z
M 3366 4563 
L 3366 3988 
Q 3128 4100 2886 4159 
Q 2644 4219 2406 4219 
Q 1781 4219 1451 3797 
Q 1122 3375 1075 2522 
Q 1259 2794 1537 2939 
Q 1816 3084 2150 3084 
Q 2853 3084 3261 2657 
Q 3669 2231 3669 1497 
Q 3669 778 3244 343 
Q 2819 -91 2113 -91 
Q 1303 -91 875 529 
Q 447 1150 447 2328 
Q 447 3434 972 4092 
Q 1497 4750 2381 4750 
Q 2619 4750 2861 4703 
Q 3103 4656 3366 4563 
z
" transform="scale(0.015625)"/>
       </defs>
       <use xlink:href="#DejaVuSans-30"/>
       <use xlink:href="#DejaVuSans-2e" transform="translate(63.623047 0)"/>
       <use xlink:href="#DejaVuSans-36" transform="translate(95.410156 0)"/>
      </g>
     </g>
    </g>
    <g id="ytick_5">
     <g id="line2d_16">
      <path d="M 90 230.162108 
L 648 230.162108 
" clip-path="url(#pac44b3d7e5)" style="fill: none; stroke-dasharray: 2.96,1.28; stroke-dashoffset: 0; stroke: #b0b0b0; stroke-opacity: 0.5; stroke-width: 0.8"/>
     </g>
     <g id="line2d_17">
      <g>
       <use xlink:href="#m14202245d0" x="90" y="230.162108" style="stroke: #000000; stroke-width: 0.8"/>
      </g>
     </g>
     <g id="text_13">
      <!-- 0.8 -->
      <g transform="translate(67.096875 233.961327) scale(0.1 -0.1)">
       <defs>
        <path id="DejaVuSans-38" d="M 2034 2216 
Q 1584 2216 1326 1975 
Q 1069 1734 1069 1313 
Q 1069 891 1326 650 
Q 1584 409 2034 409 
Q 2484 409 2743 651 
Q 3003 894 3003 1313 
Q 3003 1734 2745 1975 
Q 2488 2216 2034 2216 
z
M 1403 2484 
Q 997 2584 770 2862 
Q 544 3141 544 3541 
Q 544 4100 942 4425 
Q 1341 4750 2034 4750 
Q 2731 4750 3128 4425 
Q 3525 4100 3525 3541 
Q 3525 3141 3298 2862 
Q 3072 2584 2669 2484 
Q 3125 2378 3379 2068 
Q 3634 1759 3634 1313 
Q 3634 634 3220 271 
Q 2806 -91 2034 -91 
Q 1263 -91 848 271 
Q 434 634 434 1313 
Q 434 1759 690 2068 
Q 947 2378 1403 2484 
z
M 1172 3481 
Q 1172 3119 1398 2916 
Q 1625 2713 2034 2713 
Q 2441 2713 2670 2916 
Q 2900 3119 2900 3481 
Q 2900 3844 2670 4047 
Q 2441 4250 2034 4250 
Q 1625 4250 1398 4047 
Q 1172 3844 1172 3481 
z
" transform="scale(0.015625)"/>
       </defs>
       <use xlink:href="#DejaVuSans-30"/>
       <use xlink:href="#DejaVuSans-2e" transform="translate(63.623047 0)"/>
       <use xlink:href="#DejaVuSans-38" transform="translate(95.410156 0)"/>
      </g>
     </g>
    </g>
    <g id="ytick_6">
     <g id="line2d_18">
      <path d="M 90 191.582635 
L 648 191.582635 
" clip-path="url(#pac44b3d7e5)" style="fill: none; stroke-dasharray: 2.96,1.28; stroke-dashoffset: 0; stroke: #b0b0b0; stroke-opacity: 0.5; stroke-width: 0.8"/>
     </g>
     <g id="line2d_19">
      <g>
       <use xlink:href="#m14202245d0" x="90" y="191.582635" style="stroke: #000000; stroke-width: 0.8"/>
      </g>
     </g>
     <g id="text_14">
      <!-- 1.0 -->
      <g transform="translate(67.096875 195.381854) scale(0.1 -0.1)">
       <use xlink:href="#DejaVuSans-31"/>
       <use xlink:href="#DejaVuSans-2e" transform="translate(63.623047 0)"/>
       <use xlink:href="#DejaVuSans-30" transform="translate(95.410156 0)"/>
      </g>
     </g>
    </g>
    <g id="ytick_7">
     <g id="line2d_20">
      <path d="M 90 153.003162 
L 648 153.003162 
" clip-path="url(#pac44b3d7e5)" style="fill: none; stroke-dasharray: 2.96,1.28; stroke-dashoffset: 0; stroke: #b0b0b0; stroke-opacity: 0.5; stroke-width: 0.8"/>
     </g>
     <g id="line2d_21">
      <g>
       <use xlink:href="#m14202245d0" x="90" y="153.003162" style="stroke: #000000; stroke-width: 0.8"/>
      </g>
     </g>
     <g id="text_15">
      <!-- 1.2 -->
      <g transform="translate(67.096875 156.80238) scale(0.1 -0.1)">
       <use xlink:href="#DejaVuSans-31"/>
       <use xlink:href="#DejaVuSans-2e" transform="translate(63.623047 0)"/>
       <use xlink:href="#DejaVuSans-32" transform="translate(95.410156 0)"/>
      </g>
     </g>
    </g>
    <g id="ytick_8">
     <g id="line2d_22">
      <path d="M 90 114.423689 
L 648 114.423689 
" clip-path="url(#pac44b3d7e5)" style="fill: none; stroke-dasharray: 2.96,1.28; stroke-dashoffset: 0; stroke: #b0b0b0; stroke-opacity: 0.5; stroke-width: 0.8"/>
     </g>
     <g id="line2d_23">
      <g>
       <use xlink:href="#m14202245d0" x="90" y="114.423689" style="stroke: #000000; stroke-width: 0.8"/>
      </g>
     </g>
     <g id="text_16">
      <!-- 1.4 -->
      <g transform="translate(67.096875 118.222907) scale(0.1 -0.1)">
       <use xlink:href="#DejaVuSans-31"/>
       <use xlink:href="#DejaVuSans-2e" transform="translate(63.623047 0)"/>
       <use xlink:href="#DejaVuSans-34" transform="translate(95.410156 0)"/>
      </g>
     </g>
    </g>
    <g id="ytick_9">
     <g id="line2d_24">
      <path d="M 90 75.844216 
L 648 75.844216 
" clip-path="url(#pac44b3d7e5)" style="fill: none; stroke-dasharray: 2.96,1.28; stroke-dashoffset: 0; stroke: #b0b0b0; stroke-opacity: 0.5; stroke-width: 0.8"/>
     </g>
     <g id="line2d_25">
      <g>
       <use xlink:href="#m14202245d0" x="90" y="75.844216" style="stroke: #000000; stroke-width: 0.8"/>
      </g>
     </g>
     <g id="text_17">
      <!-- 1.6 -->
      <g transform="translate(67.096875 79.643434) scale(0.1 -0.1)">
       <use xlink:href="#DejaVuSans-31"/>
       <use xlink:href="#DejaVuSans-2e" transform="translate(63.623047 0)"/>
       <use xlink:href="#DejaVuSans-36" transform="translate(95.410156 0)"/>
      </g>
     </g>
    </g>
    <g id="text_18">
     <!-- Radial Probability Density -->
     <g transform="translate(61.017187 282.217812) rotate(-90) scale(0.1 -0.1)">
      <defs>
       <path id="DejaVuSans-6c" d="M 603 4863 
L 1178 4863 
L 1178 0 
L 603 0 
L 603 4863 
z
" transform="scale(0.015625)"/>
       <path id="DejaVuSans-50" d="M 1259 4147 
L 1259 2394 
L 2053 2394 
Q 2494 2394 2734 2622 
Q 2975 2850 2975 3272 
Q 2975 3691 2734 3919 
Q 2494 4147 2053 4147 
L 1259 4147 
z
M 628 4666 
L 2053 4666 
Q 2838 4666 3239 4311 
Q 3641 3956 3641 3272 
Q 3641 2581 3239 2228 
Q 2838 1875 2053 1875 
L 1259 1875 
L 1259 0 
L 628 0 
L 628 4666 
z
" transform="scale(0.015625)"/>
       <path id="DejaVuSans-72" d="M 2631 2963 
Q 2534 3019 2420 3045 
Q 2306 3072 2169 3072 
Q 1681 3072 1420 2755 
Q 1159 2438 1159 1844 
L 1159 0 
L 581 0 
L 581 3500 
L 1159 3500 
L 1159 2956 
Q 1341 3275 1631 3429 
Q 1922 3584 2338 3584 
Q 2397 3584 2469 3576 
Q 2541 3569 2628 3553 
L 2631 2963 
z
" transform="scale(0.015625)"/>
       <path id="DejaVuSans-6f" d="M 1959 3097 
Q 1497 3097 1228 2736 
Q 959 2375 959 1747 
Q 959 1119 1226 758 
Q 1494 397 1959 397 
Q 2419 397 2687 759 
Q 2956 1122 2956 1747 
Q 2956 2369 2687 2733 
Q 2419 3097 1959 3097 
z
M 1959 3584 
Q 2709 3584 3137 3096 
Q 3566 2609 3566 1747 
Q 3566 888 3137 398 
Q 2709 -91 1959 -91 
Q 1206 -91 779 398 
Q 353 888 353 1747 
Q 353 2609 779 3096 
Q 1206 3584 1959 3584 
z
" transform="scale(0.015625)"/>
       <path id="DejaVuSans-62" d="M 3116 1747 
Q 3116 2381 2855 2742 
Q 2594 3103 2138 3103 
Q 1681 3103 1420 2742 
Q 1159 2381 1159 1747 
Q 1159 1113 1420 752 
Q 1681 391 2138 391 
Q 2594 391 2855 752 
Q 3116 1113 3116 1747 
z
M 1159 2969 
Q 1341 3281 1617 3432 
Q 1894 3584 2278 3584 
Q 2916 3584 3314 3078 
Q 3713 2572 3713 1747 
Q 3713 922 3314 415 
Q 2916 -91 2278 -91 
Q 1894 -91 1617 61 
Q 1341 213 1159 525 
L 1159 0 
L 581 0 
L 581 4863 
L 1159 4863 
L 1159 2969 
z
" transform="scale(0.015625)"/>
       <path id="DejaVuSans-74" d="M 1172 4494 
L 1172 3500 
L 2356 3500 
L 2356 3053 
L 1172 3053 
L 1172 1153 
Q 1172 725 1289 603 
Q 1406 481 1766 481 
L 2356 481 
L 2356 0 
L 1766 0 
Q 1100 0 847 248 
Q 594 497 594 1153 
L 594 3053 
L 172 3053 
L 172 3500 
L 594 3500 
L 594 4494 
L 1172 4494 
z
" transform="scale(0.015625)"/>
       <path id="DejaVuSans-79" d="M 2059 -325 
Q 1816 -950 1584 -1140 
Q 1353 -1331 966 -1331 
L 506 -1331 
L 506 -850 
L 844 -850 
Q 1081 -850 1212 -737 
Q 1344 -625 1503 -206 
L 1606 56 
L 191 3500 
L 800 3500 
L 1894 763 
L 2988 3500 
L 3597 3500 
L 2059 -325 
z
" transform="scale(0.015625)"/>
       <path id="DejaVuSans-44" d="M 1259 4147 
L 1259 519 
L 2022 519 
Q 2988 519 3436 956 
Q 3884 1394 3884 2338 
Q 3884 3275 3436 3711 
Q 2988 4147 2022 4147 
L 1259 4147 
z
M 628 4666 
L 1925 4666 
Q 3281 4666 3915 4102 
Q 4550 3538 4550 2338 
Q 4550 1131 3912 565 
Q 3275 0 1925 0 
L 628 0 
L 628 4666 
z
" transform="scale(0.015625)"/>
       <path id="DejaVuSans-65" d="M 3597 1894 
L 3597 1613 
L 953 1613 
Q 991 1019 1311 708 
Q 1631 397 2203 397 
Q 2534 397 2845 478 
Q 3156 559 3463 722 
L 3463 178 
Q 3153 47 2828 -22 
Q 2503 -91 2169 -91 
Q 1331 -91 842 396 
Q 353 884 353 1716 
Q 353 2575 817 3079 
Q 1281 3584 2069 3584 
Q 2775 3584 3186 3129 
Q 3597 2675 3597 1894 
z
M 3022 2063 
Q 3016 2534 2758 2815 
Q 2500 3097 2075 3097 
Q 1594 3097 1305 2825 
Q 1016 2553 972 2059 
L 3022 2063 
z
" transform="scale(0.015625)"/>
       <path id="DejaVuSans-6e" d="M 3513 2113 
L 3513 0 
L 2938 0 
L 2938 2094 
Q 2938 2591 2744 2837 
Q 2550 3084 2163 3084 
Q 1697 3084 1428 2787 
Q 1159 2491 1159 1978 
L 1159 0 
L 581 0 
L 581 3500 
L 1159 3500 
L 1159 2956 
Q 1366 3272 1645 3428 
Q 1925 3584 2291 3584 
Q 2894 3584 3203 3211 
Q 3513 2838 3513 2113 
z
" transform="scale(0.015625)"/>
      </defs>
      <use xlink:href="#DejaVuSans-52"/>
      <use xlink:href="#DejaVuSans-61" transform="translate(67.232422 0)"/>
      <use xlink:href="#DejaVuSans-64" transform="translate(128.511719 0)"/>
      <use xlink:href="#DejaVuSans-69" transform="translate(191.988281 0)"/>
      <use xlink:href="#DejaVuSans-61" transform="translate(219.771484 0)"/>
      <use xlink:href="#DejaVuSans-6c" transform="translate(281.050781 0)"/>
      <use xlink:href="#DejaVuSans-20" transform="translate(308.833984 0)"/>
      <use xlink:href="#DejaVuSans-50" transform="translate(340.621094 0)"/>
      <use xlink:href="#DejaVuSans-72" transform="translate(399.173828 0)"/>
      <use xlink:href="#DejaVuSans-6f" transform="translate(438.037109 0)"/>
      <use xlink:href="#DejaVuSans-62" transform="translate(499.21875 0)"/>
      <use xlink:href="#DejaVuSans-61" transform="translate(562.695312 0)"/>
      <use xlink:href="#DejaVuSans-62" transform="translate(623.974609 0)"/>
      <use xlink:href="#DejaVuSans-69" transform="translate(687.451172 0)"/>
      <use xlink:href="#DejaVuSans-6c" transform="translate(715.234375 0)"/>
      <use xlink:href="#DejaVuSans-69" transform="translate(743.017578 0)"/>
      <use xlink:href="#DejaVuSans-74" transform="translate(770.800781 0)"/>
      <use xlink:href="#DejaVuSans-79" transform="translate(810.009766 0)"/>
      <use xlink:href="#DejaVuSans-20" transform="translate(869.189453 0)"/>
      <use xlink:href="#DejaVuSans-44" transform="translate(900.976562 0)"/>
      <use xlink:href="#DejaVuSans-65" transform="translate(977.978516 0)"/>
      <use xlink:href="#DejaVuSans-6e" transform="translate(1039.501953 0)"/>
      <use xlink:href="#DejaVuSans-73" transform="translate(1102.880859 0)"/>
      <use xlink:href="#DejaVuSans-69" transform="translate(1154.980469 0)"/>
      <use xlink:href="#DejaVuSans-74" transform="translate(1182.763672 0)"/>
      <use xlink:href="#DejaVuSans-79" transform="translate(1221.972656 0)"/>
     </g>
    </g>
   </g>
   <g id="line2d_26">
    <path d="M 115.363636 384.48 
L 117.912746 380.229205 
L 120.461855 368.934583 
L 123.010964 352.501571 
L 125.560073 332.503524 
L 128.109182 310.22955 
L 138.305619 216.393424 
L 140.854728 194.756885 
L 143.403837 174.596717 
L 145.952947 156.116231 
L 148.502056 139.447524 
L 151.051165 124.664386 
L 153.600274 111.793318 
L 156.149383 100.822934 
L 158.698492 91.711925 
L 161.247602 84.395808 
L 163.796711 78.792597 
L 166.34582 74.807554 
L 168.894929 72.337147 
L 171.444038 71.272322 
L 173.993148 71.501184 
L 176.542257 72.911182 
L 179.091366 75.390855 
L 181.640475 78.831221 
L 184.189584 83.126854 
L 186.738693 88.176694 
L 189.287803 93.884648 
L 191.836912 100.160001 
L 194.386021 106.917673 
L 199.484239 121.568564 
L 204.582458 137.27221 
L 214.778894 170.021034 
L 222.426222 194.402692 
L 227.52444 210.106088 
L 232.622659 225.172476 
L 237.720877 239.486824 
L 242.819095 252.97279 
L 247.917314 265.58579 
L 253.015532 277.306848 
L 258.113751 288.137258 
L 263.211969 298.093992 
L 268.310187 307.205824 
L 273.408406 315.510079 
L 278.506624 323.049965 
L 283.604842 329.872393 
L 288.703061 336.026231 
L 293.801279 341.560931 
L 298.899497 346.525466 
L 303.997716 350.967519 
L 309.095934 354.932905 
L 314.194153 358.465153 
L 319.292371 361.605242 
L 324.390589 364.391445 
L 329.488808 366.859264 
L 334.587026 369.041438 
L 339.685244 370.967997 
L 344.783463 372.666356 
L 349.881681 374.161443 
L 354.979899 375.475834 
L 362.627227 377.152633 
L 370.274555 378.528572 
L 377.921882 379.654833 
L 385.56921 380.574593 
L 395.765646 381.541478 
L 405.962083 382.27483 
L 418.707629 382.945074 
L 434.002284 383.490884 
L 451.846048 383.891047 
L 474.788031 384.180069 
L 510.47556 384.376663 
L 576.752398 384.466297 
L 622.636364 384.4767 
L 622.636364 384.4767 
" clip-path="url(#pac44b3d7e5)" style="fill: none; stroke: #ff0000; stroke-width: 2.5; stroke-linecap: square"/>
   </g>
   <g id="patch_203">
    <path d="M 90 384.48 
L 90 51.84 
" style="fill: none; stroke: #000000; stroke-width: 0.8; stroke-linejoin: miter; stroke-linecap: square"/>
   </g>
   <g id="patch_204">
    <path d="M 648 384.48 
L 648 51.84 
" style="fill: none; stroke: #000000; stroke-width: 0.8; stroke-linejoin: miter; stroke-linecap: square"/>
   </g>
   <g id="patch_205">
    <path d="M 90 384.48 
L 648 384.48 
" style="fill: none; stroke: #000000; stroke-width: 0.8; stroke-linejoin: miter; stroke-linecap: square"/>
   </g>
   <g id="patch_206">
    <path d="M 90 51.84 
L 648 51.84 
" style="fill: none; stroke: #000000; stroke-width: 0.8; stroke-linejoin: miter; stroke-linecap: square"/>
   </g>
   <g id="text_19">
    <!-- Radial Distribution Verification ($\theta=3.0$) -->
    <g transform="translate(250.14 45.84) scale(0.12 -0.12)">
     <defs>
      <path id="DejaVuSans-56" d="M 1831 0 
L 50 4666 
L 709 4666 
L 2188 738 
L 3669 4666 
L 4325 4666 
L 2547 0 
L 1831 0 
z
" transform="scale(0.015625)"/>
      <path id="DejaVuSans-66" d="M 2375 4863 
L 2375 4384 
L 1825 4384 
Q 1516 4384 1395 4259 
Q 1275 4134 1275 3809 
L 1275 3500 
L 2222 3500 
L 2222 3053 
L 1275 3053 
L 1275 0 
L 697 0 
L 697 3053 
L 147 3053 
L 147 3500 
L 697 3500 
L 697 3744 
Q 697 4328 969 4595 
Q 1241 4863 1831 4863 
L 2375 4863 
z
" transform="scale(0.015625)"/>
      <path id="DejaVuSans-63" d="M 3122 3366 
L 3122 2828 
Q 2878 2963 2633 3030 
Q 2388 3097 2138 3097 
Q 1578 3097 1268 2742 
Q 959 2388 959 1747 
Q 959 1106 1268 751 
Q 1578 397 2138 397 
Q 2388 397 2633 464 
Q 2878 531 3122 666 
L 3122 134 
Q 2881 22 2623 -34 
Q 2366 -91 2075 -91 
Q 1284 -91 818 406 
Q 353 903 353 1747 
Q 353 2603 823 3093 
Q 1294 3584 2113 3584 
Q 2378 3584 2631 3529 
Q 2884 3475 3122 3366 
z
" transform="scale(0.015625)"/>
      <path id="DejaVuSans-28" d="M 1984 4856 
Q 1566 4138 1362 3434 
Q 1159 2731 1159 2009 
Q 1159 1288 1364 580 
Q 1569 -128 1984 -844 
L 1484 -844 
Q 1016 -109 783 600 
Q 550 1309 550 2009 
Q 550 2706 781 3412 
Q 1013 4119 1484 4856 
L 1984 4856 
z
" transform="scale(0.015625)"/>
      <path id="DejaVuSans-Oblique-3b8" d="M 2913 2219 
L 925 2219 
Q 791 1284 928 888 
Q 1100 400 1566 400 
Q 2034 400 2391 891 
Q 2703 1322 2913 2219 
z
M 3009 2750 
Q 3094 3638 2984 3950 
Q 2813 4444 2353 4444 
Q 1875 4444 1525 3956 
Q 1250 3563 1034 2750 
L 3009 2750 
z
M 2444 4913 
Q 3194 4913 3494 4250 
Q 3794 3591 3566 2422 
Q 3341 1256 2781 594 
Q 2225 -72 1475 -72 
Q 722 -72 425 594 
Q 128 1256 353 2422 
Q 581 3591 1134 4250 
Q 1691 4913 2444 4913 
z
" transform="scale(0.015625)"/>
      <path id="DejaVuSans-3d" d="M 678 2906 
L 4684 2906 
L 4684 2381 
L 678 2381 
L 678 2906 
z
M 678 1631 
L 4684 1631 
L 4684 1100 
L 678 1100 
L 678 1631 
z
" transform="scale(0.015625)"/>
      <path id="DejaVuSans-29" d="M 513 4856 
L 1013 4856 
Q 1481 4119 1714 3412 
Q 1947 2706 1947 2009 
Q 1947 1309 1714 600 
Q 1481 -109 1013 -844 
L 513 -844 
Q 928 -128 1133 580 
Q 1338 1288 1338 2009 
Q 1338 2731 1133 3434 
Q 928 4138 513 4856 
z
" transform="scale(0.015625)"/>
     </defs>
     <use xlink:href="#DejaVuSans-52" transform="translate(0 0.234375)"/>
     <use xlink:href="#DejaVuSans-61" transform="translate(69.482422 0.234375)"/>
     <use xlink:href="#DejaVuSans-64" transform="translate(130.761719 0.234375)"/>
     <use xlink:href="#DejaVuSans-69" transform="translate(194.238281 0.234375)"/>
     <use xlink:href="#DejaVuSans-61" transform="translate(222.021484 0.234375)"/>
     <use xlink:href="#DejaVuSans-6c" transform="translate(283.300781 0.234375)"/>
     <use xlink:href="#DejaVuSans-20" transform="translate(311.083984 0.234375)"/>
     <use xlink:href="#DejaVuSans-44" transform="translate(342.871094 0.234375)"/>
     <use xlink:href="#DejaVuSans-69" transform="translate(419.873047 0.234375)"/>
     <use xlink:href="#DejaVuSans-73" transform="translate(447.65625 0.234375)"/>
     <use xlink:href="#DejaVuSans-74" transform="translate(499.755859 0.234375)"/>
     <use xlink:href="#DejaVuSans-72" transform="translate(538.964844 0.234375)"/>
     <use xlink:href="#DejaVuSans-69" transform="translate(580.078125 0.234375)"/>
     <use xlink:href="#DejaVuSans-62" transform="translate(607.861328 0.234375)"/>
     <use xlink:href="#DejaVuSans-75" transform="translate(671.337891 0.234375)"/>
     <use xlink:href="#DejaVuSans-74" transform="translate(734.716797 0.234375)"/>
     <use xlink:href="#DejaVuSans-69" transform="translate(773.925781 0.234375)"/>
     <use xlink:href="#DejaVuSans-6f" transform="translate(801.708984 0.234375)"/>
     <use xlink:href="#DejaVuSans-6e" transform="translate(862.890625 0.234375)"/>
     <use xlink:href="#DejaVuSans-20" transform="translate(926.269531 0.234375)"/>
     <use xlink:href="#DejaVuSans-56" transform="translate(958.056641 0.234375)"/>
     <use xlink:href="#DejaVuSans-65" transform="translate(1026.464844 0.234375)"/>
     <use xlink:href="#DejaVuSans-72" transform="translate(1087.988281 0.234375)"/>
     <use xlink:href="#DejaVuSans-69" transform="translate(1129.101562 0.234375)"/>
     <use xlink:href="#DejaVuSans-66" transform="translate(1156.884766 0.234375)"/>
     <use xlink:href="#DejaVuSans-69" transform="translate(1192.089844 0.234375)"/>
     <use xlink:href="#DejaVuSans-63" transform="translate(1219.873047 0.234375)"/>
     <use xlink:href="#DejaVuSans-61" transform="translate(1274.853516 0.234375)"/>
     <use xlink:href="#DejaVuSans-74" transform="translate(1336.132812 0.234375)"/>
     <use xlink:href="#DejaVuSans-69" transform="translate(1375.341797 0.234375)"/>
     <use xlink:href="#DejaVuSans-6f" transform="translate(1403.125 0.234375)"/>
     <use xlink:href="#DejaVuSans-6e" transform="translate(1464.306641 0.234375)"/>
     <use xlink:href="#DejaVuSans-20" transform="translate(1527.685547 0.234375)"/>
     <use xlink:href="#DejaVuSans-28" transform="translate(1559.472656 0.234375)"/>
     <use xlink:href="#DejaVuSans-Oblique-3b8" transform="translate(1598.486328 0.234375)"/>
     <use xlink:href="#DejaVuSans-3d" transform="translate(1679.150391 0.234375)"/>
     <use xlink:href="#DejaVuSans-33" transform="translate(1782.421875 0.234375)"/>
     <use xlink:href="#DejaVuSans-2e" transform="translate(1846.044922 0.234375)"/>
     <use xlink:href="#DejaVuSans-30" transform="translate(1877.832031 0.234375)"/>
     <use xlink:href="#DejaVuSans-29" transform="translate(1941.455078 0.234375)"/>
    </g>
   </g>
   <g id="legend_1">
    <g id="patch_207">
     <path d="M 500.2 91.018125 
L 641 91.018125 
Q 643 91.018125 643 89.018125 
L 643 58.84 
Q 643 56.84 641 56.84 
L 500.2 56.84 
Q 498.2 56.84 498.2 58.84 
L 498.2 89.018125 
Q 498.2 91.018125 500.2 91.018125 
z
" style="fill: #ffffff; opacity: 0.8; stroke: #cccccc; stroke-linejoin: miter"/>
    </g>
    <g id="patch_208">
     <path d="M 502.2 68.438438 
L 522.2 68.438438 
L 522.2 61.438438 
L 502.2 61.438438 
z
" style="fill: #87ceeb; opacity: 0.6; stroke: #000000; stroke-linejoin: miter"/>
    </g>
    <g id="text_20">
     <!-- Metropolis Samples -->
     <g transform="translate(530.2 68.438438) scale(0.1 -0.1)">
      <defs>
       <path id="DejaVuSans-4d" d="M 628 4666 
L 1569 4666 
L 2759 1491 
L 3956 4666 
L 4897 4666 
L 4897 0 
L 4281 0 
L 4281 4097 
L 3078 897 
L 2444 897 
L 1241 4097 
L 1241 0 
L 628 0 
L 628 4666 
z
" transform="scale(0.015625)"/>
       <path id="DejaVuSans-70" d="M 1159 525 
L 1159 -1331 
L 581 -1331 
L 581 3500 
L 1159 3500 
L 1159 2969 
Q 1341 3281 1617 3432 
Q 1894 3584 2278 3584 
Q 2916 3584 3314 3078 
Q 3713 2572 3713 1747 
Q 3713 922 3314 415 
Q 2916 -91 2278 -91 
Q 1894 -91 1617 61 
Q 1341 213 1159 525 
z
M 3116 1747 
Q 3116 2381 2855 2742 
Q 2594 3103 2138 3103 
Q 1681 3103 1420 2742 
Q 1159 2381 1159 1747 
Q 1159 1113 1420 752 
Q 1681 391 2138 391 
Q 2594 391 2855 752 
Q 3116 1113 3116 1747 
z
" transform="scale(0.015625)"/>
       <path id="DejaVuSans-53" d="M 3425 4513 
L 3425 3897 
Q 3066 4069 2747 4153 
Q 2428 4238 2131 4238 
Q 1616 4238 1336 4038 
Q 1056 3838 1056 3469 
Q 1056 3159 1242 3001 
Q 1428 2844 1947 2747 
L 2328 2669 
Q 3034 2534 3370 2195 
Q 3706 1856 3706 1288 
Q 3706 609 3251 259 
Q 2797 -91 1919 -91 
Q 1588 -91 1214 -16 
Q 841 59 441 206 
L 441 856 
Q 825 641 1194 531 
Q 1563 422 1919 422 
Q 2459 422 2753 634 
Q 3047 847 3047 1241 
Q 3047 1584 2836 1778 
Q 2625 1972 2144 2069 
L 1759 2144 
Q 1053 2284 737 2584 
Q 422 2884 422 3419 
Q 422 4038 858 4394 
Q 1294 4750 2059 4750 
Q 2388 4750 2728 4690 
Q 3069 4631 3425 4513 
z
" transform="scale(0.015625)"/>
       <path id="DejaVuSans-6d" d="M 3328 2828 
Q 3544 3216 3844 3400 
Q 4144 3584 4550 3584 
Q 5097 3584 5394 3201 
Q 5691 2819 5691 2113 
L 5691 0 
L 5113 0 
L 5113 2094 
Q 5113 2597 4934 2840 
Q 4756 3084 4391 3084 
Q 3944 3084 3684 2787 
Q 3425 2491 3425 1978 
L 3425 0 
L 2847 0 
L 2847 2094 
Q 2847 2600 2669 2842 
Q 2491 3084 2119 3084 
Q 1678 3084 1418 2786 
Q 1159 2488 1159 1978 
L 1159 0 
L 581 0 
L 581 3500 
L 1159 3500 
L 1159 2956 
Q 1356 3278 1631 3431 
Q 1906 3584 2284 3584 
Q 2666 3584 2933 3390 
Q 3200 3197 3328 2828 
z
" transform="scale(0.015625)"/>
      </defs>
      <use xlink:href="#DejaVuSans-4d"/>
      <use xlink:href="#DejaVuSans-65" transform="translate(86.279297 0)"/>
      <use xlink:href="#DejaVuSans-74" transform="translate(147.802734 0)"/>
      <use xlink:href="#DejaVuSans-72" transform="translate(187.011719 0)"/>
      <use xlink:href="#DejaVuSans-6f" transform="translate(225.875 0)"/>
      <use xlink:href="#DejaVuSans-70" transform="translate(287.056641 0)"/>
      <use xlink:href="#DejaVuSans-6f" transform="translate(350.533203 0)"/>
      <use xlink:href="#DejaVuSans-6c" transform="translate(411.714844 0)"/>
      <use xlink:href="#DejaVuSans-69" transform="translate(439.498047 0)"/>
      <use xlink:href="#DejaVuSans-73" transform="translate(467.28125 0)"/>
      <use xlink:href="#DejaVuSans-20" transform="translate(519.380859 0)"/>
      <use xlink:href="#DejaVuSans-53" transform="translate(551.167969 0)"/>
      <use xlink:href="#DejaVuSans-61" transform="translate(614.644531 0)"/>
      <use xlink:href="#DejaVuSans-6d" transform="translate(675.923828 0)"/>
      <use xlink:href="#DejaVuSans-70" transform="translate(773.335938 0)"/>
      <use xlink:href="#DejaVuSans-6c" transform="translate(836.8125 0)"/>
      <use xlink:href="#DejaVuSans-65" transform="translate(864.595703 0)"/>
      <use xlink:href="#DejaVuSans-73" transform="translate(926.119141 0)"/>
     </g>
    </g>
    <g id="line2d_27">
     <path d="M 502.2 81.118125 
L 512.2 81.118125 
L 522.2 81.118125 
" style="fill: none; stroke: #ff0000; stroke-width: 2.5; stroke-linecap: square"/>
    </g>
    <g id="text_21">
     <!-- Analytical $P(r) \propto r^2 |\psi|^2$ -->
     <g transform="translate(530.2 84.618125) scale(0.1 -0.1)">
      <defs>
       <path id="DejaVuSans-41" d="M 2188 4044 
L 1331 1722 
L 3047 1722 
L 2188 4044 
z
M 1831 4666 
L 2547 4666 
L 4325 0 
L 3669 0 
L 3244 1197 
L 1141 1197 
L 716 0 
L 50 0 
L 1831 4666 
z
" transform="scale(0.015625)"/>
       <path id="DejaVuSans-Oblique-50" d="M 1081 4666 
L 2541 4666 
Q 3178 4666 3512 4369 
Q 3847 4072 3847 3500 
Q 3847 2731 3353 2303 
Q 2859 1875 1966 1875 
L 1172 1875 
L 806 0 
L 172 0 
L 1081 4666 
z
M 1613 4147 
L 1275 2394 
L 2069 2394 
Q 2606 2394 2893 2669 
Q 3181 2944 3181 3456 
Q 3181 3784 2986 3965 
Q 2791 4147 2438 4147 
L 1613 4147 
z
" transform="scale(0.015625)"/>
       <path id="DejaVuSans-221d" d="M 1647 1134 
Q 2163 1134 2472 1884 
Q 2075 2703 1647 2703 
Q 1334 2703 1175 2478 
Q 1006 2238 1006 1919 
Q 1006 1569 1175 1353 
Q 1350 1134 1647 1134 
z
M 3884 1128 
L 3884 716 
L 3644 716 
Q 3416 716 3247 809 
Q 3078 894 2916 1091 
Q 2819 1203 2666 1466 
Q 2456 1091 2272 925 
Q 2044 725 1681 725 
Q 1259 725 981 1041 
Q 688 1372 688 1919 
Q 688 2444 981 2800 
Q 1241 3116 1688 3116 
Q 1916 3116 2084 3022 
Q 2281 2919 2416 2741 
Q 2541 2581 2666 2366 
Q 2875 2741 3059 2906 
Q 3288 3106 3650 3106 
L 3884 3106 
L 3884 2697 
L 3684 2697 
Q 3222 2697 2859 1947 
Q 3256 1128 3684 1128 
L 3884 1128 
z
" transform="scale(0.015625)"/>
       <path id="DejaVuSans-7c" d="M 1344 4891 
L 1344 -1509 
L 813 -1509 
L 813 4891 
L 1344 4891 
z
" transform="scale(0.015625)"/>
       <path id="DejaVuSans-Oblique-3c8" d="M 1591 -78 
Q 891 38 616 341 
Q 278 713 425 1472 
L 819 3500 
L 1400 3500 
L 1009 1494 
Q 900 922 1119 684 
Q 1313 478 1691 434 
L 2284 3500 
L 2856 3500 
L 2263 438 
Q 2681 481 2928 688 
Q 3247 950 3353 1497 
L 3741 3500 
L 4322 3500 
L 3928 1475 
Q 3775 688 3300 344 
Q 2872 34 2163 -75 
L 1919 -1331 
L 1347 -1331 
L 1591 -78 
z
" transform="scale(0.015625)"/>
      </defs>
      <use xlink:href="#DejaVuSans-41" transform="translate(0 0.765625)"/>
      <use xlink:href="#DejaVuSans-6e" transform="translate(68.408203 0.765625)"/>
      <use xlink:href="#DejaVuSans-61" transform="translate(131.787109 0.765625)"/>
      <use xlink:href="#DejaVuSans-6c" transform="translate(193.066406 0.765625)"/>
      <use xlink:href="#DejaVuSans-79" transform="translate(220.849609 0.765625)"/>
      <use xlink:href="#DejaVuSans-74" transform="translate(280.029297 0.765625)"/>
      <use xlink:href="#DejaVuSans-69" transform="translate(319.238281 0.765625)"/>
      <use xlink:href="#DejaVuSans-63" transform="translate(347.021484 0.765625)"/>
      <use xlink:href="#DejaVuSans-61" transform="translate(402.001953 0.765625)"/>
      <use xlink:href="#DejaVuSans-6c" transform="translate(463.28125 0.765625)"/>
      <use xlink:href="#DejaVuSans-20" transform="translate(491.064453 0.765625)"/>
      <use xlink:href="#DejaVuSans-Oblique-50" transform="translate(522.851562 0.765625)"/>
      <use xlink:href="#DejaVuSans-28" transform="translate(583.154297 0.765625)"/>
      <use xlink:href="#DejaVuSans-Oblique-72" transform="translate(622.167969 0.765625)"/>
      <use xlink:href="#DejaVuSans-29" transform="translate(663.28125 0.765625)"/>
      <use xlink:href="#DejaVuSans-221d" transform="translate(721.777344 0.765625)"/>
      <use xlink:href="#DejaVuSans-Oblique-72" transform="translate(812.695312 0.765625)"/>
      <use xlink:href="#DejaVuSans-32" transform="translate(858.45849 39.046875) scale(0.7)"/>
      <use xlink:href="#DejaVuSans-7c" transform="translate(905.728997 0.765625)"/>
      <use xlink:href="#DejaVuSans-Oblique-3c8" transform="translate(939.420404 0.765625)"/>
      <use xlink:href="#DejaVuSans-7c" transform="translate(1005.387201 0.765625)"/>
      <use xlink:href="#DejaVuSans-32" transform="translate(1040.035638 39.046875) scale(0.7)"/>
     </g>
    </g>
   </g>
  </g>
 </g>
 <defs>
  <clipPath id="pac44b3d7e5">
   <rect x="90" y="51.84" width="558" height="332.64"/>
  </clipPath>
 </defs>
</svg>
